<svg xmlns="http://www.w3.org/2000/svg" width="16" height="16" version="1.1"><defs>
<linearGradient id="ucPurpleBlue" x1="0%" y1="0%" x2="100%" y2="100%">
  <stop offset="0%" style="stop-color:#B794F4;stop-opacity:1"/>
  <stop offset="100%" style="stop-color:#4299E1;stop-opacity:1"/>
</linearGradient>
</defs>
 <path style="fill:#444444" d="M 3.5117,1.8123 2.8379,3.8514 0.80078,4.5232 2.8379,5.1971 3.5117,7.2361 4.1855,5.1971 6.2246,4.5232 4.1855,3.8514 Z M 10.547,1.7674 10.346,2.3787 9.7344,2.5818 10.346,2.783 10.547,3.3943 10.75,2.783 11.361,2.5818 10.75,2.3787 Z M 7.4922,0.865 7.0898,2.0877 5.8652,2.492 7.0898,2.8963 7.4922,4.1189 7.8965,2.8963 9.1211,2.492 7.8965,2.0877 Z M 13.646,3 3,13.646 4.3535,15 15,4.3535 Z"/>
</svg>
