<svg xmlns="http://www.w3.org/2000/svg" width="16" height="16" version="1.1"><defs>
<linearGradient id="ucPurpleBlue" x1="0%" y1="0%" x2="100%" y2="100%">
  <stop offset="0%" style="stop-color:#B794F4;stop-opacity:1"/>
  <stop offset="100%" style="stop-color:#4299E1;stop-opacity:1"/>
</linearGradient>
</defs>
 <path style="fill:#444444;opacity:.35" d="M 1.5,2.5 H 14.5 L 11,9 13.5,14.5 3.5,12.5 Z"/>
 <path style="fill:#444444" d="M 1.5,2 A 0.50005,0.50005 0 0 0 1.0098,2.5977 L 3.0098,12.598 A 0.50005,0.50005 0 0 0 3.4023,12.99 L 13.402,14.99 A 0.50005,0.50005 0 0 0 13.955,14.293 L 11.559,9.0195 14.939,2.7363 A 0.50005,0.50005 0 0 0 14.5,2 Z M 2.1094,3 H 13.664 L 10.561,8.7637 A 0.50005,0.50005 0 0 0 10.545,9.207 L 12.641,13.818 3.9258,12.074 Z"/>
</svg>
