<svg xmlns="http://www.w3.org/2000/svg" width="16" height="16" version="1.1"><defs>
<linearGradient id="ucPurpleBlue" x1="0%" y1="0%" x2="100%" y2="100%">
  <stop offset="0%" style="stop-color:#B794F4;stop-opacity:1"/>
  <stop offset="100%" style="stop-color:#4299E1;stop-opacity:1"/>
</linearGradient>
</defs>
 <path style="fill:#444444" d="M 4,1 C 1,1 1,3 1,4 V 12 C 1,15 3,15 4,15 H 12 C 15,15 15,13 15,12 V 4 C 15,1 13,1 12,1 Z M 4,3 H 12 C 12,3 13,3 13,4 V 12 C 13,12 13,13 12,13 H 4 C 4,13 3,13 3,12 V 4 C 3,4 3,3 4,3 Z"/>
</svg>
