<svg xmlns="http://www.w3.org/2000/svg" width="16" height="16" version="1.1"><defs>
<linearGradient id="ucPurpleBlue" x1="0%" y1="0%" x2="100%" y2="100%">
  <stop offset="0%" style="stop-color:#B794F4;stop-opacity:1"/>
  <stop offset="100%" style="stop-color:#4299E1;stop-opacity:1"/>
</linearGradient>
</defs>
 <path style="fill:#444444" d="M 8,1 C 4.13,1 1,4.134 1,8 1,11.866 4.13,15 8,15 11.18,15 13.86,12.897 14.72,10 H 12.56 C 11.79,11.76 10.05,13 8,13 5.24,13 3,10.761 3,8 3,5.239 5.24,3 8,3 10.05,3 11.79,4.24 12.56,6 H 14.72 C 13.86,3.103 11.18,1 8,1 Z"/>
 <path style="fill:#444444" d="M 9,7 15,1 V 7 Z"/>
</svg>
