<svg xmlns="http://www.w3.org/2000/svg" width="16" height="16" version="1.1"><defs>
<linearGradient id="ucPurpleBlue" x1="0%" y1="0%" x2="100%" y2="100%">
  <stop offset="0%" style="stop-color:#B794F4;stop-opacity:1"/>
  <stop offset="100%" style="stop-color:#4299E1;stop-opacity:1"/>
</linearGradient>
</defs>
 <path style="fill:#444444" d="M 6,2 V 14 H 7 V 2 Z M 2,3 V 4 H 4 V 3 Z M 9,3 V 5 H 11 V 3 Z M 13,3 V 5 H 15 V 3 Z M 2,6 V 7 H 4 V 6 Z M 9,7 V 9 H 11 V 7 Z M 13,7 V 9 H 15 V 7 Z M 2,9 V 10 H 4 V 9 Z M 9,11 V 13 H 11 V 11 Z M 13,11 V 13 H 15 V 11 Z M 2,12 V 13 H 4 V 12 Z"/>
</svg>
