<svg xmlns="http://www.w3.org/2000/svg" width="16" height="16" version="1.1"><defs>
<linearGradient id="ucPurpleBlue" x1="0%" y1="0%" x2="100%" y2="100%">
  <stop offset="0%" style="stop-color:#B794F4;stop-opacity:1"/>
  <stop offset="100%" style="stop-color:#4299E1;stop-opacity:1"/>
</linearGradient>
</defs>
 <path style="fill:#444444" d="M 2,13.5 A 1.5,1.5 0 0 0 3.5,15 1.5,1.5 0 0 0 5,13.5 1.5,1.5 0 0 0 3.5,12 1.5,1.5 0 0 0 2,13.5 Z M 2,6 9,11 V 8 h 4 V 4 H 9 V 1 Z m 4,7.5 A 1.5,1.5 0 0 0 7.5,15 1.5,1.5 0 0 0 9,13.5 1.5,1.5 0 0 0 7.5,12 1.5,1.5 0 0 0 6,13.5 Z m 4,0 A 1.5,1.5 0 0 0 11.5,15 1.5,1.5 0 0 0 13,13.5 1.5,1.5 0 0 0 11.5,12 1.5,1.5 0 0 0 10,13.5 Z"/>
</svg>
