<svg xmlns="http://www.w3.org/2000/svg" width="32" height="32" version="1.1"><defs>
<linearGradient id="ucPurpleBlue" x1="0%" y1="0%" x2="100%" y2="100%">
  <stop offset="0%" style="stop-color:#B794F4;stop-opacity:1"/>
  <stop offset="100%" style="stop-color:#4299E1;stop-opacity:1"/>
</linearGradient>
</defs>
 <g>
  <circle style="fill:#455a64" cx="16" cy="16" r="14"/>
  <path style="fill:#ffffff" d="M 12 11 A 5 5 0 0 0 7 16 A 5 5 0 0 0 12 21 A 5 5 0 0 0 17 16 A 5 5 0 0 0 12 11 z M 12 14 A 2 2 0 0 1 14 16 A 2 2 0 0 1 12 18 A 2 2 0 0 1 10 16 A 2 2 0 0 1 12 14 z"/>
  <rect style="fill:#ffffff" width="10" height="2" x="16" y="15"/>
  <rect style="fill:#ffffff" width="2" height="2" x="22" y="17"/>
 </g>
</svg>
