<svg xmlns="http://www.w3.org/2000/svg" width="32" height="32" version="1.1"><defs>
<linearGradient id="ucPurpleBlue" x1="0%" y1="0%" x2="100%" y2="100%">
  <stop offset="0%" style="stop-color:#B794F4;stop-opacity:1"/>
  <stop offset="100%" style="stop-color:#4299E1;stop-opacity:1"/>
</linearGradient>
</defs>
 <g transform="matrix(0,-1,1,0,0,32)">
  <circle style="fill:#455a64" cx="16" cy="16" r="14"/>
  <path style="fill:#ffffff" d="m 12,11 a 5,5 0 0 0 -5,5 5,5 0 0 0 5,5 5,5 0 0 0 5,-5 5,5 0 0 0 -5,-5 z m 0,3 a 2,2 0 0 1 2,2 2,2 0 0 1 -2,2 2,2 0 0 1 -2,-2 2,2 0 0 1 2,-2 z"/>
  <rect style="fill:#ffffff" width="10" height="2" x="16" y="15"/>
  <rect style="fill:#ffffff" width="2" height="2" x="22" y="17"/>
 </g>
</svg>
