<svg xmlns="http://www.w3.org/2000/svg" width="32" height="32" version="1.1"><defs>
<linearGradient id="ucPurpleBlue" x1="0%" y1="0%" x2="100%" y2="100%">
  <stop offset="0%" style="stop-color:#B794F4;stop-opacity:1"/>
  <stop offset="100%" style="stop-color:#4299E1;stop-opacity:1"/>
</linearGradient>
</defs>
 <rect style="opacity:0.2" width="28" height="26" x="2" y="4" rx="1.4" ry="1.4"/>
 <path style="fill:#8e8e8e" d="M 2,7 V 27.6 C 2,28.375 2.6248,29 3.4,29 H 28.6 C 29.375,29 30,28.375 30,27.6 V 7 L 29,6 H 3 Z"/>
 <path style="fill:#323232" d="M 3.4,3 C 2.625,3 2,3.625 2,4.4 V 7 H 30 V 4.4 C 30,3.625 29.375,3 28.6,3 Z"/>
 <path style="fill:#323232" d="M 10.4 25 C 9.6248 25 9 25.625 9 26.4 L 9 29 L 22 29 L 22 26.4 C 22 25.625 21.375 25 20.6 25 L 10.4 25 z"/>
 <path style="opacity:0.1;fill:#ffffff" d="M 3.4,3 C 2.625,3 2,3.625 2,4.4 V 5.4 C 2,4.625 2.625,4 3.4,4 H 28.6 C 29.375,4 30,4.625 30,5.4 V 4.4 C 30,3.625 29.375,3 28.6,3 Z"/>
</svg>
