<svg xmlns="http://www.w3.org/2000/svg" width="48" height="48" version="1"><defs>
<linearGradient id="ucPurpleBlue" x1="0%" y1="0%" x2="100%" y2="100%">
  <stop offset="0%" style="stop-color:#B794F4;stop-opacity:1"/>
  <stop offset="100%" style="stop-color:#4299E1;stop-opacity:1"/>
</linearGradient>
</defs>
 <rect fill="url(#ucPurpleBlue)" width="40" height="40" x="4" y="4" rx="2" ry="2"/>
 <path fill="#fff" opacity=".2" d="m4 7v-1c0-1.108 0.892-2 2-2h36c1.108 0 2 0.892 2 2v1c0-1.108-0.892-2-2-2h-36c-1.108 0-2 0.892-2 2z"/>
 <path opacity=".2" d="m4 42v1c0 1.108 0.892 2 2 2h36c1.108 0 2-0.892 2-2v-1c0 1.108-0.892 2-2 2h-36c-1.108 0-2-0.892-2-2z"/>
 <path style="opacity:0.2" d="m 28,12 4,-2 0,28 -4,2 z"/>
 <path fill="url(#ucPurpleBlue)" d="m28 11 4-2v28l-4 2z"/>
 <path style="opacity:0.2" d="M 34.249,14.536 37.981,17 13.732,31 10,28.536 Z"/>
 <path fill="url(#ucPurpleBlue)" d="m34.249 13.536 3.732 2.464-24.249 14-3.732-2.464z"/>
 <path style="opacity:0.2" d="M 38.517,32.536 38.249,37 14,23 14.268,18.536 Z"/>
 <path fill="url(#ucPurpleBlue)" d="m38.517 31.536-0.268 4.464-24.249-14 0.268-4.464z"/>
</svg>
