<svg xmlns="http://www.w3.org/2000/svg" height="48" width="48" version="1.1"><defs>
<linearGradient id="ucPurpleBlue" x1="0%" y1="0%" x2="100%" y2="100%">
  <stop offset="0%" style="stop-color:#B794F4;stop-opacity:1"/>
  <stop offset="100%" style="stop-color:#4299E1;stop-opacity:1"/>
</linearGradient>
</defs>
 <rect style="fill:#900d65" rx="2" ry="2" height="40" width="40" y="4" x="4"/>
 <path style="opacity:.1;fill:#ffffff" d="m6 4c-1.108 0-2 0.892-2 2v1c0-1.108 0.892-2 2-2h36c1.108 0 2 0.892 2 2v-1c0-1.108-0.892-2-2-2z"/>
 <path style="opacity:.2" d="m4 42v1c0 1.108 0.892 2 2 2h36c1.108 0 2-0.892 2-2v-1c0 1.108-0.892 2-2 2h-36c-1.108 0-2-0.892-2-2z"/>
 <path style="opacity:.2" d="m15 15-4 0.082031 3 9.917969-3 10h4l2-7 3 7h4l-4-10 4-10h-4l-3 7zm18 0v7s-7 0-7 7c0 6 6 6 6 6s5 0 5-1v-19zm-1 10h1v7h-1s-2 0-2-3c0-4 2-4 2-4z"/>
 <path style="fill:#f3bfe1" d="m15 14-4 0.082031 3 9.917969-3 10h4l2-7 3 7h4l-4-10 4-10h-4l-3 7zm18 0v7s-7 0-7 7c0 6 6 6 6 6s5 0 5-1v-19zm-1 10h1v7h-1s-2 0-2-3c0-4 2-4 2-4z"/>
</svg>
