<svg xmlns="http://www.w3.org/2000/svg" width="48" height="48" version="1"><defs>
<linearGradient id="ucPurpleBlue" x1="0%" y1="0%" x2="100%" y2="100%">
  <stop offset="0%" style="stop-color:#B794F4;stop-opacity:1"/>
  <stop offset="100%" style="stop-color:#4299E1;stop-opacity:1"/>
</linearGradient>
</defs>
 <rect fill="url(#ucPurpleBlue)" width="40" height="40" x="4" y="4" rx="2" ry="2"/>
 <path fill="#fff" opacity=".2" d="m6 4c-1.108 0-2 0.892-2 2v1c0-1.108 0.892-2 2-2h36c1.108 0 2 0.892 2 2v-1c0-1.108-0.892-2-2-2h-36z"/>
 <path opacity=".2" d="m6 45c-1.108 0-2-0.892-2-2v-1c0 1.108 0.892 2 2 2h36c1.108 0 2-0.892 2-2v1c0 1.108-0.892 2-2 2h-36z"/>
 <path opacity=".2" d="m12 13 7 7h10v0.0312h0.0312l-0.0312 9.9062 7 7v-23.937zm7 7.8438-7 6.875v9.281h9.812l6.938-7h-9.75z"/>
 <path fill="#fff" d="m12 12 7 7h10v0.0312h0.0312l-0.0312 9.9062 7 7v-23.937zm7 7.8438-7 6.875v9.281h9.812l6.938-7h-9.75z"/>
</svg>
