<svg width="48" height="48" version="1.1" xmlns="http://www.w3.org/2000/svg"><defs>
<linearGradient id="ucPurpleBlue" x1="0%" y1="0%" x2="100%" y2="100%">
  <stop offset="0%" style="stop-color:#B794F4;stop-opacity:1"/>
  <stop offset="100%" style="stop-color:#4299E1;stop-opacity:1"/>
</linearGradient>
</defs>
 <g transform="matrix(2,0,0,2,2,2)">
  <rect x="1" y="1.5" width="20" height="20" ry="4" style="opacity:.2"/>
  <rect x="1" y="1" width="20" height="20" ry="4" style="fill:#f4881f"/>
  <path d="m4 3.5v16h4v-12h3v12h7v-4h-3v-12z" style="opacity:.1"/>
  <path d="m4 3v16h4v-12h3v12h7v-4h-3v-12z" style="fill:#3f3f3f"/>
  <path d="m5 1c-2.216 0-4 1.784-4 4v0.5c0-2.216 1.784-4 4-4h12c2.216 0 4 1.784 4 4v-0.5c0-2.216-1.784-4-4-4z" style="fill:#ffffff;opacity:.2"/>
 </g>
</svg>
