<svg xmlns="http://www.w3.org/2000/svg" width="48" height="48" version="1"><defs>
<linearGradient id="ucPurpleBlue" x1="0%" y1="0%" x2="100%" y2="100%">
  <stop offset="0%" style="stop-color:#B794F4;stop-opacity:1"/>
  <stop offset="100%" style="stop-color:#4299E1;stop-opacity:1"/>
</linearGradient>
</defs>
 <path style="opacity:0.2" d="M 44,43 V 7 C 44,5.892 43.108,5 42,5 H 6 C 4.892,5 4,5.892 4,7 v 36 c 0,1.108 0.892,2 2,2 h 36 c 1.108,0 2,-0.892 2,-2 z"/>
 <path style="fill:#89c025" d="M 44,42 V 6 C 44,4.892 43.108,4 42,4 H 6 C 4.892,4 4,4.892 4,6 v 36 c 0,1.108 0.892,2 2,2 h 36 c 1.108,0 2,-0.892 2,-2 z"/>
 <path style="opacity:0.2;fill:#ffffff" d="M 6,4 C 4.892,4 4,4.892 4,6 V 7 C 4,5.892 4.892,5 6,5 h 36 c 1.108,0 2,0.892 2,2 V 6 C 44,4.892 43.108,4 42,4 Z"/>
 <path style="opacity:0.4" d="m 10,10 v 4 h 4 v -4 z m 6,0 v 4 h 4 v -4 z m 6,0 v 4 h 4 v -4 z m 6,0 v 4 h 4 v -4 z m 6,0 v 4 h 4 v -4 z m -24,6 v 4 h 4 v -4 z m 6,0 v 4 h 4 v -4 z m 6,0 v 4 h 4 v -4 z m 6,0 v 4 h 4 v -4 z m 6,0 v 4 h 4 v -4 z m -24,6 v 4 h 4 v -4 z m 6,0 v 4 h 4 v -4 z m 6,0 v 4 h 4 v -4 z m 6,0 v 4 h 4 v -4 z m 6,0 v 4 h 4 v -4 z m -24,6 v 4 h 4 v -4 z m 6,0 v 4 h 4 v -4 z m 6,0 v 4 h 4 v -4 z m 6,0 v 4 h 4 v -4 z m 6,0 v 4 h 4 v -4 z m -24,6 v 4 h 4 v -4 z m 6,0 v 4 h 4 v -4 z m 6,0 v 4 h 4 v -4 z m 6,0 v 4 h 4 v -4 z m 6,0 v 4 h 4 v -4 z"/>
</svg>
