<svg width="48" height="48" version="1.1" xmlns="http://www.w3.org/2000/svg"><defs>
<linearGradient id="ucPurpleBlue" x1="0%" y1="0%" x2="100%" y2="100%">
  <stop offset="0%" style="stop-color:#B794F4;stop-opacity:1"/>
  <stop offset="100%" style="stop-color:#4299E1;stop-opacity:1"/>
</linearGradient>
</defs>
 <g transform="matrix(2,0,0,2,2,2)">
  <circle cx="11" cy="11.5" r="10" style="opacity:.2"/>
  <circle cx="11" cy="11" r="10" style="fill:#2577ff"/>
  <path d="M 11,1 A 10,10 0 0 0 1,11 10,10 0 0 0 1.0098,11.293 10,10 0 0 1 11,1.5 10,10 0 0 1 20.99,11.207 10,10 0 0 0 21,11 10,10 0 0 0 11,1 Z" style="fill:#ffffff;opacity:.2"/>
  <path d="m11 3.5a8 8 0 0 0-8 8 8 8 0 0 0 8 8 8 8 0 0 0 8-8 8 8 0 0 0-8-8zm0 2a6 6 0 0 1 5.914062 5h-3.08789a3 3 0 0 0-2.826172-2 3 3 0 0 0-3 3 3 3 0 0 0 3 3 3 3 0 0 0 2.824219-2h3.085937a6 6 0 0 1-5.910156 5 6 6 0 0 1-6-6 6 6 0 0 1 6-6z" style="opacity:.2"/>
  <path d="m11 3a8 8 0 0 0-8 8 8 8 0 0 0 8 8 8 8 0 0 0 8-8 8 8 0 0 0-8-8zm0 2a6 6 0 0 1 5.914062 5h-3.08789a3 3 0 0 0-2.826172-2 3 3 0 0 0-3 3 3 3 0 0 0 3 3 3 3 0 0 0 2.824219-2h3.085937a6 6 0 0 1-5.910156 5 6 6 0 0 1-6-6 6 6 0 0 1 6-6z" style="fill:#ffffff"/>
 </g>
</svg>
