<svg xmlns="http://www.w3.org/2000/svg" width="48" height="48" version="1"><defs>
<linearGradient id="ucPurpleBlue" x1="0%" y1="0%" x2="100%" y2="100%">
  <stop offset="0%" style="stop-color:#B794F4;stop-opacity:1"/>
  <stop offset="100%" style="stop-color:#4299E1;stop-opacity:1"/>
</linearGradient>
</defs>
 <rect style="opacity:0.2" width="40" height="40" x="4" y="5" rx="2" ry="2"/>
 <rect style="fill:#3f3f3f" width="40" height="40" x="4" y="4" rx="2" ry="2"/>
 <path style="opacity:0.2" d="M 12.5,16 8,34 h 2 l 4.5,-18 z m 4,0 -4.5,18 h 4 l 4.5,-18 z m 6,0 -4.5,18 h 7 l 4.5,-18 z m 9,0 -4.5,18 h 8 l 4.5,-18 z"/>
 <path fill="#fff" opacity=".1" d="m6 4c-1.108 0-2 0.892-2 2v1c0-1.108 0.892-2 2-2h36c1.108 0 2 0.892 2 2v-1c0-1.108-0.892-2-2-2h-36z"/>
 <path style="fill:#f47c04" d="m 31.5,15 h 8 L 35,33 h -8 z"/>
 <path style="fill:#05caf4" d="m 22.5,15 h 7 L 25,33 h -7 z"/>
 <path style="fill:#05caf4" d="m 16.5,15 h 4 L 16,33 h -4 z"/>
 <path style="fill:#05caf4" d="m 12.5,15 h 2 L 10,33 H 8 Z"/>
 <path style="opacity:0.2;fill:#ffffff" d="M 12.5 15 L 8 33 L 8.25 33 L 12.5 16 L 14.25 16 L 14.5 15 L 12.5 15 z M 16.5 15 L 12 33 L 12.25 33 L 16.5 16 L 20.25 16 L 20.5 15 L 16.5 15 z M 22.5 15 L 18 33 L 18.25 33 L 22.5 16 L 29.25 16 L 29.5 15 L 22.5 15 z M 31.5 15 L 27 33 L 27.25 33 L 31.5 16 L 39.25 16 L 39.5 15 L 31.5 15 z"/>
</svg>
