<svg xmlns="http://www.w3.org/2000/svg" width="48" height="48" version="1"><defs>
<linearGradient id="ucPurpleBlue" x1="0%" y1="0%" x2="100%" y2="100%">
  <stop offset="0%" style="stop-color:#B794F4;stop-opacity:1"/>
  <stop offset="100%" style="stop-color:#4299E1;stop-opacity:1"/>
</linearGradient>
</defs>
 <path style="fill:#ffffff" d="M 24,8 7,40 H 41 Z"/>
 <path style="opacity:0.2" d="M 24,6 4,44 H 45 Z M 26.324,25.148 27.793,37.24 17.018,33.008 Z"/>
 <path style="fill:#4a86d8" d="M 26.5,24 27,17 24,5 Z M 17,32 13,38 4,43 Z M 4,43 24,5 26.5,24 Z"/>
 <path style="fill:#dd3c3d" d="M 27.8,36.3 28,40 45,43 Z M 24,5 45,43 27.8,36.3 Z"/>
 <path style="fill:#339c33" d="M 45,43 H 4 L 17,32 Z"/>
 <path style="fill:#ffffff;opacity:0.2" d="M 24 5 L 4 43 L 4.5254 43 L 24 6 L 44.447 43 L 45 43 L 24 5 z M 17.826 32.326 L 17.018 33.008 L 27.793 37.24 L 27.666 36.189 L 17.826 32.326 z"/>
</svg>
