<svg xmlns="http://www.w3.org/2000/svg" width="48" height="48" version="1"><defs>
<linearGradient id="ucPurpleBlue" x1="0%" y1="0%" x2="100%" y2="100%">
  <stop offset="0%" style="stop-color:#B794F4;stop-opacity:1"/>
  <stop offset="100%" style="stop-color:#4299E1;stop-opacity:1"/>
</linearGradient>
</defs>
 <rect fill="url(#ucPurpleBlue)" width="40" height="40" x="4" y="4" rx="2" ry="2"/>
 <path fill="#fff" opacity=".2" d="m6 4c-1.108 0-2 0.892-2 2v1c0-1.108 0.892-2 2-2h36c1.108 0 2 0.892 2 2v-1c0-1.108-0.892-2-2-2h-36z"/>
 <path opacity=".2" d="m6 45c-1.108 0-2-0.892-2-2v-1c0 1.108 0.892 2 2 2h36c1.108 0 2-0.892 2-2v1c0 1.108-0.892 2-2 2h-36z"/>
 <path opacity=".2" d="m37.113 12.545-16.97 16.971-9.899-9.901-4.244 4.244 9.9 9.899 4.243 4.242 4.242-4.242 16.97-16.971-4.242-4.242z"/>
 <path fill="#fff" d="m37.113 11.545-16.97 16.971-9.899-9.901-4.244 4.244 9.9 9.899 4.243 4.242 4.242-4.242 16.97-16.971-4.242-4.242z"/>
</svg>
