<svg width="48" height="48" version="1.1" xmlns="http://www.w3.org/2000/svg"><defs>
<linearGradient id="ucPurpleBlue" x1="0%" y1="0%" x2="100%" y2="100%">
  <stop offset="0%" style="stop-color:#B794F4;stop-opacity:1"/>
  <stop offset="100%" style="stop-color:#4299E1;stop-opacity:1"/>
</linearGradient>
</defs>
 <circle cx="24" cy="25" r="20" style="opacity:.2"/>
 <circle cx="24" cy="24" r="20" style="fill:#9bce5d"/>
 <path d="M 24,4 A 20,20 0 0 0 4,24 20,20 0 0 0 4.0215,24.582 20,20 0 0 1 24,5 20,20 0 0 1 43.979,24.418 20,20 0 0 0 44,24 20,20 0 0 0 24,4 Z" style="fill:#ffffff;opacity:.2"/>
 <path d="m24 14a16 11 0 0 0-16 11 16 11 0 0 0 16 11 16 11 0 0 0 16-11 16 11 0 0 0-16-11zm0 4a10 7 0 0 1 10 7 10 7 0 0 1-10 7 10 7 0 0 1-10-7 10 7 0 0 1 10-7zm0 4a4 3 0 0 0-4 3 4 3 0 0 0 4 3 4 3 0 0 0 4-3 4 3 0 0 0-4-3z" style="opacity:.2"/>
 <path d="m24 13a16 11 0 0 0-16 11 16 11 0 0 0 16 11 16 11 0 0 0 16-11 16 11 0 0 0-16-11zm0 4a10 7 0 0 1 10 7 10 7 0 0 1-10 7 10 7 0 0 1-10-7 10 7 0 0 1 10-7zm0 4a4 3 0 0 0-4 3 4 3 0 0 0 4 3 4 3 0 0 0 4-3 4 3 0 0 0-4-3z" style="fill:#ffffff"/>
</svg>
