<svg xmlns="http://www.w3.org/2000/svg" width="48" height="48" version="1.1"><defs>
<linearGradient id="ucPurpleBlue" x1="0%" y1="0%" x2="100%" y2="100%">
  <stop offset="0%" style="stop-color:#B794F4;stop-opacity:1"/>
  <stop offset="100%" style="stop-color:#4299E1;stop-opacity:1"/>
</linearGradient>
</defs>
 <g transform="translate(0,-1004.3622)">
  <path style="opacity:0.2" d="m 44,1047.3622 0,-28 c 0,-1.108 -0.892,-2 -2,-2 l -36,0 c -1.108,0 -2,0.892 -2,2 l 0,28 c 0,1.108 0.892,2 2,2 l 36,0 c 1.108,0 2,-0.892 2,-2 z"/>
  <path style="fill:#86603b" d="m 44,1038.3622 0,-28 c 0,-1.108 -0.892,-2 -2,-2 l -36,0 c -1.108,0 -2,0.892 -2,2 l 0,28 c 0,1.108 0.892,2 2,2 l 36,0 c 1.108,0 2,-0.892 2,-2 z"/>
  <path style="opacity:0.1;fill:#ffffff" d="m 4,1011.3622 0,-1 c 0,-1.108 0.892,-2 2,-2 l 36,0 c 1.108,0 2,0.892 2,2 l 0,1 c 0,-1.108 -0.892,-2 -2,-2 l -36,0 c -1.108,0 -2,0.892 -2,2 z"/>
  <path style="fill:#c28a52" d="m 44,1042.3622 0,-28 c 0,-1.108 -0.892,-2 -2,-2 l -36,0 c -1.108,0 -2,0.892 -2,2 l 0,28 c 0,1.108 0.892,2 2,2 l 36,0 c 1.108,0 2,-0.892 2,-2 z"/>
  <path style="fill:#fabd7f" d="m 44,1046.3622 0,-28 c 0,-1.108 -0.892,-2 -2,-2 l -36,0 c -1.108,0 -2,0.892 -2,2 l 0,28 c 0,1.108 0.892,2 2,2 l 36,0 c 1.108,0 2,-0.892 2,-2 z"/>
  <path style="opacity:0.2;fill:#ffffff" d="m 4,1015.3622 0,-1 c 0,-1.108 0.892,-2 2,-2 l 36,0 c 1.108,0 2,0.892 2,2 l 0,1 c 0,-1.108 -0.892,-2 -2,-2 l -36,0 c -1.108,0 -2,0.892 -2,2 z"/>
  <path style="opacity:0.2;fill:#ffffff" d="m 4,1019.3622 0,-1 c 0,-1.108 0.892,-2 2,-2 l 36,0 c 1.108,0 2,0.892 2,2 l 0,1 c 0,-1.108 -0.892,-2 -2,-2 l -36,0 c -1.108,0 -2,0.892 -2,2 z"/>
 </g>
</svg>
