<svg xmlns="http://www.w3.org/2000/svg" width="48" height="48" version="1.1"><defs>
<linearGradient id="ucPurpleBlue" x1="0%" y1="0%" x2="100%" y2="100%">
  <stop offset="0%" style="stop-color:#B794F4;stop-opacity:1"/>
  <stop offset="100%" style="stop-color:#4299E1;stop-opacity:1"/>
</linearGradient>
</defs>
 <circle style="opacity:0.2" cx="24" cy="25" r="20"/>
 <circle style="fill:#1db5ff" cx="24" cy="24" r="20"/>
 <path style="opacity:0.2;fill:#ffffff" d="M 24,4 A 20,20 0 0 0 4,24 20,20 0 0 0 4.0215,24.582 20,20 0 0 1 24,5 20,20 0 0 1 43.979,24.418 20,20 0 0 0 44,24 20,20 0 0 0 24,4 Z"/>
 <path style="opacity:0.2" d="M 21.994141,13 21.888672,13.248047 14.285156,33 h 4.289063 l 1.539062,-4 h 7.792969 l 1.527344,4 h 4.28125 L 26.074219,13 Z M 24.023438,18.837891 26.376953,25 h -4.724609 z"/>
 <path style="fill:#ffffff" d="M 21.994141,12 21.888672,12.248047 14.285156,32 h 4.289063 l 1.539062,-4 h 7.792969 l 1.527344,4 h 4.28125 L 26.074219,12 Z M 24.023438,17.837891 26.376953,24 h -4.724609 z"/>
</svg>
