<svg xmlns="http://www.w3.org/2000/svg" width="48" height="48" version="1"><defs>
<linearGradient id="ucPurpleBlue" x1="0%" y1="0%" x2="100%" y2="100%">
  <stop offset="0%" style="stop-color:#B794F4;stop-opacity:1"/>
  <stop offset="100%" style="stop-color:#4299E1;stop-opacity:1"/>
</linearGradient>
</defs>
 <circle style="opacity:0.2" cx="24" cy="25" r="20"/>
 <circle style="fill:#a43b84" cx="24" cy="24" r="20"/>
 <path opacity=".2" d="m16 15v12s0 8 6 8h10v-20h-4v16h-5c-3 0-3-4-3-4v-12h-4z"/>
 <path fill="#fff" d="m16 14v12s0 8 6 8h10v-20h-4v16h-5c-3 0-3-4-3-4v-12h-4z"/>
 <path style="opacity:0.1;fill:#ffffff" d="M 24 4 A 20 20 0 0 0 4 24 A 20 20 0 0 0 4.0215 24.582 A 20 20 0 0 1 24 5 A 20 20 0 0 1 43.979 24.418 A 20 20 0 0 0 44 24 A 20 20 0 0 0 24 4 z"/>
</svg>
