<svg xmlns="http://www.w3.org/2000/svg" width="48" height="48" version="1"><defs>
<linearGradient id="ucPurpleBlue" x1="0%" y1="0%" x2="100%" y2="100%">
  <stop offset="0%" style="stop-color:#B794F4;stop-opacity:1"/>
  <stop offset="100%" style="stop-color:#4299E1;stop-opacity:1"/>
</linearGradient>
</defs>
 <rect fill="url(#ucPurpleBlue)" width="40" height="40" x="4" y="4" rx="2" ry="2"/>
 <path fill="url(#ucPurpleBlue)" d="m44 23v-17c0-1.108-0.892-2-2-2h-36c-1.108 0-2 0.892-2 2v17z"/>
 <path fill="#fff" opacity=".2" d="m6 4c-1.108 0-2 0.892-2 2v1c0-1.108 0.892-2 2-2h36c1.108 0 2 0.892 2 2v-1c0-1.108-0.892-2-2-2h-36z"/>
 <path opacity=".2" d="m6 45c-1.108 0-2-0.892-2-2v-1c0 1.108 0.892 2 2 2h36c1.108 0 2-0.892 2-2v1c0 1.108-0.892 2-2 2h-36z"/>
 <path fill="#fff" transform="matrix(1 0 0 .98575 -1.382 .54920)" d="m25.382 5.5296 2.4721 5.0091 5.5279 0.80325-4 3.899 0.94427 5.5055-4.9443-2.5994-4.9443 2.5994 0.94427-5.5055-4-3.899 5.5279-0.80325z"/>
 <path fill="url(#ucPurpleBlue)" d="m21 26h6l-2 8 2 8h-6l2-8z"/>
 <path fill="url(#ucPurpleBlue)" d="m32 31v6l-8-2-8 2v-6l8 2z"/>
</svg>
