<svg xmlns="http://www.w3.org/2000/svg" width="48" height="48" version="1"><defs>
<linearGradient id="ucPurpleBlue" x1="0%" y1="0%" x2="100%" y2="100%">
  <stop offset="0%" style="stop-color:#B794F4;stop-opacity:1"/>
  <stop offset="100%" style="stop-color:#4299E1;stop-opacity:1"/>
</linearGradient>
</defs>
 <rect fill="url(#ucPurpleBlue)" width="40" height="40" x="4" y="4" rx="2" ry="2"/>
 <path fill="#fff" opacity=".2" d="m6 4c-1.108 0-2 0.892-2 2v1c0-1.108 0.892-2 2-2h36c1.108 0 2 0.892 2 2v-1c0-1.108-0.892-2-2-2h-36z"/>
 <path opacity=".2" d="m6 45c-1.108 0-2-0.892-2-2v-1c0 1.108 0.892 2 2 2h36c1.108 0 2-0.892 2-2v1c0 1.108-0.892 2-2 2h-36z"/>
 <g fill="url(#ucPurpleBlue)" transform="translate(0,1)">
  <circle cx="10" cy="22" r="4"/>
  <circle cx="34" cy="22" r="4"/>
  <path d="m29 26.788c0 1.774-3.134 3.212-7 3.212s-7-1.4379-7-3.2117 3.134 0 7 0 7-1.7738 7 0z"/>
 </g>
 <circle fill="#fff" cx="12" cy="22" r="1"/>
 <circle fill="#fff" cx="36" cy="22" r="1"/>
</svg>
