<svg xmlns="http://www.w3.org/2000/svg" width="48" height="48" version="1.1"><defs>
<linearGradient id="ucPurpleBlue" x1="0%" y1="0%" x2="100%" y2="100%">
  <stop offset="0%" style="stop-color:#B794F4;stop-opacity:1"/>
  <stop offset="100%" style="stop-color:#4299E1;stop-opacity:1"/>
</linearGradient>
</defs>
 <g transform="translate(0 -1004.4)">
  <rect fill="url(#ucPurpleBlue)" width="40" height="40" x="-1048.4" y="-44" rx="3" ry="3" transform="matrix(0,-1,-1,0,0,0)"/>
  <path opacity=".2" d="m32.781 1018.4c-2.9668 0.1094-6.7812 1-6.7812 8v4h-4v6h4v12h6v-12h5l1-6h-6v-4c0-2 2-2 2-2h4v-6h-4c-0.375 0-0.79492-0.016-1.2188 0z"/>
  <path fill="#fff" opacity=".1" d="m7 1008.4c-1.662 0-3 1.338-3 3v1c0-1.662 1.338-3 3-3h34c1.662 0 3 1.338 3 3v-1c0-1.662-1.338-3-3-3h-34z"/>
  <path fill="#fff" d="m32.781 1017.4c-2.9668 0.1094-6.7812 1-6.7812 8v4h-4v6h4v13h6v-13h5l1-6h-6v-4c0-2 2-2 2-2h4v-6h-4c-0.375 0-0.79492-0.016-1.2188 0z"/>
  <path opacity=".2" d="m4 1045.4v1c0 1.662 1.338 3 3 3h34c1.662 0 3-1.338 3-3v-1c0 1.662-1.338 3-3 3h-34c-1.662 0-3-1.338-3-3z"/>
 </g>
</svg>
