<svg xmlns="http://www.w3.org/2000/svg" width="48" height="48" version="1"><defs>
<linearGradient id="ucPurpleBlue" x1="0%" y1="0%" x2="100%" y2="100%">
  <stop offset="0%" style="stop-color:#B794F4;stop-opacity:1"/>
  <stop offset="100%" style="stop-color:#4299E1;stop-opacity:1"/>
</linearGradient>
</defs>
 <rect fill="url(#ucPurpleBlue)" width="40" height="40" x="4" y="4" rx="2" ry="2"/>
 <path fill="#fff" opacity=".1" d="m6 4c-1.108 0-2 0.892-2 2v1c0-1.108 0.892-2 2-2h36c1.108 0 2 0.892 2 2v-1c0-1.108-0.892-2-2-2h-36z"/>
 <path opacity=".2" d="m6 45c-1.108 0-2-0.892-2-2v-1c0 1.108 0.892 2 2 2h36c1.108 0 2-0.892 2-2v1c0 1.108-0.892 2-2 2h-36z"/>
 <path fill="url(#ucPurpleBlue)" d="m13 14v22h22v-22h-22zm3.9999 3.9999 13.999-0.000177 0.000177 13.999-13.999 0.000177-0.000177-13.999z"/>
 <rect opacity=".2" width="14" height="14" x="10" y="26"/>
 <rect fill="url(#ucPurpleBlue)" width="14" height="14" x="10" y="25"/>
 <rect opacity=".2" width="14" height="10" x="10" y="12"/>
 <rect fill="url(#ucPurpleBlue)" width="14" height="10" x="10" y="11"/>
 <circle opacity=".2" cx="33" cy="17" r="5"/>
 <circle fill="url(#ucPurpleBlue)" cx="33" cy="16" r="5"/>
 <rect opacity=".2" width="12" height="10" x="27" y="29"/>
 <rect fill="url(#ucPurpleBlue)" width="12" height="10" x="27" y="28"/>
</svg>
