<svg xmlns="http://www.w3.org/2000/svg" style="enable-background:new" width="48" height="48" version="1.0"><defs>
<linearGradient id="ucPurpleBlue" x1="0%" y1="0%" x2="100%" y2="100%">
  <stop offset="0%" style="stop-color:#B794F4;stop-opacity:1"/>
  <stop offset="100%" style="stop-color:#4299E1;stop-opacity:1"/>
</linearGradient>
</defs>
 <path style="opacity:0.2" d="M 40,5 22,7 10,28 17,27 8,45 34,21 26,22 Z"/>
 <path style="fill:#f6d32d" d="M 40,4 22,6 10,27 17,26 8,44 34,20 26,21 Z"/>
 <path style="fill:#ffffff;opacity:0.2" d="M 40 4 L 22 6 L 10 27 L 10.623047 26.910156 L 22 7 L 39.09375 5.1015625 L 40 4 z M 34 20 L 26.917969 20.884766 L 26 22 L 32.746094 21.15625 L 34 20 z M 17 27 L 16.460938 27.076172 L 8 44 L 8.9277344 43.142578 L 17 27 z"/>
</svg>
