<svg width="48" height="48" version="1.1" xmlns="http://www.w3.org/2000/svg"><defs>
<linearGradient id="ucPurpleBlue" x1="0%" y1="0%" x2="100%" y2="100%">
  <stop offset="0%" style="stop-color:#B794F4;stop-opacity:1"/>
  <stop offset="100%" style="stop-color:#4299E1;stop-opacity:1"/>
</linearGradient>
</defs>
 <rect x="4" y="5" width="40" height="40" rx="2" ry="2" style="opacity:.2"/>
 <rect x="4" y="4" width="40" height="40" rx="2" ry="2" style="fill:#222b76"/>
 <path d="m6 4c-1.108 0-2 0.892-2 2v1c0-1.108 0.892-2 2-2h36c1.108 0 2 0.892 2 2v-1c0-1.108-0.892-2-2-2z" style="fill:#ffffff;opacity:.1"/>
 <path d="m15 10v6h-6v12h6v-6h18v6h6v-12h-6v-6h-6v6h-6v-6zm18 18h-18v6h18zm0 6v6h6v-6zm-18 0h-6v6h6z" style="opacity:.2"/>
 <path d="m15 9v6h-6v12h6v-6h18v6h6v-12h-6v-6h-6v6h-6v-6zm18 18h-18v6h18zm0 6v6h6v-6zm-18 0h-6v6h6z" style="fill:#cfd3db"/>
</svg>
