<svg xmlns="http://www.w3.org/2000/svg" width="48" height="48" version="1"><defs>
<linearGradient id="ucPurpleBlue" x1="0%" y1="0%" x2="100%" y2="100%">
  <stop offset="0%" style="stop-color:#B794F4;stop-opacity:1"/>
  <stop offset="100%" style="stop-color:#4299E1;stop-opacity:1"/>
</linearGradient>
</defs>
 <path fill="url(#ucPurpleBlue)" d="m40 42v-36c0-1.108-0.892-2-2-2h-28c-1.108 0-2 0.892-2 2v36c0 1.108 0.892 2 2 2h28c1.108 0 2-0.892 2-2z"/>
 <path fill="#fff" opacity=".2" d="m10 4c-1.108 0-2 0.892-2 2v1c0-1.108 0.892-2 2-2h28c1.108 0 2 0.892 2 2v-1c0-1.108-0.892-2-2-2z"/>
 <g fill="url(#ucPurpleBlue)" transform="matrix(.70711 -.70711 .70711 .70711 -9.9411 23.992)">
  <circle cx="24" cy="24" r="8"/>
  <rect width="4" height="11" x="22" y="30" rx="2" ry="2"/>
 </g>
 <path opacity=".2" d="m8 42v1c0 1.108 0.892 2 2 2h28c1.108 0 2-0.892 2-2v-1c0 1.108-0.892 2-2 2h-28c-1.108 0-2-0.892-2-2z"/>
 <path opacity=".2" d="m24 20c-2.782 0-5 2.2212-5 5 0 2.7787 2.218 5 5 5s5-2.2212 5-5-2.218-5-5-5z"/>
 <path fill="url(#ucPurpleBlue)" d="m24 19c-2.782 0-5 2.2212-5 5 0 2.7787 2.218 5 5 5s5-2.2212 5-5-2.218-5-5-5z"/>
</svg>
