<svg xmlns="http://www.w3.org/2000/svg" width="48" height="48" version="1.1"><defs>
<linearGradient id="ucPurpleBlue" x1="0%" y1="0%" x2="100%" y2="100%">
  <stop offset="0%" style="stop-color:#B794F4;stop-opacity:1"/>
  <stop offset="100%" style="stop-color:#4299E1;stop-opacity:1"/>
</linearGradient>
</defs>
 <rect fill="url(#ucPurpleBlue)" width="40" height="40" x="4" y="4" rx="2" ry="2"/>
 <path fill-rule="evenodd" opacity=".2" d="m12 10-1 5v22h5v3h4l3-3h4l10-10v-17h-25zm3 2h20v13.918l-4 4.082h-7l-4 4v-4h-5v-18zm6 5v8h3v-8h-3zm7 0v8h3v-8h-3z"/>
 <path fill="#fff" fill-rule="evenodd" d="m12 9-1 5v22h5v3h4l3-3h4l10-10v-17h-25zm3 2h20v13.918l-4 4.082h-7l-4 4v-4h-5v-18zm6 5v8h3v-8h-3zm7 0v8h3v-8h-3z"/>
 <path fill="#fff" opacity=".2" d="m6 4c-1.108 0-2 0.892-2 2v1c0-1.108 0.892-2 2-2h36c1.108 0 2 0.892 2 2v-1c0-1.108-0.892-2-2-2h-36z"/>
 <path opacity=".2" d="m6 45c-1.108 0-2-0.892-2-2v-1c0 1.108 0.892 2 2 2h36c1.108 0 2-0.892 2-2v1c0 1.108-0.892 2-2 2h-36z"/>
</svg>
