<svg xmlns="http://www.w3.org/2000/svg" width="48" height="48" version="1"><defs>
<linearGradient id="ucPurpleBlue" x1="0%" y1="0%" x2="100%" y2="100%">
  <stop offset="0%" style="stop-color:#B794F4;stop-opacity:1"/>
  <stop offset="100%" style="stop-color:#4299E1;stop-opacity:1"/>
</linearGradient>
</defs>
 <path fill="url(#ucPurpleBlue)" d="m24 4h18c1.108 0 2 0.892 2 2v18h-20z"/>
 <path fill="url(#ucPurpleBlue)" d="m24 44h-18c-1.108 0-2-0.892-2-2v-18h20z"/>
 <rect fill="url(#ucPurpleBlue)" width="12" height="12" x="8" y="8" rx="2" ry="2"/>
 <rect fill="url(#ucPurpleBlue)" width="12" height="12" x="28" y="28" rx="2" ry="2"/>
 <path opacity=".2" d="m8 18v1c0 1.108 0.892 2 2 2h8c1.108 0 2-0.892 2-2v-1c0 1.108-0.892 2-2 2h-8c-1.108 0-2-0.892-2-2zm16 6v1h20v-1h-20zm4 14v1c0 1.108 0.892 2 2 2h8c1.108 0 2-0.892 2-2v-1c0 1.108-0.892 2-2 2h-8c-1.108 0-2-0.892-2-2zm-24 4v1c0 1.108 0.892 2 2 2h18v-1h-18c-1.108 0-2-0.892-2-2z"/>
 <path fill="#fff" opacity=".2" d="m24 4v1h18c1.108 0 2 0.892 2 2v-1c0-1.108-0.892-2-2-2h-18zm-14 4c-1.108 0-2 0.892-2 2v1c0-1.108 0.892-2 2-2h8c1.108 0 2 0.892 2 2v-1c0-1.108-0.892-2-2-2h-8zm-6 16v1h20v-1h-20zm26 4c-1.108 0-2 0.892-2 2v1c0-1.108 0.892-2 2-2h8c1.108 0 2 0.892 2 2v-1c0-1.108-0.892-2-2-2h-8z"/>
</svg>
