<svg xmlns="http://www.w3.org/2000/svg" width="48" height="48" version="1.1"><defs>
<linearGradient id="ucPurpleBlue" x1="0%" y1="0%" x2="100%" y2="100%">
  <stop offset="0%" style="stop-color:#B794F4;stop-opacity:1"/>
  <stop offset="100%" style="stop-color:#4299E1;stop-opacity:1"/>
</linearGradient>
</defs>
 <circle style="opacity:0.2" cx="24" cy="25" r="20"/>
 <circle style="fill:#4f8ef5" cx="24" cy="24" r="20"/>
 <path style="opacity:0.2;fill:#ffffff" d="M 24,4 A 20,20 0 0 0 4,24 20,20 0 0 0 4.0215,24.582 20,20 0 0 1 24,5 20,20 0 0 1 43.979,24.418 20,20 0 0 0 44,24 20,20 0 0 0 24,4 Z"/>
 <path style="opacity:0.2" d="m 34,16.000453 a 3,3 0 0 0 -2.121094,0.878906 l -14,14 a 3,3 0 0 0 0,4.242188 3,3 0 0 0 4.242188,0 l 14,-14 a 3,3 0 0 0 0,-4.242188 A 3,3 0 0 0 34,16.000453 Z m -20,5 a 4,4 0 0 0 -4,4 4,4 0 0 0 4,4 4,4 0 0 0 4,-4 4,4 0 0 0 -4,-4 z"/>
 <circle style="fill:#fcc014" cx="14" cy="24" r="4"/>
 <path style="fill:none;stroke:#ffffff;stroke-width:6;stroke-linecap:round;stroke-linejoin:round" d="M 20,32 34,18"/>
 <path style="opacity:0.2;fill:#ffffff" d="M 14 20 A 4 4 0 0 0 10 24 A 4 4 0 0 0 10.035156 24.5 A 4 4 0 0 1 14 21 A 4 4 0 0 1 17.964844 24.480469 A 4 4 0 0 0 18 24 A 4 4 0 0 0 14 20 z"/>
</svg>
