<svg xmlns="http://www.w3.org/2000/svg" width="48" height="48" version="1"><defs>
<linearGradient id="ucPurpleBlue" x1="0%" y1="0%" x2="100%" y2="100%">
  <stop offset="0%" style="stop-color:#B794F4;stop-opacity:1"/>
  <stop offset="100%" style="stop-color:#4299E1;stop-opacity:1"/>
</linearGradient>
</defs>
 <rect fill="url(#ucPurpleBlue)" width="30" height="30" x="9" y="6" rx="1.5" ry="2"/>
 <path opacity=".5" d="m15 28v-2h12v2zm0-4v-2h18v2zm0-4v-2h18v2zm0-4v-2h18v2z"/>
 <rect fill="url(#ucPurpleBlue)" width="40" height="20" x="4" y="22" rx="2" ry="2"/>
 <path fill="#fff" opacity=".2" d="m6 22c-1.108 0-2 0.892-2 2v1c0-1.108 0.892-2 2-2h36c1.108 0 2 0.892 2 2v-1c0-1.108-0.892-2-2-2h-36z"/>
 <path opacity=".2" d="m4 40v1c0 1.108 0.892 2 2 2h36c1.108 0 2-0.892 2-2v-1c0 1.108-0.892 2-2 2h-36c-1.108 0-2-0.892-2-2z"/>
 <rect fill="url(#ucPurpleBlue)" width="16" height="4" x="16" y="29" rx="1" ry="1"/>
</svg>
