<svg width="48" height="48" version="1.1" xmlns="http://www.w3.org/2000/svg"><defs>
<linearGradient id="ucPurpleBlue" x1="0%" y1="0%" x2="100%" y2="100%">
  <stop offset="0%" style="stop-color:#B794F4;stop-opacity:1"/>
  <stop offset="100%" style="stop-color:#4299E1;stop-opacity:1"/>
</linearGradient>
</defs>
 <rect x="4" y="5" width="40" height="40" rx="2" ry="2" style="opacity:.2"/>
 <rect x="4" y="4" width="40" height="40" rx="2" ry="2" style="fill:#a1441e"/>
 <path d="m17.5823 36h6.131l7.039-17.902 3.096 1.008 1.031-3.467-6.676-1.928-4.49 11.383-6.584-10.375h-4.129l9.195 14.849-1.031 2.934h-3.582z" style="opacity:.2"/>
 <path d="m17.5823 35h6.131l7.039-17.902 3.096 1.008 1.031-3.467-6.676-1.928-4.49 11.383-6.584-10.375h-4.129l9.195 14.849-1.031 2.934h-3.582z" style="fill:#c9c9c9"/>
 <path d="m6 4c-1.108 0-2 0.892-2 2v1c0-1.108 0.892-2 2-2h36c1.108 0 2 0.892 2 2v-1c0-1.108-0.892-2-2-2h-36z" style="fill:#ffffff;opacity:.2"/>
</svg>
