<svg xmlns="http://www.w3.org/2000/svg" width="48" height="48" version="1"><defs>
<linearGradient id="ucPurpleBlue" x1="0%" y1="0%" x2="100%" y2="100%">
  <stop offset="0%" style="stop-color:#B794F4;stop-opacity:1"/>
  <stop offset="100%" style="stop-color:#4299E1;stop-opacity:1"/>
</linearGradient>
</defs>
 <path fill="url(#ucPurpleBlue)" d="m44 6-4 4v18c0 1.108-0.892 2-2 2h-20c-1.108 0-2-0.892-2-2v-20c0-1.108 0.892-2 2-2h26z"/>
 <path opacity=".2" d="m20 12v2h16v-2h-16zm0 4v2h16v-2h-16zm0 4v2h12v-2h-12z"/>
 <path fill="url(#ucPurpleBlue)" d="m44 6-4 4v18c0 1.108-0.892 2-2 2h-20c-1.108 0-2-0.892-2-2v-20c0-1.108 0.892-2 2-2h26z"/>
 <path opacity=".2" d="m43 7-3 3v1l4-4h-1zm-27 21v1c0 1.108 0.892 2 2 2h20c1.108 0 2-0.892 2-2v-1c0 1.108-0.892 2-2 2h-20c-1.108 0-2-0.892-2-2z"/>
 <path fill="url(#ucPurpleBlue)" d="m4 18 4 4v18c0 1.108 0.892 2 2 2h20c1.108 0 2-0.892 2-2v-20c0-1.108-0.892-2-2-2h-26z"/>
 <path opacity=".2" d="m12 27v2h16v-2h-16zm0 4v2h16v-2h-16zm0 4v2h12v-2h-12z"/>
 <path fill="url(#ucPurpleBlue)" d="m12 26v2h16v-2h-16zm0 4v2h16v-2h-16zm0 4v2h12v-2h-12z"/>
 <path fill="#fff" opacity=".2" d="m18 6c-1.108 0-2 0.892-2 2v0.5c0-1.108 0.892-2 2-2h25.5l0.5-0.5h-26z"/>
 <path fill="#fff" opacity=".2" d="m4 18 0.5 0.5h25.5c1.108 0 2 0.892 2 2v-0.5c0-1.108-0.892-2-2-2h-26z"/>
 <path opacity=".2" d="m4 19 4 4v-1l-3-3h-1zm4 21v1c0 1.108 0.892 2 2 2h20c1.108 0 2-0.892 2-2v-1c0 1.108-0.892 2-2 2h-20c-1.108 0-2-0.892-2-2z"/>
</svg>
