<svg xmlns="http://www.w3.org/2000/svg" width="48" height="48" version="1"><defs>
<linearGradient id="ucPurpleBlue" x1="0%" y1="0%" x2="100%" y2="100%">
  <stop offset="0%" style="stop-color:#B794F4;stop-opacity:1"/>
  <stop offset="100%" style="stop-color:#4299E1;stop-opacity:1"/>
</linearGradient>
</defs>
 <rect fill="url(#ucPurpleBlue)" width="40" height="40" x="4" y="4" rx="2" ry="2"/>
 <path fill="#fff" opacity=".2" d="m6 4c-1.108 0-2 0.892-2 2v1c0-1.108 0.892-2 2-2h36c1.108 0 2 0.892 2 2v-1c0-1.108-0.892-2-2-2h-36z"/>
 <path opacity=".2" d="m6 45c-1.108 0-2-0.892-2-2v-1c0 1.108 0.892 2 2 2h36c1.108 0 2-0.892 2-2v1c0 1.108-0.892 2-2 2h-36z"/>
 <path fill="url(#ucPurpleBlue)" d="m16 14v2h0.008l4.5918 7.9492-4.5996 7.9648v2.0859h16v-4h-2v2h-11.738l4.041-7 0.60547-1.0488v-0.002l-0.60547-1.0488-3.9844-6.9004h9.6816v1h2v-3h-14z"/>
</svg>
