<svg xmlns="http://www.w3.org/2000/svg" width="48" height="48" version="1.1"><defs>
<linearGradient id="ucPurpleBlue" x1="0%" y1="0%" x2="100%" y2="100%">
  <stop offset="0%" style="stop-color:#B794F4;stop-opacity:1"/>
  <stop offset="100%" style="stop-color:#4299E1;stop-opacity:1"/>
</linearGradient>
</defs>
 <path style="fill:#5ca742" d="m24 4a20 20 0 0 0 -20 20 20 20 0 0 0 20 20 20 20 0 0 0 20 -20 20 20 0 0 0 -20 -20z"/>
 <path opacity=".2" d="m4.0215 24.418a20 20 0 0 0 -0.0215 0.582 20 20 0 0 0 20 20 20 20 0 0 0 20 -20 20 20 0 0 0 -0.021 -0.418 20 20 0 0 1 -19.979 19.418 20 20 0 0 1 -19.978 -19.582z"/>
 <path fill="url(#ucPurpleBlue)" opacity=".2" d="m24 4a20 20 0 0 0 -20 20 20 20 0 0 0 0.0215 0.418 20 20 0 0 1 19.978 -19.418 20 20 0 0 1 19.979 19.582 20 20 0 0 0 0.021 -0.582 20 20 0 0 0 -20 -20z"/>
 <g style="opacity:0.2" transform="translate(0,1)">
  <path d="m 24,8 a 9,9 0 0 0 -9,9 9,9 0 0 0 9,9 9,9 0 0 0 9,-9 9,9 0 0 0 -9,-9 z m 0,2 a 4,4 0 0 1 4,4 4,4 0 0 1 -4,4 4,4 0 0 1 -4,-4 4,4 0 0 1 4,-4 z"/>
  <path d="m 20,22 v 14 l 4,4 4,-4 V 35 L 30,33.5 28,32 v -1.5 l 2,-2 -2,-2 V 22 Z m 1,4 h 2 v 9 h -2 z"/>
 </g>
 <g>
  <path style="fill:#ffffff" d="M 24 8 A 9 9 0 0 0 15 17 A 9 9 0 0 0 24 26 A 9 9 0 0 0 33 17 A 9 9 0 0 0 24 8 z M 24 10 A 4 4 0 0 1 28 14 A 4 4 0 0 1 24 18 A 4 4 0 0 1 20 14 A 4 4 0 0 1 24 10 z"/>
  <path style="fill:#ffffff" d="m 20,22 v 14 l 4,4 4,-4 V 35 L 30,33.5 28,32 v -1.5 l 2,-2 -2,-2 V 22 Z m 1,4 h 2 v 9 h -2 z"/>
 </g>
</svg>
