<svg xmlns="http://www.w3.org/2000/svg" width="48" height="48" version="1.1"><defs>
<linearGradient id="ucPurpleBlue" x1="0%" y1="0%" x2="100%" y2="100%">
  <stop offset="0%" style="stop-color:#B794F4;stop-opacity:1"/>
  <stop offset="100%" style="stop-color:#4299E1;stop-opacity:1"/>
</linearGradient>
</defs>
 <rect style="fill:#616161" width="38" height="38" x="-43" y="-43" rx="1.9" ry="1.9" transform="matrix(0,-1,-1,0,0,0)"/>
 <path style="opacity:0.2" d="M 6,45 C 4.892,45 4,44.108 4,43 v -1 c 0,1.108 0.892,2 2,2 h 36 c 1.108,0 2,-0.892 2,-2 v 1 c 0,1.108 -0.892,2 -2,2 z"/>
 <path style="fill:#0a9554" d="M 24 24 L 24 44 L 42 44 C 43.108 44 44 43.108 44 42 L 44 24 L 24 24 z"/>
 <path style="fill:#38739d" d="M 24 4 L 24 24 L 44 24 L 44 6 C 44 4.892 43.108 4 42 4 L 24 4 z"/>
 <path style="fill:#e54333" d="M 6 4 C 4.892 4 4 4.892 4 6 L 4 24 L 24 24 L 24 4 L 6 4 z"/>
 <path style="fill:#ff8f1e" d="M 4 24 L 4 42 C 4 43.108 4.892 44 6 44 L 24 44 L 24 24 L 4 24 z"/>
 <path style="opacity:0.1;fill:#ffffff" d="M 6,4 C 4.892,4 4,4.892 4,6 V 7 C 4,5.892 4.892,5 6,5 h 36 c 1.108,0 2,0.892 2,2 V 6 C 44,4.892 43.108,4 42,4 Z"/>
 <rect style="opacity:0.1;fill:#ffffff" width="40" height="1" x="4" y="24"/>
</svg>
