<svg xmlns="http://www.w3.org/2000/svg" width="48" height="48" version="1"><defs>
<linearGradient id="ucPurpleBlue" x1="0%" y1="0%" x2="100%" y2="100%">
  <stop offset="0%" style="stop-color:#B794F4;stop-opacity:1"/>
  <stop offset="100%" style="stop-color:#4299E1;stop-opacity:1"/>
</linearGradient>
</defs>
 <path fill="url(#ucPurpleBlue)" d="m25 31a10 10 0 0 1 -10 10 10 10 0 0 1 -10 -10 10 10 0 0 1 10 -10 10 10 0 0 1 10 10z"/>
 <path fill="url(#ucPurpleBlue)" d="m43 18a10 10 0 0 1 -10 10 10 10 0 0 1 -10 -10 10 10 0 0 1 10 -10 10 10 0 0 1 10 10z"/>
 <path fill="#fff" opacity=".2" d="m15 21a10 10 0 0 0 -10 10 10 10 0 0 0 0.0215 0.586 10 10 0 0 1 9.9785 -9.586 10 10 0 0 1 9.979 9.414 10 10 0 0 0 0.021 -0.414 10 10 0 0 0 -10 -10z"/>
 <path fill="#fff" opacity=".2" d="m33 8a10 10 0 0 0 -10 10 10 10 0 0 0 0.021 0.586 10 10 0 0 1 9.979 -9.586 10 10 0 0 1 9.979 9.414 10 10 0 0 0 0.021 -0.414 10 10 0 0 0 -10 -10z"/>
 <path opacity=".2" d="m23.021 18.414a10 10 0 0 0 -0.021 0.586 10 10 0 0 0 10 10 10 10 0 0 0 10 -10 10 10 0 0 0 -0.021 -0.414 10 10 0 0 1 -9.979 9.414 10 10 0 0 1 -9.979 -9.586zm-18 13a10 10 0 0 0 -0.0215 0.586 10 10 0 0 0 10 10 10 10 0 0 0 10 -10 10 10 0 0 0 -0.021 -0.414 10 10 0 0 1 -9.978 9.414 10 10 0 0 1 -9.979 -9.586z"/>
</svg>
