<svg xmlns="http://www.w3.org/2000/svg" width="48" height="48" version="1"><defs>
<linearGradient id="ucPurpleBlue" x1="0%" y1="0%" x2="100%" y2="100%">
  <stop offset="0%" style="stop-color:#B794F4;stop-opacity:1"/>
  <stop offset="100%" style="stop-color:#4299E1;stop-opacity:1"/>
</linearGradient>
</defs>
 <path fill="url(#ucPurpleBlue)" d="m40 42v-36c0-1.108-0.892-2-2-2h-28c-1.108 0-2 0.892-2 2v36c0 1.108 0.892 2 2 2h28c1.108 0 2-0.892 2-2z"/>
 <path fill="#fff" opacity=".1" d="m10 4c-1.108 0-2 0.892-2 2v1c0-1.108 0.892-2 2-2h28c1.108 0 2 0.892 2 2v-1c0-1.108-0.892-2-2-2z"/>
 <path fill="url(#ucPurpleBlue)" d="m13 9h22v2h-22z"/>
 <path fill="url(#ucPurpleBlue)" d="m13 14h22v2h-22z"/>
 <path fill="url(#ucPurpleBlue)" d="m13 19h22v2h-22z"/>
 <path fill="url(#ucPurpleBlue)" d="m38 44c1.108 0 2-0.892 2-2v-17h-32v17c0 1.108 0.892 2 2 2z"/>
 <path fill="#fff" d="m13 29h22v2h-22z"/>
 <path fill="#fff" d="m13 34h22v2h-22z"/>
 <path fill="#fff" d="m13 39h22v2h-22z"/>
 <path opacity=".2" d="m8 42v1c0 1.108 0.892 2 2 2h28c1.108 0 2-0.892 2-2v-1c0 1.108-0.892 2-2 2h-28c-1.108 0-2-0.892-2-2z"/>
</svg>
