<svg xmlns="http://www.w3.org/2000/svg" width="48" height="48" version="1"><defs>
<linearGradient id="ucPurpleBlue" x1="0%" y1="0%" x2="100%" y2="100%">
  <stop offset="0%" style="stop-color:#B794F4;stop-opacity:1"/>
  <stop offset="100%" style="stop-color:#4299E1;stop-opacity:1"/>
</linearGradient>
</defs>
 <rect fill="url(#ucPurpleBlue)" width="12" height="12" x="5" y="5" rx="2" ry="2"/>
 <rect fill="url(#ucPurpleBlue)" width="12" height="12" x="18" y="5" rx="2" ry="2"/>
 <rect fill="url(#ucPurpleBlue)" width="12" height="12" x="31" y="5" rx="2" ry="2"/>
 <rect fill="url(#ucPurpleBlue)" width="12" height="12" x="5" y="18" rx="2" ry="2"/>
 <rect fill="url(#ucPurpleBlue)" width="12" height="12" x="18" y="18" rx="2" ry="2"/>
 <rect fill="url(#ucPurpleBlue)" width="12" height="12" x="31" y="18" rx="2" ry="2"/>
 <rect fill="url(#ucPurpleBlue)" width="12" height="12" x="5" y="31" rx="2" ry="2"/>
 <rect fill="url(#ucPurpleBlue)" width="12" height="12" x="18" y="31" rx="2" ry="2"/>
 <rect fill="url(#ucPurpleBlue)" width="12" height="12" x="31" y="31" rx="2" ry="2"/>
 <path opacity=".2" d="m5 15v1c0 1.108 0.892 2 2 2h8c1.108 0 2-0.892 2-2v-1c0 1.108-0.892 2-2 2h-8c-1.108 0-2-0.892-2-2zm13 0v1c0 1.108 0.892 2 2 2h8c1.108 0 2-0.892 2-2v-1c0 1.108-0.892 2-2 2h-8c-1.108 0-2-0.892-2-2zm13 0v1c0 1.108 0.892 2 2 2h8c1.108 0 2-0.892 2-2v-1c0 1.108-0.892 2-2 2h-8c-1.108 0-2-0.892-2-2zm-26 13v1c0 1.108 0.892 2 2 2h8c1.108 0 2-0.892 2-2v-1c0 1.108-0.892 2-2 2h-8c-1.108 0-2-0.892-2-2zm13 0v1c0 1.108 0.892 2 2 2h8c1.108 0 2-0.892 2-2v-1c0 1.108-0.892 2-2 2h-8c-1.108 0-2-0.892-2-2zm13 0v1c0 1.108 0.892 2 2 2h8c1.108 0 2-0.892 2-2v-1c0 1.108-0.892 2-2 2h-8c-1.108 0-2-0.892-2-2zm-26 13v1c0 1.108 0.892 2 2 2h8c1.108 0 2-0.892 2-2v-1c0 1.108-0.892 2-2 2h-8c-1.108 0-2-0.892-2-2zm13 0v1c0 1.108 0.892 2 2 2h8c1.108 0 2-0.892 2-2v-1c0 1.108-0.892 2-2 2h-8c-1.108 0-2-0.892-2-2zm13 0v1c0 1.108 0.892 2 2 2h8c1.108 0 2-0.892 2-2v-1c0 1.108-0.892 2-2 2h-8c-1.108 0-2-0.892-2-2z"/>
 <path fill="#fff" opacity=".2" d="m7 5c-1.108 0-2 0.892-2 2v1c0-1.108 0.892-2 2-2h8c1.108 0 2 0.892 2 2v-1c0-1.108-0.892-2-2-2h-8zm13 0c-1.108 0-2 0.892-2 2v1c0-1.108 0.892-2 2-2h8c1.108 0 2 0.892 2 2v-1c0-1.108-0.892-2-2-2h-8zm13 0c-1.108 0-2 0.892-2 2v1c0-1.108 0.892-2 2-2h8c1.108 0 2 0.892 2 2v-1c0-1.108-0.892-2-2-2h-8zm-26 13c-1.108 0-2 0.892-2 2v1c0-1.108 0.892-2 2-2h8c1.108 0 2 0.892 2 2v-1c0-1.108-0.892-2-2-2h-8zm13 0c-1.108 0-2 0.892-2 2v1c0-1.108 0.892-2 2-2h8c1.108 0 2 0.892 2 2v-1c0-1.108-0.892-2-2-2h-8zm13 0c-1.108 0-2 0.892-2 2v1c0-1.108 0.892-2 2-2h8c1.108 0 2 0.892 2 2v-1c0-1.108-0.892-2-2-2h-8zm-26 13c-1.108 0-2 0.892-2 2v1c0-1.108 0.892-2 2-2h8c1.108 0 2 0.892 2 2v-1c0-1.108-0.892-2-2-2h-8zm13 0c-1.108 0-2 0.892-2 2v1c0-1.108 0.892-2 2-2h8c1.108 0 2 0.892 2 2v-1c0-1.108-0.892-2-2-2h-8zm13 0c-1.108 0-2 0.892-2 2v1c0-1.108 0.892-2 2-2h8c1.108 0 2 0.892 2 2v-1c0-1.108-0.892-2-2-2h-8z"/>
</svg>
