<svg xmlns="http://www.w3.org/2000/svg" width="48" height="48" version="1"><defs>
<linearGradient id="ucPurpleBlue" x1="0%" y1="0%" x2="100%" y2="100%">
  <stop offset="0%" style="stop-color:#B794F4;stop-opacity:1"/>
  <stop offset="100%" style="stop-color:#4299E1;stop-opacity:1"/>
</linearGradient>
</defs>
 <path fill="url(#ucPurpleBlue)" d="m10 8c-1.108 0-2 0.892-2 2v2c0 1.108 0.892 2 2 2h10c1.108 0 2-0.892 2-2v-2c0-1.108-0.892-2-2-2h-10zm18 0c-1.108 0-2 0.892-2 2v2c0 1.108 0.892 2 2 2h10c1.108 0 2-0.892 2-2v-2c0-1.108-0.892-2-2-2h-10z"/>
 <path fill="url(#ucPurpleBlue)" d="m44 39v-25c0-1.108-0.892-2-2-2h-36c-1.108 0-2 0.892-2 2v25c0 1.108 0.892 2 2 2h36c1.108 0 2-0.892 2-2z"/>
 <path opacity=".2" d="m6 42c-1.108 0-2-0.892-2-2v-1c0 1.108 0.892 2 2 2h36c1.108 0 2-0.892 2-2v1c0 1.108-0.892 2-2 2h-36z"/>
 <path fill="#fff" opacity=".2" d="m6 12c-1.108 0-2 0.892-2 2v1c0-1.108 0.892-2 2-2h36c1.108 0 2 0.892 2 2v-1c0-1.108-0.892-2-2-2h-36z"/>
 <path fill="#fff" opacity=".2" d="m10 8c-1.108 0-2 0.892-2 2v1c0-1.108 0.892-2 2-2h10c1.108 0 2 0.892 2 2v-1c0-1.108-0.892-2-2-2h-10zm18 0c-1.108 0-2 0.892-2 2v1c0-1.108 0.892-2 2-2h10c1.108 0 2 0.892 2 2v-1c0-1.108-0.892-2-2-2h-10z"/>
</svg>
