<svg xmlns="http://www.w3.org/2000/svg" width="48" height="48" version="1.1"><defs>
<linearGradient id="ucPurpleBlue" x1="0%" y1="0%" x2="100%" y2="100%">
  <stop offset="0%" style="stop-color:#B794F4;stop-opacity:1"/>
  <stop offset="100%" style="stop-color:#4299E1;stop-opacity:1"/>
</linearGradient>
</defs>
 <g transform="translate(0,-1004.3622)">
  <circle style="opacity:.2" cx="24" cy="1029.362" r="20"/>
  <circle style="fill:#e4e4e4" cx="24" cy="1028.362" r="20"/>
  <path style="opacity:.2;fill:#ffffff" transform="translate(0,1004.3622)" d="m24 4a20 20 0 0 0 -20 20 20 20 0 0 0 0.0214844 0.582031 20 20 0 0 1 19.978516 -19.582031 20 20 0 0 1 19.978516 19.417969 20 20 0 0 0 0.021484 -0.417969 20 20 0 0 0 -20 -20z"/>
  <rect style="fill:#469961" width="20" height="4" x="26" y="1026.36" ry="2"/>
  <rect style="fill:#438f96" width="20" height="4" x="2" y="1020.36" ry="2"/>
  <rect style="fill:#469961" width="20" height="4" x="2" y="1032.36" ry="2"/>
  <path style="fill:#3f3f3f" d="m16 1038.3622c1.320421-3.9504 1.983627-7.037 2-10 0.01678-3.0374-0.646421-5.9504-2-10 12.46173 0 18 10 18 10s-5.53827 10-18 10z"/>
 </g>
</svg>
