<svg xmlns="http://www.w3.org/2000/svg" height="48" width="48" version="1.1"><defs>
<linearGradient id="ucPurpleBlue" x1="0%" y1="0%" x2="100%" y2="100%">
  <stop offset="0%" style="stop-color:#B794F4;stop-opacity:1"/>
  <stop offset="100%" style="stop-color:#4299E1;stop-opacity:1"/>
</linearGradient>
</defs>
 <circle cx="24" cy="25" r="20" style="opacity:.2"/>
 <circle cx="24" cy="24" r="20" style="fill:#00acc4"/>
 <path d="m24 4a20 20 0 0 0 -20 20 20 20 0 0 0 0.0215 0.582 20 20 0 0 1 19.9785 -19.582 20 20 0 0 1 19.979 19.418 20 20 0 0 0 0.021 -0.418 20 20 0 0 0 -20 -20z" style="opacity:.2;fill:#ffffff"/>
 <path style="opacity:.2" d="m24 13a8 8 0 0 0 -8 8 8 8 0 0 0 8 8 8 8 0 0 0 8 -8 8 8 0 0 0 -8 -8zm0 16a13 13 0 0 0 -12.873047 11.306641 20 20 0 0 0 12.873047 4.693359 20 20 0 0 0 12.871094 -4.720703 13 13 0 0 0 -12.871094 -11.279297z"/>
 <path style="fill:#a9d5a0" d="m24 12a8 8 0 0 0 -8 8 8 8 0 0 0 8 8 8 8 0 0 0 8 -8 8 8 0 0 0 -8 -8zm0 16a13 13 0 0 0 -12.873047 11.306641 20 20 0 0 0 12.873047 4.693359 20 20 0 0 0 12.871094 -4.720703 13 13 0 0 0 -12.871094 -11.279297z"/>
 <rect style="fill:#ffffff" height="3" width="3" y="19" x="18"/>
 <rect style="fill:#ffffff" height="3" width="3" y="19" x="27"/>
 <path style="fill:#3f3f3f" d="m17 18 2-2 3 2v1z"/>
 <path style="fill:#3f3f3f" d="m31 18-2-2-3 2v1z"/>
 <path style="opacity:.2;fill:#ffffff" d="m24 12a8 8 0 0 0 -8 8 8 8 0 0 0 0.021484 0.423828 8 8 0 0 1 7.978516 -7.423828 8 8 0 0 1 7.978516 7.576172 8 8 0 0 0 0.021484 -0.576172 8 8 0 0 0 -8 -8zm3.089844 16.378906a8 8 0 0 1 -3.089844 0.621094 13 13 0 0 1 12.708984 10.402344 20 20 0 0 0 0.16211 -0.123047 13 13 0 0 0 -9.78125 -10.900391zm-3.089844 0.621094a8 8 0 0 1 -3.060547 -0.615234 13 13 0 0 0 -9.8125 10.921875 20 20 0 0 0 0.160156 0.121093 13 13 0 0 1 12.712891 -10.427734z"/>
 <path style="opacity:.2" d="m13 17h22l-11-8z"/>
 <path style="fill:#db6d7d" d="m13 16h22l-11-8z"/>
 <path style="opacity:.2;fill:#ffffff" d="m24 8l-11 8h1.375l9.625-7 9.625 7h1.375l-11-8z"/>
</svg>
