<svg xmlns="http://www.w3.org/2000/svg" width="48" height="48" version="1"><defs>
<linearGradient id="ucPurpleBlue" x1="0%" y1="0%" x2="100%" y2="100%">
  <stop offset="0%" style="stop-color:#B794F4;stop-opacity:1"/>
  <stop offset="100%" style="stop-color:#4299E1;stop-opacity:1"/>
</linearGradient>
</defs>
 <rect style="fill:#ac4cc7" width="40" height="40" x="4" y="4" rx="2" ry="2"/>
 <path fill="#fff" opacity=".2" d="m6 4c-1.108 0-2 0.892-2 2v1c0-1.108 0.892-2 2-2h36c1.108 0 2 0.892 2 2v-1c0-1.108-0.892-2-2-2h-36z"/>
 <path opacity=".2" d="m6 45c-1.108 0-2-0.892-2-2v-1c0 1.108 0.892 2 2 2h36c1.108 0 2-0.892 2-2v1c0 1.108-0.892 2-2 2h-36z"/>
 <g style="opacity:0.2" transform="translate(0,1)">
  <rect width="4" height="32" x="22" y="8" rx="2" ry="2"/>
  <rect width="4" height="20" x="14" y="14" rx="2" ry="2"/>
  <rect width="4" height="28" x="30" y="10" rx="2" ry="2"/>
  <rect width="4" height="24" x="6" y="12" rx="2" ry="2"/>
  <rect width="4" height="24" x="38" y="12" rx="2" ry="2"/>
 </g>
 <g style="fill:#a8cce3">
  <rect style="fill:#a8cce3" width="4" height="32" x="22" y="8" rx="2" ry="2"/>
  <rect style="fill:#a8cce3" width="4" height="20" x="14" y="14" rx="2" ry="2"/>
  <rect style="fill:#a8cce3" width="4" height="28" x="30" y="10" rx="2" ry="2"/>
  <rect style="fill:#a8cce3" width="4" height="24" x="6" y="12" rx="2" ry="2"/>
  <rect style="fill:#a8cce3" width="4" height="24" x="38" y="12" rx="2" ry="2"/>
 </g>
</svg>
