<svg width="48" height="48" version="1.1" xmlns="http://www.w3.org/2000/svg"><defs>
<linearGradient id="ucPurpleBlue" x1="0%" y1="0%" x2="100%" y2="100%">
  <stop offset="0%" style="stop-color:#B794F4;stop-opacity:1"/>
  <stop offset="100%" style="stop-color:#4299E1;stop-opacity:1"/>
</linearGradient>
</defs>
 <circle cx="24" cy="25" r="20" style="opacity:.2"/>
 <circle cx="24" cy="24" r="20" style="fill:#8044ba"/>
 <path d="m13 18v7.5c0 3.5 2 4.5 2 4.5h9" style="fill:none;opacity:.2;stroke-linejoin:round;stroke-width:4;stroke:#000000"/>
 <path d="M 24,4 A 20,20 0 0 0 4,24 20,20 0 0 0 4.0215,24.582 20,20 0 0 1 24,5 20,20 0 0 1 43.979,24.418 20,20 0 0 0 44,24 20,20 0 0 0 24,4 Z" style="fill:#ffffff;opacity:.1"/>
 <path d="m13 17v7.5c0 3.5 2 4.5 2 4.5h9" style="fill:none;stroke-linejoin:round;stroke-width:4;stroke:#9e9e9e"/>
 <path d="m22 20h12l-10 10h12" style="fill:none;opacity:.2;stroke-linejoin:round;stroke-width:4;stroke:#000000"/>
 <path d="m22 19h12l-10 10h12" style="fill:none;stroke-linejoin:round;stroke-width:4;stroke:#fefefe"/>
</svg>
