<svg xmlns="http://www.w3.org/2000/svg" width="48" height="48" version="1"><defs>
<linearGradient id="ucPurpleBlue" x1="0%" y1="0%" x2="100%" y2="100%">
  <stop offset="0%" style="stop-color:#B794F4;stop-opacity:1"/>
  <stop offset="100%" style="stop-color:#4299E1;stop-opacity:1"/>
</linearGradient>
</defs>
 <path fill="url(#ucPurpleBlue)" d="m44 39v-30c0-1.108-0.892-2-2-2h-36c-1.108 0-2 0.892-2 2v30c0 1.108 0.892 2 2 2h36c1.108 0 2-0.892 2-2z"/>
 <rect opacity=".2" width="28" height="22" x="10" y="14" rx="1.89" ry="2.002"/>
 <path opacity=".2" d="m4 39v1c0 1.108 0.892 2 2 2h36c1.108 0 2-0.892 2-2v-1c0 1.108-0.892 2-2 2h-36c-1.108 0-2-0.892-2-2z"/>
 <path fill="#fff" opacity=".2" d="m6 7c-1.108 0-2 0.892-2 2v1c0-1.108 0.892-2 2-2h36c1.108 0 2 0.892 2 2v-1c0-1.108-0.892-2-2-2h-36z"/>
 <rect fill="url(#ucPurpleBlue)" width="28" height="22" x="10" y="13" rx="1.89" ry="2.002"/>
 <rect opacity=".2" width="12" height="4" x="18" y="23" rx="1.984" ry="1.825"/>
 <rect fill="url(#ucPurpleBlue)" width="12" height="4" x="18" y="22" rx="1.984" ry="1.825"/>
</svg>
