<svg xmlns="http://www.w3.org/2000/svg" width="48" height="48" version="1"><defs>
<linearGradient id="ucPurpleBlue" x1="0%" y1="0%" x2="100%" y2="100%">
  <stop offset="0%" style="stop-color:#B794F4;stop-opacity:1"/>
  <stop offset="100%" style="stop-color:#4299E1;stop-opacity:1"/>
</linearGradient>
</defs>
 <path fill="url(#ucPurpleBlue)" d="m44 40v-32c0-1.108-0.892-2-2-2h-36c-1.108 0-2 0.892-2 2v32c0 1.108 0.892 2 2 2h36c1.108 0 2-0.892 2-2z"/>
 <path fill="#fff" opacity=".2" d="m44 40v-32c0-1.108-0.892-2-2-2h-18v36h18c1.108 0 2-0.892 2-2z"/>
 <path fill="#fff" opacity=".2" d="m6 6c-1.108 0-2 0.892-2 2v1c0-1.108 0.892-2 2-2h36c1.108 0 2 0.892 2 2v-1c0-1.108-0.892-2-2-2h-36z"/>
 <path opacity=".2" d="m4 40v1c0 1.108 0.892 2 2 2h36c1.108 0 2-0.892 2-2v-1c0 1.108-0.892 2-2 2h-36c-1.108 0-2-0.892-2-2z"/>
 <path fill="#fff" d="m6 9h15v1h-15z"/>
 <path fill="#fff" d="m6 11h11v1h-11z"/>
 <path fill="#fff" d="m6 13h9v1h-9z"/>
 <path fill="#fff" d="m6 15h6v1h-6z"/>
 <path fill="#fff" d="m27 9h10v1h-10z"/>
 <path fill="#fff" d="m27 11h15v1h-15z"/>
 <path fill="#fff" d="m27 13h9v1h-9z"/>
 <path fill="#fff" d="m27 15h12v1h-12z"/>
 <path opacity=".2" d="m6 10h15v1h-15z"/>
 <path opacity=".2" d="m6 12h11v1h-11z"/>
 <path opacity=".2" d="m6 14h9v1h-9z"/>
 <path opacity=".2" d="m6 16h6v1h-6z"/>
 <path opacity=".2" d="m27 10h10v1h-10z"/>
 <path opacity=".2" d="m27 12h15v1h-15z"/>
 <path opacity=".2" d="m27 14h9v1h-9z"/>
 <path opacity=".2" d="m27 16h12v1h-12z"/>
</svg>
