<svg xmlns="http://www.w3.org/2000/svg" width="48" height="48" version="1"><defs>
<linearGradient id="ucPurpleBlue" x1="0%" y1="0%" x2="100%" y2="100%">
  <stop offset="0%" style="stop-color:#B794F4;stop-opacity:1"/>
  <stop offset="100%" style="stop-color:#4299E1;stop-opacity:1"/>
</linearGradient>
</defs>
 <rect style="opacity:0.2" width="40" height="40" x="4" y="5" rx="2" ry="2"/>
 <rect style="fill:#384256" width="40" height="40" x="4" y="4" rx="2" ry="2"/>
 <path style="fill:#ffffff;opacity:0.1" d="M 6 4 C 4.892 4 4 4.892 4 6 L 4 7 C 4 5.892 4.892 5 6 5 L 42 5 C 43.108 5 44 5.892 44 7 L 44 6 C 44 4.892 43.108 4 42 4 L 6 4 z"/>
 <path style="opacity:0.2" d="m 10,14 v 22 h 8 V 25.3125 l 6,6 6,-6 V 36 h 8 V 14 h -8 l -6,6 -6,-6 z"/>
 <path style="fill:#f83737" d="m 10,13 v 22 h 8 V 24.3125 l 6,6 V 19 l -6,-6 z"/>
 <path style="fill:#c01616" d="M 38,13 V 35 H 30 V 24.3125 l -6,6 V 19 l 6,-6 z"/>
 <path style="fill:#ffffff;opacity:0.2" d="M 10 13 L 10 14 L 18 14 L 24 20 L 30 14 L 38 14 L 38 13 L 30 13 L 24 19 L 18 13 L 10 13 z"/>
</svg>
