<svg xmlns="http://www.w3.org/2000/svg" width="48" height="48" version="1.1"><defs>
<linearGradient id="ucPurpleBlue" x1="0%" y1="0%" x2="100%" y2="100%">
  <stop offset="0%" style="stop-color:#B794F4;stop-opacity:1"/>
  <stop offset="100%" style="stop-color:#4299E1;stop-opacity:1"/>
</linearGradient>
</defs>
 <path style="fill:#234780" d="M 24,4 A 20,20 0 0 0 4,24 20,20 0 0 0 24,44 20,20 0 0 0 44,24 20,20 0 0 0 24,4 Z"/>
 <path style="opacity:0.2" d="M 4.0215,24.418 A 20,20 0 0 0 4,25 20,20 0 0 0 24,45 20,20 0 0 0 44,25 20,20 0 0 0 43.979,24.582 20,20 0 0 1 24,44 20,20 0 0 1 4.022,24.418 Z"/>
 <path style="opacity:0.1;fill:#ffffff" d="M 24,4 A 20,20 0 0 0 4,24 20,20 0 0 0 4.0215,24.418 20,20 0 0 1 23.9995,5 20,20 0 0 1 43.9785,24.582 20,20 0 0 0 43.9995,24 a 20,20 0 0 0 -20,-20 z"/>
 <path style="opacity:0.2" d="m 24,9 5,8 5,8 -10,6 -10,-6 5,-8 z"/>
 <path style="fill:#63bfd7" d="M 24,7.9999999 29,16 l 5,8 -10,6 -10,-6 5,-8 z"/>
 <path style="opacity:0.2" d="m 24,41 5,-7 5,-7 -10,6 -10,-6 5,7 z"/>
 <path style="fill:#63bfd7" d="m 24,40 5,-7 5,-7 -10,6 -10,-6 5,7 z"/>
</svg>
