<svg xmlns="http://www.w3.org/2000/svg" width="48" height="48" version="1"><defs>
<linearGradient id="ucPurpleBlue" x1="0%" y1="0%" x2="100%" y2="100%">
  <stop offset="0%" style="stop-color:#B794F4;stop-opacity:1"/>
  <stop offset="100%" style="stop-color:#4299E1;stop-opacity:1"/>
</linearGradient>
</defs>
 <rect fill="url(#ucPurpleBlue)" width="40" height="40" x="4" y="4" rx="2" ry="2"/>
 <path fill="#fff" opacity=".2" d="m6 4c-1.108 0-2 0.892-2 2v1c0-1.108 0.892-2 2-2h36c1.108 0 2 0.892 2 2v-1c0-1.108-0.892-2-2-2h-36z"/>
 <path opacity=".2" d="m6 44c-1.108 0-2-0.892-2-2v-1c0 1.108 0.892 2 2 2h36c1.108 0 2-0.892 2-2v1c0 1.108-0.892 2-2 2h-36z"/>
 <path opacity=".2" d="m11 10c-1.108 0-2 0.892-2 2v26c0 1.108 0.892 2 2 2h26c1.108 0 2-0.892 2-2v-26c0-1.108-0.892-2-2-2h-26zm1 4h7l5 11 5-11h7v22h-5v-16l-5 12h-4l-5-12v16h-5v-22z"/>
 <path fill="#fff" d="m11 9c-1.108 0-2 0.892-2 2v26c0 1.108 0.892 2 2 2h26c1.108 0 2-0.892 2-2v-26c0-1.108-0.892-2-2-2h-26zm1 4h7l5 11 5-11h7v22h-5v-16l-5 12h-4l-5-12v16h-5v-22z"/>
 <circle opacity=".2" cx="36" cy="37" r="11"/>
 <circle fill="url(#ucPurpleBlue)" cx="36" cy="36" r="11"/>
 <path fill="#fff" d="m27 32v2h3v6h2v-6h3v-2h-8zm9 0 2.8008 8h2.3984l2.801-8h-2l-2 6-2-6h-2z"/>
</svg>
