<svg xmlns="http://www.w3.org/2000/svg" width="48" height="48" version="1"><defs>
<linearGradient id="ucPurpleBlue" x1="0%" y1="0%" x2="100%" y2="100%">
  <stop offset="0%" style="stop-color:#B794F4;stop-opacity:1"/>
  <stop offset="100%" style="stop-color:#4299E1;stop-opacity:1"/>
</linearGradient>
</defs>
 <path opacity=".2" d="m6 45c-1.108 0-2-0.892-2-2v-1c0 1.108 0.892 2 2 2h36c1.108 0 2-0.892 2-2v1c0 1.108-0.892 2-2 2h-36z"/>
 <rect style="fill:#4f4f4f" width="40" height="40" x="4" y="4" rx="2" ry="2"/>
 <path fill="#fff" style="opacity:.1" d="m6 4c-1.108 0-2 0.892-2 2v1c0-1.108 0.892-2 2-2h36c1.108 0 2 0.892 2 2v-1c0-1.108-0.892-2-2-2h-36z"/>
 <path style="fill:#d44338" d="m27 10h6v28l-6-1z"/>
 <path style="opacity:.2" d="m15 11v28l6-1v-27z"/>
 <path style="fill:#d44338" d="m15 10v28l6-1v-27z"/>
 <path style="opacity:.2" d="m15 11 12 27 6 1v-1l-6-1v-12l-6-14z"/>
 <path style="fill:#ff695e" d="m15 10 12 27 6 1-12-28z"/>
</svg>
