<svg xmlns="http://www.w3.org/2000/svg" width="48" height="48" version="1"><defs>
<linearGradient id="ucPurpleBlue" x1="0%" y1="0%" x2="100%" y2="100%">
  <stop offset="0%" style="stop-color:#B794F4;stop-opacity:1"/>
  <stop offset="100%" style="stop-color:#4299E1;stop-opacity:1"/>
</linearGradient>
</defs>
 <circle style="opacity:0.2" cx="24" cy="25" r="20"/>
 <circle style="fill:#4bae4f" cx="24" cy="24" r="20"/>
 <path style="opacity:0.2" d="M 15,32 H 33 V 18 H 15 Z m 2,-12 h 6 v 2 h -6 z m 8,0 h 6 v 2 h -6 z m -8,4 h 6 v 2 h -6 z m 8,0 h 6 v 2 h -6 z m -8,4 h 6 v 2 h -6 z m 8,0 h 6 v 2 h -6 z"/>
 <path style="fill:#ffffff" d="M 15,31 H 33 V 17 H 15 Z m 2,-12 h 6 v 2 h -6 z m 8,0 h 6 v 2 h -6 z m -8,4 h 6 v 2 h -6 z m 8,0 h 6 v 2 h -6 z m -8,4 h 6 v 2 h -6 z m 8,0 h 6 v 2 h -6 z"/>
 <path style="opacity:0.2;fill:#ffffff" d="M 24 4 A 20 20 0 0 0 4 24 A 20 20 0 0 0 4.0214844 24.582031 A 20 20 0 0 1 24 5 A 20 20 0 0 1 43.978516 24.417969 A 20 20 0 0 0 44 24 A 20 20 0 0 0 24 4 z"/>
</svg>
