<svg xmlns="http://www.w3.org/2000/svg" width="48" height="48" version="1.1"><defs>
<linearGradient id="ucPurpleBlue" x1="0%" y1="0%" x2="100%" y2="100%">
  <stop offset="0%" style="stop-color:#B794F4;stop-opacity:1"/>
  <stop offset="100%" style="stop-color:#4299E1;stop-opacity:1"/>
</linearGradient>
</defs>
 <rect style="opacity:0.2" width="40" height="40" x="4" y="5" ry="7"/>
 <rect style="fill:#2c8ffd" width="40" height="36" x="4" y="8" ry="7"/>
 <path style="opacity:0.2" d="m11 5c-3.88 0-7 3.12-7 7v5l20 10 20-10v-5c0-3.88-3.12-7-7-7z"/>
 <path style="fill:#c4e9f9" d="m11 4c-3.88 0-7 3.12-7 7v5l20 10 20-10v-5c0-3.88-3.12-7-7-7z"/>
 <path style="fill:#ffffff;opacity:0.2" d="m11 4c-3.88 0-7 3.12-7 7v1c0-3.88 3.12-7 7-7h26c3.88 0 7 3.12 7 7v-1c0-3.88-3.12-7-7-7z"/>
</svg>
