<svg width="48" height="48" version="1.1" xmlns="http://www.w3.org/2000/svg"><defs>
<linearGradient id="ucPurpleBlue" x1="0%" y1="0%" x2="100%" y2="100%">
  <stop offset="0%" style="stop-color:#B794F4;stop-opacity:1"/>
  <stop offset="100%" style="stop-color:#4299E1;stop-opacity:1"/>
</linearGradient>
</defs>
 <g transform="matrix(2,0,0,2,2,2)">
  <circle cx="11" cy="11.5" r="10" style="opacity:.2"/>
  <circle cx="11" cy="11" r="10" style="fill:#29d682"/>
  <path d="M 11,1 A 10,10 0 0 0 1,11 10,10 0 0 0 1.0098,11.293 10,10 0 0 1 11,1.5 10,10 0 0 1 20.99,11.207 10,10 0 0 0 21,11 10,10 0 0 0 11,1 Z" style="fill:#ffffff;opacity:.2"/>
  <path d="m8 5.5v3h-3v1h3v1.5h-3v1h3v1.5h-3v1h3v3h1v-3h1.5v3h1v-3h1.5v3h1v-3h3v-1h-3v-1.5h3v-1h-3v-1.5h3v-1h-3v-3h-1v3h-1.5v-3h-1v3h-1.5v-3z" style="opacity:.2"/>
  <path d="m8 5v3h-3v1h3v1.5h-3v1h3v1.5h-3v1h3v3h1v-3h1.5v3h1v-3h1.5v3h1v-3h3v-1h-3v-1.5h3v-1h-3v-1.5h3v-1h-3v-3h-1v3h-1.5v-3h-1v3h-1.5v-3z" style="fill:#e4e4e4"/>
  <rect x="7" y="7.5" width="8" height="8" rx="1" ry="1" style="opacity:.1"/>
  <rect x="7" y="7" width="8" height="8" rx="1" ry="1" style="fill:#3f3f3f"/>
  <circle cx="9" cy="9" r="1" style="fill:#ffffff"/>
 </g>
</svg>
