<svg xmlns="http://www.w3.org/2000/svg" width="48" height="48" version="1.1"><defs>
<linearGradient id="ucPurpleBlue" x1="0%" y1="0%" x2="100%" y2="100%">
  <stop offset="0%" style="stop-color:#B794F4;stop-opacity:1"/>
  <stop offset="100%" style="stop-color:#4299E1;stop-opacity:1"/>
</linearGradient>
</defs>
 <rect style="opacity:0.2" width="40" height="40" x="4" y="5" rx="3" ry="3"/>
 <rect style="fill:#2ec27e" width="40" height="40" x="4" y="4" rx="3" ry="3"/>
 <rect style="fill:#26a269" width="2" height="40" x="16" y="4"/>
 <rect style="fill:#26a269" width="2" height="40" x="30" y="4"/>
 <rect style="fill:#26a269" width="2" height="40" x="16" y="-44" transform="rotate(90)"/>
 <rect style="fill:#26a269" width="2" height="40" x="30" y="-44" transform="rotate(90)"/>
 <circle style="opacity:0.2" cx="24" cy="25" r="5"/>
 <circle style="fill:#ffffff" cx="24" cy="24" r="5"/>
 <circle style="opacity:0.2" cx="38" cy="39" r="5"/>
 <circle style="fill:#ffffff" cx="38" cy="38" r="5"/>
 <circle style="opacity:0.1" cx="38" cy="25" r="5"/>
 <circle style="fill:#3d3846" cx="38" cy="24" r="5"/>
 <circle style="opacity:0.1" cx="24" cy="39" r="5"/>
 <circle style="fill:#3d3846" cx="24" cy="38" r="5"/>
 <path style="opacity:0.2;fill:#ffffff" d="M 7 4 C 5.338 4 4 5.338 4 7 L 4 8 C 4 6.338 5.338 5 7 5 L 41 5 C 42.662 5 44 6.338 44 8 L 44 7 C 44 5.338 42.662 4 41 4 L 7 4 z"/>
</svg>
