<svg xmlns="http://www.w3.org/2000/svg" width="48" height="48" version="1"><defs>
<linearGradient id="ucPurpleBlue" x1="0%" y1="0%" x2="100%" y2="100%">
  <stop offset="0%" style="stop-color:#B794F4;stop-opacity:1"/>
  <stop offset="100%" style="stop-color:#4299E1;stop-opacity:1"/>
</linearGradient>
</defs>
 <path style="opacity:0.2" d="M 6,5 C 4.892,5 4,5.892 4,7 V 43 C 4,44.108 4.892,45 6,45 H 28 L 44,29 V 7 C 44,5.892 43.108,5 42,5 Z"/>
 <path style="fill:#fecd38" d="M 6,4 C 4.892,4 4,4.892 4,6 V 42 C 4,43.108 4.892,44 6,44 H 28 L 44,28 V 6 C 44,4.892 43.108,4 42,4 Z"/>
 <path style="fill:#ffe69b" d="M 44,28 H 30 C 28.895,28 28,28.895 28,30 V 44 Z"/>
 <path style="opacity:0.2;fill:#ffffff" d="M 6,4 C 4.892,4 4,4.892 4,6 V 7 C 4,5.892 4.892,5 6,5 H 42 C 43.108,5 44,5.892 44,7 V 6 C 44,4.892 43.108,4 42,4 Z"/>
 <path style="opacity:0.2;fill:#ffffff" d="M 30,28 C 28.895,28 28,28.895 28,30 V 31 C 28,29.895 28.895,29 30,29 H 43 L 44,28 Z"/>
 <path style="opacity:0.15" d="m 17,15 v 1 H 8 V 8.0000003 H 40 V 15 Z"/>
 <path style="opacity:0.15" d="m 31,22 v 2 H 8 l 4e-7,-6.026316 H 40 V 22 Z"/>
</svg>
