<svg xmlns="http://www.w3.org/2000/svg" width="48" height="48" version="1"><defs>
<linearGradient id="ucPurpleBlue" x1="0%" y1="0%" x2="100%" y2="100%">
  <stop offset="0%" style="stop-color:#B794F4;stop-opacity:1"/>
  <stop offset="100%" style="stop-color:#4299E1;stop-opacity:1"/>
</linearGradient>
</defs>
 <rect fill="url(#ucPurpleBlue)" width="40" height="40" x="4" y="4" rx="2" ry="2"/>
 <path fill="#fff" opacity=".1" d="m6 4c-1.108 0-2 0.892-2 2v1c0-1.108 0.892-2 2-2h36c1.108 0 2 0.892 2 2v-1c0-1.108-0.892-2-2-2h-36z"/>
 <path opacity=".2" d="m6 45c-1.108 0-2-0.892-2-2v-1c0 1.108 0.892 2 2 2h36c1.108 0 2-0.892 2-2v1c0 1.108-0.892 2-2 2h-36z"/>
 <circle fill="#fff" stroke="#394e6f" stroke-linecap="round" stroke-linejoin="round" cx="28" cy="22" r="4.5"/>
 <circle fill="#fff" stroke="#394e6f" stroke-linecap="round" stroke-linejoin="round" cx="37" cy="30" r="2.5"/>
 <circle fill="#fff" stroke="#394e6f" stroke-linecap="round" stroke-linejoin="round" cx="31.5" cy="27.5" r="5"/>
 <circle fill="#fff" stroke="#394e6f" stroke-linecap="round" stroke-linejoin="round" cx="13" cy="28" r="4.5"/>
 <circle fill="#fff" stroke="#394e6f" stroke-linecap="round" stroke-linejoin="round" cx="17.5" cy="18.5" r="3"/>
 <circle fill="#fff" stroke="#394e6f" stroke-linecap="round" stroke-linejoin="round" cx="18" cy="24" r="5.5"/>
 <circle fill="#fff" stroke="#394e6f" stroke-linecap="round" stroke-linejoin="round" cx="17.5" cy="30" r="2.5"/>
 <circle fill="#fff" stroke="#394e6f" stroke-linecap="round" stroke-linejoin="round" cx="22.5" cy="19.5" r="5"/>
 <circle fill="#fff" stroke="#394e6f" stroke-linecap="round" stroke-linejoin="round" cx="23.998" cy="26.002" r="6.498"/>
</svg>
