<svg xmlns="http://www.w3.org/2000/svg" width="48" height="48" version="1.1"><defs>
<linearGradient id="ucPurpleBlue" x1="0%" y1="0%" x2="100%" y2="100%">
  <stop offset="0%" style="stop-color:#B794F4;stop-opacity:1"/>
  <stop offset="100%" style="stop-color:#4299E1;stop-opacity:1"/>
</linearGradient>
</defs>
 <path fill="url(#ucPurpleBlue)" d="m15 13a11 11 0 0 0 -11 11 11 11 0 0 0 11 11 11 11 0 0 0 10.572 -8h8.4277v5.0273h6.9648v-5.0273h3.0352v-7h-18.754a11 11 0 0 0 -10.246 -7z"/>
 <circle opacity=".2" cx="15" cy="25" r="4"/>
 <circle fill="url(#ucPurpleBlue)" cx="15" cy="24" r="4"/>
 <path fill="#fff" opacity=".2" d="m15 13a11 11 0 0 0 -11 11 11 11 0 0 0 0.0215 0.4141 11 11 0 0 1 10.978 -10.414 11 11 0 0 1 10.246 7h18.754v-1h-18.754a11 11 0 0 0 -10.246 -7z"/>
 <path opacity=".2" d="m4.0215 24.414a11 11 0 0 0 -0.0215 0.586 11 11 0 0 0 11 11 11 11 0 0 0 10.572 -8h8.428v-1h-8.428a11 11 0 0 1 -10.572 8 11 11 0 0 1 -10.978 -10.586zm36.944 2.586v1h3.035v-1h-3.035zm-6.965 5.027v1h6.965v-1h-6.965z"/>
</svg>
