<svg xmlns="http://www.w3.org/2000/svg" width="48" height="48" version="1.1"><defs>
<linearGradient id="ucPurpleBlue" x1="0%" y1="0%" x2="100%" y2="100%">
  <stop offset="0%" style="stop-color:#B794F4;stop-opacity:1"/>
  <stop offset="100%" style="stop-color:#4299E1;stop-opacity:1"/>
</linearGradient>
</defs>
 <circle fill="url(#ucPurpleBlue)" cx="24" cy="24" r="20"/>
 <path fill="url(#ucPurpleBlue)" fill-rule="evenodd" d="m28 16-10 6v21.074a20 20 0 0 0 6 0.926 20 20 0 0 0 14 -5.723v-16.277l-10-6z"/>
 <path fill="url(#ucPurpleBlue)" fill-rule="evenodd" d="m28 18-8 5v20.594a20 20 0 0 0 4 0.406 20 20 0 0 0 12 -4.025v-16.975l-8-5z"/>
 <path opacity=".2" d="m44 25a20 18 0 0 1 -2.738 9.053 20 20 0 0 1 -17.262 9.947 20 20 0 0 1 -17.166 -9.814 20 18 0 0 1 -2.7637 -7.762 20 20 0 0 0 19.93 18.576 20 20 0 0 0 20 -20z"/>
 <path opacity=".2" d="m31 24.5a3 1 0 0 1 -1.5 0.866 3 1 0 0 1 -3 0 3 1 0 0 1 -1.5 -0.866"/>
 <path fill="url(#ucPurpleBlue)" d="m31 24a3 1 0 0 1 -1.5 0.866 3 1 0 0 1 -3 0 3 1 0 0 1 -1.5 -0.866"/>
 <path fill="#fff" opacity=".2" d="m24 4a20 20 0 0 0 -20 20 20 18 0 0 1 2.7383 -9.053 20 20 0 0 1 17.262 -9.947 20 20 0 0 1 17.166 9.814 20 18 0 0 1 2.764 7.762 20 20 0 0 0 -19.93 -18.576z"/>
</svg>
