<svg xmlns="http://www.w3.org/2000/svg" width="48" height="48" version="1"><defs>
<linearGradient id="ucPurpleBlue" x1="0%" y1="0%" x2="100%" y2="100%">
  <stop offset="0%" style="stop-color:#B794F4;stop-opacity:1"/>
  <stop offset="100%" style="stop-color:#4299E1;stop-opacity:1"/>
</linearGradient>
</defs>
 <path fill="url(#ucPurpleBlue)" d="m24 8c-11.08 0-20 10-20 16s8.92 16 20 16 20-10 20-16-8.92-16-20-16z"/>
 <path fill="#fff" opacity=".1" d="m24 8c-11.08 0-20 10-20 16 0 0.161 0.0323 0.334 0.0449 0.5 0.4599-6.038 9.1711-15.5 19.955-15.5s19.495 9.462 19.955 15.5c0.013-0.166 0.045-0.339 0.045-0.5 0-6-8.92-16-20-16z"/>
 <path opacity=".2" d="m4.0449 24.5c-0.0126 0.166-0.0449 0.339-0.0449 0.5 0 6 8.92 16 20 16s20-10 20-16c0-0.161-0.032-0.334-0.045-0.5-0.46 6.038-9.171 15.5-19.955 15.5s-19.495-9.462-19.955-15.5z"/>
 <path opacity=".2" d="m26.157 14.996c-4.32 0-7.8891 3.5337-7.8891 7.854 0 1.642 0.55512 3.1528 1.4263 4.4178l-5.2594 5.2657a1.4341 1.4358 0 1 0 2.0057 2.0527l5.2594-5.2657c1.2655 0.87238 2.814 1.3834 4.4571 1.3834 4.32 0 7.8445-3.5337 7.8445-7.854-0.001-4.32-3.525-7.854-7.845-7.854zm0 2.856c2.7775 0 4.992 2.2203 4.992 4.998 0 2.7776-2.2145 4.998-4.992 4.998s-4.992-2.2203-4.992-4.998 2.2145-4.998 4.992-4.998z"/>
 <path fill="url(#ucPurpleBlue)" d="m26.157 13.998c-4.32 0-7.8891 3.5337-7.8891 7.854 0 1.642 0.55512 3.1528 1.4263 4.4178l-5.2594 5.2657a1.4341 1.4358 0 1 0 2.0057 2.0527l5.2594-5.2657c1.2655 0.87238 2.814 1.3834 4.4571 1.3834 4.32 0 7.8445-3.5337 7.8445-7.854-0.001-4.32-3.525-7.854-7.845-7.854zm0 2.856c2.7775 0 4.992 2.2203 4.992 4.998 0 2.7776-2.2145 4.998-4.992 4.998s-4.992-2.2203-4.992-4.998 2.2145-4.998 4.992-4.998z"/>
</svg>
