<svg xmlns="http://www.w3.org/2000/svg" width="48" height="48" version="1.1"><defs>
<linearGradient id="ucPurpleBlue" x1="0%" y1="0%" x2="100%" y2="100%">
  <stop offset="0%" style="stop-color:#B794F4;stop-opacity:1"/>
  <stop offset="100%" style="stop-color:#4299E1;stop-opacity:1"/>
</linearGradient>
</defs>
 <circle style="opacity:0.2" cx="24" cy="25" r="20"/>
 <circle style="fill:#127bca" cx="24" cy="24" r="20"/>
 <path style="opacity:0.2;fill:#ffffff" d="M 24,4 A 20,20 0 0 0 4,24 20,20 0 0 0 4.0215,24.582 20,20 0 0 1 24,5 20,20 0 0 1 43.979,24.418 20,20 0 0 0 44,24 20,20 0 0 0 24,4 Z"/>
 <path style="opacity:0.2" d="m 23.847835,3 -9.184329,22 h 9.098318 L 18.49147,35.293181 15.877253,32.17403 14.623494,47 26.170258,37.362454 21.844985,36.912777 33.06783,20 H 23.514121 L 33.376506,3 Z"/>
 <path style="fill:#ffffff" d="m 23.847835,2 -9.184329,22 h 9.098318 L 18.49147,34.293181 15.877253,31.17403 14.623494,46 26.170258,36.362454 21.844985,35.912777 33.06783,19 H 23.514121 L 33.376506,2 Z"/>
</svg>
