<svg xmlns="http://www.w3.org/2000/svg" width="48" height="48" version="1"><defs>
<linearGradient id="ucPurpleBlue" x1="0%" y1="0%" x2="100%" y2="100%">
  <stop offset="0%" style="stop-color:#B794F4;stop-opacity:1"/>
  <stop offset="100%" style="stop-color:#4299E1;stop-opacity:1"/>
</linearGradient>
</defs>
 <path fill="url(#ucPurpleBlue)" d="m10 11c-1.108 0-2 0.892-2 2v24c0 1.108 0.892 2 2 2h18l4 4 4-4h6c1.108 0 2-0.892 2-2v-24c0-1.108-0.892-2-2-2z"/>
 <path fill="#fff" opacity=".1" d="m10 11c-1.108 0-2 0.892-2 2v1c0-1.108 0.892-2 2-2h32c1.108 0 2 0.892 2 2v-1c0-1.108-0.892-2-2-2h-32z"/>
 <circle opacity=".2" cx="16" cy="18" r="12"/>
 <circle fill="url(#ucPurpleBlue)" cx="16" cy="17" r="12"/>
 <path fill="#fff" d="m15 10v10h2v-10h-2zm0 12v2h2v-2h-2z"/>
 <path opacity=".2" d="m8 37v1c0 1.108 0.892 2 2 2h18l4 4 4-4h6c1.108 0 2-0.892 2-2v-1c0 1.108-0.892 2-2 2h-6l-4 4-4-4h-18c-1.108 0-2-0.892-2-2z"/>
</svg>
