<svg xmlns="http://www.w3.org/2000/svg" width="48" height="48" version="1"><defs>
<linearGradient id="ucPurpleBlue" x1="0%" y1="0%" x2="100%" y2="100%">
  <stop offset="0%" style="stop-color:#B794F4;stop-opacity:1"/>
  <stop offset="100%" style="stop-color:#4299E1;stop-opacity:1"/>
</linearGradient>
</defs>
 <rect fill="url(#ucPurpleBlue)" width="40" height="28" x="-44" y="-38" rx="14" ry="14" transform="matrix(0,-1,-1,0,0,0)"/>
 <path fill="none" stroke="#000" stroke-linecap="square" stroke-width="2" opacity=".2" d="m17 19 14 13-7 7v-27l7 7-14 13"/>
 <path fill="none" stroke="#fff" stroke-linecap="square" stroke-width="2" d="m17 18 14 13-7 7v-27l7 7-14 13"/>
 <path fill="#fff" opacity=".1" d="m24 4c-7.756 0-14 6.244-14 14v1c0-7.756 6.244-14 14-14s14 6.244 14 14v-1c0-7.756-6.244-14-14-14z"/>
 <path opacity=".2" d="m10 30v1c0 7.756 6.244 14 14 14s14-6.244 14-14v-1c0 7.756-6.244 14-14 14s-14-6.244-14-14z"/>
</svg>
