<svg width="48" height="48" version="1.1" xmlns="http://www.w3.org/2000/svg"><defs>
<linearGradient id="ucPurpleBlue" x1="0%" y1="0%" x2="100%" y2="100%">
  <stop offset="0%" style="stop-color:#B794F4;stop-opacity:1"/>
  <stop offset="100%" style="stop-color:#4299E1;stop-opacity:1"/>
</linearGradient>
</defs>
 <g transform="matrix(2,0,0,2,2,2)">
  <path d="m19 1.5 1 1-2 5h-6v2h4l1 1-1 5h-5v3h-3v3h-5l-1-1 7-19z" style="opacity:.2"/>
  <path d="m19 1 1 1-2 5h-6v2h4l1 1-1 5h-5v3h-3v3h-5l-1-1 7-19z" style="fill:#ffc238"/>
  <path d="m2 20.5h5v-3h3v-3h5l1-5h-5v-3h6l2-5h-12v3h-3z" style="opacity:.1"/>
  <path d="m2 20h5v-3h3v-3h5l1-5h-5v-3h6l2-5h-12v3h-3z" style="fill:#df3a36"/>
  <path d="m7 1v0.5h11.800781l0.199219-0.5zm-3 3-2 16h0.0625l1.9375-15.5h3v-0.5zm7 5v0.5h4.900391l0.099609-0.5z" style="fill:#ffffff;opacity:.2"/>
 </g>
</svg>
