<svg xmlns="http://www.w3.org/2000/svg" width="48" height="48" version="1"><defs>
<linearGradient id="ucPurpleBlue" x1="0%" y1="0%" x2="100%" y2="100%">
  <stop offset="0%" style="stop-color:#B794F4;stop-opacity:1"/>
  <stop offset="100%" style="stop-color:#4299E1;stop-opacity:1"/>
</linearGradient>
</defs>
 <path opacity=".2" d="m19 22h10c1.108 0 2 0.892 2 2v20c0 1.108-0.892 2-2 2h-10c-1.108 0-2-0.892-2-2v-20c0-1.108 0.892-2 2-2z"/>
 <path fill="url(#ucPurpleBlue)" d="m21 9h6v14h-6z"/>
 <path fill="url(#ucPurpleBlue)" d="m19 21h10c1.108 0 2 0.892 2 2v20c0 1.108-0.892 2-2 2h-10c-1.108 0-2-0.892-2-2v-20c0-1.108 0.892-2 2-2z"/>
 <path fill="url(#ucPurpleBlue)" d="m24 3 3 2-1.1459 4-3.7082-2e-7 -1.1459-4z"/>
 <rect fill="url(#ucPurpleBlue)" width="6" height="1" x="21" y="17"/>
 <rect fill="url(#ucPurpleBlue)" width="6" height="1" x="21" y="14"/>
 <path fill="#fff" opacity=".2" d="m24 3-3 2 0.24 0.8398 2.76-1.8398 2.76 1.8398 0.24-0.8398-3-2z"/>
 <path fill="#fff" opacity=".2" d="m21 9v1h6v-1h-6z"/>
</svg>
