<svg xmlns="http://www.w3.org/2000/svg" width="48" height="48" version="1"><defs>
<linearGradient id="ucPurpleBlue" x1="0%" y1="0%" x2="100%" y2="100%">
  <stop offset="0%" style="stop-color:#B794F4;stop-opacity:1"/>
  <stop offset="100%" style="stop-color:#4299E1;stop-opacity:1"/>
</linearGradient>
</defs>
 <rect fill="url(#ucPurpleBlue)" width="12" height="12" x="12" y="5" rx="1" ry="1"/>
 <rect fill="url(#ucPurpleBlue)" width="12" height="12" x="12" y="18" rx="1" ry="1"/>
 <rect fill="url(#ucPurpleBlue)" width="12" height="12" x="12" y="31" rx="1" ry="1"/>
 <rect fill="url(#ucPurpleBlue)" width="12" height="12" x="25" y="31" rx="1" ry="1"/>
 <path fill="#fff" opacity=".2" d="m13 5c-0.554 0-1 0.446-1 1v1c0-0.554 0.446-1 1-1h10c0.554 0 1 0.446 1 1v-1c0-0.554-0.446-1-1-1h-10zm0 13c-0.554 0-1 0.446-1 1v1c0-0.554 0.446-1 1-1h10c0.554 0 1 0.446 1 1v-1c0-0.554-0.446-1-1-1h-10zm0 13c-0.554 0-1 0.446-1 1v1c0-0.554 0.446-1 1-1h10c0.554 0 1 0.446 1 1v-1c0-0.554-0.446-1-1-1h-10zm13 0c-0.554 0-1 0.446-1 1v1c0-0.554 0.446-1 1-1h10c0.554 0 1 0.446 1 1v-1c0-0.554-0.446-1-1-1h-10z"/>
 <path opacity=".2" d="m12 16v1c0 0.554 0.446 1 1 1h10c0.554 0 1-0.446 1-1v-1c0 0.554-0.446 1-1 1h-10c-0.554 0-1-0.446-1-1zm0 13v1c0 0.554 0.446 1 1 1h10c0.554 0 1-0.446 1-1v-1c0 0.554-0.446 1-1 1h-10c-0.554 0-1-0.446-1-1zm0 13v1c0 0.554 0.446 1 1 1h10c0.554 0 1-0.446 1-1v-1c0 0.554-0.446 1-1 1h-10c-0.554 0-1-0.446-1-1zm13 0v1c0 0.554 0.446 1 1 1h10c0.554 0 1-0.446 1-1v-1c0 0.554-0.446 1-1 1h-10c-0.554 0-1-0.446-1-1z"/>
</svg>
