<svg xmlns="http://www.w3.org/2000/svg" width="48" height="48" version="1"><defs>
<linearGradient id="ucPurpleBlue" x1="0%" y1="0%" x2="100%" y2="100%">
  <stop offset="0%" style="stop-color:#B794F4;stop-opacity:1"/>
  <stop offset="100%" style="stop-color:#4299E1;stop-opacity:1"/>
</linearGradient>
</defs>
 <rect fill="url(#ucPurpleBlue)" width="40" height="40" x="4" y="4" rx="2" ry="2"/>
 <path fill="#fff" opacity=".2" d="m6 4c-1.108 0-2 0.892-2 2v1c0-1.108 0.892-2 2-2h36c1.108 0 2 0.892 2 2v-1c0-1.108-0.892-2-2-2h-36z"/>
 <path opacity=".2" d="m6 45c-1.108 0-2-0.892-2-2v-1c0 1.108 0.892 2 2 2h36c1.108 0 2-0.892 2-2v1c0 1.108-0.892 2-2 2h-36z"/>
 <path style="fill:#565656" d="m 17,15 3,4 -6,0 -0.623047,3 L 10,22 11,18 9,18 7,26 9,26 12.623047,26 12,29 l 4,0 -3,4 4,0 3,-4 8,0 3,4 4,0 -3,-4 4,0 L 35.376953,26 41,26 39,18 37,18 38,22 34.623047,22 34,19 l -6,0 3,-4 -2,0 -3,4 -4,0 -3,-4 z"/>
 <path style="opacity:0.2" d="m 16,22 0,4 4,0 0,-4 -4,0 z m 12,0 0,4 4,0 0,-4 -4,0 z"/>
 <path style="fill:#ffffff" d="M 16 21 L 16 25 L 20 25 L 20 21 L 16 21 z M 28 21 L 28 25 L 32 25 L 32 21 L 28 21 z"/>
</svg>
