<svg xmlns="http://www.w3.org/2000/svg" width="48" height="48" version="1.1"><defs>
<linearGradient id="ucPurpleBlue" x1="0%" y1="0%" x2="100%" y2="100%">
  <stop offset="0%" style="stop-color:#B794F4;stop-opacity:1"/>
  <stop offset="100%" style="stop-color:#4299E1;stop-opacity:1"/>
</linearGradient>
</defs>
 <g transform="translate(0 -1004.4)">
  <circle opacity=".2" cx="24" cy="1029.4" r="20"/>
  <circle fill="url(#ucPurpleBlue)" cx="24" cy="1028.4" r="20"/>
  <path opacity=".2" d="m18 1019.4v2h3v2h-5v5h-2v-3h-2v8h2v-3h2v3l4 4h9l2-2 2 0.016v0.9844h2l1-1v-8l-1-1h-2v1h-0.75l-4-4h-5.25v-2h3v-2zm0 6h9l4 4h3v4h-4l-2 2h-6.75l-3.25-3.25z"/>
  <path fill="url(#ucPurpleBlue)" d="m18 1018.4v2h3v2h-5v5h-2v-3h-2v8h2v-3h2v3l4 4h9l2-2 2 0.016v0.9844h2l1-1v-8l-1-1h-2v1h-0.75l-4-4h-5.25v-2h3v-2zm0 6h9l4 4h3v4h-4l-2 2h-6.75l-3.25-3.25z"/>
  <path fill="#fff" opacity=".1" transform="translate(0 1004.4)" d="m24 4a20 20 0 0 0 -20 20 20 20 0 0 0 0.0215 0.582 20 20 0 0 1 19.978 -19.582 20 20 0 0 1 19.979 19.418 20 20 0 0 0 0.021 -0.418 20 20 0 0 0 -20 -20z"/>
 </g>
</svg>
