<svg width="48" height="48" version="1.1" xmlns="http://www.w3.org/2000/svg"><defs>
<linearGradient id="ucPurpleBlue" x1="0%" y1="0%" x2="100%" y2="100%">
  <stop offset="0%" style="stop-color:#B794F4;stop-opacity:1"/>
  <stop offset="100%" style="stop-color:#4299E1;stop-opacity:1"/>
</linearGradient>
</defs>
 <g transform="translate(1)">
  <path d="m3 40v1c0 1.108 0.892 2 2 2h36c1.108 0 2-0.892 2-2v-1c0 1.108-0.892 2-2 2h-36c-1.108 0-2-0.892-2-2z" style="opacity:.2"/>
  <rect x="3" y="6" width="40" height="36" rx="2" ry="2" style="fill:#87362d"/>
  <path d="m5 6c-1.108 0-2 0.892-2 2v1c0-1.108 0.892-2 2-2h36c1.108 0 2 0.892 2 2v-1c0-1.108-0.892-2-2-2z" style="fill:#ffffff;opacity:.1"/>
  <path d="m7 11v1l3 2v1l-3 2v1h1l4-3v-1l-4-3zm7 6v1h6v-1z" style="opacity:.2"/>
  <path d="m7 10v1l3 2v1l-3 2v1h1l4-3v-1l-4-3zm7 6v1h6v-1z" style="fill:#ffffff"/>
 </g>
</svg>
