<svg xmlns="http://www.w3.org/2000/svg" width="48" height="48" version="1"><defs>
<linearGradient id="ucPurpleBlue" x1="0%" y1="0%" x2="100%" y2="100%">
  <stop offset="0%" style="stop-color:#B794F4;stop-opacity:1"/>
  <stop offset="100%" style="stop-color:#4299E1;stop-opacity:1"/>
</linearGradient>
</defs>
 <rect style="fill:#e4e4e4" width="40" height="40" x="4" y="4" rx="2" ry="2"/>
 <path fill="#fff" opacity=".2" d="m6 4c-1.108 0-2 0.892-2 2v1c0-1.108 0.892-2 2-2h36c1.108 0 2 0.892 2 2v-1c0-1.108-0.892-2-2-2h-36z"/>
 <path opacity=".2" d="m6 45c-1.108 0-2-0.892-2-2v-1c0 1.108 0.892 2 2 2h36c1.108 0 2-0.892 2-2v1c0 1.108-0.892 2-2 2h-36z"/>
 <path style="opacity:0.1" d="m 15,18 v 5 5 h -5 v 5 h 10 v -5 -5 h 8 v 10 h 5 V 23 h 5 v -5 h -5 -5 -8 z"/>
 <path style="fill:#3f3f3f" d="m 15,17 v 5 5 h -5 v 5 h 10 v -5 -5 h 8 v 10 h 5 V 22 h 5 v -5 h -5 -5 -8 z"/>
</svg>
