<svg xmlns="http://www.w3.org/2000/svg" width="48" height="48" version="1"><defs>
<linearGradient id="ucPurpleBlue" x1="0%" y1="0%" x2="100%" y2="100%">
  <stop offset="0%" style="stop-color:#B794F4;stop-opacity:1"/>
  <stop offset="100%" style="stop-color:#4299E1;stop-opacity:1"/>
</linearGradient>
</defs>
 <path opacity=".2" d="m4 42v1c0 1.108 0.892 2 2 2h36c1.108 0 2-0.892 2-2v-1c0 1.108-0.892 2-2 2h-36c-1.108 0-2-0.892-2-2z"/>
 <rect style="fill:#4f4f4f" width="40" height="40" x="4" y="4" rx="2" ry="2"/>
 <path fill="#fff" style="opacity:.1" d="m6 4c-1.108 0-2 0.892-2 2v1c0-1.108 0.892-2 2-2h36c1.108 0 2 0.892 2 2v-1c0-1.108-0.892-2-2-2h-36z"/>
 <path style="opacity:.2" d="m35 11-22 7v8l8.461 2.309-8.461 2.691v8l22-7v-8l-8.461-2.309 8.461-2.691z"/>
 <path style="fill:#ffab36" d="m35 10-22 7v8l22-7z"/>
 <path style="fill:#ffab36" d="m35 23-22 7v8l22-7z"/>
 <path style="opacity:.2" d="m33.309 23.539l-13.539 4.307 13.539 3.693 1.691-0.539v-7l-1.691-0.461z"/>
 <path style="fill:#ffab36" d="m13 17 22 6v8l-22-6z"/>
</svg>
