<svg xmlns="http://www.w3.org/2000/svg" width="48" height="48" version="1"><defs>
<linearGradient id="ucPurpleBlue" x1="0%" y1="0%" x2="100%" y2="100%">
  <stop offset="0%" style="stop-color:#B794F4;stop-opacity:1"/>
  <stop offset="100%" style="stop-color:#4299E1;stop-opacity:1"/>
</linearGradient>
</defs>
 <path fill="url(#ucPurpleBlue)" d="m24 4h-18c-1.108 0-2 0.892-2 2v18h20z"/>
 <path fill="url(#ucPurpleBlue)" d="m24 4h18c1.108 0 2 0.892 2 2v18h-20z"/>
 <path fill="url(#ucPurpleBlue)" d="m24 44h-18c-1.108 0-2-0.892-2-2v-18h20z"/>
 <path fill="url(#ucPurpleBlue)" d="m24 44h18c1.108 0 2-0.892 2-2v-18h-20z"/>
 <path fill="#fff" opacity=".2" d="m6 4c-1.108 0-2 0.892-2 2v1c0-1.108 0.892-2 2-2h36c1.108 0 2 0.892 2 2v-1c0-1.108-0.892-2-2-2h-36z"/>
 <path opacity=".2" d="m6 45c-1.108 0-2-0.892-2-2v-1c0 1.108 0.892 2 2 2h36c1.108 0 2-0.892 2-2v1c0 1.108-0.892 2-2 2h-36z"/>
 <path fill="url(#ucPurpleBlue)" transform="matrix(.71786 0 0 .75480 3.9486 3.2163)" d="m14.002 5.0128 3.0133 6.1056 6.7379 0.97908-4.8756 4.7525 1.151 6.7107-6.0266-3.1684-6.0266 3.1684 1.151-6.7107-4.8756-4.7525 6.7379-0.97908z"/>
 <circle fill="url(#ucPurpleBlue)" cx="34" cy="14" r="7"/>
 <circle fill="url(#ucPurpleBlue)" cx="14" cy="34" r="7"/>
 <rect fill="url(#ucPurpleBlue)" width="14" height="14" x="27" y="27"/>
</svg>
