<svg xmlns="http://www.w3.org/2000/svg" width="48" height="48" version="1.1"><defs>
<linearGradient id="ucPurpleBlue" x1="0%" y1="0%" x2="100%" y2="100%">
  <stop offset="0%" style="stop-color:#B794F4;stop-opacity:1"/>
  <stop offset="100%" style="stop-color:#4299E1;stop-opacity:1"/>
</linearGradient>
</defs>
 <circle style="opacity:0.2" cx="24" cy="25" r="20"/>
 <path style="fill:#196260" d="M 24,4 A 20,20 0 0 1 44,24 H 24 Z"/>
 <path style="fill:#97c33d" d="M 24,44 A 20,20 0 0 1 4,24 h 20 z"/>
 <path style="fill:#5d7dbd" d="M 4,24 8.0000002,27 12,24 Z"/>
 <path style="fill:#5d7dbd" d="M 24,4 A 20,20 0 0 0 4,24 h 20 z"/>
 <path style="fill:#3f96b9" d="M 44,24 39.999999,21 36,24 Z"/>
 <path style="fill:#3f96b9" d="M 24,44 A 20,20 0 0 0 44,24 H 24 Z"/>
 <path style="fill:#97c33d" d="M 24,44 27,39.999999 24,36 Z"/>
 <path style="fill:#196260" d="M 24,4 21,8.0000002 24,12 Z"/>
 <circle style="opacity:0.2" cx="24" cy="25" r="12"/>
 <circle style="fill:#f9f9f9" cx="24" cy="24" r="12"/>
 <path style="opacity:0.1;fill:#ffffff" d="M 24 4 A 20 20 0 0 0 4 24 A 20 20 0 0 0 4.0214844 24.582031 A 20 20 0 0 1 24 5 A 20 20 0 0 1 43.978516 24.417969 A 20 20 0 0 0 44 24 A 20 20 0 0 0 24 4 z"/>
</svg>
