<svg xmlns="http://www.w3.org/2000/svg" width="48" height="48" version="1"><defs>
<linearGradient id="ucPurpleBlue" x1="0%" y1="0%" x2="100%" y2="100%">
  <stop offset="0%" style="stop-color:#B794F4;stop-opacity:1"/>
  <stop offset="100%" style="stop-color:#4299E1;stop-opacity:1"/>
</linearGradient>
</defs>
 <rect style="opacity:0.2" width="40" height="40" x="4" y="5" rx="12" ry="12"/>
 <rect style="fill:#ff5722" width="40" height="40" x="4" y="4" rx="12" ry="12"/>
 <path style="opacity:0.2;fill:#ffffff" d="M 16,4 C 9.352,4 4,9.352 4,16 v 1 C 4,10.352 9.352,5 16,5 h 16 c 6.648,0 12,5.352 12,12 V 16 C 44,9.352 38.648,4 32,4 Z"/>
 <path style="opacity:0.2" d="m 24,11 c -4.432,0 -8,3.568 -8,8 v 4 h -2 c -1.108,0 -2,0.892 -2,2 v 12 c 0,1.108 0.892,2 2,2 h 20 c 1.108,0 2,-0.892 2,-2 V 25 c 0,-1.108 -0.892,-2 -2,-2 h -2 v -4 c 0,-4.432 -3.568,-8 -8,-8 z m 0,4 c 2.216,0 4,1.784 4,4 v 4 h -8 v -4 c 0,-2.216 1.784,-4 4,-4 z"/>
 <path style="fill:#ffffff" d="m 24,10 c -4.432,0 -8,3.568 -8,8 v 4 h -2 c -1.108,0 -2,0.892 -2,2 v 12 c 0,1.108 0.892,2 2,2 h 20 c 1.108,0 2,-0.892 2,-2 V 24 c 0,-1.108 -0.892,-2 -2,-2 h -2 v -4 c 0,-4.432 -3.568,-8 -8,-8 z m 0,4 c 2.216,0 4,1.784 4,4 v 4 h -8 v -4 c 0,-2.216 1.784,-4 4,-4 z"/>
</svg>
