<svg width="48" height="48" version="1.1" xmlns="http://www.w3.org/2000/svg"><defs>
<linearGradient id="ucPurpleBlue" x1="0%" y1="0%" x2="100%" y2="100%">
  <stop offset="0%" style="stop-color:#B794F4;stop-opacity:1"/>
  <stop offset="100%" style="stop-color:#4299E1;stop-opacity:1"/>
</linearGradient>
</defs>
 <circle cx="24" cy="25" r="20" style="opacity:.2"/>
 <circle cx="24" cy="24" r="20" style="fill:#e4e4e4"/>
 <path d="m24 9-8 16 8 16 8-16z" style="opacity:.1"/>
 <path d="M 24,4 A 20,20 0 0 0 4,24 20,20 0 0 0 4.0215,24.582 20,20 0 0 1 24,5 20,20 0 0 1 43.979,24.418 20,20 0 0 0 44,24 20,20 0 0 0 24,4 Z" style="fill:#ffffff;opacity:.2"/>
 <path d="m24 8-8 16 8 16 8-16z" style="fill:#72be45"/>
 <path d="m20 24h8l-4-16z" style="fill:#a7e077"/>
 <path d="m16 24 8 16-4-16h-4zm8 16 8-16h-4l-4 16z" style="fill:#008000;opacity:.4"/>
 <path d="m24 8-8 16 0.25 0.5 7.75-15.5 7.75 15.5 0.25-0.5-8-16z" style="fill:#ffffff;opacity:.2"/>
</svg>
