<svg xmlns="http://www.w3.org/2000/svg" width="48" height="48" version="1"><defs>
<linearGradient id="ucPurpleBlue" x1="0%" y1="0%" x2="100%" y2="100%">
  <stop offset="0%" style="stop-color:#B794F4;stop-opacity:1"/>
  <stop offset="100%" style="stop-color:#4299E1;stop-opacity:1"/>
</linearGradient>
</defs>
 <rect style="opacity:0.2" width="40" height="40" x="4" y="5" rx="2" ry="2"/>
 <rect style="fill:#e4e4e4" width="40" height="40" x="4" y="4" rx="2" ry="2"/>
 <path style="opacity:0.1" d="m 12,15.5 -6,6 6,6 6,-6 z m 6,6 6,6 6,-6 -6,-6 z m 12,0 6,6 6,-6 -6,-6 z m -6,6 -6,6 6,6 6,-6 z"/>
 <path style="fill:#3f3f3f" d="m 12,14.5 -6,6 6,6 6,-6 z m 6,6 6,6 6,-6 -6,-6 z m 12,0 6,6 6,-6 -6,-6 z m -6,6 -6,6 6,6 6,-6 z"/>
 <path style="fill:#ffffff;opacity:0.2" d="M 6 4 C 4.8920001 4 4 4.8920001 4 6 L 4 7 C 4 5.8920001 4.8920001 5 6 5 L 42 5 C 43.108 5 44 5.8920001 44 7 L 44 6 C 44 4.8920001 43.108 4 42 4 L 6 4 z"/>
</svg>
