<svg xmlns="http://www.w3.org/2000/svg" width="48" height="48" version="1"><defs>
<linearGradient id="ucPurpleBlue" x1="0%" y1="0%" x2="100%" y2="100%">
  <stop offset="0%" style="stop-color:#B794F4;stop-opacity:1"/>
  <stop offset="100%" style="stop-color:#4299E1;stop-opacity:1"/>
</linearGradient>
</defs>
 <rect style="opacity:0.2" width="40" height="40" x="4" y="5" rx="2" ry="2"/>
 <rect style="fill:#616bdd" width="40" height="40" x="4" y="4" rx="2" ry="2"/>
 <path style="opacity:0.1;fill:#ffffff" d="M 6,4 C 4.892,4 4,4.892 4,6 L 4,7 C 4,5.892 4.892,5 6,5 l 36,0 c 1.108,0 2,0.892 2,2 L 44,6 C 44,4.892 43.108,4 42,4 L 6,4 Z"/>
 <rect style="opacity:0.1;fill:#ffffff" width="8" height="8" x="10" y="11" rx="1" ry="1"/>
 <rect style="opacity:0.1;fill:#ffffff" width="8" height="8" x="20" y="11" rx="1" ry="1"/>
 <rect style="opacity:0.1;fill:#ffffff" width="8" height="8" x="30" y="11" rx="1" ry="1"/>
 <rect style="opacity:0.1;fill:#ffffff" width="8" height="8" x="20" y="21" rx="1" ry="1"/>
 <rect style="opacity:0.1;fill:#ffffff" width="8" height="8" x="20" y="31" rx="1" ry="1"/>
 <rect style="fill:#30356e" width="8" height="8" x="10" y="10" rx="1" ry="1"/>
 <rect style="fill:#30356e" width="8" height="8" x="20" y="10" rx="1" ry="1"/>
 <rect style="fill:#30356e" width="8" height="8" x="30" y="10" rx="1" ry="1"/>
 <rect style="fill:#30356e" width="8" height="8" x="20" y="20" rx="1" ry="1"/>
 <rect style="fill:#30356e" width="8" height="8" x="20" y="30" rx="1" ry="1"/>
</svg>
