<svg xmlns="http://www.w3.org/2000/svg" width="48" height="48" version="1"><defs>
<linearGradient id="ucPurpleBlue" x1="0%" y1="0%" x2="100%" y2="100%">
  <stop offset="0%" style="stop-color:#B794F4;stop-opacity:1"/>
  <stop offset="100%" style="stop-color:#4299E1;stop-opacity:1"/>
</linearGradient>
</defs>
 <g opacity=".2" transform="matrix(1.25,0,0,1.5,4,1)">
  <g>
   <path d="m16 6-7.2 9.333-8.8-9.333 1.6 20h28.8l1.6-20-8.8 9.333z"/>
  </g>
 </g>
 <g transform="matrix(1.25,0,0,1.5,4,0)">
  <g>
   <path fill="url(#ucPurpleBlue)" d="m16 6-7.2 9.333-8.8-9.333 1.6 20h28.8l1.6-20-8.8 9.333z"/>
  </g>
 </g>
 <rect fill="url(#ucPurpleBlue)" width="3.606" height="3.606" x="15.02" y="49.88" transform="matrix(.55470 -.83205 .55470 .83205 0 0)"/>
 <rect fill="url(#ucPurpleBlue)" width="3.606" height="3.606" x="-10.22" y="24.64" transform="matrix(.55470 -.83205 .55470 .83205 0 0)"/>
 <rect fill="url(#ucPurpleBlue)" width="5" height="5" x="-.63" y="35.63" transform="matrix(.6 -.8 .6 .8 0 0)"/>
 <g fill="#fff" transform="matrix(1.25,0,0,1.5,4,0)">
  <g>
   <path opacity=".2" transform="matrix(.8 0 0 .66667 -3.2 0)" d="m4 9 0.0723 1.092 10.928 13.908 9-14 9 14 10.928-13.908 0.072-1.092-11 14-9-14-9 14-11-14z"/>
  </g>
 </g>
</svg>
