<svg xmlns="http://www.w3.org/2000/svg" width="48" height="48" version="1"><defs>
<linearGradient id="ucPurpleBlue" x1="0%" y1="0%" x2="100%" y2="100%">
  <stop offset="0%" style="stop-color:#B794F4;stop-opacity:1"/>
  <stop offset="100%" style="stop-color:#4299E1;stop-opacity:1"/>
</linearGradient>
</defs>
 <rect style="opacity:0.2" width="40" height="40" x="4" y="5" rx="2" ry="2"/>
 <rect fill="url(#ucPurpleBlue)" width="40" height="40" x="4" y="4" rx="2" ry="2"/>
 <g opacity=".35">
  <rect width="18" height="10" x="5" y="32" rx="2" ry="2"/>
  <rect width="18" height="10" x="25" y="32" rx="2" ry="2"/>
  <rect width="6" height="1" x="37" y="10"/>
  <rect width="6" height="1" x="37" y="13"/>
  <rect width="6" height="1" x="37" y="16"/>
  <rect width="6" height="1" x="37" y="19"/>
  <rect width="6" height="1" x="37" y="22"/>
  <rect width="6" height="1" x="37" y="25"/>
 </g>
 <path style="fill:#ffffff;opacity:.1" d="m6 4c-1.108 0-2 0.892-2 2v1c0-1.108 0.892-2 2-2h36c1.108 0 2 0.892 2 2v-1c0-1.108-0.892-2-2-2h-36z"/>
</svg>
