<svg xmlns="http://www.w3.org/2000/svg" width="48" height="48" version="1"><defs>
<linearGradient id="ucPurpleBlue" x1="0%" y1="0%" x2="100%" y2="100%">
  <stop offset="0%" style="stop-color:#B794F4;stop-opacity:1"/>
  <stop offset="100%" style="stop-color:#4299E1;stop-opacity:1"/>
</linearGradient>
</defs>
 <rect style="fill:#0081cc" width="40" height="40" x="4" y="4" rx="2" ry="2"/>
 <path style="opacity:.2;fill:#ffffff" d="m6 4c-1.108 0-2 0.892-2 2v1c0-1.108 0.892-2 2-2h36c1.108 0 2 0.892 2 2v-1c0-1.108-0.892-2-2-2h-36z"/>
 <path style="opacity:.2" d="m4 42v1c0 1.108 0.892 2 2 2h36c1.108 0 2-0.892 2-2v-1c0 1.108-0.892 2-2 2h-36c-1.108 0-2-0.892-2-2z"/>
 <rect style="opacity:.2" width="14" height="28" x="8" y="9" rx="3" ry="3"/>
 <rect style="fill:#ffffff" width="14" height="28" x="8" y="8" rx="3" ry="3"/>
 <rect style="opacity:.2" width="14" height="16" x="26" y="9" rx="3" ry="3"/>
 <rect style="fill:#ffffff" width="14" height="16" x="26" y="8" rx="3" ry="3"/>
</svg>
