<svg xmlns="http://www.w3.org/2000/svg" width="48" height="48" version="1"><defs>
<linearGradient id="ucPurpleBlue" x1="0%" y1="0%" x2="100%" y2="100%">
  <stop offset="0%" style="stop-color:#B794F4;stop-opacity:1"/>
  <stop offset="100%" style="stop-color:#4299E1;stop-opacity:1"/>
</linearGradient>
</defs>
 <rect style="opacity:0.2" width="40" height="40" x="4" y="5" rx="2" ry="2"/>
 <rect style="fill:#72a637" width="40" height="40" x="4" y="4" rx="2" ry="2"/>
 <path style="opacity:0.2" d="m 21,12 c 0,0 -4,0 -4,4 V 27 H 14 V 17 h -3 v 10 c 0,3 3,3 3,3 h 3 v 4 c 0,0 0,4 4,4 h 12 c 4,0 4,-4 4,-4 V 23 h -7 v 4 h 4 l -7,8 -7,-8 h 4 V 16 h 6 v 4 h 7 v -4 c 0,0 0,-4 -4,-4 z"/>
 <path style="fill:#ffffff" d="M 21,11 C 21,11 17,11 17,15 V 26 H 14 V 16 H 11 V 26 C 11,29 14,29 14,29 H 17 V 33 C 17,33 17,37 21,37 H 33 C 37,37 37,33 37,33 V 22 H 30 V 26 H 34 L 27,34 20,26 H 24 V 15 H 30 V 19 H 37 V 15 C 37,15 37,11 33,11 Z"/>
 <path style="fill:#ffffff;opacity:0.2" d="M 6 4 C 4.892 4 4 4.892 4 6 L 4 7 C 4 5.892 4.892 5 6 5 L 42 5 C 43.108 5 44 5.892 44 7 L 44 6 C 44 4.892 43.108 4 42 4 L 6 4 z"/>
</svg>
