<svg xmlns="http://www.w3.org/2000/svg" width="48" height="48" version="1"><defs>
<linearGradient id="ucPurpleBlue" x1="0%" y1="0%" x2="100%" y2="100%">
  <stop offset="0%" style="stop-color:#B794F4;stop-opacity:1"/>
  <stop offset="100%" style="stop-color:#4299E1;stop-opacity:1"/>
</linearGradient>
</defs>
 <rect style="opacity:0.2" width="40" height="40" x="4" y="5" rx="2" ry="2"/>
 <rect style="fill:#558ef4" width="40" height="40" x="4" y="4" rx="2" ry="2"/>
 <path fill="#fff" opacity=".2" d="m4 7v-1c0-1.108 0.892-2 2-2h36c1.108 0 2 0.892 2 2v1c0-1.108-0.892-2-2-2h-36c-1.108 0-2 0.892-2 2z"/>
 <path style="opacity:0.2;fill:none;stroke:#000000;stroke-width:4;stroke-linecap:round;stroke-linejoin:round" d="m 12.0001,15.999802 v 17 c 0,0 0.5,2.5 3,0 l 9,-11 9,11 c 2.5,2.5 3,0 3,0 l -2.09e-4,-17"/>
 <path style="fill:none;stroke:#ffffff;stroke-width:4;stroke-linecap:round;stroke-linejoin:round" d="m 12.0001,14.999802 v 17 c 0,0 0.5,2.5 3,0 l 9,-11 9,11 c 2.5,2.5 3,0 3,0 l -2.09e-4,-17"/>
</svg>
