<svg width="48" height="48" version="1.1" xmlns="http://www.w3.org/2000/svg"><defs>
<linearGradient id="ucPurpleBlue" x1="0%" y1="0%" x2="100%" y2="100%">
  <stop offset="0%" style="stop-color:#B794F4;stop-opacity:1"/>
  <stop offset="100%" style="stop-color:#4299E1;stop-opacity:1"/>
</linearGradient>
</defs>
 <g transform="matrix(2,0,0,2,2,2)">
  <circle cx="11" cy="11.5" r="10" style="opacity:.2"/>
  <circle cx="11" cy="11" r="10" style="fill:#07314a"/>
  <path d="M 11,1 A 10,10 0 0 0 1,11 10,10 0 0 0 1.0098,11.293 10,10 0 0 1 11,1.5 10,10 0 0 1 20.99,11.207 10,10 0 0 0 21,11 10,10 0 0 0 11,1 Z" style="fill:#ffffff;opacity:.1"/>
  <path d="m2 5.5h8l2 2 2-2h7l-6 6 5 6h-8l-2-2-2 2h-7l6-6z" style="opacity:.2"/>
  <path d="m2 5h8l2 2 2-2h7l-6 6 5 6h-8l-2-2-2 2h-7l6-6z" style="fill:#21b0df"/>
  <path d="M 2,5 2.4160156,5.5 H 10 l 2,2 2,-2 h 6.5 L 21,5 H 14 L 12,7 10,5 Z M 6.7734375,11.226562 1,17 H 1.5 L 7,11.5 Z M 15.226562,11.273438 15,11.5 19.583984,17 H 20 Z" style="fill:#ffffff;opacity:.2"/>
 </g>
</svg>
