<svg xmlns="http://www.w3.org/2000/svg" width="48" height="48" version="1.1"><defs>
<linearGradient id="ucPurpleBlue" x1="0%" y1="0%" x2="100%" y2="100%">
  <stop offset="0%" style="stop-color:#B794F4;stop-opacity:1"/>
  <stop offset="100%" style="stop-color:#4299E1;stop-opacity:1"/>
</linearGradient>
</defs>
 <rect style="opacity:.2" width="40" height="40" x="4" y="5" rx="3" ry="3"/>
 <rect style="fill:#ab47bc" width="40" height="40" x="4" y="4" rx="3" ry="3"/>
 <path style="opacity:.2;fill:#ffffff" d="m7 4c-1.662 0-3 1.338-3 3v1c0-1.662 1.338-3 3-3h34c1.662 0 3 1.338 3 3v-1c0-1.662-1.338-3-3-3z"/>
 <path style="stroke:#ffffff;stroke-width:2;stroke-linecap:round;fill:none" d="m11 15c9 0 5 9 13 9s4-9 13-9"/>
 <path style="stroke:#ffffff;stroke-width:2;stroke-linecap:round;fill:none" d="m11 33c9 0 5-9 13-9s4 9 13 9"/>
</svg>
