<svg xmlns="http://www.w3.org/2000/svg" width="48" height="48" version="1.1"><defs>
<linearGradient id="ucPurpleBlue" x1="0%" y1="0%" x2="100%" y2="100%">
  <stop offset="0%" style="stop-color:#B794F4;stop-opacity:1"/>
  <stop offset="100%" style="stop-color:#4299E1;stop-opacity:1"/>
</linearGradient>
</defs>
 <circle style="opacity:0.2" cx="24" cy="25" r="20"/>
 <circle style="fill:#ffcc00" cx="24" cy="24" r="20"/>
 <circle style="opacity:0.1" cx="24" cy="32" r="13"/>
 <path style="opacity:0.2;fill:#ffffff" d="M 24,4 A 20,20 0 0 0 4,24 20,20 0 0 0 4.0215,24.582 20,20 0 0 1 24,5 20,20 0 0 1 43.979,24.418 20,20 0 0 0 44,24 20,20 0 0 0 24,4 Z"/>
 <circle style="fill:#ff2626" cx="24" cy="31" r="13"/>
 <circle style="opacity:0.1" cx="24" cy="38" r="7"/>
 <circle style="fill:#ffcc00" cx="24" cy="37" r="7"/>
 <path style="opacity:0.2;fill:#ffffff" d="M 24 30 A 7 7 0 0 0 17 37 A 7 7 0 0 0 17.035156 37.5 A 7 7 0 0 1 24 31 A 7 7 0 0 1 30.972656 37.390625 A 7 7 0 0 0 31 37 A 7 7 0 0 0 24 30 z"/>
</svg>
