<svg xmlns="http://www.w3.org/2000/svg" width="84" height="84" version="1"><defs>
<linearGradient id="ucPurpleBlue" x1="0%" y1="0%" x2="100%" y2="100%">
  <stop offset="0%" style="stop-color:#B794F4;stop-opacity:1"/>
  <stop offset="100%" style="stop-color:#4299E1;stop-opacity:1"/>
</linearGradient>
</defs>
 <path opacity=".2" d="m 2.0234002,42 c -0.0082,0.334 -0.0234,0.664 -0.0234,1 C 2.0000002,65.16 19.84,83 42,83 64.16,83 82,65.16 82,43 82,42.664 81.984,42.334 81.976,42 81.448,63.692 63.824,81 42,81 20.176,81 2.5520002,63.692 2.0240002,42 Z"/>
 <path fill="url(#ucPurpleBlue)" d="M 42,2 C 19.84,2 2.0000002,19.84 2.0000002,42 2.0000002,64.16 19.84,82 42,82 64.16,82 82,64.16 82,42 82,19.84 64.16,2 42,2 Z"/>
 <path style="fill:#ffffff;opacity:0.2" d="M 42 2 C 19.84197 2 2.0039063 19.84 2.0039062 42 C 2.0039062 42.336 1.9959062 42.666 2.0039062 43 C 2.0039063 20.84 19.84197 3 42 3 C 64.15803 3 81.996094 20.84 81.996094 43 C 82.004094 42.666 81.996094 42.336 81.996094 42 C 81.996094 19.84 64.15803 2 42 2 z"/>
 <path fill="url(#ucPurpleBlue)" d="M 42,18 V 36 H 60 L 42,66 V 48 H 24 Z"/>
</svg>
