<svg xmlns="http://www.w3.org/2000/svg" width="22" height="22" version="1"><defs>
<linearGradient id="ucPurpleBlue" x1="0%" y1="0%" x2="100%" y2="100%">
  <stop offset="0%" style="stop-color:#B794F4;stop-opacity:1"/>
  <stop offset="100%" style="stop-color:#4299E1;stop-opacity:1"/>
</linearGradient>
</defs>
 <rect style="opacity:0.2" width="16" height="18" x="3" y="3.5" rx="1" ry="1"/>
 <rect style="fill:#4f4f4f" width="16" height="18" x="3" y="3" rx="1" ry="1"/>
 <rect style="fill:#8e8e8e" width="10" height="2" x="6" y="1"/>
 <path style="opacity:0.2" d="m 5,5.5 v 4 h 12 v -4 z m 0,5 v 4 h 12 v -4 z m 0,5 v 4 h 12 v -4 z"/>
 <path style="fill:#c0f957" d="M 5,5 V 9 H 17 V 5 Z m 0,5 v 4 h 12 v -4 z m 0,5 v 4 h 12 v -4 z"/>
 <path style="opacity:0.2;fill:#ffffff" d="M 6,1 V 1.5 H 16 V 1 Z"/>
 <path style="opacity:0.2;fill:#ffffff" d="M 5,5 V 5.5 H 17 V 5 Z m 0,5 v 0.5 H 17 V 10 Z m 0,5 v 0.5 H 17 V 15 Z"/>
</svg>
