<svg xmlns="http://www.w3.org/2000/svg" width="16" height="16" version="1.1"><defs>
<linearGradient id="ucPurpleBlue" x1="0%" y1="0%" x2="100%" y2="100%">
  <stop offset="0%" style="stop-color:#B794F4;stop-opacity:1"/>
  <stop offset="100%" style="stop-color:#4299E1;stop-opacity:1"/>
</linearGradient>
</defs>
 <path style="fill:#444444" d="M 2,0 C 0,0 0,2 0,2 V 11 C 0,11 0,13 2,13 H 3 V 10.98 H 2 V 2 H 14 V 7 H 16 V 2 C 16,2 16,0 14,0 Z"/>
 <path style="fill:#444444" d="M 8.03,7 7.03,8 H 5 C 4.53,8.06 4,8.54 4,9 V 15 C 4,15.46 4.53,16 5,16 H 15 C 15.47,16 16,15.46 16,15 V 9 C 16,8.54 15.47,8 15,8 H 13.03 L 12.03,7 Z M 10,9 C 11.66,9 13,10.34 13,12 13,13.65 11.66,15 10,15 8.34,15 7,13.65 7,12 7,10.34 8.34,9 10,9 Z M 10,10 C 8.9,10 8,10.89 8,12 8,13.1 8.9,14 10,14 11.11,14 12,13.1 12,12 12,10.89 11.11,10 10,10 Z"/>
</svg>
