<svg xmlns="http://www.w3.org/2000/svg" width="16" height="16" version="1.1"><defs>
<linearGradient id="ucPurpleBlue" x1="0%" y1="0%" x2="100%" y2="100%">
  <stop offset="0%" style="stop-color:#B794F4;stop-opacity:1"/>
  <stop offset="100%" style="stop-color:#4299E1;stop-opacity:1"/>
</linearGradient>
</defs>
 <path style="fill:#444444" d="M 3 1 C 3 1 1 1 1 3 L 1 13 C 1 13 1 15 3 15 L 13 15 C 13 15 15 15 15 13 L 15 3 C 15 1 13 1 13 1 L 3 1 z M 8 4 A 4 4 0 0 1 12 8 A 4 4 0 0 1 9.7891 11.576 L 8.8945 9.7891 A 2 2 0 0 0 10 8 A 2 2 0 0 0 8 6 A 2 2 0 0 0 6 8 A 2 2 0 0 0 7.1055 9.7871 L 6.2129 11.572 A 4 4 0 0 1 4 8 A 4 4 0 0 1 8 4 z"/>
</svg>
