<svg xmlns="http://www.w3.org/2000/svg" width="16" height="16" version="1.1"><defs>
<linearGradient id="ucPurpleBlue" x1="0%" y1="0%" x2="100%" y2="100%">
  <stop offset="0%" style="stop-color:#B794F4;stop-opacity:1"/>
  <stop offset="100%" style="stop-color:#4299E1;stop-opacity:1"/>
</linearGradient>
</defs>
 <path style="fill:#444444" d="M 8,0 A 8,8 0 0 0 1.695,3.08 L 4.08,7.21 A 4,4 0 0 1 8,4 H 14.92 A 8,8 0 0 0 8,0 Z M 1.078,4.01 A 8,8 0 0 0 0,8 8,8 0 0 0 6.895,15.91 L 9.279,11.79 A 4,4 0 0 1 8,12 4,4 0 0 1 4.541,10 H 4.535 Z M 8,5 A 3,3 0 0 0 5,8 3,3 0 0 0 8,11 3,3 0 0 0 11,8 3,3 0 0 0 8,5 Z M 10.639,5 A 4,4 0 0 1 12,8 4,4 0 0 1 11.461,10 H 11.465 L 8.002,16 A 8,8 0 0 0 16,8 8,8 0 0 0 15.41,5 Z"/>
</svg>
