<svg xmlns="http://www.w3.org/2000/svg" width="16" height="16" version="1.1"><defs>
<linearGradient id="ucPurpleBlue" x1="0%" y1="0%" x2="100%" y2="100%">
  <stop offset="0%" style="stop-color:#B794F4;stop-opacity:1"/>
  <stop offset="100%" style="stop-color:#4299E1;stop-opacity:1"/>
</linearGradient>
</defs>
 <path style="fill:#444444" d="M 0,3 V 10 H 12 Z M 2,6 5,8 H 2 Z"/>
 <path style="fill:#444444" d="M 2,0 C 0,0 0,2 0,2 H 14 V 11 H 0 C 0,11 0,13 2,13 H 14 C 14,13 16,13 16,11 V 2 C 16,2 16,0 14,0 Z M 4,14 C 4,14 3,14 3,15 V 16 H 13 V 15 C 13,14 12,14 12,14 Z"/>
</svg>
