<svg xmlns="http://www.w3.org/2000/svg" width="16" height="16" version="1.1"><defs>
<linearGradient id="ucPurpleBlue" x1="0%" y1="0%" x2="100%" y2="100%">
  <stop offset="0%" style="stop-color:#B794F4;stop-opacity:1"/>
  <stop offset="100%" style="stop-color:#4299E1;stop-opacity:1"/>
</linearGradient>
</defs>
 <path style="fill:#444444" d="M 9,1 V 6 H 10 V 10 L 13,5 H 12 L 13.5,1 Z M 5,2 V 3 H 7 V 4 H 5.5 L 3,6.5 V 8 H 2 V 6 H 1 V 12 H 2 V 10 H 3 V 11 C 3,12 4,12 4,12 H 6 L 7,13 H 12 C 12,13 13,13 13,12 V 10 H 14 V 12 H 16 V 5 H 14 V 7 H 13 L 11,10.275 V 11 H 8 L 7,10 H 5 V 7.5 L 6.5,6 H 8 V 2 Z"/>
</svg>
