<svg xmlns="http://www.w3.org/2000/svg" width="64" height="64" version="1"><defs>
<linearGradient id="ucPurpleBlue" x1="0%" y1="0%" x2="100%" y2="100%">
  <stop offset="0%" style="stop-color:#B794F4;stop-opacity:1"/>
  <stop offset="100%" style="stop-color:#4299E1;stop-opacity:1"/>
</linearGradient>
</defs>
 <rect style="opacity:0.2" width="56" height="56" x="4" y="5" rx="2.8" ry="2.8"/>
 <rect style="fill:#355681" width="56" height="56" x="4" y="4" rx="2.8" ry="2.8"/>
 <path style="opacity:0.2;fill:none;stroke:#000000;stroke-width:6;stroke-linejoin:round" d="m 31,24.9996 c 0,-2 -1.862372,-12.956026 10,-13 13.700526,-0.05079 13.050788,20.087566 0,20 l -20,0 c -13.4886164,0 -12.7372098,19.899778 0,20 10.898116,0.08576 10.057994,-11 10,-13"/>
 <path style="fill:none;stroke:#ffffff;stroke-width:6;stroke-linejoin:round" d="m 31,23.9996 c 0,-2 -1.862372,-12.956026 10,-13 13.700526,-0.05079 13.050788,20.087566 0,20 l -20,0 c -13.4886164,0 -12.7372098,19.899778 0,20 10.898116,0.08576 10.057994,-11 10,-13"/>
 <path style="opacity:0.1;fill:#ffffff" d="M 6.8007812 4 C 5.2495812 4 4 5.2495812 4 6.8007812 L 4 7.8007812 C 4 6.2495813 5.2495812 5 6.8007812 5 L 57.199219 5 C 58.750419 5 60 6.2495812 60 7.8007812 L 60 6.8007812 C 60 5.2495813 58.750419 4 57.199219 4 L 6.8007812 4 z"/>
</svg>
