<svg xmlns="http://www.w3.org/2000/svg" height="64" width="64" version="1.1"><defs>
<linearGradient id="ucPurpleBlue" x1="0%" y1="0%" x2="100%" y2="100%">
  <stop offset="0%" style="stop-color:#B794F4;stop-opacity:1"/>
  <stop offset="100%" style="stop-color:#4299E1;stop-opacity:1"/>
</linearGradient>
</defs>
 <rect style="opacity:.2" rx="4" ry="4" height="16" width="8" y="45" x="36"/>
 <rect style="opacity:.2" rx="4" ry="4" height="16" width="8" y="45" x="19"/>
 <rect style="opacity:.2" rx="3" ry="3" height="45" width="43" y="3" x="10"/>
 <rect style="fill:#c9c9c9" rx="3" ry="3" height="45" width="43" y="2" x="10"/>
 <path style="opacity:.1;fill:#ffffff" d="m13 2c-1.662 0-3 1.338-3 3v1c0-1.662 1.338-3 3-3h37c1.662 0 3 1.338 3 3v-1c0-1.662-1.338-3-3-3h-37z"/>
 <rect style="fill:#4f4f4f" rx="4" ry="4" height="16" width="8" y="44" x="36"/>
 <rect style="fill:#4f4f4f" rx="4" ry="4" height="16" width="8" y="44" x="19"/>
 <rect style="opacity:.2" rx="3" ry="3" height="35" width="33" y="18" x="15"/>
 <rect style="fill:#e4e4e4" rx="3" ry="3" height="35" width="33" y="17" x="15"/>
 <rect style="opacity:.1" rx="3" ry="3" height="17" width="25" y="22" x="19"/>
 <rect style="fill:#4f4f4f" rx="3" ry="3" height="17" width="25" y="21" x="19"/>
 <path style="opacity:.2;fill:#ffffff" d="m18 17c-1.662 0-3 1.338-3 3v1c0-1.662 1.338-3 3-3h27c1.662 0 3 1.338 3 3v-1c0-1.662-1.338-3-3-3h-27z"/>
</svg>
