<svg width="64" height="64" version="1.1" xmlns="http://www.w3.org/2000/svg"><defs>
<linearGradient id="ucPurpleBlue" x1="0%" y1="0%" x2="100%" y2="100%">
  <stop offset="0%" style="stop-color:#B794F4;stop-opacity:1"/>
  <stop offset="100%" style="stop-color:#4299E1;stop-opacity:1"/>
</linearGradient>
</defs>
 <g>
  <rect x="10" y="5" width="44" height="56" rx="3" ry="3" style="opacity:.2"/>
  <rect x="10" y="4" width="44" height="56" rx="3" ry="3" style="fill:#e46409"/>
  <path d="m38 5v28l4-4 4 4v-28z" style="opacity:.1"/>
  <path d="m38 4v28l4-4 4 4v-28z" style="fill:#1b9878"/>
  <path d="m13 4c-1.662 0-3 1.338-3 3v50c0 1.662 1.338 3 3 3h5v-56z" style="opacity:.2"/>
  <path d="m13 4c-1.662 0-3 1.338-3 3v1c0-1.662 1.338-3 3-3h38c1.662 0 3 1.338 3 3v-1c0-1.662-1.338-3-3-3z" style="fill:#ffffff;opacity:.2"/>
 </g>
</svg>
