<svg xmlns="http://www.w3.org/2000/svg" width="64" height="64" version="1.1"><defs>
<linearGradient id="ucPurpleBlue" x1="0%" y1="0%" x2="100%" y2="100%">
  <stop offset="0%" style="stop-color:#B794F4;stop-opacity:1"/>
  <stop offset="100%" style="stop-color:#4299E1;stop-opacity:1"/>
</linearGradient>
</defs>
 <path style="opacity:.2" d="m10 56v2c0 1.662 1.338 3 3 3h38c1.662 0 3-1.338 3-3v-2c0 1.662-1.338 3-3 3h-38c-1.662 0-3-1.338-3-3z"/>
 <path style="fill:#4e7bc0" d="m13 4c-1.662 0-3 1.338-3 3v50c0 1.662 1.338 3 3 3h38c1.662 0 3-1.338 3-3v-50c0-1.662-1.338-3-3-3h-38z"/>
 <path style="opacity:.2" d="m13 4c-1.662 0-3 1.338-3 3v50c0 1.662 1.338 3 3 3h5v-56z"/>
 <path style="opacity:.2" d="m38 5v28l4-4 4 4v-28h-8z"/>
 <path style="fill:#e9b064" d="m38 4v28l4-4 4 4v-28h-8z"/>
 <path style="opacity:.2;fill:#ffffff" d="m13 4c-1.662 0-3 1.338-3 3v1c0-1.662 1.338-3 3-3h38c1.662 0 3 1.338 3 3v-1c0-1.662-1.338-3-3-3h-38z"/>
</svg>
