<svg width="64" height="64" version="1.1" xmlns="http://www.w3.org/2000/svg"><defs>
<linearGradient id="ucPurpleBlue" x1="0%" y1="0%" x2="100%" y2="100%">
  <stop offset="0%" style="stop-color:#B794F4;stop-opacity:1"/>
  <stop offset="100%" style="stop-color:#4299E1;stop-opacity:1"/>
</linearGradient>
</defs>
 <rect x="4" y="5" width="56" height="56" rx="2" ry="2" style="opacity:.2"/>
 <rect x="4" y="4" width="56" height="56" rx="2" ry="2" style="fill:#f6531c"/>
 <path d="m6 4c-1.108 0-2 0.892-2 2v1c0-1.108 0.892-2 2-2h52c1.108 0 2 0.892 2 2v-1c0-1.108-0.892-2-2-2h-52z" style="fill:#ffffff;opacity:.2"/>
 <path d="m29 5v38h31v-3h-25v-35z" style="opacity:.2"/>
 <path d="m29 4v38h31v-3h-25v-35z" style="fill:#ffffff"/>
</svg>
