<svg xmlns="http://www.w3.org/2000/svg" width="64" height="64" version="1"><defs>
<linearGradient id="ucPurpleBlue" x1="0%" y1="0%" x2="100%" y2="100%">
  <stop offset="0%" style="stop-color:#B794F4;stop-opacity:1"/>
  <stop offset="100%" style="stop-color:#4299E1;stop-opacity:1"/>
</linearGradient>
</defs>
 <rect style="opacity:0.2" width="56" height="56" x="4" y="5" rx="2.8" ry="2.8"/>
 <rect style="fill:#4f4f4f" width="56" height="56" x="4" y="4" rx="2.8" ry="2.8"/>
 <path style="opacity:0.2" d="m 13,14 v 8 3 h 8 v -3 h 30 v -8 z m 0,15 v 8 h 38 v -8 z m 0,12 v 3 8 H 51 V 44 H 21 v -3 z"/>
 <path style="fill:#ffffff" d="m 13,13 v 8 3 h 8 v -3 h 30 v -8 z m 0,15 v 8 h 38 v -8 z m 0,12 v 3 8 H 51 V 43 H 21 v -3 z"/>
</svg>
