<svg xmlns="http://www.w3.org/2000/svg" width="64" height="64" version="1.1"><defs>
<linearGradient id="ucPurpleBlue" x1="0%" y1="0%" x2="100%" y2="100%">
  <stop offset="0%" style="stop-color:#B794F4;stop-opacity:1"/>
  <stop offset="100%" style="stop-color:#4299E1;stop-opacity:1"/>
</linearGradient>
</defs>
 <circle style="opacity:.2" cx="32" cy="33" r="28"/>
 <circle style="fill:#4454ba" cx="32" cy="32" r="28"/>
 <path style="fill:none;opacity:.2;stroke-linejoin:round;stroke-width:6;stroke:#000000" d="m32 26h-12.3s-2.7 2.6-2.7 7.5 2.7 6.5 2.7 6.5h9.3v-7"/>
 <path style="fill:none;stroke-linejoin:round;stroke-width:6;stroke:#9e9e9e" d="m32 25h-12.3s-2.7 2.6-2.7 7.5 2.7 6.5 2.7 6.5h9.3v-7"/>
 <path style="fill:none;opacity:.2;stroke-linejoin:round;stroke-width:6;stroke:#000000" d="m29 26h17l-14 14h17"/>
 <path style="fill:none;stroke-linejoin:round;stroke-width:6;stroke:#fefefe" d="m29 25h17l-14 14h17"/>
 <path style="fill:#ffffff;opacity:.1" d="M 32 4 A 28 28 0 0 0 4 32 A 28 28 0 0 0 4.0214844 32.585938 A 28 28 0 0 1 32 5 A 28 28 0 0 1 59.978516 32.414062 A 28 28 0 0 0 60 32 A 28 28 0 0 0 32 4 z"/>
</svg>
