<svg xmlns="http://www.w3.org/2000/svg" width="64" height="64" version="1.1"><defs>
<linearGradient id="ucPurpleBlue" x1="0%" y1="0%" x2="100%" y2="100%">
  <stop offset="0%" style="stop-color:#B794F4;stop-opacity:1"/>
  <stop offset="100%" style="stop-color:#4299E1;stop-opacity:1"/>
</linearGradient>
</defs>
 <rect style="opacity:0.2" width="44" height="56" x="10" y="5" rx="2.75" ry="2.8"/>
 <rect style="fill:#57a27f" width="44" height="56" x="10" y="4" rx="2.75" ry="2.8"/>
 <path style="opacity:0.2" d="M 12.75,4 C 11.2265,4 10,5.2488 10,6.8 v 50.4 c 0,1.5512 1.2265,2.8 2.75,2.8 H 18 V 4 Z"/>
 <path style="opacity:0.2" d="m 31,19 v 9.8 L 39.666668,19 47,20.26 34.333334,33 47,45.6 39.666668,47 31,37.2 v 8.4 L 25,47 V 20.26 Z"/>
 <path style="fill:#ffffff" d="m 31,18 v 9.8 L 39.666668,18 47,19.26 34.333334,32 47,44.6 39.666668,46 31,36.2 v 8.4 L 25,46 V 19.26 Z"/>
 <path style="opacity:0.2;fill:#ffffff" d="M 12.75 4 C 11.2265 4 10 5.2495812 10 6.8007812 L 10 7.8007812 C 10 6.2495813 11.2265 5 12.75 5 L 51.25 5 C 52.7735 5 54 6.2495812 54 7.8007812 L 54 6.8007812 C 54 5.2495813 52.7735 4 51.25 4 L 12.75 4 z"/>
</svg>
