<svg width="64" height="64" version="1.1" xmlns="http://www.w3.org/2000/svg"><defs>
<linearGradient id="ucPurpleBlue" x1="0%" y1="0%" x2="100%" y2="100%">
  <stop offset="0%" style="stop-color:#B794F4;stop-opacity:1"/>
  <stop offset="100%" style="stop-color:#4299E1;stop-opacity:1"/>
</linearGradient>
</defs>
 <circle cx="32" cy="33" r="28" style="opacity:.2"/>
 <circle cx="32" cy="32" r="28" style="fill:#e4e4e4"/>
 <path d="M 32,4 A 28,28 0 0 0 4,32 28,28 0 0 0 4.0215,32.586 28,28 0 0 1 32,5 28,28 0 0 1 59.979,32.414 28,28 0 0 0 60,32 28,28 0 0 0 32,4 Z" style="fill:#ffffff;opacity:.2"/>
 <circle cx="25" cy="23" r="8" style="opacity:.1"/>
 <circle cx="25" cy="22" r="8" style="fill:#3c88e7"/>
 <circle cx="44" cy="35" r="8" style="opacity:.1"/>
 <circle cx="44" cy="34" r="8" style="fill:#5dc15c"/>
 <circle cx="25" cy="44" r="8" style="opacity:.1"/>
 <circle cx="25" cy="43" r="8" style="fill:#e74c3c"/>
</svg>
