<svg width="64" height="64" version="1.1" xmlns="http://www.w3.org/2000/svg"><defs>
<linearGradient id="ucPurpleBlue" x1="0%" y1="0%" x2="100%" y2="100%">
  <stop offset="0%" style="stop-color:#B794F4;stop-opacity:1"/>
  <stop offset="100%" style="stop-color:#4299E1;stop-opacity:1"/>
</linearGradient>
</defs>
 <path d="m4 53v1c0 1.662 1.338 3 3 3h50c1.662 0 3-1.338 3-3v-1c0 1.662-1.338 3-3 3h-50c-1.662 0-3-1.338-3-3z" style="opacity:.2"/>
 <rect x="4" y="8" width="56" height="48" rx="3" ry="3" style="fill:#022254"/>
 <path d="m7 8c-1.662 0-3 1.338-3 3v1c0-1.662 1.338-3 3-3h50c1.662 0 3 1.338 3 3v-1c0-1.662-1.338-3-3-3z" style="fill:#ffffff;opacity:.1"/>
 <path d="m10 15c-2 0-2 2-2 2v10s0 2 2 2h4c2 0 2-2 2-2v-2h-2v2h-4v-10h4v2h2v-2s0-2-2-2zm12 0 2 14h2l-2-14zm-3 4a1 1 0 0 0-1 1 1 1 0 0 0 1 1 1 1 0 0 0 1-1 1 1 0 0 0-1-1zm0 6a1 1 0 0 0-1 1 1 1 0 0 0 1 1 1 1 0 0 0 1-1 1 1 0 0 0-1-1zm9 2v2h6v-2z" style="opacity:.2"/>
 <path d="m10 14c-2 0-2 2-2 2v10s0 2 2 2h4c2 0 2-2 2-2v-2h-2v2h-4v-10h4v2h2v-2s0-2-2-2zm12 0 2 14h2l-2-14zm-3 4a1 1 0 0 0-1 1 1 1 0 0 0 1 1 1 1 0 0 0 1-1 1 1 0 0 0-1-1zm0 6a1 1 0 0 0-1 1 1 1 0 0 0 1 1 1 1 0 0 0 1-1 1 1 0 0 0-1-1zm9 2v2h6v-2z" style="fill:#ffffff"/>
</svg>
