<svg xmlns="http://www.w3.org/2000/svg" width="64" height="64" version="1"><defs>
<linearGradient id="ucPurpleBlue" x1="0%" y1="0%" x2="100%" y2="100%">
  <stop offset="0%" style="stop-color:#B794F4;stop-opacity:1"/>
  <stop offset="100%" style="stop-color:#4299E1;stop-opacity:1"/>
</linearGradient>
</defs>
 <circle style="opacity:0.2" cx="32" cy="33" r="28"/>
 <circle style="fill:#3e50b4" cx="32" cy="32" r="28"/>
 <path style="opacity:0.2" d="m 20,23 v 3 h 24 v -3 z m 0,6 v 3 h 24 v -3 z m 0,6 v 3 h 24 v -3 z m 0,6 v 3 h 16 v -3 z"/>
 <path style="fill:#ffffff" d="M 20 22 L 20 25 L 44 25 L 44 22 L 20 22 z M 20 28 L 20 31 L 44 31 L 44 28 L 20 28 z M 20 34 L 20 37 L 44 37 L 44 34 L 20 34 z M 20 40 L 20 43 L 36 43 L 36 40 L 20 40 z"/>
 <path style="opacity:0.1;fill:#ffffff" d="M 32 4 A 28 28 0 0 0 4 32 A 28 28 0 0 0 4.0214844 32.585938 A 28 28 0 0 1 32 5 A 28 28 0 0 1 59.978516 32.414062 A 28 28 0 0 0 60 32 A 28 28 0 0 0 32 4 z"/>
</svg>
