<svg width="64" height="64" version="1.1" xmlns="http://www.w3.org/2000/svg"><defs>
<linearGradient id="ucPurpleBlue" x1="0%" y1="0%" x2="100%" y2="100%">
  <stop offset="0%" style="stop-color:#B794F4;stop-opacity:1"/>
  <stop offset="100%" style="stop-color:#4299E1;stop-opacity:1"/>
</linearGradient>
</defs>
 <g>
  <path d="m4 53v1c0 1.662 1.338 3 3 3h50c1.662 0 3-1.338 3-3v-1c0 1.662-1.338 3-3 3h-50c-1.662 0-3-1.338-3-3z" style="opacity:.2"/>
  <rect x="4" y="8" width="56" height="48" rx="3" ry="3" style="fill:#87362d"/>
  <path d="m7 8c-1.662 0-3 1.338-3 3v1c0-1.662 1.338-3 3-3h50c1.662 0 3 1.338 3 3v-1c0-1.662-1.338-3-3-3z" style="fill:#ffffff;opacity:.1"/>
  <path d="m8 15v2l6 4v2l-6 4v2h2l8-6v-2l-8-6zm14 12v2h12v-2z" style="opacity:.2"/>
  <path d="m8 14v2l6 4v2l-6 4v2h2l8-6v-2l-8-6zm14 12v2h12v-2z" style="fill:#ffffff"/>
 </g>
</svg>
