<svg xmlns="http://www.w3.org/2000/svg" width="64" height="64" version="1.1"><defs>
<linearGradient id="ucPurpleBlue" x1="0%" y1="0%" x2="100%" y2="100%">
  <stop offset="0%" style="stop-color:#B794F4;stop-opacity:1"/>
  <stop offset="100%" style="stop-color:#4299E1;stop-opacity:1"/>
</linearGradient>
</defs>
 <circle style="opacity:0.2" cx="32" cy="33" r="28"/>
 <circle style="fill:#0b77d2" cx="32" cy="32" r="28"/>
 <path style="opacity:0.2;fill:#ffffff" d="M 32 4 A 28 28 0 0 0 4 32 A 28 28 0 0 0 4.0175781 32.492188 A 28 28 0 0 1 32 5 A 28 28 0 0 1 59.974609 32.492188 A 28 28 0 0 0 60 32 A 28 28 0 0 0 32 4 z"/>
 <path style="opacity:0.2" d="M 13,33 32.7,41 55,11 34.1,53 Z"/>
 <path style="fill:#ffffff" d="M 13,32 32.7,40 55,10 34.1,52 Z"/>
</svg>
