<svg xmlns="http://www.w3.org/2000/svg" height="64" width="64" version="1.1"><defs>
<linearGradient id="ucPurpleBlue" x1="0%" y1="0%" x2="100%" y2="100%">
  <stop offset="0%" style="stop-color:#B794F4;stop-opacity:1"/>
  <stop offset="100%" style="stop-color:#4299E1;stop-opacity:1"/>
</linearGradient>
</defs>
 <circle cx="32" cy="33" r="28" style="opacity:.2"/>
 <circle cx="32" cy="32" r="28" style="fill:#b864e6"/>
 <path style="fill:#d69def" d="m18.765625 10.826172a25 25 0 0 0 -11.765625 21.173828h12a13 13 0 0 1 6.113281 -11.017578l-6.347656-10.15625zm26.234375 21.173828a13 13 0 0 1 -6.113281 11.017578l6.347656 10.15625a25 25 0 0 0 11.765625 -21.173828h-12z"/>
 <path d="m32 4a28 28 0 0 0 -28 28 28 28 0 0 0 0.0215 0.586 28 28 0 0 1 27.9785 -27.586 28 28 0 0 1 27.979 27.414 28 28 0 0 0 0.021 -0.414 28 28 0 0 0 -28 -28z" style="opacity:.2;fill:#ffffff"/>
 <circle r="10" style="opacity:.1" cx="32" cy="33"/>
 <circle r="10" style="fill:#4f4f4f" cx="32" cy="32"/>
 <circle r="2" style="fill:#ffffff" cx="32" cy="32"/>
</svg>
