<svg xmlns="http://www.w3.org/2000/svg" width="64" height="64" version="1"><defs>
<linearGradient id="ucPurpleBlue" x1="0%" y1="0%" x2="100%" y2="100%">
  <stop offset="0%" style="stop-color:#B794F4;stop-opacity:1"/>
  <stop offset="100%" style="stop-color:#4299E1;stop-opacity:1"/>
</linearGradient>
</defs>
 <rect style="opacity:0.2" width="56" height="56" x="4" y="5" rx="16.8" ry="16.8"/>
 <rect style="fill:#4f4f4f" width="56" height="56" x="4" y="4" rx="16.8" ry="16.8"/>
 <path style="opacity:0.1" d="m29 15-15 5v27l15 5zm8 3-6 2v27l6 2zm7 3-5 2v21l5 2zm6 5-4 1v13l4 1z"/>
 <path style="fill:#eaeaea" d="m29 14-15 5v27l15 5zm8 3-6 2v27l6 2zm7 3-5 2v21l5 2zm6 5-4 1v13l4 1z"/>
 <path style="fill:#ffffff;opacity:0.1" d="M 20.801 4 C 11.494 4 4 11.494 4 20.801 L 4 21.801 C 4 12.494 11.494 5 20.801 5 L 43.199 5 C 52.506 5 60 12.494 60 21.801 L 60 20.801 C 60 11.494 52.506 4 43.199 4 L 20.801 4 z"/>
</svg>
