<svg xmlns="http://www.w3.org/2000/svg" width="64" height="64" version="1.1"><defs>
<linearGradient id="ucPurpleBlue" x1="0%" y1="0%" x2="100%" y2="100%">
  <stop offset="0%" style="stop-color:#B794F4;stop-opacity:1"/>
  <stop offset="100%" style="stop-color:#4299E1;stop-opacity:1"/>
</linearGradient>
</defs>
 <rect style="opacity:.2" width="56" height="56" x="4" y="5" rx="6" ry="6"/>
 <rect style="fill:#ab47bc" width="56" height="56" x="4" y="4" rx="6" ry="6"/>
 <path style="stroke:#ffffff;stroke-width:2;stroke-linecap:round;fill:none" d="m15 19c9 0 9 13 17 13s8-13 17-13"/>
 <path style="stroke:#ffffff;stroke-width:2;stroke-linecap:round;fill:none" d="m15 45c9 0 9-13 17-13s8 13 17 13"/>
 <path style="opacity:.2;fill:#ffffff" d="m10 4c-3.324 0-6 2.676-6 6v1c0-3.324 2.676-6 6-6h44c3.324 0 6 2.676 6 6v-1c0-3.324-2.676-6-6-6z"/>
</svg>
