<svg xmlns="http://www.w3.org/2000/svg" width="64" height="64" version="1.1"><defs>
<linearGradient id="ucPurpleBlue" x1="0%" y1="0%" x2="100%" y2="100%">
  <stop offset="0%" style="stop-color:#B794F4;stop-opacity:1"/>
  <stop offset="100%" style="stop-color:#4299E1;stop-opacity:1"/>
</linearGradient>
</defs>
 <circle style="opacity:0.2" cx="32" cy="33" r="28"/>
 <circle style="fill:#e4e4e4" cx="32" cy="32" r="28"/>
 <path style="opacity:0.1" d="M 19.307032,18.408203 15.193,22.413 29,36.616407 V 52 h 6 V 36.616407 L 48.807,22.413 44.692968,18.408203 32,31.464843 Z"/>
 <path style="fill:#ff2f2f" d="M 19.307032,17.408203 15.193,21.413 29,35.616407 V 51 h 6 V 35.616407 L 48.807,21.413 44.692968,17.408203 32,30.464843 Z"/>
 <path style="fill:#ffffff;opacity:0.2" d="M 32 4 A 28 28 0 0 0 4 32 A 28 28 0 0 0 4.0351562 32.5 A 28 28 0 0 1 32 5 A 28 28 0 0 1 59.982422 32.251953 A 28 28 0 0 0 60 32 A 28 28 0 0 0 32 4 z"/>
</svg>
