<svg width="64" height="64" version="1.1" xmlns="http://www.w3.org/2000/svg"><defs>
<linearGradient id="ucPurpleBlue" x1="0%" y1="0%" x2="100%" y2="100%">
  <stop offset="0%" style="stop-color:#B794F4;stop-opacity:1"/>
  <stop offset="100%" style="stop-color:#4299E1;stop-opacity:1"/>
</linearGradient>
</defs>
 <circle cx="32" cy="33" r="28" style="opacity:.2"/>
 <circle cx="32" cy="32" r="28" style="fill:#a71416"/>
 <path d="m32 26h12.3s2.7 2.6 2.7 7.5-2.7 6.5-2.7 6.5h-9.3v-7" style="fill:none;opacity:.2;stroke-linejoin:round;stroke-width:6;stroke:#000000"/>
 <path d="m32 25h12.3s2.7 2.6 2.7 7.5-2.7 6.5-2.7 6.5h-9.3v-7" style="fill:none;stroke-linejoin:round;stroke-width:6;stroke:#9e9e9e"/>
 <path d="m15 26h17l-14 14h17" style="fill:none;opacity:.2;stroke-linejoin:round;stroke-width:6;stroke:#000000"/>
 <path d="m15 25h17l-14 14h17" style="fill:none;stroke-linejoin:round;stroke-width:6;stroke:#fefefe"/>
 <path d="M 32,4 A 28,28 0 0 0 4,32 28,28 0 0 0 4.0214844,32.585938 28,28 0 0 1 32,5 28,28 0 0 1 59.978516,32.414062 28,28 0 0 0 60,32 28,28 0 0 0 32,4 Z" style="fill:#ffffff;opacity:.1"/>
</svg>
