<svg xmlns="http://www.w3.org/2000/svg" width="16" height="16" version="1.1"><defs>
<linearGradient id="ucPurpleBlue" x1="0%" y1="0%" x2="100%" y2="100%">
  <stop offset="0%" style="stop-color:#B794F4;stop-opacity:1"/>
  <stop offset="100%" style="stop-color:#4299E1;stop-opacity:1"/>
</linearGradient>
</defs>
 <path style="fill:#444444" d="M 6,1 V 3 H 4 C 2.338,3 1,4.338 1,6 V 10 C 1,11.662 2.338,13 4,13 H 12 C 13.662,13 15,11.662 15,10 V 6 C 15,4.338 13.662,3 12,3 H 11 V 5 H 12 C 12.554,5 13,5.446 13,6 V 10 C 13,10.554 12.554,11 12,11 H 4 C 3.446,11 3,10.554 3,10 V 6 C 3,5.446 3.446,5 4,5 H 6 V 7 L 10,4 Z"/>
</svg>
