<svg xmlns="http://www.w3.org/2000/svg" width="16" height="16" version="1.1"><defs>
<linearGradient id="ucPurpleBlue" x1="0%" y1="0%" x2="100%" y2="100%">
  <stop offset="0%" style="stop-color:#B794F4;stop-opacity:1"/>
  <stop offset="100%" style="stop-color:#4299E1;stop-opacity:1"/>
</linearGradient>
</defs>
 <path style="fill:#444444;opacity:.35" d="M 8 1 C 7.45 1 7 1.45 7 2 C 7 2.03 6.9997656 2.0696094 7.0097656 2.0996094 C 6.5129656 2.1994094 6.0506406 2.3850406 5.6191406 2.6191406 L 13 10 L 13 9 L 13 7 C 13 4.57 11.280034 2.5596094 8.9902344 2.0996094 C 9.0002344 2.0696094 9 2.03 9 2 C 9 1.45 8.55 1 8 1 z M 2.5 1.5 L 1 3 L 3.3066406 5.3066406 C 3.1126225 5.8349112 3 6.4018937 3 7 L 3 11.5 L 1 13.5 L 1 14 L 3 14 L 12 14 L 13.5 15.5 L 15 14 L 2.5 1.5 z M 6.2695312 15 C 6.6295313 15.62 7.29 16 8 16 C 8.71 16 9.3704688 15.62 9.7304688 15 L 6.2695312 15 z"/>
</svg>
