<svg xmlns="http://www.w3.org/2000/svg" width="16" height="16" version="1.1"><defs>
<linearGradient id="ucPurpleBlue" x1="0%" y1="0%" x2="100%" y2="100%">
  <stop offset="0%" style="stop-color:#B794F4;stop-opacity:1"/>
  <stop offset="100%" style="stop-color:#4299E1;stop-opacity:1"/>
</linearGradient>
</defs>
 <path style="fill:#444444" d="M 8 0 C 3.5885714 0 0 3.5885714 0 8 C 0 12.411429 3.5885714 16 8 16 C 12.411429 16 16 12.411429 16 8 C 16 3.5885714 12.411429 0 8 0 z M 8 2 C 11.32 2 14 4.68 14 8 C 14 11.32 11.32 14 8 14 C 4.6799999 14 2 11.32 2 8 C 2 4.68 4.6799999 2 8 2 z M 5 7 A 1 1 0 0 0 4 8 A 1 1 0 0 0 5 9 L 11 9 A 1 1 0 0 0 12 8 A 1 1 0 0 0 11 7 L 5 7 z"/>
</svg>
