<svg xmlns="http://www.w3.org/2000/svg" width="16" height="16" version="1.1"><defs>
<linearGradient id="ucPurpleBlue" x1="0%" y1="0%" x2="100%" y2="100%">
  <stop offset="0%" style="stop-color:#B794F4;stop-opacity:1"/>
  <stop offset="100%" style="stop-color:#4299E1;stop-opacity:1"/>
</linearGradient>
</defs>
 <path style="fill:#444444" d="M 8,2 C 4.6863,2 2,4.6863 2,8 H 0 L 3,12 6,8 H 4 C 4,5.7909 5.7909,4 8,4 10.209,4 12,5.7909 12,8 12,10.209 10.209,12 8,12 A 1,1 0 0 0 7,13 1,1 0 0 0 8,14 1,1 0 0 0 8.0957,13.996 C 11.365,13.944 14,11.282 14,8 14,4.6863 11.314,2 8,2 Z"/>
</svg>
