<svg xmlns="http://www.w3.org/2000/svg" height="22" width="22" version="1.1"><defs>
<linearGradient id="ucPurpleBlue" x1="0%" y1="0%" x2="100%" y2="100%">
  <stop offset="0%" style="stop-color:#B794F4;stop-opacity:1"/>
  <stop offset="100%" style="stop-color:#4299E1;stop-opacity:1"/>
</linearGradient>
</defs>
 <rect style="fill:#a03569" rx="1" ry="1" height="20" width="20" y="1" x="1"/>
 <path style="opacity:.1;fill:#ffffff" d="m2 1c-0.554 0-1 0.446-1 1v0.5c0-0.554 0.446-1 1-1h18c0.554 0 1 0.446 1 1v-0.5c0-0.554-0.446-1-1-1z"/>
 <path style="opacity:.2" d="m1 20v0.5c0 0.554 0.446 1 1 1h18c0.554 0 1-0.446 1-1v-0.5c0 0.554-0.446 1-1 1h-18c-0.554 0-1-0.446-1-1z"/>
 <path style="opacity:.2" d="m14 6.5v3s-4.000365-0.5001112-4 3c0.000365 3.500111 2 4 3 4s3 0 3-1v-9zm-1 5h1v3h-1s-1 0-1-1.5 1-1.5 1-1.5z"/>
 <path style="fill:#f09ec3" d="m14 6v3s-4.000365-0.5001112-4 3c0.000365 3.500111 2 4 3 4s3 0 3-1v-9zm-1 5h1v3h-1s-1 0-1-1.5 1-1.5 1-1.5z"/>
 <rect style="opacity:.2" height="10" width="2" y="6.5" x="6"/>
 <rect style="fill:#f09ec3" height="10" width="2" y="6" x="6"/>
</svg>
