<svg xmlns="http://www.w3.org/2000/svg" width="22" height="22" version="1"><defs>
<linearGradient id="ucPurpleBlue" x1="0%" y1="0%" x2="100%" y2="100%">
  <stop offset="0%" style="stop-color:#B794F4;stop-opacity:1"/>
  <stop offset="100%" style="stop-color:#4299E1;stop-opacity:1"/>
</linearGradient>
</defs>
 <rect fill="url(#ucPurpleBlue)" width="20" height="20" x="1" y="1" rx="1" ry="1"/>
 <path fill="#fff" opacity=".2" d="m2 1c-0.554 0-1 0.446-1 1v0.5c0-0.554 0.446-1 1-1h18c0.554 0 1 0.446 1 1v-0.5c0-0.554-0.446-1-1-1h-18z"/>
 <path opacity=".2" d="m2 21.5c-0.554 0-1-0.446-1-1v-0.5c0 0.554 0.446 1 1 1h18c0.554 0 1-0.446 1-1v0.5c0 0.554-0.446 1-1 1h-18z"/>
 <path opacity=".2" d="m5 5.5001 4 3.9922 4.0547 0.0078 0.0156 0.0078-0.0156 3.9766l3.945 3.985v-11.969zm4 3.9219-4 3.078v5h5l3-3.9999-4 0.0156z"/>
 <path fill="#fff" d="m5 5 4 3.9922 4.055 0.0078l0.0156 0.0078-0.0156 3.9766 3.945 3.985v-11.969zm4 3.9219-4 3.0781v4.9999h5l3-4-4 0.016z"/>
</svg>
