<svg xmlns="http://www.w3.org/2000/svg" width="22" height="22" version="1"><defs>
<linearGradient id="ucPurpleBlue" x1="0%" y1="0%" x2="100%" y2="100%">
  <stop offset="0%" style="stop-color:#B794F4;stop-opacity:1"/>
  <stop offset="100%" style="stop-color:#4299E1;stop-opacity:1"/>
</linearGradient>
</defs>
 <rect style="opacity:0.2" width="20" height="20" x="1" y="1.5" rx="1" ry="1"/>
 <rect style="fill:#ff822e" width="20" height="20" x="1" y="1" rx="1" ry="1"/>
 <path style="opacity:0.2;fill:#ffffff" d="M 1,2.5 V 2 C 1,1.446 1.446,1 2,1 h 18 c 0.554,0 1,0.446 1,1 v 0.5 c 0,-0.554 -0.446,-1 -1,-1 H 2 c -0.554,0 -1,0.446 -1,1 z"/>
 <path style="opacity:0.2" d="M 10.999024,3.5 A 0.6429552,0.6177088 0 0 0 10.458985,3.7841797 L 6.6015625,9.548828 A 0.6429552,0.6177088 0 0 0 7.142578,10.5 H 10 v 9 h 2 v -9 h 2.857422 A 0.6429552,0.6177088 0 0 0 15.398437,9.548828 L 11.541016,3.7841797 A 0.6429552,0.6177088 0 0 0 10.999024,3.5 Z"/>
 <path style="fill:#ffffff" d="M 10,6.4999995 V 19 h 2 V 6.4999995 Z"/>
 <path style="fill:#ffffff;fill-rule:evenodd" d="M 10.999163,3.0000003 A 0.6429552,0.6177088 0 0 0 10.459235,3.2838925 L 6.601889,9.048599 A 0.6429552,0.6177088 0 0 0 7.1426545,10 H 14.857346 A 0.6429552,0.6177088 0 0 0 15.398111,9.048599 L 11.540765,3.2838925 A 0.6429552,0.6177088 0 0 0 10.999163,3.0000003 Z"/>
</svg>
