<svg xmlns="http://www.w3.org/2000/svg" width="22" height="22" version="1.1"><defs>
<linearGradient id="ucPurpleBlue" x1="0%" y1="0%" x2="100%" y2="100%">
  <stop offset="0%" style="stop-color:#B794F4;stop-opacity:1"/>
  <stop offset="100%" style="stop-color:#4299E1;stop-opacity:1"/>
</linearGradient>
</defs>
 <circle style="opacity:0.2" cx="11" cy="11.5" r="10"/>
 <circle style="fill:#1db5ff" cx="11" cy="11" r="10"/>
 <path style="opacity:0.2;fill:#ffffff" d="M 11,1 A 10,10 0 0 0 1,11 10,10 0 0 0 1.01075,11.291 10,10 0 0 1 11,1.5 10,10 0 0 1 20.9895,11.209 10,10 0 0 0 21,11 10,10 0 0 0 11,1 Z"/>
 <path style="opacity:0.2" d="M 9.997071,5.5 9.944336,5.6240235 6.142578,15.5 h 2.1445315 l 0.7695315,-2 h 3.896484 l 0.763672,2 h 2.140625 L 12.03711,5.5 Z M 11.011719,8.4189455 12.188477,11.5 H 9.826172 Z"/>
 <path style="fill:#ffffff" d="M 9.997071,5 9.944336,5.1240235 6.142578,15 H 8.2871095 L 9.056641,13 h 3.896484 l 0.763672,2 h 2.140625 L 12.03711,5 Z M 11.011719,7.9189455 12.188477,11 H 9.826172 Z"/>
</svg>
