<svg width="22" height="22" version="1.1" xmlns="http://www.w3.org/2000/svg"><defs>
<linearGradient id="ucPurpleBlue" x1="0%" y1="0%" x2="100%" y2="100%">
  <stop offset="0%" style="stop-color:#B794F4;stop-opacity:1"/>
  <stop offset="100%" style="stop-color:#4299E1;stop-opacity:1"/>
</linearGradient>
</defs>
 <path d="m7 16.5 3 1 1 4 1-4 3-1v-1h-3v-14h-2v14h-3z" style="opacity:.2"/>
 <path d="m7 16 3 1 1 4 1-4 3-1v-1h-3v-14h-2v14h-3z" style="fill:#b2b2b2"/>
 <path d="m7 16h8v-11h-8z" style="fill:#d33e33"/>
 <path d="m9.5 1.49995a0.50005 0.50005 0 1 0 0 1h3a0.50005 0.50005 0 1 0 0-1z" style="opacity:.2"/>
 <path d="m9.5 1a0.50005 0.50005 0 1 0 0 1h3a0.50005 0.50005 0 1 0 0-1z" style="fill:#e4e4e4"/>
 <path d="m9 14.5h1l1-1 1 1h1l-2-2z" style="opacity:.1"/>
 <path d="m9 14h1l1-1 1 1h1l-2-2z" style="fill:#3f3f3f"/>
 <rect x="12" y="8.5" width="1" height="3" style="opacity:.1"/>
 <rect x="12" y="8" width="1" height="3" style="fill:#3f3f3f"/>
 <path d="m6.5 5.49995a0.50005 0.50005 0 1 0 0 1h9a0.50005 0.50005 0 1 0 0-1z" style="opacity:.2"/>
 <path d="m6.5 5a0.50005 0.50005 0 1 0 0 1h9a0.50005 0.50005 0 1 0 0-1z" style="fill:#e4e4e4"/>
 <path d="m9.5 1a0.50005 0.50005 0 0 0-0.4394531 0.75 0.50005 0.50005 0 0 1 0.4394531-0.25h3a0.50005 0.50005 0 0 1 0.439453 0.25 0.50005 0.50005 0 0 0-0.439453-0.75h-3z" style="fill:#ffffff;opacity:.2"/>
 <path d="m6.5 5a0.50005 0.50005 0 0 0-0.4394531 0.75 0.50005 0.50005 0 0 1 0.4394531-0.25h9a0.50005 0.50005 0 0 1 0.439453 0.25 0.50005 0.50005 0 0 0-0.439453-0.75h-9z" style="fill:#ffffff;opacity:.2"/>
</svg>
