<svg xmlns="http://www.w3.org/2000/svg" width="22" height="22" version="1"><defs>
<linearGradient id="ucPurpleBlue" x1="0%" y1="0%" x2="100%" y2="100%">
  <stop offset="0%" style="stop-color:#B794F4;stop-opacity:1"/>
  <stop offset="100%" style="stop-color:#4299E1;stop-opacity:1"/>
</linearGradient>
</defs>
 <path style="fill:#b7b7b7" d="m 3.999985,2 h 13.99995 V 9 H 3.999985 Z"/>
 <path style="opacity:0.2;fill:#ffffff" d="m 3.999985,2 v 0.5 h 13.99995 V 2 Z"/>
 <rect fill="url(#ucPurpleBlue)" width="20" height="12" x="1" y="8" rx="1" ry="1"/>
 <path style="opacity:0.4" d="M 5 10 L 5 12 L 17 12 L 17 10 L 5 10 z M 6 13 L 6 15 L 16 15 L 16 13 L 6 13 z M 7 16 L 7 18 L 15 18 L 15 16 L 7 16 z"/>
 <path opacity=".2" d="m1 19v0.5c0 0.554 0.446 1 1 1h18c0.554 0 1-0.446 1-1v-0.5c0 0.554-0.446 1-1 1h-18c-0.554 0-1-0.446-1-1z"/>
</svg>
