<svg xmlns="http://www.w3.org/2000/svg" width="22" height="22" version="1"><defs>
<linearGradient id="ucPurpleBlue" x1="0%" y1="0%" x2="100%" y2="100%">
  <stop offset="0%" style="stop-color:#B794F4;stop-opacity:1"/>
  <stop offset="100%" style="stop-color:#4299E1;stop-opacity:1"/>
</linearGradient>
</defs>
 <g transform="translate(-1,-1)">
  <rect style="opacity:0.2" width="20" height="20" x="2" y="2.5" rx="10" ry="10"/>
  <rect fill="url(#ucPurpleBlue)" width="20" height="20" x="2" y="2" rx="10" ry="10"/>
  <circle style="opacity:0.4" cx="12" cy="12" r="6"/>
  <circle opacity=".2" cx="12" cy="12.5" r="5"/>
  <circle fill="url(#ucPurpleBlue)" cx="12" cy="12" r="5"/>
  <circle opacity=".2" cx="12" cy="12.5" r="3"/>
  <circle fill="url(#ucPurpleBlue)" cx="12" cy="12" r="3"/>
  <path style="opacity:0.1;fill:#ffffff" d="M 12,2 C 6.46,2 2,6.46 2,12 2,12.084 2.0038,12.167 2.0059,12.25 2.1382,6.8269 6.5439,2.5 12,2.5 17.456,2.5 21.862,6.8269 21.994,12.25 21.996,12.167 22,12.084 22,12 22,6.46 17.54,2 12,2 Z"/>
 </g>
</svg>
