<svg width="22" height="22" version="1.1" xmlns="http://www.w3.org/2000/svg"><defs>
<linearGradient id="ucPurpleBlue" x1="0%" y1="0%" x2="100%" y2="100%">
  <stop offset="0%" style="stop-color:#B794F4;stop-opacity:1"/>
  <stop offset="100%" style="stop-color:#4299E1;stop-opacity:1"/>
</linearGradient>
</defs>
 <rect x="1" y="1.5" width="20" height="20" rx="1" ry="1" style="opacity:.2"/>
 <rect x="1" y="1" width="20" height="20" rx="1" ry="1" style="fill:#f6531c"/>
 <path d="m2 1c-0.554 0-1 0.446-1 1v0.5c0-0.554 0.446-1 1-1h18c0.554 0 1 0.446 1 1v-0.5c0-0.554-0.446-1-1-1h-18z" style="fill:#ffffff;opacity:.2"/>
 <path d="m10 1.5v14h11v-1h-9v-13z" style="opacity:.2"/>
 <path d="m10 1v14h11v-1h-9v-13z" style="fill:#ffffff"/>
</svg>
