<svg xmlns="http://www.w3.org/2000/svg" width="22" height="22" version="1"><defs>
<linearGradient id="ucPurpleBlue" x1="0%" y1="0%" x2="100%" y2="100%">
  <stop offset="0%" style="stop-color:#B794F4;stop-opacity:1"/>
  <stop offset="100%" style="stop-color:#4299E1;stop-opacity:1"/>
</linearGradient>
</defs>
 <rect fill="url(#ucPurpleBlue)" width="20" height="20" x="1" y="1" rx="1" ry="1"/>
 <path fill="url(#ucPurpleBlue)" d="m21 11v-9c0-0.554-0.446-1-1-1h-18c-0.554 0-1 0.446-1 1v9z"/>
 <path fill="#fff" opacity=".2" d="m2 1c-0.554 0-1 0.446-1 1v0.5c0-0.554 0.446-1 1-1h18c0.554 0 1 0.446 1 1v-0.5c0-0.554-0.446-1-1-1h-18z"/>
 <path opacity=".2" d="m2 21.5c-0.554 0-1-0.446-1-1v-0.5c0 0.554 0.446 1 1 1h18c0.554 0 1-0.446 1-1v0.5c0 0.554-0.446 1-1 1h-18z"/>
 <path fill="#fff" transform="matrix(.5 0 0 .49287 -1.691 -1.2254)" d="m25.382 5.5296 2.4721 5.0091 5.5279 0.80325-4 3.899 0.94427 5.5055-4.9443-2.5994-4.9443 2.5994 0.94427-5.5055-4-3.899 5.5279-0.80325z"/>
 <path fill="url(#ucPurpleBlue)" d="m9.5 12h3l-1 4 1 4h-3l1-4z"/>
 <path fill="url(#ucPurpleBlue)" d="m15 14.5v3l-4-1-4 1v-3l4 1z"/>
</svg>
