<svg xmlns="http://www.w3.org/2000/svg" width="22" height="22" version="1"><defs>
<linearGradient id="ucPurpleBlue" x1="0%" y1="0%" x2="100%" y2="100%">
  <stop offset="0%" style="stop-color:#B794F4;stop-opacity:1"/>
  <stop offset="100%" style="stop-color:#4299E1;stop-opacity:1"/>
</linearGradient>
</defs>
 <path style="opacity:0.2" d="m 4,10.5 v 10 c 0,0.554 0.446,1 1,1 h 12 c 0.554,0 1,-0.446 1,-1 v -10 z"/>
 <path style="fill:#599124" d="M 4,9.95 V 20 c 0,0.554 0.446,1 1,1 h 12 c 0.554,0 1,-0.446 1,-1 V 9.95 Z"/>
 <path style="fill:#7ec242" d="M 2,1 C 1.446,1 1,1.446 1,2 v 8 h 3 14 3 V 2 C 21,1.446 20.554,1 20,1 Z"/>
 <rect style="opacity:0.2" width="20" height=".5" x="1" y="10"/>
 <path style="opacity:0.2;fill:#ffffff" d="M 2,1 C 1.446,1 1,1.446 1,2 v 0.5 c 0,-0.554 0.446,-1 1,-1 h 18 c 0.554,0 1,0.446 1,1 V 2 C 21,1.446 20.554,1 20,1 Z"/>
</svg>
