<svg xmlns="http://www.w3.org/2000/svg" height="22" width="22" version="1.1"><defs>
<linearGradient id="ucPurpleBlue" x1="0%" y1="0%" x2="100%" y2="100%">
  <stop offset="0%" style="stop-color:#B794F4;stop-opacity:1"/>
  <stop offset="100%" style="stop-color:#4299E1;stop-opacity:1"/>
</linearGradient>
</defs>
 <circle cx="11" cy="11.5" r="10" style="opacity:.2"/>
 <circle cx="11" cy="11" r="10" style="fill:#4f4f4f"/>
 <path d="m11 1a10 10 0 0 0 -10 10 10 10 0 0 0 0.0098 0.293 10 10 0 0 1 9.9902 -9.793 10 10 0 0 1 9.99 9.707 10 10 0 0 0 0.01 -0.207 10 10 0 0 0 -10 -10z" style="opacity:.1;fill:#ffffff"/>
 <path style="opacity:.2" d="m14 7.500125c-3 0-2 1-4 1s-5 1-5 2-1 1-1 1v1s0 1 1 1h2c1 0 3 1 3 1s2 1 3 0l3.388672 5.421875a10 10 0 0 0 3.816406 -4.515625l-4.205078-4.90625 1-3s-2 0-2 1 0-1-1-1z"/>
 <path style="fill:#ffffff" d="m14 7c-3 0-2 1-4 1s-5 1-5 2-1 1-1 1v1s0 1 1 1h2c1 0 3 1 3 1s2 1 3 0l3.388672 5.421875a10 10 0 0 0 3.816406 -4.515625l-4.205078-4.90625 1-3s-2 0-2 1 0-1-1-1z"/>
</svg>
