<svg xmlns="http://www.w3.org/2000/svg" width="22" height="22" version="1"><defs>
<linearGradient id="ucPurpleBlue" x1="0%" y1="0%" x2="100%" y2="100%">
  <stop offset="0%" style="stop-color:#B794F4;stop-opacity:1"/>
  <stop offset="100%" style="stop-color:#4299E1;stop-opacity:1"/>
</linearGradient>
</defs>
 <rect fill="url(#ucPurpleBlue)" width="20" height="20" x="1" y="1" rx="1" ry="1"/>
 <path fill="#fff" opacity=".2" d="m2 1c-0.554 0-1 0.446-1 1v0.5c0-0.554 0.446-1 1-1h18c0.554 0 1 0.446 1 1v-0.5c0-0.554-0.446-1-1-1h-18z"/>
 <path opacity=".2" d="m2 21.5c-0.554 0-1-0.446-1-1v-0.5c0 0.554 0.446 1 1 1h18c0.554 0 1-0.446 1-1v0.5c0 0.554-0.446 1-1 1h-18z"/>
 <path fill="url(#ucPurpleBlue)" d="m10 5.9355v9.0645h-6.5v1h7.5v-4h7.5v-1h-7.5v-5.0645z"/>
 <g opacity=".2" transform="translate(0 .5)">
  <path d="m10.5 5a1.5 1.5 0 0 0 -1.5 1.5 1.5 1.5 0 0 0 1.5 1.5 1.5 1.5 0 0 0 1.5 -1.5 1.5 1.5 0 0 0 -1.5 -1.5z"/>
  <path d="m10.5 10a1.5 1.5 0 0 0 -1.5 1.5 1.5 1.5 0 0 0 1.5 1.5 1.5 1.5 0 0 0 1.5 -1.5 1.5 1.5 0 0 0 -1.5 -1.5z"/>
  <path d="m18.5 10a1.5 1.5 0 0 0 -1.5 1.5 1.5 1.5 0 0 0 1.5 1.5 1.5 1.5 0 0 0 1.5 -1.5 1.5 1.5 0 0 0 -1.5 -1.5z"/>
  <path d="m3.5 14a1.5 1.5 0 0 0 -1.5 1.5 1.5 1.5 0 0 0 1.5 1.5 1.5 1.5 0 0 0 1.5 -1.5 1.5 1.5 0 0 0 -1.5 -1.5z"/>
  <path d="m10.5 14a1.5 1.5 0 0 0 -1.5 1.5 1.5 1.5 0 0 0 1.5 1.5 1.5 1.5 0 0 0 1.5 -1.5 1.5 1.5 0 0 0 -1.5 -1.5z"/>
 </g>
 <g fill="url(#ucPurpleBlue)">
  <path d="m10.5 5a1.5 1.5 0 0 0 -1.5 1.5 1.5 1.5 0 0 0 1.5 1.5 1.5 1.5 0 0 0 1.5 -1.5 1.5 1.5 0 0 0 -1.5 -1.5z"/>
  <path d="m10.5 10a1.5 1.5 0 0 0 -1.5 1.5 1.5 1.5 0 0 0 1.5 1.5 1.5 1.5 0 0 0 1.5 -1.5 1.5 1.5 0 0 0 -1.5 -1.5z"/>
  <path d="m18.5 10a1.5 1.5 0 0 0 -1.5 1.5 1.5 1.5 0 0 0 1.5 1.5 1.5 1.5 0 0 0 1.5 -1.5 1.5 1.5 0 0 0 -1.5 -1.5z"/>
  <path d="m3.5 14a1.5 1.5 0 0 0 -1.5 1.5 1.5 1.5 0 0 0 1.5 1.5 1.5 1.5 0 0 0 1.5 -1.5 1.5 1.5 0 0 0 -1.5 -1.5z"/>
  <path d="m10.5 14a1.5 1.5 0 0 0 -1.5 1.5 1.5 1.5 0 0 0 1.5 1.5 1.5 1.5 0 0 0 1.5 -1.5 1.5 1.5 0 0 0 -1.5 -1.5z"/>
 </g>
</svg>
