<svg width="22" height="22" version="1.1" xmlns="http://www.w3.org/2000/svg"><defs>
<linearGradient id="ucPurpleBlue" x1="0%" y1="0%" x2="100%" y2="100%">
  <stop offset="0%" style="stop-color:#B794F4;stop-opacity:1"/>
  <stop offset="100%" style="stop-color:#4299E1;stop-opacity:1"/>
</linearGradient>
</defs>
 <g>
  <rect x="1" y="1.5" width="20" height="20" rx="6" ry="6" style="opacity:.2"/>
  <rect x="1" y="1" width="20" height="20" rx="6" ry="6" style="fill:#546580"/>
  <rect transform="matrix(0,-1,-1,0,0,0)" x="-18.5" y="-18" width="14" height="14" rx="7" ry="7" style="opacity:.2"/>
  <rect transform="matrix(0,-1,-1,0,0,0)" x="-18" y="-18" width="14" height="14" rx="7" ry="7" style="fill:#e74c3c"/>
  <path d="m7 1c-3.324 0-6 2.676-6 6v0.5c0-3.324 2.676-6 6-6h8c3.324 0 6 2.676 6 6v-0.5c0-3.324-2.676-6-6-6z" style="fill:#ffffff;opacity:.1"/>
 </g>
</svg>
