<svg xmlns="http://www.w3.org/2000/svg" width="22" height="22" version="1"><defs>
<linearGradient id="ucPurpleBlue" x1="0%" y1="0%" x2="100%" y2="100%">
  <stop offset="0%" style="stop-color:#B794F4;stop-opacity:1"/>
  <stop offset="100%" style="stop-color:#4299E1;stop-opacity:1"/>
</linearGradient>
</defs>
 <path fill="url(#ucPurpleBlue)" d="m18 20v-18c0-0.554-0.446-1-1-1h-13c-0.554 0-1 0.446-1 1v18c0 0.554 0.446 1 1 1h13c0.554 0 1-0.446 1-1z"/>
 <path opacity=".2" d="m6 15.5h9v-7h-9zm1-6h3v1h-3zm4 0h3v1h-3zm-4 2h3v1h-3zm4 0h3v1h-3zm-4 2h3v1h-3zm4 0h3v1h-3z"/>
 <path fill="url(#ucPurpleBlue)" d="m6 15h9v-7h-9zm1-6h3v1h-3zm4 0h3v1h-3zm-4 2h3v1h-3zm4 0h3v1h-3zm-4 2h3v1h-3zm4 0h3v1h-3z"/>
 <path fill="#fff" opacity=".1" d="m4 1c-0.554 0-1 0.446-1 1v0.5c0-0.554 0.446-1 1-1h13c0.554 0 1 0.446 1 1v-0.5c0-0.554-0.446-1-1-1z"/>
 <path opacity=".2" d="m3 20v0.5c0 0.554 0.446 1 1 1h13c0.554 0 1-0.446 1-1v-0.5c0 0.554-0.446 1-1 1h-13c-0.554 0-1-0.446-1-1z"/>
</svg>
