<svg xmlns="http://www.w3.org/2000/svg" width="22" height="22" version="1"><defs>
<linearGradient id="ucPurpleBlue" x1="0%" y1="0%" x2="100%" y2="100%">
  <stop offset="0%" style="stop-color:#B794F4;stop-opacity:1"/>
  <stop offset="100%" style="stop-color:#4299E1;stop-opacity:1"/>
</linearGradient>
</defs>
 <rect fill="url(#ucPurpleBlue)" width="16" height="16" x="3" y="2" rx=".8" ry="1.067"/>
 <path opacity=".5" d="m6.5 13v-1h6v1z"/>
 <path opacity=".5" d="m6.5 11v-1h9v1z"/>
 <path opacity=".5" d="m6 9v-1h10v1z"/>
 <path opacity=".5" d="m6 7v-1h10v1z"/>
 <rect fill="url(#ucPurpleBlue)" width="20" height="10" x="1" y="10" rx="1" ry="1"/>
 <path fill="#fff" opacity=".2" d="m2 10c-0.554 0-1 0.446-1 1v0.5c0-0.554 0.446-1 1-1h18c0.554 0 1 0.446 1 1v-0.5c0-0.554-0.446-1-1-1h-18z"/>
 <path opacity=".2" d="m1 19v0.5c0 0.554 0.446 1 1 1h18c0.554 0 1-0.446 1-1v-0.5c0 0.554-0.446 1-1 1h-18c-0.554 0-1-0.446-1-1z"/>
 <rect fill="url(#ucPurpleBlue)" width="8" height="2" x="7" y="14" rx=".5" ry=".5"/>
</svg>
