<svg xmlns="http://www.w3.org/2000/svg" width="22" height="22" version="1.1"><defs>
<linearGradient id="ucPurpleBlue" x1="0%" y1="0%" x2="100%" y2="100%">
  <stop offset="0%" style="stop-color:#B794F4;stop-opacity:1"/>
  <stop offset="100%" style="stop-color:#4299E1;stop-opacity:1"/>
</linearGradient>
</defs>
 <circle style="opacity:.2" cx="11" cy="11.5" r="10"/>
 <circle style="fill:#4454ba" cx="11" cy="11" r="10"/>
 <path style="fill:#ffffff;opacity:.1" d="M 11,1 A 10,10 0 0 0 1,11 10,10 0 0 0 1.01075,11.291 10,10 0 0 1 11,1.5 10,10 0 0 1 20.9895,11.209 10,10 0 0 0 21,11 10,10 0 0 0 11,1 Z"/>
 <path style="fill:none;opacity:.2;stroke-linejoin:round;stroke-width:2;stroke:#000000" d="m10.5 8.5h-4.5s-1 1.5-1 3.25 1 2.75 1 2.75h4v-3"/>
 <path style="fill:none;stroke-linejoin:round;stroke-width:2;stroke:#9e9e9e" d="m10.5 8h-4.5s-1 1.5-1 3.25 1 2.75 1 2.75h4v-3"/>
 <path style="fill:none;opacity:.2;stroke-linejoin:round;stroke-width:2;stroke:#000000" d="m10 8.5h6l-5 6h6"/>
 <path style="fill:none;stroke-linejoin:round;stroke-width:2;stroke:#fefefe" d="m10 8h6l-5 6h6"/>
</svg>
