<svg xmlns="http://www.w3.org/2000/svg" width="22" height="22" version="1"><defs>
<linearGradient id="ucPurpleBlue" x1="0%" y1="0%" x2="100%" y2="100%">
  <stop offset="0%" style="stop-color:#B794F4;stop-opacity:1"/>
  <stop offset="100%" style="stop-color:#4299E1;stop-opacity:1"/>
</linearGradient>
</defs>
 <rect fill="url(#ucPurpleBlue)" width="20" height="20" x="1" y="1" rx="1" ry="1"/>
 <path fill="#fff" opacity=".2" d="m2 1c-0.554 0-1 0.446-1 1v0.5c0-0.554 0.446-1 1-1h18c0.554 0 1 0.446 1 1v-0.5c0-0.554-0.446-1-1-1h-18z"/>
 <path opacity=".2" d="m2 21.5c-0.554 0-1-0.446-1-1v-0.5c0 0.554 0.446 1 1 1h18c0.554 0 1-0.446 1-1v0.5c0 0.554-0.446 1-1 1h-18z"/>
 <path opacity=".2" d="m12.017 18.5h4.483l-6-6.5-2.5 1.948z"/>
 <path opacity=".2" d="m12 4.5h4.5l-8.5 9.456-2.5-2.456z"/>
 <path fill="url(#ucPurpleBlue)" d="m12.017 18h4.483l-6-6.5-2.5 1.948z"/>
 <path fill="#fff" d="m12 4h4.5l-8.5 9.456-2.5-2.456z"/>
</svg>
