<svg width="22" height="22" version="1.1" xmlns="http://www.w3.org/2000/svg"><defs>
<linearGradient id="ucPurpleBlue" x1="0%" y1="0%" x2="100%" y2="100%">
  <stop offset="0%" style="stop-color:#B794F4;stop-opacity:1"/>
  <stop offset="100%" style="stop-color:#4299E1;stop-opacity:1"/>
</linearGradient>
</defs>
 <rect x="1" y="1.5" width="20" height="20" rx="1.5" ry="1.5" style="opacity:.2"/>
 <rect x="1" y="1" width="20" height="20" rx="1.9999999" ry="1.9999999" style="fill:#e4e4e4"/>
 <rect x="2" y="2" width="18" height="16" style="fill:#fecd38"/>
 <rect x="2" y="10" width="18" height="8" style="fill:#e97e10"/>
 <rect x="2" y="2" width="18" height=".5" style="opacity:.1"/>
 <rect x="4" y="8" width="2" height="2" style="fill:#e97e10"/>
 <rect x="8" y="8" width="2" height="2" style="fill:#e97e10"/>
 <rect x="12" y="8" width="2" height="2" style="fill:#e97e10"/>
 <rect x="16" y="8" width="2" height="2" style="fill:#e97e10"/>
 <rect x="16" y="10" width="2" height="2" style="fill:#fecd38"/>
 <rect x="12" y="10" width="2" height="2" style="fill:#fecd38"/>
 <rect x="8" y="10" width="2" height="2" style="fill:#fecd38"/>
 <rect x="4" y="10" width="2" height="2" style="fill:#fecd38"/>
 <rect x="2" y="12" width="2" height="2" style="fill:#fecd38"/>
 <rect x="10" y="12" width="2" height="2" style="fill:#fecd38"/>
 <rect x="6" y="14" width="2" height="2" style="fill:#fecd38"/>
 <rect x="14" y="14" width="2" height="2" style="fill:#fecd38"/>
 <rect x="10" y="6" width="2" height="2" style="fill:#e97e10"/>
 <rect x="18" y="6" width="2" height="2" style="fill:#e97e10"/>
 <rect x="14" y="4" width="2" height="2" style="fill:#e97e10"/>
 <rect x="6" y="4" width="2" height="2" style="fill:#e97e10"/>
 <rect x="2" y="6" width="2" height="2" style="fill:#e97e10"/>
 <rect x="18" y="12" width="2" height="2" style="fill:#fecd38"/>
</svg>
