<svg xmlns="http://www.w3.org/2000/svg" width="22" height="22" version="1"><defs>
<linearGradient id="ucPurpleBlue" x1="0%" y1="0%" x2="100%" y2="100%">
  <stop offset="0%" style="stop-color:#B794F4;stop-opacity:1"/>
  <stop offset="100%" style="stop-color:#4299E1;stop-opacity:1"/>
</linearGradient>
</defs>
 <g transform="translate(-1,1)">
  <path fill="url(#ucPurpleBlue)" d="m20 19v-18c0-0.554-0.446-1-1-1h-14c-0.554 0-1 0.446-1 1v18c0 0.554 0.446 1 1 1h14c0.554 0 1-0.446 1-1z"/>
  <path fill="#fff" opacity=".1" d="m5 0c-0.554 0-1 0.446-1 1v0.5c0-0.554 0.446-1 1-1h14c0.554 0 1 0.446 1 1v-0.5c0-0.554-0.446-1-1-1z"/>
  <g fill="url(#ucPurpleBlue)" transform="matrix(1.0909 0 0 1 -.54545 -2)">
   <path d="m6 5h11v1h-11z"/>
   <path d="m6 8h11v1h-11z"/>
   <path d="m6 11h11v1h-11z"/>
  </g>
  <path opacity=".5" d="m19 20c0.554 0 1-0.446 1-1v-8.5h-16v8.5c0 0.554 0.446 1 1 1z"/>
  <path opacity=".2" d="m4 18.5v0.5c0 0.554 0.446 1 1 1h14c0.554 0 1-0.446 1-1v-0.5c0 0.554-0.446 1-1 1h-14c-0.554 0-1-0.446-1-1z"/>
  <g fill="url(#ucPurpleBlue)" transform="matrix(1.0909 0 0 1 -.54545 6)">
   <path d="m6 5h11v1h-11z"/>
   <path d="m6 8h11v1h-11z"/>
   <path d="m6 11h11v1h-11z"/>
  </g>
 </g>
</svg>
