<svg xmlns="http://www.w3.org/2000/svg" width="22" height="22" version="1"><defs>
<linearGradient id="ucPurpleBlue" x1="0%" y1="0%" x2="100%" y2="100%">
  <stop offset="0%" style="stop-color:#B794F4;stop-opacity:1"/>
  <stop offset="100%" style="stop-color:#4299E1;stop-opacity:1"/>
</linearGradient>
</defs>
 <rect fill="url(#ucPurpleBlue)" width="20" height="20" x="1" y="1" rx="1" ry="1"/>
 <path fill="#fff" opacity=".2" d="m1 2.5v-0.5c0-0.554 0.446-1 1-1h18c0.554 0 1 0.446 1 1v0.5c0-0.554-0.446-1-1-1h-18c-0.554 0-1 0.446-1 1z"/>
 <path opacity=".2" d="m1 20v0.5c0 0.554 0.446 1 1 1h18c0.554 0 1-0.446 1-1v-0.5c0 0.554-0.446 1-1 1h-18c-0.554 0-1-0.446-1-1z"/>
 <path opacity=".2" d="m11 3.5a5 5 0 0 0 -5 5 5 5 0 0 0 2.0098 4h-0.0098v5h1v1h4v-1h1v-5h-0.0098a5 5 0 0 0 2.01 -4 5 5 0 0 0 -5 -5zm0 1a4 4 0 0 1 4 4 4 4 0 0 1 -4 4 4 4 0 0 1 -4 -4 4 4 0 0 1 4 -4zm-2 9h4v1h-4v-1zm0 2h4v1h-4v-1z"/>
 <path fill="#fff" d="m11 3a5 5 0 0 0 -5 5 5 5 0 0 0 2.0098 4h-0.0098v5h1v1h4v-1h1v-5h-0.0098a5 5 0 0 0 2.01 -4 5 5 0 0 0 -5 -5zm0 1a4 4 0 0 1 4 4 4 4 0 0 1 -4 4 4 4 0 0 1 -4 -4 4 4 0 0 1 4 -4zm-2 9h4v1h-4v-1zm0 2h4v1h-4v-1z"/>
</svg>
