<svg xmlns="http://www.w3.org/2000/svg" width="22" height="22" version="1"><defs>
<linearGradient id="ucPurpleBlue" x1="0%" y1="0%" x2="100%" y2="100%">
  <stop offset="0%" style="stop-color:#B794F4;stop-opacity:1"/>
  <stop offset="100%" style="stop-color:#4299E1;stop-opacity:1"/>
</linearGradient>
</defs>
 <rect fill="url(#ucPurpleBlue)" width="20" height="20" x="1" y="1" rx="1" ry="1"/>
 <path fill="#fff" opacity=".2" d="m2 1c-0.554 0-1 0.446-1 1v0.5c0-0.554 0.446-1 1-1h18c0.554 0 1 0.446 1 1v-0.5c0-0.554-0.446-1-1-1h-18z"/>
 <path opacity=".2" d="m2 21.5c-0.554 0-1-0.446-1-1v-0.5c0 0.554 0.446 1 1 1h18c0.554 0 1-0.446 1-1v0.5c0 0.554-0.446 1-1 1h-18z"/>
 <path fill="url(#ucPurpleBlue)" d="m9 4a5 5 0 0 0 -5 5 5 5 0 0 0 4 4.895v4.105h10v-10h-4.102a5 5 0 0 0 -4.898 -4zm0 1a4 4 0 0 1 3.8691 3h-4.869v4.867a4 4 0 0 1 -3 -3.867 4 4 0 0 1 4 -4zm0 4h4a4 4 0 0 1 -4 4v-4zm5 0h3v8h-8v-3a5 5 0 0 0 5 -5z"/>
</svg>
