<svg xmlns="http://www.w3.org/2000/svg" width="22" height="22" version="1"><defs>
<linearGradient id="ucPurpleBlue" x1="0%" y1="0%" x2="100%" y2="100%">
  <stop offset="0%" style="stop-color:#B794F4;stop-opacity:1"/>
  <stop offset="100%" style="stop-color:#4299E1;stop-opacity:1"/>
</linearGradient>
</defs>
 <path fill="url(#ucPurpleBlue)" d="m21 19v-16c0-0.554-0.446-1-1-1h-18c-0.554 0-1 0.446-1 1v16c0 0.554 0.446 1 1 1h18c0.554 0 1-0.446 1-1z"/>
 <path fill="#fff" opacity=".2" d="m2 2c-0.554 0-1 0.446-1 1v0.5c0-0.554 0.446-1 1-1h18c0.554 0 1 0.446 1 1v-0.5c0-0.554-0.446-1-1-1h-18z"/>
 <path opacity=".2" d="m1 19v0.5c0 0.554 0.446 1 1 1h18c0.554 0 1-0.446 1-1v-0.5c0 0.554-0.446 1-1 1h-18c-0.554 0-1-0.446-1-1z"/>
 <circle opacity=".2" cx="11" cy="14.5" r="2"/>
 <circle fill="#fff" cx="11" cy="14" r="2"/>
 <circle opacity=".2" cx="17" cy="14.5" r="2"/>
 <circle fill="#fff" cx="17" cy="14" r="2"/>
 <circle fill="url(#ucPurpleBlue)" cx="5" cy="14" r="2"/>
 <circle fill="url(#ucPurpleBlue)" cx="11" cy="7" r="2"/>
</svg>
