<svg xmlns="http://www.w3.org/2000/svg" width="22" height="22" version="1"><defs>
<linearGradient id="ucPurpleBlue" x1="0%" y1="0%" x2="100%" y2="100%">
  <stop offset="0%" style="stop-color:#B794F4;stop-opacity:1"/>
  <stop offset="100%" style="stop-color:#4299E1;stop-opacity:1"/>
</linearGradient>
</defs>
 <rect fill="url(#ucPurpleBlue)" width="20" height="20" x="1" y="1" rx="1" ry="1"/>
 <path fill="#fff" opacity=".2" d="m2 1c-0.554 0-1 0.446-1 1v0.5c0-0.554 0.446-1 1-1h18c0.554 0 1 0.446 1 1v-0.5c0-0.554-0.446-1-1-1h-18z"/>
 <path opacity=".2" d="m2 21.5c-0.554 0-1-0.446-1-1v-0.5c0 0.554 0.446 1 1 1h18c0.554 0 1-0.446 1-1v0.5c0 0.554-0.446 1-1 1h-18z"/>
 <circle fill="url(#ucPurpleBlue)" cx="11" cy="11" r="2"/>
 <circle fill="url(#ucPurpleBlue)" cx="5" cy="5" r="2"/>
 <circle fill="url(#ucPurpleBlue)" cx="17" cy="17" r="2"/>
 <circle fill="url(#ucPurpleBlue)" cx="5" cy="-17" r="2" transform="scale(1,-1)"/>
 <circle fill="url(#ucPurpleBlue)" cx="17" cy="-5" r="2" transform="scale(1,-1)"/>
</svg>
