<svg xmlns="http://www.w3.org/2000/svg" width="22" height="22" version="1"><defs>
<linearGradient id="ucPurpleBlue" x1="0%" y1="0%" x2="100%" y2="100%">
  <stop offset="0%" style="stop-color:#B794F4;stop-opacity:1"/>
  <stop offset="100%" style="stop-color:#4299E1;stop-opacity:1"/>
</linearGradient>
</defs>
 <path fill="url(#ucPurpleBlue)" d="m11 15a4.9999 4.9999 0 0 1 -5.0001 5 4.9999 4.9999 0 0 1 -4.9999 -5 4.9999 4.9999 0 0 1 4.9999 -5 4.9999 4.9999 0 0 1 5.0001 5z"/>
 <path fill="url(#ucPurpleBlue)" d="m21 7.0001a4.9999 4.9999 0 0 1 -5 4.9999 4.9999 4.9999 0 0 1 -5 -4.9999 4.9999 4.9999 0 0 1 5 -5 4.9999 4.9999 0 0 1 5 5z"/>
 <path opacity=".2" d="m11.01 7.1973a4.9999 4.9999 0 0 0 -0.01 0.3027 4.9999 4.9999 0 0 0 5 5 4.9999 4.9999 0 0 0 5 -5 4.9999 4.9999 0 0 0 -0.0098 -0.19727 4.9999 4.9999 0 0 1 -4.99 4.6973 4.9999 4.9999 0 0 1 -4.99 -4.8027zm-10 7.9997a4.9999 4.9999 0 0 0 -0.0098 0.303 4.9999 4.9999 0 0 0 5 5 4.9999 4.9999 0 0 0 5 -5 4.9999 4.9999 0 0 0 -0.0098 -0.19727 4.9999 4.9999 0 0 1 -4.99 4.697 4.9999 4.9999 0 0 1 -4.9902 -4.803z"/>
 <path fill="#fff" opacity=".2" d="m16 2a4.9999 4.9999 0 0 0 -5 5 4.9999 4.9999 0 0 0 0.01 0.1973 4.9999 4.9999 0 0 1 4.99 -4.6973 4.9999 4.9999 0 0 1 4.99 4.8027 4.9999 4.9999 0 0 0 0.01 -0.3027 4.9999 4.9999 0 0 0 -5 -5zm-10 8a4.9999 4.9999 0 0 0 -5 5 4.9999 4.9999 0 0 0 0.0098 0.197 4.9999 4.9999 0 0 1 4.9902 -4.697 4.9999 4.9999 0 0 1 4.99 4.803 4.9999 4.9999 0 0 0 0.01 -0.303 4.9999 4.9999 0 0 0 -5 -5z"/>
</svg>
