<svg xmlns="http://www.w3.org/2000/svg" width="22" height="22" version="1"><defs>
<linearGradient id="ucPurpleBlue" x1="0%" y1="0%" x2="100%" y2="100%">
  <stop offset="0%" style="stop-color:#B794F4;stop-opacity:1"/>
  <stop offset="100%" style="stop-color:#4299E1;stop-opacity:1"/>
</linearGradient>
</defs>
 <circle style="opacity:0.2" cx="11" cy="11.5" r="10"/>
 <circle style="fill:#3e50b4" cx="11" cy="11" r="10"/>
 <path style="opacity:0.1;fill:#ffffff" d="M 11,1 A 10,10 0 0 0 1,11 10,10 0 0 0 1.0107422,11.291016 10,10 0 0 1 11,1.5 10,10 0 0 1 20.989258,11.208985 10,10 0 0 0 21,11 10,10 0 0 0 11,1 Z"/>
 <path style="opacity:0.2" d="m 7,15.5 v -1 h 5 v 1 z m 0,-2 v -1 h 8 v 1 z m 0,-2 v -1 h 8 v 1 z m 0,-2 V 8.4999998 h 8 V 9.5 Z"/>
 <path style="fill:#ffffff" d="m 7,15 v -1 h 5 v 1 z m 0,-2 v -1 h 8 v 1 z m 0,-2 v -1 h 8 v 1 z M 7,8.9999998 v -1 h 8 v 1 z"/>
</svg>
