<svg xmlns="http://www.w3.org/2000/svg" width="22" height="22" version="1"><defs>
<linearGradient id="ucPurpleBlue" x1="0%" y1="0%" x2="100%" y2="100%">
  <stop offset="0%" style="stop-color:#B794F4;stop-opacity:1"/>
  <stop offset="100%" style="stop-color:#4299E1;stop-opacity:1"/>
</linearGradient>
</defs>
 <rect style="opacity:0.2" width="20" height="16" x="-21.5" y="-19" rx="1" ry="1" transform="matrix(0,-1,-1,0,0,0)"/>
 <rect style="fill:#4f4f4f" width="20" height="16" x="-21" y="-19" rx="1" ry="1" transform="matrix(0,-1,-1,0,0,0)"/>
 <rect style="fill:#e4e4e4" width="16" height="12" x="-19" y="-17" rx="0" ry="0" transform="matrix(0,-1,-1,0,0,0)"/>
 <path style="opacity:0.1;fill:#ffffff" d="M 4,1 C 3.446,1 3,1.446 3,2 l 0,0.5 c 0,-0.554 0.446,-1 1,-1 l 14,0 c 0.554,0 1,0.446 1,1 L 19,2 C 19,1.446 18.554,1 18,1 L 4,1 Z"/>
 <rect style="opacity:0.2" width="20" height="2" x="1" y="7.5" rx=".5" ry=".5"/>
 <rect style="fill:#f34235" width="20" height="2" x="1" y="7" rx=".5" ry=".5"/>
 <rect style="opacity:0.2" width=".5" height="12" x="-19.5" y="-17" rx="0" ry="0" transform="matrix(0,-1,-1,0,0,0)"/>
 <rect style="opacity:0.2;fill:#ffffff" width=".5" height="12" x="-3.5" y="-17" rx="0" ry="0" transform="matrix(0,-1,-1,0,0,0)"/>
</svg>
