<svg xmlns="http://www.w3.org/2000/svg" width="22" height="22" version="1"><defs>
<linearGradient id="ucPurpleBlue" x1="0%" y1="0%" x2="100%" y2="100%">
  <stop offset="0%" style="stop-color:#B794F4;stop-opacity:1"/>
  <stop offset="100%" style="stop-color:#4299E1;stop-opacity:1"/>
</linearGradient>
</defs>
 <rect fill="url(#ucPurpleBlue)" width="20" height="20" x="1" y="1" rx="10" ry="10"/>
 <path opacity=".2" d="m11 3.5c-4.432 0-8 3.568-8 8s3.568 8 8 8 8-3.568 8-8-3.568-8-8-8zm0 2a6 6 0 0 1 6 6 6 6 0 0 1 -6 6 6 6 0 0 1 -6 -6 6 6 0 0 1 6 -6z"/>
 <path fill="url(#ucPurpleBlue)" d="m11 3c-4.432 0-8 3.568-8 8s3.568 8 8 8 8-3.568 8-8h-2a6 6 0 0 1 -6 6 6 6 0 0 1 -6 -6 6 6 0 0 1 6 -6v-2z"/>
 <path fill="#fff" opacity=".2" d="m11 1c-5.4505 0-9.844 4.3185-9.9845 9.734 0.2669-5.298 4.6175-9.484 9.9845-9.484s9.7175 4.186 9.9845 9.4845c-0.14-5.4155-4.534-9.734-9.984-9.734z"/>
 <path opacity=".2" d="m1.0058 11.25c-0.002 0.084-0.0058 0.166-0.0058 0.25 0 5.54 4.46 10 10 10s10-4.46 10-10c0-0.084-0.004-0.1665-0.006-0.25-0.132 5.423-4.538 9.75-9.994 9.75s-9.862-4.327-9.994-9.75z"/>
 <path fill="url(#ucPurpleBlue)" d="m11 3v2a6 6 0 0 1 6 6h2c0-4.432-3.568-8-8-8z"/>
</svg>
