<svg xmlns="http://www.w3.org/2000/svg" width="22" height="22" version="1"><defs>
<linearGradient id="ucPurpleBlue" x1="0%" y1="0%" x2="100%" y2="100%">
  <stop offset="0%" style="stop-color:#B794F4;stop-opacity:1"/>
  <stop offset="100%" style="stop-color:#4299E1;stop-opacity:1"/>
</linearGradient>
</defs>
 <g transform="translate(-1,-1)">
  <rect style="opacity:0.2" width="20" height="20" x="2" y="2.6" rx="6" ry="6"/>
  <rect style="fill:#4f4f4f" width="20" height="20" x="2" y="2" rx="6" ry="6"/>
  <path style="opacity:0.1" d="M 6,7.5 V 9.5 H 18 V 7.5 Z M 6,11.5 V 13.5 H 18 V 11.5 Z M 6,15.5 V 17.5 H 12 V 15.5 Z"/>
  <path style="fill:#eaeaea" d="M 6,7 V 9 H 18 V 7 Z M 6,11 V 13 H 18 V 11 Z M 6,15 V 17 H 12 V 15 Z"/>
  <path style="opacity:0.1;fill:#ffffff" d="M 8,2 C 4.676,2 2,4.676 2,8 V 8.5 C 2,5.176 4.676,2.5 8,2.5 H 16 C 19.324,2.5 22,5.176 22,8.5 V 8 C 22,4.676 19.324,2 16,2 Z"/>
 </g>
</svg>
