<svg xmlns="http://www.w3.org/2000/svg" width="22" height="22" version="1"><defs>
<linearGradient id="ucPurpleBlue" x1="0%" y1="0%" x2="100%" y2="100%">
  <stop offset="0%" style="stop-color:#B794F4;stop-opacity:1"/>
  <stop offset="100%" style="stop-color:#4299E1;stop-opacity:1"/>
</linearGradient>
</defs>
 <rect style="opacity:0.2" width="20" height="20" x="1" y="1.5" rx="1" ry="1"/>
 <rect style="fill:#e4e4e4" width="20" height="20" x="1" y="1" rx="1" ry="1"/>
 <path style="opacity:0.2;fill:#ffffff" d="M 2,1 C 1.446,1 1,1.446 1,2 l 0,0.5 c 0,-0.554 0.446,-1 1,-1 l 18,0 c 0.554,0 1,0.446 1,1 L 21,2 C 21,1.446 20.554,1 20,1 L 2,1 Z"/>
 <rect style="fill:#d07517" width="2" height="2" x="10" y="10" ry=".481"/>
 <rect style="fill:#d07517" width="2" height="2" x="10" y="7" ry=".481"/>
 <rect style="fill:#d07517" width="2" height="2" x="10" y="13" ry=".481"/>
 <rect style="fill:#d07517" width="2" height="2" x="10" y="16" ry=".481"/>
 <rect style="fill:#d07517" width="2" height="2" x="10" y="4" ry=".481"/>
 <rect style="fill:#d07517" width="2" height="2" x="7" y="4" ry=".481"/>
 <rect style="fill:#d07517" width="2" height="2" x="4" y="4" ry=".481"/>
 <rect style="fill:#d07517" width="2" height="2" x="16" y="4" ry=".481"/>
 <rect style="fill:#d07517" width="2" height="2" x="13" y="4" ry=".481"/>
</svg>
