<svg width="22" height="22" version="1.1" xmlns="http://www.w3.org/2000/svg"><defs>
<linearGradient id="ucPurpleBlue" x1="0%" y1="0%" x2="100%" y2="100%">
  <stop offset="0%" style="stop-color:#B794F4;stop-opacity:1"/>
  <stop offset="100%" style="stop-color:#4299E1;stop-opacity:1"/>
</linearGradient>
</defs>
 <g transform="translate(-1,-1)">
  <rect x="2" y="2.5" width="20" height="20" rx="1" ry="1" style="opacity:.2"/>
  <rect x="2" y="2" width="20" height="20" rx="1" ry="1" style="fill:#57a534"/>
  <path d="m3 2c-0.554 0-1 0.446-1 1v0.5c0-0.554 0.446-1 1-1h18c0.554 0 1 0.446 1 1v-0.5c0-0.554-0.446-1-1-1z" style="fill:#ffffff;opacity:.2"/>
  <path d="m3.0508475 9.5v1h5.9491525v-1zm6.9491525 0v1h10v4h1v-5zm-7 2v1h2v2h1v-3zm4 0v3h1v-2h1v-1zm3 0v3h1v-3zm2 0v3h1v-2h1v2h1v-3zm4 0v3h1v-2h1v2h1v-3z" style="opacity:.2"/>
  <path d="m3.0508475 9v1h5.9491525v-1zm6.9491525 0v1h10v4h1v-5zm-7 2v1h2v2h1v-3zm4 0v3h1v-2h1v-1zm3 0v3h1v-3zm2 0v3h1v-2h1v2h1v-3zm4 0v3h1v-2h1v2h1v-3z" style="fill:#ffffff"/>
 </g>
</svg>
