<svg xmlns="http://www.w3.org/2000/svg" width="22" height="22" version="1"><defs>
<linearGradient id="ucPurpleBlue" x1="0%" y1="0%" x2="100%" y2="100%">
  <stop offset="0%" style="stop-color:#B794F4;stop-opacity:1"/>
  <stop offset="100%" style="stop-color:#4299E1;stop-opacity:1"/>
</linearGradient>
</defs>
 <rect fill="url(#ucPurpleBlue)" width="20" height="20" x="1" y="1" rx="1" ry="1"/>
 <path opacity=".2" d="m4 5.5 3.6075 12.974-0.008 0.0255h3.1504l-0.0088-0.02832c0.000297-0.0013 0.0007-0.0016 0.001-0.0029l0.008 0.0315h7.25l-1.5-3h-3.25l-0.75-3 1-4h3l1.5-3h-6.9005l-1.9502 7 0.001 0.0019-0.015625 0.05957-1.8845-7.0615h-3.25z"/>
 <path fill="#fff" opacity=".1" d="m2 1c-0.554 0-1 0.446-1 1v0.5c0-0.554 0.446-1 1-1h18c0.554 0 1 0.446 1 1v-0.5c0-0.554-0.446-1-1-1h-18z"/>
 <path opacity=".2" d="m2 21.5c-0.554 0-1-0.446-1-1v-0.5c0 0.554 0.446 1 1 1h18c0.554 0 1-0.446 1-1v0.5c0 0.554-0.446 1-1 1h-18z"/>
 <path fill="url(#ucPurpleBlue)" d="m4 5 3.25-5e-7 3.2624 12.223 0.2375 0.7765-3.1354-0.000006z"/>
 <path fill="url(#ucPurpleBlue)" d="m11.896 12.004-2.746-0.004-1.3125 5.224-0.2375 0.776l3.1354-0.000006c1.3713-5.946 1.1609-5.9965 1.1609-5.9965z"/>
 <path fill="url(#ucPurpleBlue)" d="m11.1 5-1.9495 7 1.6 6h7.25l-1.5-3h-3.25l-0.75-3 1-4h3l1.5-3z"/>
</svg>
