<svg xmlns="http://www.w3.org/2000/svg" width="22" height="22" version="1.1"><defs>
<linearGradient id="ucPurpleBlue" x1="0%" y1="0%" x2="100%" y2="100%">
  <stop offset="0%" style="stop-color:#B794F4;stop-opacity:1"/>
  <stop offset="100%" style="stop-color:#4299E1;stop-opacity:1"/>
</linearGradient>
</defs>
 <rect style="opacity:0.2" width="20" height="20" x="1" y="1.5" rx="1.5" ry="1.5"/>
 <rect style="fill:#ffc107" width="20" height="20" x="1" y="1" rx="1.5" ry="1.5"/>
 <path style="opacity:0.2;fill:#ffffff" d="M 2.5,1 C 1.669,1 1,1.669 1,2.5 V 3 C 1,2.169 1.669,1.5 2.5,1.5 h 17 C 20.331,1.5 21,2.169 21,3 V 2.5 C 21,1.669 20.331,1 19.5,1 Z"/>
 <path style="opacity:0.1" d="m 5.8,5.5 h 4.4 l 1.6,2.5 2,-2.5 H 19 l -5.2,6 3.2,6 H 12.2 L 10.599999,15.1 8.6,17.5 H 2.9999999 L 8.6,11.1 Z"/>
 <path style="fill:#3e3e3e" d="m 5.8,5 h 4.4 l 1.6,2.5 2,-2.5 H 19 l -5.2,6 3.2,6 H 12.2 L 10.599999,14.6 8.6,17 H 2.9999999 L 8.6,10.6 Z"/>
</svg>
