<svg xmlns="http://www.w3.org/2000/svg" width="22" height="22" version="1"><defs>
<linearGradient id="ucPurpleBlue" x1="0%" y1="0%" x2="100%" y2="100%">
  <stop offset="0%" style="stop-color:#B794F4;stop-opacity:1"/>
  <stop offset="100%" style="stop-color:#4299E1;stop-opacity:1"/>
</linearGradient>
</defs>
 <circle style="opacity:0.2" cx="11" cy="11.5" r="10"/>
 <circle style="fill:#aa48c3" cx="11" cy="11" r="10"/>
 <path style="fill:#ffffff" d="m 10,5 v 2 h 2 V 5 Z m 0,4 v 8 h 2 V 9 Z"/>
 <path style="opacity:0.1;fill:#ffffff" d="M 11,1 A 10,10 0 0 0 1,11 10,10 0 0 0 1.0107422,11.291016 10,10 0 0 1 11,1.5 10,10 0 0 1 20.989258,11.208985 10,10 0 0 0 21,11 10,10 0 0 0 11,1 Z"/>
 <path style="opacity:0.2" d="m 10,7 v 0.5 h 2 V 7 Z m 0,10 v 0.5 h 2 V 17 Z"/>
</svg>
