<svg xmlns="http://www.w3.org/2000/svg" width="22" height="22" version="1.1"><defs>
<linearGradient id="ucPurpleBlue" x1="0%" y1="0%" x2="100%" y2="100%">
  <stop offset="0%" style="stop-color:#B794F4;stop-opacity:1"/>
  <stop offset="100%" style="stop-color:#4299E1;stop-opacity:1"/>
</linearGradient>
</defs>
 <g transform="translate(-1,-1)">
  <path fill="url(#ucPurpleBlue)" d="m3 3c-0.554 0-1 0.446-1 1v16c0 0.554 0.446 1 1 1h18c0.554 0 1-0.446 1-1v-16c0-0.554-0.446-1-1-1h-18z"/>
  <path fill="url(#ucPurpleBlue)" d="m3 21c-0.554 0-1-0.446-1-1v-4h20v4c0 0.554-0.446 1-1 1z"/>
  <path fill="#fff" opacity=".1" d="m3 3c-0.554 0-1 0.446-1 1v0.5c0-0.554 0.446-1 1-1h18c0.554 0 1 0.446 1 1v-0.5c0-0.554-0.446-1-1-1z"/>
  <rect fill="#fff" opacity=".2" width="8" height="3" x="3" y="17" rx=".638" ry=".772"/>
  <rect fill="#fff" opacity=".2" width="8" height="3" x="12" y="17" rx=".638" ry=".772"/>
  <path opacity=".2" d="m2 20v0.5c0 0.554 0.446 1 1 1h18c0.554 0 1-0.446 1-1v-0.5c0 0.554-0.446 1-1 1h-18c-0.554 0-1-0.446-1-1z"/>
  <rect fill="#fff" width="3" height="3" x="4" y="17"/>
  <rect fill="#fff" width="3" height="3" x="13" y="17"/>
 </g>
</svg>
