<svg xmlns="http://www.w3.org/2000/svg" width="22" height="22" version="1"><defs>
<linearGradient id="ucPurpleBlue" x1="0%" y1="0%" x2="100%" y2="100%">
  <stop offset="0%" style="stop-color:#B794F4;stop-opacity:1"/>
  <stop offset="100%" style="stop-color:#4299E1;stop-opacity:1"/>
</linearGradient>
</defs>
 <circle style="opacity:0.2" cx="11" cy="11.5" r="10"/>
 <circle style="fill:#fa2235" cx="11" cy="11" r="10"/>
 <path style="opacity:0.2" transform="matrix(0.49074776,0,0,0.5,-1.0577758,-0.8330752)" d="m 35.777597,24.666151 -8.660253,5 -8.660254,4.999999 0,-9.999999 0,-9.999999 8.660254,4.999999 z"/>
 <path style="fill:#ffffff" transform="matrix(0.49074776,0,0,0.5,-1.0577758,-1.3330755)" d="m 35.777597,24.666151 -8.660253,5 -8.660254,4.999999 0,-9.999999 0,-9.999999 8.660254,4.999999 z"/>
 <path style="opacity:0.2;fill:#ffffff" d="M 11,1 A 10,10 0 0 0 1,11 10,10 0 0 0 1.0107422,11.291016 10,10 0 0 1 11,1.5 10,10 0 0 1 20.989258,11.208985 10,10 0 0 0 21,11 10,10 0 0 0 11,1 Z"/>
</svg>
