<svg width="22" height="22" version="1.1" xmlns="http://www.w3.org/2000/svg"><defs>
<linearGradient id="ucPurpleBlue" x1="0%" y1="0%" x2="100%" y2="100%">
  <stop offset="0%" style="stop-color:#B794F4;stop-opacity:1"/>
  <stop offset="100%" style="stop-color:#4299E1;stop-opacity:1"/>
</linearGradient>
</defs>
 <circle cx="11.5" cy="12" r="9.5" style="opacity:.2"/>
 <circle cx="11.5" cy="11.5" r="9.5" style="fill:#2b6beb"/>
 <path d="m1 3.5 9-2 5 5-3 1 4 4-2 1 7 9-14-8 2-1-6-4 3-1z" style="opacity:.2"/>
 <path d="M 11.5 2 A 9.5 9.5 0 0 0 2 11.5 A 9.5 9.5 0 0 0 2.0097656 11.792969 A 9.5 9.5 0 0 1 11.5 2.5 A 9.5 9.5 0 0 1 20.990234 11.707031 A 9.5 9.5 0 0 0 21 11.5 A 9.5 9.5 0 0 0 11.5 2 z " style="fill:#ffffff;opacity:.2"/>
 <path d="m1 3 9-2 5 5-3 1 4 4-2 1 7 9-14-8 2-1-6-4 3-1z" style="fill:#ffffff"/>
</svg>
