<svg xmlns="http://www.w3.org/2000/svg" width="48" height="48" version="1"><defs>
<linearGradient id="ucPurpleBlue" x1="0%" y1="0%" x2="100%" y2="100%">
  <stop offset="0%" style="stop-color:#B794F4;stop-opacity:1"/>
  <stop offset="100%" style="stop-color:#4299E1;stop-opacity:1"/>
</linearGradient>
</defs>
 <path fill="#888" d="m9 6h30v14h-30z"/>
 <rect fill="url(#ucPurpleBlue)" width="40" height="24" x="4" y="18" rx="2" ry="2"/>
 <g opacity=".2" transform="translate(0,-2)">
  <rect width="8" height="4" x="20" y="38"/>
 </g>
 <g fill="url(#ucPurpleBlue)" transform="translate(0,-3)">
  <rect width="8" height="4" x="20" y="38"/>
 </g>
 <path fill="#fff" opacity=".2" d="m9 6v1h30v-1h-30z"/>
 <path fill="#fff" opacity=".2" d="m6 18c-1.108 0-2 0.892-2 2v1c0-1.108 0.892-2 2-2h36c1.108 0 2 0.892 2 2v-1c0-1.108-0.892-2-2-2h-36z"/>
 <path opacity=".2" d="m4 40v1c0 1.108 0.892 2 2 2h36c1.108 0 2-0.892 2-2v-1c0 1.108-0.892 2-2 2h-36c-1.108 0-2-0.892-2-2z"/>
</svg>
