<svg xmlns="http://www.w3.org/2000/svg" width="48" height="48" version="1"><defs>
<linearGradient id="ucPurpleBlue" x1="0%" y1="0%" x2="100%" y2="100%">
  <stop offset="0%" style="stop-color:#B794F4;stop-opacity:1"/>
  <stop offset="100%" style="stop-color:#4299E1;stop-opacity:1"/>
</linearGradient>
</defs>
 <path opacity=".2" d="m8 41v2c0 1.108 0.892 2 2 2h28c1.108 0 2-0.892 2-2v-2c0 1.108-0.892 2-2 2h-28c-1.108 0-2-0.892-2-2z"/>
 <path fill="url(#ucPurpleBlue)" transform="matrix(0,-1,-1,0,0,0)" d="m-42-40h32c1.108 0 2 0.892 2 2v28c0 1.108-0.892 2-2 2h-32c-1.108 0-2-0.892-2-2v-28c0-1.108 0.892-2 2-2z"/>
 <rect fill="url(#ucPurpleBlue)" width="20" height="4" x="14" y="4"/>
 <rect fill="#fff" opacity=".2" width="26" height="8" x="11" y="32"/>
 <rect fill="url(#ucPurpleBlue)" width="26" height="8" x="11" y="31"/>
 <rect fill="#fff" opacity=".2" width="26" height="8" x="11" y="22"/>
 <rect fill="url(#ucPurpleBlue)" width="26" height="8" x="11" y="21"/>
 <rect fill="#fff" opacity=".2" width="26" height="8" x="11" y="12"/>
 <rect fill="url(#ucPurpleBlue)" width="26" height="8" x="11" y="11"/>
 <path fill="#fff" opacity=".2" d="m14 4v1h20v-1h-20z"/>
 <path fill="#fff" opacity=".1" d="m10 8c-1.108 0-2 0.892-2 2v1c0-1.108 0.892-2 2-2h28c1.108 0 2 0.892 2 2v-1c0-1.108-0.892-2-2-2h-28z"/>
</svg>
