<svg xmlns="http://www.w3.org/2000/svg" width="48" height="48" version="1"><defs>
<linearGradient id="ucPurpleBlue" x1="0%" y1="0%" x2="100%" y2="100%">
  <stop offset="0%" style="stop-color:#B794F4;stop-opacity:1"/>
  <stop offset="100%" style="stop-color:#4299E1;stop-opacity:1"/>
</linearGradient>
</defs>
 <path fill="url(#ucPurpleBlue)" d="m7 7s-3 0-3 3v24s0 3 3 3h5l4 4h16l4-4h5s3 0 3-3v-24c0-3-3-3-3-3z"/>
 <path fill="#fff" opacity=".4" d="m10 14h28v18h-4.4844l-4 4h-11.031l-4-4h-4.4844z"/>
 <path fill="url(#ucPurpleBlue)" d="m10 13h28v18h-4.4844l-4 4h-11.031l-4-4h-4.4844z"/>
 <path fill="#fff" opacity=".1" d="m7 7s-3 0-3 3v1c0-3 3-3 3-3h34s3 0 3 3v-1c0-3-3-3-3-3h-34z"/>
 <path opacity=".2" d="m4 34v1s0 3 3 3h5l4 4h16l4-4h5s3 0 3-3v-1c0 3-3 3-3 3h-5l-4 4h-16l-4-4h-5c-3 0-3-3-3-3z"/>
</svg>
