<svg xmlns="http://www.w3.org/2000/svg" width="48" height="48" version="1"><defs>
<linearGradient id="ucPurpleBlue" x1="0%" y1="0%" x2="100%" y2="100%">
  <stop offset="0%" style="stop-color:#B794F4;stop-opacity:1"/>
  <stop offset="100%" style="stop-color:#4299E1;stop-opacity:1"/>
</linearGradient>
</defs>
 <rect fill="url(#ucPurpleBlue)" width="40" height="18" x="4" y="-33" rx="2" ry="1.8" transform="rotate(90)"/>
 <g fill="url(#ucPurpleBlue)">
  <path d="m29 12c0.000002-0.554-0.446-1-0.99998-0.99999l-2-0.000025 0.000024-2c0.000001-0.554-0.446-1-0.99998-0.99998h-2c-0.554-0.000001-1 0.446-0.99998 0.99998l-0.000026 2-2-0.000025c-0.554-0.000001-1 0.446-0.99999 0.99998l0.000025 2c0 0.554 0.446 1 0.99998 0.99999l2 0.000025-0.000025 2c-0.000001 0.554 0.446 1 0.99998 0.99998l2 0.000025c0.554 0 1-0.446 0.99998-0.99998l0.000025-2 2 0.000025c0.554 0.000001 1-0.446 0.99998-0.99998l-0.000026-2z"/>
  <circle cx="38" cy="-27" r="2" transform="rotate(90)"/>
  <circle cx="32" cy="-27" r="2" transform="rotate(90)"/>
  <circle cx="38" cy="-21" r="2" transform="rotate(90)"/>
  <circle cx="32" cy="-21" r="2" transform="rotate(90)"/>
 </g>
 <path fill="#fff" opacity=".2" d="m16.801 4c-0.997 0-1.801 0.892-1.801 2v1c0-1.108 0.804-2 1.801-2h14.398c0.997 0 1.801 0.892 1.801 2v-1c0-1.108-0.804-2-1.801-2h-14.398z"/>
 <path opacity=".2" d="m15 42v1c0 1.108 0.80358 2 1.8008 2h14.398c0.997 0 1.801-0.892 1.801-2v-1c0 1.108-0.80358 2-1.8008 2h-14.398c-0.997 0-1.801-0.892-1.801-2z"/>
</svg>
