<svg xmlns="http://www.w3.org/2000/svg" width="48" height="48" version="1"><defs>
<linearGradient id="ucPurpleBlue" x1="0%" y1="0%" x2="100%" y2="100%">
  <stop offset="0%" style="stop-color:#B794F4;stop-opacity:1"/>
  <stop offset="100%" style="stop-color:#4299E1;stop-opacity:1"/>
</linearGradient>
</defs>
 <path style="opacity:0.2" d="M 10,5 C 8.892,5 8,5.892 8,7 v 36 c 0,1.108 0.892,2 2,2 h 28 c 1.108,0 2,-0.892 2,-2 V 17 L 29,16 28,5 Z"/>
 <path fill="url(#ucPurpleBlue)" d="m10 4c-1.108 0-2 0.892-2 2v36c0 1.108 0.892 2 2 2h28c1.108 0 2-0.892 2-2v-26l-11-1-1-11z"/>
 <path fill="#fff" opacity=".2" d="m10 4c-1.108 0-2 0.892-2 2v1c0-1.108 0.892-2 2-2h18l11 11h1l-12-12z"/>
 <path style="opacity:0.2" d="m 28,5 v 10 c 0,1.1046 0.89543,2 2,2 h 10 z"/>
 <path fill="url(#ucPurpleBlue)" d="m28 4v10c0 1.1046 0.89543 2 2 2h10l-12-12z"/>
 <path style="fill:#6b6cd0" d="m11 25v2h3v8h2v-8h3v-2z"/>
 <path style="fill:#6b6cd0" d="m20 27v10h8v-2h-6v-2h6v-2h-6v-2h6v-2z"/>
 <path style="fill:#6b6cd0" d="m29 25 2.5 5-2.5 5h2l1.5-3 1.5 3h2l-2.5-5 2.5-5h-2l-1.5 3-1.5-3h-2z"/>
</svg>
