<svg xmlns="http://www.w3.org/2000/svg" width="48" height="48" version="1.1"><defs>
<linearGradient id="ucPurpleBlue" x1="0%" y1="0%" x2="100%" y2="100%">
  <stop offset="0%" style="stop-color:#B794F4;stop-opacity:1"/>
  <stop offset="100%" style="stop-color:#4299E1;stop-opacity:1"/>
</linearGradient>
</defs>
 <path style="opacity:0.2" d="M 10,5 C 8.892,5 8,5.892 8,7 v 36 c 0,1.108 0.892,2 2,2 h 28 c 1.108,0 2,-0.892 2,-2 V 17 L 29,16 28,5 Z"/>
 <path style="fill:#d92b1a" d="M 10,4 C 8.892,4 8,4.892 8,6 V 42 C 8,43.108 8.892,44 10,44 H 38 C 39.108,44 40,43.108 40,42 V 16 L 29,15 28,4 Z"/>
 <path style="fill:#ffffff;opacity:0.2" d="M 10 4 C 8.892 4 8 4.892 8 6 L 8 7 C 8 5.892 8.892 5 10 5 L 28 5 L 28 4 L 10 4 z"/>
 <path style="opacity:0.2" d="m 28,5 v 10 c 0,1.105 0.895,2 2,2 h 10 z"/>
 <path style="fill:#e88076" d="M 28,4 V 14 C 28,15.105 28.895,16 30,16 H 40 Z"/>
 <path style="opacity:0.2" d="m 32,20 -16,4 v 4 l 16,-4 z m 0,6 -16,4 v 4 l 16,-4 z m 0,6 -16,4 v 4 l 16,-4 z"/>
 <path style="fill:#ffffff" d="M 32 19 L 16 23 L 16 27 L 32 23 L 32 19 z M 32 25 L 16 29 L 16 33 L 32 29 L 32 25 z M 32 31 L 16 35 L 16 39 L 32 35 L 32 31 z"/>
</svg>
