<svg xmlns="http://www.w3.org/2000/svg" width="32" height="32" version="1"><defs>
<linearGradient id="ucPurpleBlue" x1="0%" y1="0%" x2="100%" y2="100%">
  <stop offset="0%" style="stop-color:#B794F4;stop-opacity:1"/>
  <stop offset="100%" style="stop-color:#4299E1;stop-opacity:1"/>
</linearGradient>
</defs>
 <g>
  <path fill="url(#ucPurpleBlue)" d="m16 2h-12.5c-0.831 0-1.5 0.669-1.5 1.5v12.5h14z"/>
  <path fill="url(#ucPurpleBlue)" d="m16 2h12.5c0.831 0 1.5 0.669 1.5 1.5v12.5h-14z"/>
  <path fill="url(#ucPurpleBlue)" d="m16 30h-12.5c-0.831 0-1.5-0.669-1.5-1.5v-12.5h14z"/>
  <path fill="url(#ucPurpleBlue)" d="m16 30h12.5c0.831 0 1.5-0.669 1.5-1.5v-12.5h-14z"/>
 </g>
 <path fill="#fff" opacity=".1" d="m3.5 2c-0.831 0-1.5 0.669-1.5 1.5v1c0-0.831 0.669-1.5 1.5-1.5h25c0.831 0 1.5 0.669 1.5 1.5v-1c0-0.831-0.669-1.5-1.5-1.5h-25z"/>
 <path opacity=".2" d="m2 28.5v1c0 0.831 0.669 1.5 1.5 1.5h25c0.831 0 1.5-0.669 1.5-1.5v-1c0 0.831-0.669 1.5-1.5 1.5h-25c-0.831 0-1.5-0.669-1.5-1.5z"/>
 <rect style="fill:#ffffff" width="20" height="20" x="6" y="6"/>
 <rect style="opacity:0.2" width="20" height="1" x="6" y="26"/>
</svg>
