<svg xmlns="http://www.w3.org/2000/svg" width="16" height="16" version="1.1"><defs>
<linearGradient id="ucPurpleBlue" x1="0%" y1="0%" x2="100%" y2="100%">
  <stop offset="0%" style="stop-color:#B794F4;stop-opacity:1"/>
  <stop offset="100%" style="stop-color:#4299E1;stop-opacity:1"/>
</linearGradient>
</defs>
 <path style="fill:#444444" d="M 6,12 A 2,2 0 0 1 4,14 2,2 0 0 1 2,12 2,2 0 0 1 4,10 2,2 0 0 1 6,12 Z"/>
 <path style="fill:#444444" d="M 2,6 V 8 A 6,6 0 0 1 8,14 H 10 A 8,8 0 0 0 2,6 Z"/>
 <path style="fill:#444444" d="M 2,2 V 4.0508 A 11,11 0 0 1 11.945,14 H 14 A 12,12 0 0 0 10.484,5.5156 12,12 0 0 0 2,2 Z"/>
</svg>
