<svg xmlns="http://www.w3.org/2000/svg" width="42" height="42" version="1.1"><defs>
<linearGradient id="ucPurpleBlue" x1="0%" y1="0%" x2="100%" y2="100%">
  <stop offset="0%" style="stop-color:#B794F4;stop-opacity:1"/>
  <stop offset="100%" style="stop-color:#4299E1;stop-opacity:1"/>
</linearGradient>
</defs>
 <path fill="url(#ucPurpleBlue)" d="M 3,3 C 1.892,3 1,3.892 1,5 V 35 H 41 V 5 C 41,3.892 40.108,3 39,3 Z"/>
 <path fill="url(#ucPurpleBlue)" d="M 3,39 C 1.892,39 1,38.108 1,37 v -2 h 40 v 2 c 0,1.108 -0.892,2 -2,2 z"/>
 <path fill="url(#ucPurpleBlue)" opacity=".1" d="M 3,3 C 1.892,3 1,3.892 1,5 V 6 C 1,4.892 1.892,4 3,4 h 36 c 1.108,0 2,0.892 2,2 V 5 C 41,3.892 40.108,3 39,3 Z"/>
 <rect opacity=".2" width="16" height="12" x="13" y="16" rx="1" ry="1"/>
 <path fill="url(#ucPurpleBlue)" d="m 13,17 v 9 c 0,0.554 0.446,1 1,1 h 14 c 0.554,0 1,-0.446 1,-1 v -9 z"/>
 <path fill="url(#ucPurpleBlue)" d="m 14,15 h 14 c 0.554,0 1,0.446 1,1 v 1 H 13 v -1 c 0,-0.554 0.446,-1 1,-1 z"/>
 <g opacity=".2" transform="translate(-1,-1005.4)">
  <rect width="4" height="4" x="5" y="1012.4" rx=".5" ry=".5"/>
  <rect width="4" height="4" x="5" y="1018.4" rx=".5" ry=".5"/>
  <rect width="4" height="4" x="5" y="1024.4" rx=".5" ry=".5"/>
  <rect width="4" height="4" x="5" y="1030.4" rx=".5" ry=".5"/>
 </g>
 <rect fill="url(#ucPurpleBlue)" width="4" height="4" x="4" y="6" rx=".5" ry=".5"/>
 <rect fill="url(#ucPurpleBlue)" width="4" height="4" x="4" y="12" rx=".5" ry=".5"/>
 <rect fill="url(#ucPurpleBlue)" width="4" height="4" x="4" y="18" rx=".5" ry=".5"/>
 <rect fill="url(#ucPurpleBlue)" width="4" height="4" x="4" y="24" rx=".5" ry=".5"/>
 <path opacity=".2" d="m 1,37 v 1 c 0,1.108 0.892,2 2,2 h 36 c 1.108,0 2,-0.892 2,-2 v -1 c 0,1.108 -0.892,2 -2,2 H 3 C 1.892,39 1,38.108 1,37 Z"/>
</svg>
