<svg xmlns="http://www.w3.org/2000/svg" width="42" height="42" version="1"><defs>
<linearGradient id="ucPurpleBlue" x1="0%" y1="0%" x2="100%" y2="100%">
  <stop offset="0%" style="stop-color:#B794F4;stop-opacity:1"/>
  <stop offset="100%" style="stop-color:#4299E1;stop-opacity:1"/>
</linearGradient>
</defs>
 <rect style="opacity:0.2" width="40" height="40" x="1" y="2" rx="4" ry="4.286"/>
 <rect style="fill:#325f78" width="40" height="40" x="1" y="1" rx="4" ry="4.286"/>
 <rect style="opacity:0.2" width="12" height="12" x="7" y="8" rx="3" ry="3"/>
 <rect style="fill:#ffffff" width="12" height="12" x="7" y="7" rx="3" ry="3"/>
 <rect style="opacity:0.3" width="12" height="12" x="23" y="7" rx="3" ry="3"/>
 <rect style="opacity:0.3" width="12" height="12" x="7" y="23" rx="3" ry="3"/>
 <rect style="opacity:0.2" width="12" height="12" x="23" y="24" rx="3" ry="3"/>
 <rect style="fill:#ffffff" width="12" height="12" x="23" y="23" rx="3" ry="3"/>
 <path style="opacity:0.1;fill:#ffffff" d="M 5,1 C 2.784,1 1,2.9108706 1,5.2851562 v 1 C 1,3.9108706 2.784,2 5,2 h 32 c 2.216,0 4,1.9108706 4,4.2851562 v -1 C 41,2.9108706 39.216,1 37,1 Z"/>
</svg>
