<svg xmlns="http://www.w3.org/2000/svg" width="42" height="42" version="1"><defs>
<linearGradient id="ucPurpleBlue" x1="0%" y1="0%" x2="100%" y2="100%">
  <stop offset="0%" style="stop-color:#B794F4;stop-opacity:1"/>
  <stop offset="100%" style="stop-color:#4299E1;stop-opacity:1"/>
</linearGradient>
</defs>
 <rect fill="url(#ucPurpleBlue)" width="28" height="40" x="-35" y="-41" rx="2" ry="2" transform="matrix(0,-1,-1,0,0,0)"/>
 <path opacity=".2" d="m 11,24 a 2,2 0 0 1 -2,2 2,2 0 0 1 -2,-2 2,2 0 0 1 2,-2 2,2 0 0 1 2,2 z"/>
 <path opacity=".2" d="m 17,24 a 2,2 0 0 1 -2,2 2,2 0 0 1 -2,-2 2,2 0 0 1 2,-2 2,2 0 0 1 2,2 z"/>
 <path opacity=".2" d="m 23,24 a 2,2 0 0 1 -2,2 2,2 0 0 1 -2,-2 2,2 0 0 1 2,-2 2,2 0 0 1 2,2 z"/>
 <path opacity=".2" d="m 29,24 a 2,2 0 0 1 -2,2 2,2 0 0 1 -2,-2 2,2 0 0 1 2,-2 2,2 0 0 1 2,2 z"/>
 <path opacity=".2" d="m 35,24 a 2,2 0 0 1 -2,2 2,2 0 0 1 -2,-2 2,2 0 0 1 2,-2 2,2 0 0 1 2,2 z"/>
 <path opacity=".2" d="m 32,16 a 2,2 0 0 1 -2,2 2,2 0 0 1 -2,-2 2,2 0 0 1 2,-2 2,2 0 0 1 2,2 z"/>
 <path opacity=".2" d="m 14,16 a 2,2 0 0 1 -2,2 2,2 0 0 1 -2,-2 2,2 0 0 1 2,-2 2,2 0 0 1 2,2 z"/>
 <path opacity=".2" d="M 8,16 A 2,2 0 0 1 6,18 2,2 0 0 1 4,16 2,2 0 0 1 6,14 2,2 0 0 1 8,16 Z"/>
 <path opacity=".2" d="m 20,16 a 2,2 0 0 1 -2,2 2,2 0 0 1 -2,-2 2,2 0 0 1 2,-2 2,2 0 0 1 2,2 z"/>
 <path opacity=".2" d="m 26,16 a 2,2 0 0 1 -2,2 2,2 0 0 1 -2,-2 2,2 0 0 1 2,-2 2,2 0 0 1 2,2 z"/>
 <path opacity=".2" d="m 38,16 a 2,2 0 0 1 -2,2 2,2 0 0 1 -2,-2 2,2 0 0 1 2,-2 2,2 0 0 1 2,2 z"/>
 <rect opacity=".2" width="30" height="4" x="6" y="29" rx="1" ry="1"/>
 <rect fill="url(#ucPurpleBlue)" width="30" height="4" x="6" y="28" rx="1" ry="1"/>
 <path fill="url(#ucPurpleBlue)" d="m 11,23 a 2,2 0 0 1 -2,2 2,2 0 0 1 -2,-2 2,2 0 0 1 2,-2 2,2 0 0 1 2,2 z"/>
 <path fill="url(#ucPurpleBlue)" d="m 17,23 a 2,2 0 0 1 -2,2 2,2 0 0 1 -2,-2 2,2 0 0 1 2,-2 2,2 0 0 1 2,2 z"/>
 <path fill="url(#ucPurpleBlue)" d="m 23,23 a 2,2 0 0 1 -2,2 2,2 0 0 1 -2,-2 2,2 0 0 1 2,-2 2,2 0 0 1 2,2 z"/>
 <path fill="url(#ucPurpleBlue)" d="m 29,23 a 2,2 0 0 1 -2,2 2,2 0 0 1 -2,-2 2,2 0 0 1 2,-2 2,2 0 0 1 2,2 z"/>
 <path fill="url(#ucPurpleBlue)" d="m 35,23 a 2,2 0 0 1 -2,2 2,2 0 0 1 -2,-2 2,2 0 0 1 2,-2 2,2 0 0 1 2,2 z"/>
 <path fill="url(#ucPurpleBlue)" d="m 32,15 a 2,2 0 0 1 -2,2 2,2 0 0 1 -2,-2 2,2 0 0 1 2,-2 2,2 0 0 1 2,2 z"/>
 <path fill="url(#ucPurpleBlue)" d="m 14,15 a 2,2 0 0 1 -2,2 2,2 0 0 1 -2,-2 2,2 0 0 1 2,-2 2,2 0 0 1 2,2 z"/>
 <path fill="url(#ucPurpleBlue)" d="M 8,15 A 2,2 0 0 1 6,17 2,2 0 0 1 4,15 2,2 0 0 1 6,13 2,2 0 0 1 8,15 Z"/>
 <path fill="url(#ucPurpleBlue)" d="m 20,15 a 2,2 0 0 1 -2,2 2,2 0 0 1 -2,-2 2,2 0 0 1 2,-2 2,2 0 0 1 2,2 z"/>
 <path fill="url(#ucPurpleBlue)" d="m 26,15 a 2,2 0 0 1 -2,2 2,2 0 0 1 -2,-2 2,2 0 0 1 2,-2 2,2 0 0 1 2,2 z"/>
 <path fill="url(#ucPurpleBlue)" d="m 38,15 a 2,2 0 0 1 -2,2 2,2 0 0 1 -2,-2 2,2 0 0 1 2,-2 2,2 0 0 1 2,2 z"/>
 <path fill="url(#ucPurpleBlue)" opacity=".1" d="M 3,7 C 1.892,7 1,7.892 1,9 v 1 C 1,8.892 1.892,8 3,8 h 36 c 1.108,0 2,0.892 2,2 V 9 C 41,7.892 40.108,7 39,7 Z"/>
 <path opacity=".2" d="m 1,33 v 1 c 0,1.108 0.892,2 2,2 h 36 c 1.108,0 2,-0.892 2,-2 v -1 c 0,1.108 -0.892,2 -2,2 H 3 C 1.892,35 1,34.108 1,33 Z"/>
</svg>
