<svg xmlns="http://www.w3.org/2000/svg" width="16" height="16" version="1.1"><defs>
<linearGradient id="ucPurpleBlue" x1="0%" y1="0%" x2="100%" y2="100%">
  <stop offset="0%" style="stop-color:#B794F4;stop-opacity:1"/>
  <stop offset="100%" style="stop-color:#4299E1;stop-opacity:1"/>
</linearGradient>
</defs>
 <path fill="url(#ucPurpleBlue)" d="m2.75 1c-0.4172 0-0.75 0.3328-0.75 0.75v13.5c0 0.417 0.3328 0.75 0.75 0.75h10.5c0.418 0 0.75-0.332 0.75-0.75v-9.25l-4.125-0.875-0.875-4.125z"/>
 <path fill="url(#ucPurpleBlue)" d="m9 1v4.1667c0 0.4584 0.3749 0.8333 0.8333 0.8333h4.1667z"/>
 <path style="fill:#ffffff" d="M 6,7 C 4.8938,7 4,7.8938 4,9 c 0,1.106 0.8938,2 2,2 1.1062,0 2,-0.894 2,-2 H 6 Z"/>
 <path style="fill:#ffffff" d="m 9,8 v 1 h 3 V 8 Z"/>
 <path style="fill:#ffffff" d="m 9,10 v 1 h 3 v -1 z"/>
 <path fill="#fff" d="m4 12v1h6v-1z"/>
</svg>
