<svg xmlns="http://www.w3.org/2000/svg" height="32" width="32" version="1.1"><defs>
<linearGradient id="ucPurpleBlue" x1="0%" y1="0%" x2="100%" y2="100%">
  <stop offset="0%" style="stop-color:#B794F4;stop-opacity:1"/>
  <stop offset="100%" style="stop-color:#4299E1;stop-opacity:1"/>
</linearGradient>
</defs>
 <rect style="fill:#c2352a" rx="1.5" ry="1.5" height="28" width="28" y="2" x="2"/>
 <path style="opacity:.1;fill:#ffffff" d="m3.5 2c-0.831 0-1.5 0.669-1.5 1.5v1c0-0.831 0.669-1.5 1.5-1.5h25c0.831 0 1.5 0.669 1.5 1.5v-1c0-0.831-0.669-1.5-1.5-1.5z"/>
 <path style="opacity:.2" d="m2 28.5v1c0 0.831 0.669 1.5 1.5 1.5h25c0.831 0 1.5-0.669 1.5-1.5v-1c0 0.831-0.669 1.5-1.5 1.5h-25c-0.831 0-1.5-0.669-1.5-1.5z"/>
 <path style="opacity:.2" d="m18 8c-3 0-3 4-5 6-3 3-6 2-6 5 0 1 0 4 3 4h5c3 0 3 3 7 3 2 0 3-1 3-3 0-3-3-4-3-7v-4c0-3-1-4-4-4zm-1 7c1.656854 0 3 1.343146 3 3s-1.343146 3-3 3-3-1.343146-3-3 1.343146-3 3-3z"/>
 <path style="fill:#ffffff" d="m18 7c-3 0-3 4-5 6-3 3-6 2-6 5 0 1 0 4 3 4h5c3 0 3 3 7 3 2 0 3-1 3-3 0-3-3-4-3-7v-4c0-3-1-4-4-4zm-1 7c1.656854 0 3 1.343146 3 3s-1.343146 3-3 3-3-1.343146-3-3 1.343146-3 3-3z"/>
</svg>
