<svg xmlns="http://www.w3.org/2000/svg" width="32" height="32" version="1"><defs>
<linearGradient id="ucPurpleBlue" x1="0%" y1="0%" x2="100%" y2="100%">
  <stop offset="0%" style="stop-color:#B794F4;stop-opacity:1"/>
  <stop offset="100%" style="stop-color:#4299E1;stop-opacity:1"/>
</linearGradient>
</defs>
 <rect fill="url(#ucPurpleBlue)" width="4" height="11" x="9" y="3" rx="1.333" ry="1.375"/>
 <rect fill="url(#ucPurpleBlue)" width="4" height="11" x="19" y="3" rx="1.333" ry="1.375"/>
 <rect fill="url(#ucPurpleBlue)" width="20" height="16" x="6" y="13" rx="1.333" ry="1.333"/>
 <path fill="#fff" opacity=".2" d="m10.334 3c-0.7387 0-1.334 0.6132-1.334 1.375v1c0-0.7618 0.5953-1.375 1.334-1.375h1.332c0.739 0 1.334 0.6132 1.334 1.375v-1c0-0.7618-0.595-1.375-1.334-1.375h-1.332z"/>
 <path fill="#fff" opacity=".2" d="m20.334 3c-0.739 0-1.334 0.6132-1.334 1.375v1c0-0.7618 0.595-1.375 1.334-1.375h1.332c0.739 0 1.334 0.6132 1.334 1.375v-1c0-0.7618-0.595-1.375-1.334-1.375h-1.332z"/>
 <path opacity=".2" d="m6 27.666v1c0 0.739 0.5953 1.334 1.334 1.334h17.332c0.739 0 1.334-0.595 1.334-1.334v-1c0 0.739-0.595 1.334-1.334 1.334h-17.332c-0.7387 0-1.334-0.595-1.334-1.334z"/>
</svg>
