<svg width="32" height="32" version="1.1" xmlns="http://www.w3.org/2000/svg"><defs>
<linearGradient id="ucPurpleBlue" x1="0%" y1="0%" x2="100%" y2="100%">
  <stop offset="0%" style="stop-color:#B794F4;stop-opacity:1"/>
  <stop offset="100%" style="stop-color:#4299E1;stop-opacity:1"/>
</linearGradient>
</defs>
 <rect x="2" y="3" width="28" height="28" ry="6" style="opacity:.2"/>
 <rect x="2" y="2" width="28" height="28" ry="6" style="fill:#f4881f"/>
 <path d="m6 6v22h6v-17h4v17h10v-6h-4v-16z" style="opacity:.1"/>
 <path d="m6 5v22h6v-17h4v17h10v-6h-4v-16z" style="fill:#3f3f3f"/>
 <path d="m8 2c-3.324 0-6 2.676-6 6v1c0-3.324 2.676-6 6-6h16c3.324 0 6 2.676 6 6v-1c0-3.324-2.676-6-6-6h-16z" style="fill:#ffffff;opacity:.2"/>
</svg>
