<svg xmlns="http://www.w3.org/2000/svg" width="32" height="32" version="1"><defs>
<linearGradient id="ucPurpleBlue" x1="0%" y1="0%" x2="100%" y2="100%">
  <stop offset="0%" style="stop-color:#B794F4;stop-opacity:1"/>
  <stop offset="100%" style="stop-color:#4299E1;stop-opacity:1"/>
</linearGradient>
</defs>
 <path fill="url(#ucPurpleBlue)" d="m20 21v9h7.6501c0.748 0 1.35-0.602 1.35-1.35v-7.6501h-9z"/>
 <rect fill="url(#ucPurpleBlue)" width="9" height="9" x="11" y="21"/>
 <path fill="url(#ucPurpleBlue)" d="m2 21v7.6501c0 0.74786 0.60207 1.3499 1.3499 1.3499h7.6501v-9h-9z"/>
 <rect opacity=".2" width="9" height="9" x="2" y="13"/>
 <rect fill="url(#ucPurpleBlue)" width="9" height="9" x="2" y="12"/>
 <rect opacity=".2" width="9" height="9" x="11" y="13"/>
 <rect fill="url(#ucPurpleBlue)" width="9" height="9" x="11" y="12"/>
 <rect opacity=".2" width="9" height="9" x="20" y="13"/>
 <rect fill="url(#ucPurpleBlue)" width="9" height="9" x="20" y="12"/>
 <path opacity=".2" d="m20 4v9h9v-7.6501c0-0.7478-0.602-1.3499-1.35-1.3499h-7.65z"/>
 <path fill="url(#ucPurpleBlue)" d="m20 3v9h9v-7.6501c0-0.7478-0.602-1.3499-1.35-1.3499h-7.65z"/>
 <rect opacity=".2" width="9" height="9" x="11" y="4"/>
 <rect fill="url(#ucPurpleBlue)" width="9" height="9" x="11" y="3"/>
 <path opacity=".2" d="m3.3499 4c-0.7478 0-1.3499 0.6021-1.3499 1.3499v7.6501h9v-9h-7.6501z"/>
 <path fill="url(#ucPurpleBlue)" d="m3.3499 3c-0.7478 0-1.3499 0.6021-1.3499 1.3499v7.6501h9v-9h-7.6501z"/>
 <path opacity=".2" d="m2 28.65v1c0 0.748 0.6017 1.35 1.3496 1.35h24.3c0.748 0 1.35-0.602 1.35-1.35v-1c0 0.748-0.602 1.35-1.35 1.35h-24.3c-0.7479 0-1.3496-0.602-1.3496-1.35z"/>
 <path fill="#fff" opacity=".2" d="m3.3496 3c-0.7479 0-1.3496 0.6017-1.3496 1.3496v1c0-0.7479 0.6017-1.3496 1.3496-1.3496h24.3c0.748 0 1.35 0.6017 1.35 1.3496v-1c0-0.7479-0.602-1.3496-1.35-1.3496h-24.3z"/>
</svg>
