<svg xmlns="http://www.w3.org/2000/svg" width="32" height="32" version="1"><defs>
<linearGradient id="ucPurpleBlue" x1="0%" y1="0%" x2="100%" y2="100%">
  <stop offset="0%" style="stop-color:#B794F4;stop-opacity:1"/>
  <stop offset="100%" style="stop-color:#4299E1;stop-opacity:1"/>
</linearGradient>
</defs>
 <rect fill="url(#ucPurpleBlue)" width="28" height="28" x="2" y="2" rx="1.5" ry="1.5"/>
 <path fill="#fff" opacity=".1" d="m3.5 2c-0.831 0-1.5 0.669-1.5 1.5v1c0-0.831 0.669-1.5 1.5-1.5h25c0.831 0 1.5 0.669 1.5 1.5v-1c0-0.831-0.669-1.5-1.5-1.5h-25z"/>
 <path opacity=".2" d="m2 28.5v1c0 0.831 0.669 1.5 1.5 1.5h25c0.831 0 1.5-0.669 1.5-1.5v-1c0 0.831-0.669 1.5-1.5 1.5h-25c-0.831 0-1.5-0.669-1.5-1.5z"/>
 <path fill="url(#ucPurpleBlue)" d="m10 8a2 2 0 0 0 -2 2 2 2 0 0 0 2 2 2 2 0 0 0 2 -2 2 2 0 0 0 -2 -2zm0 1a1 1 0 0 1 1 1 1 1 0 0 1 -1 1 1 1 0 0 1 -1 -1 1 1 0 0 1 1 -1z"/>
 <path fill="url(#ucPurpleBlue)" opacity=".4" d="m13 7v6h-6v1h6v4h-6v1h6v6h1v-6h4v6h1v-6h6v-1h-6v-4h6v-1h-6v-6h-1v6h-4v-6h-1zm1 7h4v4h-4v-4z"/>
 <path fill="url(#ucPurpleBlue)" d="m22 20a2 2 0 0 0 -2 2 2 2 0 0 0 2 2 2 2 0 0 0 2 -2 2 2 0 0 0 -2 -2zm0 1a1 1 0 0 1 1 1 1 1 0 0 1 -1 1 1 1 0 0 1 -1 -1 1 1 0 0 1 1 -1z"/>
 <path fill="url(#ucPurpleBlue)" d="m17.061 14.232-1.061 1.061-1.061-1.061-0.707 0.707 1.061 1.061-1.061 1.061 0.707 0.707 1.061-1.061 1.061 1.061 0.707-0.707-1.061-1.061 1.061-1.061-0.707-0.707z"/>
</svg>
