<svg xmlns="http://www.w3.org/2000/svg" height="32" width="32" version="1.1"><defs>
<linearGradient id="ucPurpleBlue" x1="0%" y1="0%" x2="100%" y2="100%">
  <stop offset="0%" style="stop-color:#B794F4;stop-opacity:1"/>
  <stop offset="100%" style="stop-color:#4299E1;stop-opacity:1"/>
</linearGradient>
</defs>
 <rect style="opacity:.2" rx="2" ry="2" height="26" width="26" y="4" x="3"/>
 <rect style="fill:#634cb8" rx="2" ry="2" height="26" width="26" y="3" x="3"/>
 <path style="opacity:.2;fill:#ffffff" d="m5 3c-1.108 0-2 0.892-2 2v1c0-1.108 0.892-2 2-2h22c1.108 0 2 0.892 2 2v-1c0-1.108-0.892-2-2-2h-22z"/>
 <path d="m19 3v3h8v7h3v-7c0-2-1-3-3-3zm-17 18v7c0 2 1 3 3 3h8v-3h-8v-7z" style="opacity:.2"/>
 <path d="m19 2v3h8v7h3v-7c0-2-1-3-3-3zm-17 18v7c0 2 1 3 3 3h8v-3h-8v-7z" style="fill:#dfdfdf"/>
</svg>
