<svg width="32" height="32" version="1.1" xmlns="http://www.w3.org/2000/svg"><defs>
<linearGradient id="ucPurpleBlue" x1="0%" y1="0%" x2="100%" y2="100%">
  <stop offset="0%" style="stop-color:#B794F4;stop-opacity:1"/>
  <stop offset="100%" style="stop-color:#4299E1;stop-opacity:1"/>
</linearGradient>
</defs>
 <rect x="2" y="3" width="28" height="28" rx="1" ry="1" style="opacity:.2"/>
 <rect x="2" y="2" width="28" height="28" rx="1" ry="1" style="fill:#f6531c"/>
 <path d="m3 2c-0.554 0-1 0.446-1 1v1c0-0.554 0.446-1 1-1h26c0.554 0 1 0.446 1 1v-1c0-0.554-0.446-1-1-1h-26z" style="fill:#ffffff;opacity:.2"/>
 <path d="m15 3 3-3e-7v17h12v2h-15z" style="opacity:.2"/>
 <path d="m15 2h3v17h12v2h-15z" style="fill:#ffffff"/>
</svg>
