<svg width="32" height="32" version="1.1" xmlns="http://www.w3.org/2000/svg"><defs>
<linearGradient id="ucPurpleBlue" x1="0%" y1="0%" x2="100%" y2="100%">
  <stop offset="0%" style="stop-color:#B794F4;stop-opacity:1"/>
  <stop offset="100%" style="stop-color:#4299E1;stop-opacity:1"/>
</linearGradient>
</defs>
 <rect x="2" y="3" width="28" height="28" rx="3" ry="3" style="opacity:.2"/>
 <rect x="2" y="2" width="28" height="28" rx="3" ry="3" style="fill:#24b8eb"/>
 <path d="m5 2c-1.662 0-3 1.338-3 3v1c0-1.662 1.338-3 3-3h22c1.662 0 3 1.338 3 3v-1c0-1.662-1.338-3-3-3h-22z" style="fill:#ffffff;opacity:.2"/>
 <path d="m7 6c-1.108 0-2 0.892-2 2v8c0 1.108 0.892 2 2 2h18v8h-8v-6h-2v6c0 1.108 0.892 2 2 2h8c1.108 0 2-0.892 2-2v-8c0-1.108-0.892-2-2-2h-18v-8h8v6h2v-6c0-1.108-0.892-2-2-2z" style="opacity:.2"/>
 <path d="m7 5c-1.108 0-2 0.892-2 2v8c0 1.108 0.892 2 2 2h18v8h-8v-6h-2v6c0 1.108 0.892 2 2 2h8c1.108 0 2-0.892 2-2v-8c0-1.108-0.892-2-2-2h-18v-8h8v6h2v-6c0-1.108-0.892-2-2-2z" style="fill:#3f3f3f"/>
</svg>
