<svg width="32" height="32" version="1.1" xmlns="http://www.w3.org/2000/svg"><defs>
<linearGradient id="ucPurpleBlue" x1="0%" y1="0%" x2="100%" y2="100%">
  <stop offset="0%" style="stop-color:#B794F4;stop-opacity:1"/>
  <stop offset="100%" style="stop-color:#4299E1;stop-opacity:1"/>
</linearGradient>
</defs>
 <circle cx="16" cy="17" r="14" style="opacity:.2"/>
 <circle cx="16" cy="16" r="14" style="fill:#54749d"/>
 <path d="M 16,2 A 14,14 0 0 0 2,16 14,14 0 0 0 2.0215,16.586 14,14 0 0 1 16,3 14,14 0 0 1 29.979,16.414 14,14 0 0 0 30,16 14,14 0 0 0 16,2 Z" style="fill:#ffffff;opacity:.2"/>
 <path d="m24 7s-21 1-21 10 21 10 21 10-19-3-19-10 19-10 19-10zm-1 1s-17 4-17 9 17 9 17 9-15-5-15-9 15-9 15-9zm-3 3s-11 2.5-11 6 11 6 11 6-9-3-9-6 9-6 9-6z" style="opacity:.2"/>
 <path d="m24 6s-21 1-21 10 21 10 21 10-19-3-19-10 19-10 19-10zm-1 1s-17 4-17 9 17 9 17 9-15-5-15-9 15-9 15-9zm-3 3s-11 2.5-11 6 11 6 11 6-9-3-9-6 9-6 9-6z" style="fill:#ffffff"/>
</svg>
