<svg xmlns="http://www.w3.org/2000/svg" width="32" height="32" version="1.1"><defs>
<linearGradient id="ucPurpleBlue" x1="0%" y1="0%" x2="100%" y2="100%">
  <stop offset="0%" style="stop-color:#B794F4;stop-opacity:1"/>
  <stop offset="100%" style="stop-color:#4299E1;stop-opacity:1"/>
</linearGradient>
</defs>
 <path fill="url(#ucPurpleBlue)" d="m16 2a14 13 0 0 0 -14 13 14 13 0 0 0 5 9.957v5.043l3.721-2.967a14 13 0 0 0 5.279 0.967 14 13 0 0 0 14 -13 14 13 0 0 0 -14 -13z"/>
 <path opacity=".2" d="m17 20-4-4.5-7 4.5 8-9 4 5 8-5z"/>
 <path fill="#fff" d="m17 19-4-4.5-7 4.5 8-9 4 5 8-5z"/>
 <path fill="#fff" opacity=".2" d="m16 2a14 13 0 0 0 -14 13 14 13 0 0 0 0.0215 0.414 14 13 0 0 1 13.978 -12.414 14 13 0 0 1 13.979 12.586 14 13 0 0 0 0.021 -0.586 14 13 0 0 0 -14 -13z"/>
 <path opacity=".2" d="m2.0215 15.414a14 13 0 0 0 -0.0215 0.586 14 13 0 0 0 5 9.957v-1a14 13 0 0 1 -4.9785 -9.543zm27.958 0.172a14 13 0 0 1 -13.979 12.414 14 13 0 0 1 -5.279 -0.967l-3.721 2.967v1l3.721-2.967a14 13 0 0 0 5.279 0.967 14 13 0 0 0 14 -13 14 13 0 0 0 -0.021 -0.414z"/>
</svg>
