<svg xmlns="http://www.w3.org/2000/svg" width="32" height="32" version="1"><defs>
<linearGradient id="ucPurpleBlue" x1="0%" y1="0%" x2="100%" y2="100%">
  <stop offset="0%" style="stop-color:#B794F4;stop-opacity:1"/>
  <stop offset="100%" style="stop-color:#4299E1;stop-opacity:1"/>
</linearGradient>
</defs>
 <rect style="opacity:0.2" width="28" height="28" x="2" y="3" rx="8.4" ry="8.4"/>
 <rect style="fill:#e4e4e4" width="28" height="28" x="2" y="2" rx="8.4" ry="8.4"/>
 <circle style="opacity:0.1" cx="10" cy="17" r="5"/>
 <circle style="fill:#296ec6" cx="10" cy="16" r="5"/>
 <circle style="opacity:0.1" cx="22" cy="17" r="5"/>
 <circle style="fill:#e03c90" cx="22" cy="16" r="5"/>
 <path style="fill:#ffffff;opacity:0.2" d="M 10.400391 2 C 5.7467908 2 2 5.7467908 2 10.400391 L 2 11.400391 C 2 6.7467908 5.7467908 3 10.400391 3 L 21.599609 3 C 26.253209 3 30 6.7467908 30 11.400391 L 30 10.400391 C 30 5.7467908 26.253209 2 21.599609 2 L 10.400391 2 z"/>
</svg>
