<svg width="32" height="32" version="1.1" xmlns="http://www.w3.org/2000/svg"><defs>
<linearGradient id="ucPurpleBlue" x1="0%" y1="0%" x2="100%" y2="100%">
  <stop offset="0%" style="stop-color:#B794F4;stop-opacity:1"/>
  <stop offset="100%" style="stop-color:#4299E1;stop-opacity:1"/>
</linearGradient>
</defs>
 <g>
  <rect x="2" y="3" width="28" height="28" rx="8.3999996" ry="8.3999996" style="opacity:.2"/>
  <rect x="2" y="2" width="28" height="28" rx="8.3999996" ry="8.3999996" style="fill:#546580"/>
  <rect transform="matrix(0,-1,-1,0,0,0)" x="-27" y="-26" width="20" height="20" rx="10" ry="10" style="opacity:.2"/>
  <rect transform="matrix(0,-1,-1,0,0,0)" x="-26" y="-26" width="20" height="20" rx="10" ry="10" style="fill:#e74c3c"/>
  <path d="M 10.400391,2 C 5.7467908,2 2,5.7467908 2,10.400391 v 1 C 2,6.7467908 5.7467908,3 10.400391,3 H 21.599609 C 26.253209,3 30,6.7467908 30,11.400391 v -1 C 30,5.7467908 26.253209,2 21.599609,2 Z" style="fill:#ffffff;opacity:.1"/>
 </g>
</svg>
