<svg width="32" height="32" version="1.1" xmlns="http://www.w3.org/2000/svg"><defs>
<linearGradient id="ucPurpleBlue" x1="0%" y1="0%" x2="100%" y2="100%">
  <stop offset="0%" style="stop-color:#B794F4;stop-opacity:1"/>
  <stop offset="100%" style="stop-color:#4299E1;stop-opacity:1"/>
</linearGradient>
</defs>
 <rect x="2" y="3" width="28" height="28" rx="1.4" ry="1.4" style="opacity:.2"/>
 <rect x="2" y="2" width="28" height="28" rx="1.4" ry="1.4" style="fill:#222b76"/>
 <path d="M 3.4003906,2 C 2.6247906,2 2,2.6247906 2,3.4003906 v 1 C 2,3.6247906 2.6247906,3 3.4003906,3 H 28.599609 C 29.375209,3 30,3.6247906 30,4.4003906 v -1 C 30,2.6247906 29.375209,2 28.599609,2 Z" style="fill:#ffffff;opacity:.1"/>
 <path d="m10 7v4h-4v8h4v-4h12v4h4v-8h-4v-4h-4v4h-4v-4zm12 12h-12v4h12zm0 4v4h4v-4zm-12 0h-4v4h4z" style="opacity:.2"/>
 <path d="m10 6v4h-4v8h4v-4h12v4h4v-8h-4v-4h-4v4h-4v-4zm12 12h-12v4h12zm0 4v4h4v-4zm-12 0h-4v4h4z" style="fill:#cfd3db"/>
</svg>
