<svg xmlns="http://www.w3.org/2000/svg" height="32" width="32" version="1.1"><defs>
<linearGradient id="ucPurpleBlue" x1="0%" y1="0%" x2="100%" y2="100%">
  <stop offset="0%" style="stop-color:#B794F4;stop-opacity:1"/>
  <stop offset="100%" style="stop-color:#4299E1;stop-opacity:1"/>
</linearGradient>
</defs>
 <path style="opacity:.2" d="m6 3c-0.5522619 0.0000552-0.9999448 0.4477381-1 1v26c0.0000552 0.552262 0.4477381 0.999945 1 1h5c0.552262-0.000055 0.999945-0.447738 1-1v-9h8v9c0.000055 0.552262 0.447738 0.999945 1 1h5c0.552262-0.000055 0.999945-0.447738 1-1v-26c-0.000055-0.5522619-0.447738-0.9999448-1-1h-5c-0.552262 0.0000552-0.999945 0.4477381-1 1v10h-8v-10c-0.000055-0.5522619-0.447738-0.9999448-1-1z"/>
 <path style="fill:#1a861c" d="m6 2c-0.5522619 0.0000552-0.9999448 0.4477381-1 1v26c0.0000552 0.552262 0.4477381 0.999945 1 1h5c0.552262-0.000055 0.999945-0.447738 1-1v-9h8v9c0.000055 0.552262 0.447738 0.999945 1 1h5c0.552262-0.000055 0.999945-0.447738 1-1v-26c-0.000055-0.5522619-0.447738-0.9999448-1-1h-5c-0.552262 0.0000552-0.999945 0.4477381-1 1v10h-8v-10c-0.000055-0.5522619-0.447738-0.9999448-1-1z"/>
 <path style="fill:#ffffff;opacity:.1" d="m6 2c-0.5522619 0.0000552-0.9999448 0.4477381-1 1v1c0.000055-0.5522619 0.447738-0.9999448 1-1h5c0.552262 0.0000552 0.999945 0.4477381 1 1v-1c-0.000055-0.5522619-0.447738-0.9999448-1-1h-5zm15 0c-0.552262 0.0000552-0.999945 0.4477381-1 1v1c0.000055-0.5522619 0.447738-0.9999448 1-1h5c0.552262 0.0000552 0.999945 0.4477381 1 1v-1c-0.000055-0.5522619-0.447738-0.9999448-1-1h-5zm-9 11v1h8v-1h-8z"/>
</svg>
