<svg width="32" height="32" version="1.1" xmlns="http://www.w3.org/2000/svg"><defs>
<linearGradient id="ucPurpleBlue" x1="0%" y1="0%" x2="100%" y2="100%">
  <stop offset="0%" style="stop-color:#B794F4;stop-opacity:1"/>
  <stop offset="100%" style="stop-color:#4299E1;stop-opacity:1"/>
</linearGradient>
</defs>
 <rect x="2" y="3" width="28" height="28" ry="2" style="opacity:.2"/>
 <rect x="2" y="2" width="28" height="28" rx="2" ry="2" style="fill:#e4e4e4"/>
 <rect x="4" y="4" width="24" height="22" style="fill:#fecd38"/>
 <rect x="4" y="15" width="24" height="11" style="fill:#e97e10"/>
 <rect x="4" y="4" width="24" height="1" style="opacity:.1"/>
 <rect x="26" y="13" width="2" height="2" style="fill:#e97e10"/>
 <rect x="6" y="13" width="2" height="2" style="fill:#e97e10"/>
 <rect x="10" y="13" width="2" height="2" style="fill:#e97e10"/>
 <rect x="14" y="13" width="2" height="2" style="fill:#e97e10"/>
 <rect x="18" y="13" width="2" height="2" style="fill:#e97e10"/>
 <rect x="22" y="13" width="2" height="2" style="fill:#e97e10"/>
 <rect x="26" y="15" width="2" height="2" style="fill:#fecd38"/>
 <rect x="22" y="15" width="2" height="2" style="fill:#fecd38"/>
 <rect x="18" y="15" width="2" height="2" style="fill:#fecd38"/>
 <rect x="14" y="15" width="2" height="2" style="fill:#fecd38"/>
 <rect x="10" y="15" width="2" height="2" style="fill:#fecd38"/>
 <rect x="6" y="15" width="2" height="2" style="fill:#fecd38"/>
 <rect x="4" y="17" width="2" height="2" style="fill:#fecd38"/>
 <rect x="12" y="17" width="2" height="2" style="fill:#fecd38"/>
 <rect x="20" y="17" width="2" height="2" style="fill:#fecd38"/>
 <rect x="24" y="19" width="2" height="2" style="fill:#fecd38"/>
 <rect x="16" y="19" width="2" height="2" style="fill:#fecd38"/>
 <rect x="8" y="19" width="2" height="2" style="fill:#fecd38"/>
 <rect x="20" y="11" width="2" height="2" style="fill:#e97e10"/>
 <rect x="12" y="11" width="2" height="2" style="fill:#e97e10"/>
 <rect x="4" y="11" width="2" height="2" style="fill:#e97e10"/>
 <rect x="8" y="9" width="2" height="2" style="fill:#e97e10"/>
 <rect x="16" y="9" width="2" height="2" style="fill:#e97e10"/>
 <rect x="24" y="9" width="2" height="2" style="fill:#e97e10"/>
</svg>
