<svg xmlns="http://www.w3.org/2000/svg" width="32" height="32" version="1.1"><defs>
<linearGradient id="ucPurpleBlue" x1="0%" y1="0%" x2="100%" y2="100%">
  <stop offset="0%" style="stop-color:#B794F4;stop-opacity:1"/>
  <stop offset="100%" style="stop-color:#4299E1;stop-opacity:1"/>
</linearGradient>
</defs>
 <rect style="opacity:0.2" width="22" height="28" x="5" y="3" rx="1.375" ry="1.4"/>
 <rect style="fill:#57a27f" width="22" height="28" x="5" y="2" rx="1.375" ry="1.4"/>
 <path style="opacity:0.2" d="M 6.375,2 C 5.61325,2 5,2.6244 5,3.4 V 28.6 C 5,29.3756 5.61325,30 6.375,30 H 9 V 2 Z"/>
 <path style="opacity:0.2" d="m 15,10 v 4.9 L 19.333334,10 23,10.63 16.666667,17 23,23.3 19.333334,24 15,19.1 v 4.2 L 12,24 V 10.63 Z"/>
 <path style="fill:#ffffff" d="m 15,9 v 4.9 L 19.333334,9 23,9.63 16.666667,16 23,22.3 19.333334,23 15,18.1 v 4.2 L 12,23 V 9.63 Z"/>
 <path style="fill:#ffffff;opacity:0.2" d="M 6.375 2 C 5.61325 2 5 2.6247906 5 3.4003906 L 5 4.4003906 C 5 3.6247906 5.61325 3 6.375 3 L 25.625 3 C 26.38675 3 27 3.6247906 27 4.4003906 L 27 3.4003906 C 27 2.6247906 26.38675 2 25.625 2 L 6.375 2 z"/>
</svg>
