<svg xmlns="http://www.w3.org/2000/svg" width="32" height="32" version="1"><defs>
<linearGradient id="ucPurpleBlue" x1="0%" y1="0%" x2="100%" y2="100%">
  <stop offset="0%" style="stop-color:#B794F4;stop-opacity:1"/>
  <stop offset="100%" style="stop-color:#4299E1;stop-opacity:1"/>
</linearGradient>
</defs>
 <rect fill="url(#ucPurpleBlue)" width="28" height="28" x="2" y="2" rx="1.5" ry="1.5"/>
 <path fill="#fff" opacity=".1" d="m3.5 2c-0.831 0-1.5 0.669-1.5 1.5v1c0-0.831 0.669-1.5 1.5-1.5h25c0.831 0 1.5 0.669 1.5 1.5v-1c0-0.831-0.669-1.5-1.5-1.5h-25z"/>
 <path opacity=".2" d="m2 28.5v1c0 0.831 0.669 1.5 1.5 1.5h25c0.831 0 1.5-0.669 1.5-1.5v-1c0 0.831-0.669 1.5-1.5 1.5h-25c-0.831 0-1.5-0.669-1.5-1.5z"/>
 <circle opacity=".2" cx="24" cy="25" r="4"/>
 <circle opacity=".2" cx="16" cy="17" r="4"/>
 <circle fill="url(#ucPurpleBlue)" cx="16" cy="16" r="4"/>
 <circle fill="#fff" cx="24" cy="24" r="4"/>
 <circle opacity=".2" cx="8" cy="9" r="4"/>
 <circle fill="#fff" cx="8" cy="8" r="4"/>
</svg>
