<svg xmlns="http://www.w3.org/2000/svg" width="32" height="32" version="1"><defs>
<linearGradient id="ucPurpleBlue" x1="0%" y1="0%" x2="100%" y2="100%">
  <stop offset="0%" style="stop-color:#B794F4;stop-opacity:1"/>
  <stop offset="100%" style="stop-color:#4299E1;stop-opacity:1"/>
</linearGradient>
</defs>
 <path fill="url(#ucPurpleBlue)" d="m22 4a7 7 0 0 0 -7 7 7 7 0 0 0 7 7 7 7 0 0 0 7 -7 7 7 0 0 0 -7 -7z"/>
 <path fill="url(#ucPurpleBlue)" d="m10 14a7 7 0 0 0 -7 7 7 7 0 0 0 7 7 7 7 0 0 0 7 -7 7 7 0 0 0 -7 -7z"/>
 <path fill="#fff" opacity=".2" d="m22 4a7 7 0 0 0 -7 7 7 7 0 0 0 0.023 0.459 7 7 0 0 1 6.977 -6.459 7 7 0 0 1 6.977 6.541 7 7 0 0 0 0.023 -0.541 7 7 0 0 0 -7 -7zm-12 10a7 7 0 0 0 -7 7 7 7 0 0 0 0.0234 0.459 7 7 0 0 1 6.9766 -6.459 7 7 0 0 1 6.977 6.541 7 7 0 0 0 0.023 -0.541 7 7 0 0 0 -7 -7z"/>
 <path opacity=".2" d="m15.023 11.459a7 7 0 0 0 -0.023 0.541 7 7 0 0 0 7 7 7 7 0 0 0 7 -7 7 7 0 0 0 -0.023 -0.459 7 7 0 0 1 -6.977 6.459 7 7 0 0 1 -6.977 -6.541zm-12 10a7 7 0 0 0 -0.0234 0.541 7 7 0 0 0 7 7 7 7 0 0 0 7 -7 7 7 0 0 0 -0.023 -0.459 7 7 0 0 1 -6.9782 6.459 7 7 0 0 1 -6.9766 -6.541z"/>
</svg>
