<svg xmlns="http://www.w3.org/2000/svg" width="32" height="32" version="1.1"><defs>
<linearGradient id="ucPurpleBlue" x1="0%" y1="0%" x2="100%" y2="100%">
  <stop offset="0%" style="stop-color:#B794F4;stop-opacity:1"/>
  <stop offset="100%" style="stop-color:#4299E1;stop-opacity:1"/>
</linearGradient>
</defs>
 <rect style="opacity:0.2" width="24" height="25" x="4" y="6" rx="2.118" ry="2.083"/>
 <rect style="fill:#e4e4e4" width="24" height="25" x="4" y="5" rx="2.118" ry="2.083"/>
 <rect style="opacity:0.1" width="28" height="5" x="2" y="3" rx="2" ry="2"/>
 <rect style="fill:#2ea881" width="28" height="5" x="2" y="2" rx="2" ry="2"/>
 <circle style="fill:#ff4f4f" cx="8" cy="16" r="3"/>
 <rect style="fill:#ff4f4f" width="13" height="2" x="12" y="15"/>
 <rect style="opacity:0.3" width="15" height="2" x="10" y="10"/>
 <circle style="opacity:0.2" cx="8" cy="17" r="1"/>
 <circle style="fill:#ffffff" cx="8" cy="16" r="1"/>
 <rect style="opacity:0.3" width="2" height="2" x="7" y="10"/>
 <rect style="opacity:0.3" width="15" height="2" x="10" y="20"/>
 <rect style="opacity:0.3" width="2" height="2" x="7" y="20"/>
 <rect style="opacity:0.3" width="15" height="2" x="10" y="23"/>
 <rect style="opacity:0.3" width="2" height="2" x="7" y="23"/>
 <rect style="opacity:0.3" width="15" height="2" x="10" y="26"/>
 <rect style="opacity:0.3" width="2" height="2" x="7" y="26"/>
</svg>
