<svg width="32" height="32" version="1.1" xmlns="http://www.w3.org/2000/svg"><defs>
<linearGradient id="ucPurpleBlue" x1="0%" y1="0%" x2="100%" y2="100%">
  <stop offset="0%" style="stop-color:#B794F4;stop-opacity:1"/>
  <stop offset="100%" style="stop-color:#4299E1;stop-opacity:1"/>
</linearGradient>
</defs>
 <path d="m16 31s8-3 11-11v-16s-4-1-11-1-11 1-11 1v16c3 7 11 11 11 11z" style="opacity:.2"/>
 <path d="m16 30s8-3 11-11v-16s-4-1-11-1-11 1-11 1v16c3 7 11 11 11 11z" style="fill:#0d78b9"/>
 <path d="m16 2v28s8-3 11-11v-16s-4-1-11-1z" style="opacity:.2"/>
 <path d="m6 6v14c0 1 4 5 4 5v-13l4 4v5h4v-5l4-4v13s4-4 4-5v-14h-4l-6 6-6-6z" style="opacity:.2"/>
 <path d="m6 5v14c0 1 4 5 4 5v-13l4 4v5h4v-5l4-4v13s4-4 4-5v-14h-4l-6 6-6-6z" style="fill:#ffffff"/>
 <path d="m16 2c-7 0-11 1-11 1v1s4-1 11-1 11 1 11 1v-1s-4-1-11-1z" style="fill:#ffffff;opacity:.2"/>
</svg>
