<svg xmlns="http://www.w3.org/2000/svg" width="32" height="32" version="1.1"><defs>
<linearGradient id="ucPurpleBlue" x1="0%" y1="0%" x2="100%" y2="100%">
  <stop offset="0%" style="stop-color:#B794F4;stop-opacity:1"/>
  <stop offset="100%" style="stop-color:#4299E1;stop-opacity:1"/>
</linearGradient>
</defs>
 <rect style="opacity:.2" width="28" height="28" x="2" y="3" rx="2" ry="2"/>
 <rect style="fill:#2ec27e" width="28" height="28" x="2" y="2" rx="2" ry="2"/>
 <path style="opacity:0.2" d="m 8,9 v 4 8 l 3,3 V 14.922851 L 15,18 v -4 z m 16,0 -7,5 v 4 l 4,-3 v 9 l 3,-3 v -8 z"/>
 <path style="fill:#ffffff" d="m 8,8 v 4 8 l 3,3 V 13.922851 L 15,17 v -4 z m 16,0 -7,5 v 4 l 4,-3 v 9 l 3,-3 v -8 z"/>
 <path style="fill:#ffffff;opacity:0.2" d="m4 2c-1.108 0-2 0.892-2 2v1c0-1.108 0.892-2 2-2h24c1.108 0 2 0.892 2 2v-1c0-1.108-0.892-2-2-2h-24z"/>
</svg>
