<svg width="32" height="32" version="1.1" xmlns="http://www.w3.org/2000/svg"><defs>
<linearGradient id="ucPurpleBlue" x1="0%" y1="0%" x2="100%" y2="100%">
  <stop offset="0%" style="stop-color:#B794F4;stop-opacity:1"/>
  <stop offset="100%" style="stop-color:#4299E1;stop-opacity:1"/>
</linearGradient>
</defs>
 <circle cx="16" cy="17" r="14" style="opacity:.2"/>
 <circle cx="16" cy="16" r="14" style="fill:#e4e4e4"/>
 <path d="M 16,2 A 14,14 0 0 0 2,16 14,14 0 0 0 2.0215,16.586 14,14 0 0 1 16,3 14,14 0 0 1 29.979,16.414 14,14 0 0 0 30,16 14,14 0 0 0 16,2 Z" style="fill:#ffffff;opacity:.2"/>
 <path d="m16 10c-9 0-9 4-9 4v13.722656a14 14 0 0 0 8 3.226563v-13.949219h11v-3s0-4-10-4z" style="opacity:.1"/>
 <path d="m16 9c-9 0-9 4-9 4v13.722656a14 14 0 0 0 8 3.226563v-13.949219h11v-3s0-4-10-4z" style="fill:#c83928"/>
 <circle cx="21.5" cy="13.5" r="1.5" style="opacity:.2"/>
 <circle cx="21.5" cy="12.5" r="1.5" style="fill:#ffffff"/>
</svg>
