<svg width="32" height="32" version="1.1" xmlns="http://www.w3.org/2000/svg"><defs>
<linearGradient id="ucPurpleBlue" x1="0%" y1="0%" x2="100%" y2="100%">
  <stop offset="0%" style="stop-color:#B794F4;stop-opacity:1"/>
  <stop offset="100%" style="stop-color:#4299E1;stop-opacity:1"/>
</linearGradient>
</defs>
 <rect x="2" y="3" width="28" height="28" rx="1" ry="1" style="opacity:.2"/>
 <rect x="2" y="2" width="28" height="28" rx="1" ry="1" style="fill:#fabd7f"/>
 <path d="m16 7a2 2 0 0 0-2 2 2 2 0 0 0 2 2 2 2 0 0 0 2-2 2 2 0 0 0-2-2zm-7 2-2 1 6 4v13h2v-9h2v9h2v-13l6-4-2-1-4.5 3h-5z" style="opacity:.2"/>
 <path d="m16 6a2 2 0 0 0-2 2 2 2 0 0 0 2 2 2 2 0 0 0 2-2 2 2 0 0 0-2-2zm-7 2-2 1 6 4v4 9h2v-9h2v9h2v-9-4l6-4-2-1-4.5 3h-5l-4.5-3z" style="fill:#4f4f4f"/>
 <path d="m3 2c-0.554 0-1 0.446-1 1v1c0-0.554 0.446-1 1-1h26c0.554 0 1 0.446 1 1v-1c0-0.554-0.446-1-1-1h-26z" style="fill:#ffffff;opacity:.2"/>
</svg>
