<svg xmlns="http://www.w3.org/2000/svg" width="32" height="32" version="1"><defs>
<linearGradient id="ucPurpleBlue" x1="0%" y1="0%" x2="100%" y2="100%">
  <stop offset="0%" style="stop-color:#B794F4;stop-opacity:1"/>
  <stop offset="100%" style="stop-color:#4299E1;stop-opacity:1"/>
</linearGradient>
</defs>
 <path opacity=".2" d="m2 28.5v1c0 0.831 0.669 1.5 1.5 1.5h25c0.831 0 1.5-0.669 1.5-1.5v-1c0 0.831-0.669 1.5-1.5 1.5h-25c-0.831 0-1.5-0.669-1.5-1.5z"/>
 <rect style="fill:#4f4f4f" width="28" height="28" x="2" y="2" rx="1.5" ry="1.5"/>
 <path fill="#fff" opacity=".1" d="m3.5 2c-0.831 0-1.5 0.669-1.5 1.5v1c0-0.831 0.669-1.5 1.5-1.5h25c0.831 0 1.5 0.669 1.5 1.5v-1c0-0.831-0.669-1.5-1.5-1.5h-25z"/>
 <path style="fill:#d44338" d="m18 6h4v20l-3.9211-0.52632z"/>
 <path style="opacity:.2" d="m10 7v20l4-0.5v-19.5z"/>
 <path style="fill:#d44338" d="m10 6v20l4-0.5v-19.5z"/>
 <path style="opacity:.2" d="m10 7l8.078 19.475 3.922 0.525v-1l-3.922-0.525-0.074-18.475h-0.004l0.041 10.102-4.041-10.102h-4z"/>
 <path style="fill:#ff695e" d="m10 6 8.079 19.474 3.921 0.526-8-20z"/>
</svg>
