<svg width="32" height="32" version="1.1" xmlns="http://www.w3.org/2000/svg"><defs>
<linearGradient id="ucPurpleBlue" x1="0%" y1="0%" x2="100%" y2="100%">
  <stop offset="0%" style="stop-color:#B794F4;stop-opacity:1"/>
  <stop offset="100%" style="stop-color:#4299E1;stop-opacity:1"/>
</linearGradient>
</defs>
 <path d="m2 26.5v1c0 0.831 0.669 1.5 1.5 1.5h25c0.831 0 1.5-0.669 1.5-1.5v-1c0 0.831-0.669 1.5-1.5 1.5h-25c-0.831 0-1.5-0.669-1.5-1.5z" style="opacity:.2"/>
 <rect x="2" y="4" width="28" height="24" rx="1.5" ry="1.5" style="fill:#022254"/>
 <path d="m3.5 4c-0.831 0-1.5 0.669-1.5 1.5v1c0-0.831 0.669-1.5 1.5-1.5h25c0.831 0 1.5 0.669 1.5 1.5v-1c0-0.831-0.669-1.5-1.5-1.5z" style="fill:#ffffff;opacity:.1"/>
 <path d="m5 8c-1 0-1 1-1 1v5s0 1 1 1h2c1 0 1-1 1-1v-1h-1v1h-2v-5h2v1h1v-1s0-1-1-1zm6 0 1 7h1l-1-7zm-1.5 2a0.5 0.5 0 0 0-0.5 0.5 0.5 0.5 0 0 0 0.5 0.5 0.5 0.5 0 0 0 0.5-0.5 0.5 0.5 0 0 0-0.5-0.5zm0 3a0.5 0.5 0 0 0-0.5 0.5 0.5 0.5 0 0 0 0.5 0.5 0.5 0.5 0 0 0 0.5-0.5 0.5 0.5 0 0 0-0.5-0.5zm4.5 1v1h3v-1z" style="opacity:.2"/>
 <path d="m5 7c-1 0-1 1-1 1v5s0 1 1 1h2c1 0 1-1 1-1v-1h-1v1h-2v-5h2v1h1v-1s0-1-1-1zm6 0 1 7h1l-1-7zm-1.5 2a0.5 0.5 0 0 0-0.5 0.5 0.5 0.5 0 0 0 0.5 0.5 0.5 0.5 0 0 0 0.5-0.5 0.5 0.5 0 0 0-0.5-0.5zm0 3a0.5 0.5 0 0 0-0.5 0.5 0.5 0.5 0 0 0 0.5 0.5 0.5 0.5 0 0 0 0.5-0.5 0.5 0.5 0 0 0-0.5-0.5zm4.5 1v1h3v-1z" style="fill:#ffffff"/>
</svg>
