<svg xmlns="http://www.w3.org/2000/svg" width="32" height="32" version="1"><defs>
<linearGradient id="ucPurpleBlue" x1="0%" y1="0%" x2="100%" y2="100%">
  <stop offset="0%" style="stop-color:#B794F4;stop-opacity:1"/>
  <stop offset="100%" style="stop-color:#4299E1;stop-opacity:1"/>
</linearGradient>
</defs>
 <circle style="opacity:0.2" cx="16" cy="17" r="14"/>
 <circle style="fill:#3e50b4" cx="16" cy="16" r="14"/>
 <path style="opacity:0.2" d="m 10,22 v -1 h 8 v 1 z m 0,-3 v -1 h 12 v 1 z m 0,-3 v -1 h 12 v 1 z m 0,-3 v -1 h 12 v 1 z"/>
 <path style="fill:#ffffff" d="m 10,21 v -1 h 8 v 1 z m 0,-3 v -1 h 12 v 1 z m 0,-3 v -1 h 12 v 1 z m 0,-3 v -1 h 12 v 1 z"/>
 <path style="opacity:0.1;fill:#ffffff" d="M 16 2 A 14 14 0 0 0 2 16 A 14 14 0 0 0 2.0214844 16.585938 A 14 14 0 0 1 16 3 A 14 14 0 0 1 29.978516 16.414062 A 14 14 0 0 0 30 16 A 14 14 0 0 0 16 2 z"/>
</svg>
