<svg xmlns="http://www.w3.org/2000/svg" width="32" height="32" version="1.1"><defs>
<linearGradient id="ucPurpleBlue" x1="0%" y1="0%" x2="100%" y2="100%">
  <stop offset="0%" style="stop-color:#B794F4;stop-opacity:1"/>
  <stop offset="100%" style="stop-color:#4299E1;stop-opacity:1"/>
</linearGradient>
</defs>
 <rect style="opacity:0.2" width="28" height="28" x="2" y="3" ry="5"/>
 <rect style="fill:#2c8ffd" width="28" height="26" x="2" y="4" ry="5"/>
 <path style="opacity:0.2" d="m7 3h18c2.77 0 5 2.23 5 5v3l-14 8-14-8v-3c0-2.77 2.23-5 5-5z"/>
 <path style="fill:#c4e9f9" d="m7 2h18c2.77 0 5 2.23 5 5v3l-14 8-14-8v-3c0-2.77 2.23-5 5-5z"/>
 <path style="fill:#ffffff;opacity:0.2" d="M 7,2 C 4.23,2 2,4.23 2,7 v 1 C 2,5.23 4.23,3 7,3 h 18 c 2.77,0 5,2.23 5,5 v -1 C 30,4.23 27.77,2 25,2 Z"/>
</svg>
