<svg xmlns="http://www.w3.org/2000/svg" width="32" height="32" version="1.1"><defs>
<linearGradient id="ucPurpleBlue" x1="0%" y1="0%" x2="100%" y2="100%">
  <stop offset="0%" style="stop-color:#B794F4;stop-opacity:1"/>
  <stop offset="100%" style="stop-color:#4299E1;stop-opacity:1"/>
</linearGradient>
</defs>
 <rect style="opacity:0.2" width="28" height="28" x="2" y="3" rx="2.1" ry="2.1"/>
 <rect style="fill:#2ec27e" width="28" height="28" x="2" y="2" rx="2.1" ry="2.1"/>
 <rect style="fill:#26a269" width="2" height="28" x="10" y="2"/>
 <rect style="fill:#26a269" width="2" height="28" x="20" y="2"/>
 <rect style="fill:#26a269" width="2" height="28" x="10" y="-30" transform="rotate(90)"/>
 <rect style="fill:#26a269" width="2" height="28" x="20" y="-30" transform="rotate(90)"/>
 <circle style="opacity:0.2" cx="16" cy="17" r="3"/>
 <circle style="fill:#ffffff" cx="16" cy="16" r="3"/>
 <circle style="opacity:0.2" cx="26" cy="27" r="3"/>
 <circle style="fill:#ffffff" cx="26" cy="26" r="3"/>
 <circle style="opacity:0.1" cx="26" cy="17" r="3"/>
 <circle style="fill:#3d3846" cx="26" cy="16" r="3"/>
 <circle style="opacity:0.1" cx="16" cy="27" r="3"/>
 <circle style="fill:#3d3846" cx="16" cy="26" r="3"/>
 <path style="opacity:0.2;fill:#ffffff" d="M 4.0996094 2 C 2.9362094 2 2 2.9362094 2 4.0996094 L 2 5.0996094 C 2 3.9362094 2.9362094 3 4.0996094 3 L 27.900391 3 C 29.063791 3 30 3.9362094 30 5.0996094 L 30 4.0996094 C 30 2.9362094 29.063791 2 27.900391 2 L 4.0996094 2 z"/>
</svg>
