<svg xmlns="http://www.w3.org/2000/svg" width="32" height="32" version="1"><defs>
<linearGradient id="ucPurpleBlue" x1="0%" y1="0%" x2="100%" y2="100%">
  <stop offset="0%" style="stop-color:#B794F4;stop-opacity:1"/>
  <stop offset="100%" style="stop-color:#4299E1;stop-opacity:1"/>
</linearGradient>
</defs>
 <rect fill="url(#ucPurpleBlue)" width="8" height="8" x="8" y="3" rx="1" ry="1"/>
 <rect fill="url(#ucPurpleBlue)" width="8" height="8" x="8" y="12" rx="1" ry="1"/>
 <rect fill="url(#ucPurpleBlue)" width="8" height="8" x="8" y="21" rx="1" ry="1"/>
 <rect fill="url(#ucPurpleBlue)" width="8" height="8" x="17" y="21" rx="1" ry="1"/>
 <path fill="#fff" opacity=".2" d="m9 3c-0.554 0-1 0.446-1 1v1c0-0.554 0.446-1 1-1h6c0.554 0 1 0.446 1 1v-1c0-0.554-0.446-1-1-1h-6zm0 9c-0.554 0-1 0.446-1 1v1c0-0.554 0.446-1 1-1h6c0.554 0 1 0.446 1 1v-1c0-0.554-0.446-1-1-1h-6zm0 9c-0.554 0-1 0.446-1 1v1c0-0.554 0.446-1 1-1h6c0.554 0 1 0.446 1 1v-1c0-0.554-0.446-1-1-1h-6zm9 0c-0.554 0-1 0.446-1 1v1c0-0.554 0.446-1 1-1h6c0.554 0 1 0.446 1 1v-1c0-0.554-0.446-1-1-1h-6z"/>
 <path opacity=".2" d="m8 10v1c0 0.554 0.446 1 1 1h6c0.554 0 1-0.446 1-1v-1c0 0.554-0.446 1-1 1h-6c-0.554 0-1-0.446-1-1zm0 9v1c0 0.554 0.446 1 1 1h6c0.554 0 1-0.446 1-1v-1c0 0.554-0.446 1-1 1h-6c-0.554 0-1-0.446-1-1zm0 9v1c0 0.554 0.446 1 1 1h6c0.554 0 1-0.446 1-1v-1c0 0.554-0.446 1-1 1h-6c-0.554 0-1-0.446-1-1zm9 0v1c0 0.554 0.446 1 1 1h6c0.554 0 1-0.446 1-1v-1c0 0.554-0.446 1-1 1h-6c-0.554 0-1-0.446-1-1z"/>
</svg>
