<svg xmlns="http://www.w3.org/2000/svg" width="32" height="32" version="1"><defs>
<linearGradient id="ucPurpleBlue" x1="0%" y1="0%" x2="100%" y2="100%">
  <stop offset="0%" style="stop-color:#B794F4;stop-opacity:1"/>
  <stop offset="100%" style="stop-color:#4299E1;stop-opacity:1"/>
</linearGradient>
</defs>
 <rect style="opacity:0.2" width="22" height="28" x="-27" y="3" rx="1.375" ry="1.4" transform="scale(-1,1)"/>
 <rect style="fill:#e4e4e4" width="22" height="28" x="-27" y="2" rx="1.375" ry="1.4" transform="scale(-1,1)"/>
 <circle style="fill:#3f3f3f" cx="-19" cy="16" r="9" transform="rotate(-90)"/>
 <circle style="opacity:0.2" cx="-19.5" cy="-16" r="7" transform="matrix(0,-1,-1,0,0,0)"/>
 <circle style="fill:#fec006" cx="-19" cy="-16" r="7" transform="matrix(0,-1,-1,0,0,0)"/>
 <circle style="fill:#3f3f3f" cx="-19" cy="-16" r="3" transform="matrix(0,-1,-1,0,0,0)"/>
 <circle style="fill:#3f3f3f" cx="6.5" cy="-9.5" r="1.5" transform="rotate(90)"/>
 <circle style="fill:#3f3f3f" cx="6.5" cy="-22.5" r="1.5" transform="rotate(90)"/>
 <path style="fill:#ffffff;opacity:0.1" d="M 6.375 2 C 5.61325 2 5 2.6247906 5 3.4003906 L 5 4.4003906 C 5 3.6247906 5.61325 3 6.375 3 L 25.625 3 C 26.38675 3 27 3.6247906 27 4.4003906 L 27 3.4003906 C 27 2.6247906 26.38675 2 25.625 2 L 6.375 2 z"/>
</svg>
