<svg xmlns="http://www.w3.org/2000/svg" width="32" height="32" version="1"><defs>
<linearGradient id="ucPurpleBlue" x1="0%" y1="0%" x2="100%" y2="100%">
  <stop offset="0%" style="stop-color:#B794F4;stop-opacity:1"/>
  <stop offset="100%" style="stop-color:#4299E1;stop-opacity:1"/>
</linearGradient>
</defs>
 <rect style="fill:#4385ce" width="28" height="28" x="2" y="2" rx="1.5" ry="1.5"/>
 <path style="opacity:0.2" d="m 7,17 2,0 0,8 5,0 0,-4 4,0 0,4 5,0 0,-8 2,0 -9,-9 z"/>
 <path fill="#fff" d="m7 16h2v8h5v-4h4v4h5v-8h2l-9-9z"/>
 <path fill="#fff" style="opacity:0.2" d="m3.5 2c-0.831 0-1.5 0.669-1.5 1.5v1c0-0.831 0.669-1.5 1.5-1.5h25c0.831 0 1.5 0.669 1.5 1.5v-1c0-0.831-0.669-1.5-1.5-1.5h-25z"/>
 <path opacity=".2" d="m2 28.5v1c0 0.831 0.669 1.5 1.5 1.5h25c0.831 0 1.5-0.669 1.5-1.5v-1c0 0.831-0.669 1.5-1.5 1.5h-25c-0.831 0-1.5-0.669-1.5-1.5z"/>
</svg>
