<svg xmlns="http://www.w3.org/2000/svg" width="32" height="32" version="1"><defs>
<linearGradient id="ucPurpleBlue" x1="0%" y1="0%" x2="100%" y2="100%">
  <stop offset="0%" style="stop-color:#B794F4;stop-opacity:1"/>
  <stop offset="100%" style="stop-color:#4299E1;stop-opacity:1"/>
</linearGradient>
</defs>
 <path fill="url(#ucPurpleBlue)" d="m16 2h-12.5c-0.831 0-1.5 0.669-1.5 1.5v12.5h14z"/>
 <path fill="url(#ucPurpleBlue)" d="m16 2h12.5c0.831 0 1.5 0.669 1.5 1.5v12.5h-14z"/>
 <path fill="url(#ucPurpleBlue)" d="m16 30h-12.5c-0.831 0-1.5-0.669-1.5-1.5v-12.5h14z"/>
 <path fill="url(#ucPurpleBlue)" d="m16 30h12.5c0.831 0 1.5-0.669 1.5-1.5v-12.5h-14z"/>
 <path fill="#fff" opacity=".1" d="m3.5 2c-0.831 0-1.5 0.669-1.5 1.5v1c0-0.831 0.669-1.5 1.5-1.5h25c0.831 0 1.5 0.669 1.5 1.5v-1c0-0.831-0.669-1.5-1.5-1.5h-25z"/>
 <path opacity=".2" d="m2 28.5v1c0 0.831 0.669 1.5 1.5 1.5h25c0.831 0 1.5-0.669 1.5-1.5v-1c0 0.831-0.669 1.5-1.5 1.5h-25c-0.831 0-1.5-0.669-1.5-1.5z"/>
 <path fill="url(#ucPurpleBlue)" transform="matrix(.51276 0 0 .53915 1.8204 1.2974)" d="m14.002 5.0128 3.0133 6.1056 6.7379 0.97908-4.8756 4.7525 1.151 6.7107-6.0266-3.1684-6.0266 3.1684 1.151-6.7107-4.8756-4.7525 6.7379-0.97908z"/>
 <circle fill="url(#ucPurpleBlue)" cx="23" cy="9" r="5"/>
 <rect fill="url(#ucPurpleBlue)" width="10" height="10" x="18" y="18"/>
 <circle fill="url(#ucPurpleBlue)" cx="9" cy="23" r="5"/>
</svg>
