<svg xmlns="http://www.w3.org/2000/svg" width="32" height="32" version="1"><defs>
<linearGradient id="ucPurpleBlue" x1="0%" y1="0%" x2="100%" y2="100%">
  <stop offset="0%" style="stop-color:#B794F4;stop-opacity:1"/>
  <stop offset="100%" style="stop-color:#4299E1;stop-opacity:1"/>
</linearGradient>
</defs>
 <rect style="opacity:.2" width="28" height="28" x="2" y="3" rx="1.4" ry="1.4"/>
 <rect style="fill:#345c6e" width="28" height="28" x="2" y="2" rx="1.4" ry="1.4"/>
 <path style="opacity:.2" d="m8 9.9285714v3.0714286l7 4.133443-7 3.866557v3.071429l3.202728 1.928571 12.797272-7.096934v-3.679258l-13.026055-7.223808z"/>
 <path style="fill:#a1ceea" d="m8 8.9285714v3.0714286l7 4.133443-7 3.866557v3.071429l3.202728 1.928571 12.797272-7.096934v-3.679258l-13.026055-7.223808z"/>
 <path style="opacity:.2;fill:#ffffff" d="m10.974609 7l-2.974609 1.9277344v1l2.974609-1.9277344 13.025391 7.224609v-1l-13.025391-7.224609zm3.150391 9.617188l-6.125 3.382812v1l7-3.867188-0.875-0.515624z"/>
 <path style="opacity:.1;fill:#ffffff" d="m3.4003906 2c-0.7756 0-1.4003906 0.6247906-1.4003906 1.4003906v1c0-0.7756 0.6247906-1.4003906 1.4003906-1.4003906h25.199218c0.7756 0 1.400391 0.6247906 1.400391 1.4003906v-1c0-0.7756-0.624791-1.4003906-1.400391-1.4003906h-25.199218z"/>
</svg>
