<svg xmlns="http://www.w3.org/2000/svg" height="32" width="32" version="1.1"><defs>
<linearGradient id="ucPurpleBlue" x1="0%" y1="0%" x2="100%" y2="100%">
  <stop offset="0%" style="stop-color:#B794F4;stop-opacity:1"/>
  <stop offset="100%" style="stop-color:#4299E1;stop-opacity:1"/>
</linearGradient>
</defs>
 <path style="opacity:.2" d="m16 3-14 14 14 14 14-14z"/>
 <path style="fill:#00a1fd" d="m16 2-14 14 14 14 14-14z"/>
 <path style="opacity:.1;fill:#ffffff" d="m16 2l-14 14 0.5 0.5 13.5-13.5 13.5 13.5 0.5-0.5-14-14z"/>
 <rect style="opacity:.2" rx="2" ry="2" height="22" width="22" y="6" x="5"/>
 <rect style="fill:#47bcff" rx="2" ry="2" height="22" width="22" y="5" x="5"/>
 <path style="opacity:.2" d="m11 15v-3h3l2 2 2-2h3v3l-2 2 2 2v3h-3l-2-2-2 2h-3v-3l2-2z"/>
 <path style="fill:#ffffff" d="m11 14v-3h3l2 2 2-2h3v3l-2 2 2 2v3h-3l-2-2-2 2h-3v-3l2-2z"/>
 <path style="opacity:.2;fill:#ffffff" d="m7 5c-1.108 0-2 0.892-2 2v1c0-1.108 0.892-2 2-2h18c1.108 0 2 0.892 2 2v-1c0-1.108-0.892-2-2-2h-18z"/>
</svg>
