<svg xmlns="http://www.w3.org/2000/svg" width="32" height="32" version="1"><defs>
<linearGradient id="ucPurpleBlue" x1="0%" y1="0%" x2="100%" y2="100%">
  <stop offset="0%" style="stop-color:#B794F4;stop-opacity:1"/>
  <stop offset="100%" style="stop-color:#4299E1;stop-opacity:1"/>
</linearGradient>
</defs>
 <rect style="opacity:0.2" width="28" height="28" x="2" y="3" rx="8.4" ry="8.4"/>
 <rect style="fill:#4f4f4f" width="28" height="28" x="2" y="2" rx="8.4" ry="8.4"/>
 <path style="opacity:0.1" d="m14 7.67-7 2.33v13.5l7 2.33zm4 1.33-3 1v13.5l3 1zm4 1.5-3 1.2v10.1l3 1.2zm3 2.5-2 0.5v6.5l2 0.5z"/>
 <path style="fill:#eaeaea" d="m14 6.67-7 2.33v13.5l7 2.33zm4 1.33-3 1v13.5l3 1zm4 1.5-3 1.2v10.1l3 1.2zm3 2.5-2 0.5v6.5l2 0.5z"/>
 <path style="fill:#ffffff;opacity:0.1" d="M 10.4 2 C 5.7468 2 2 5.7468 2 10.4 L 2 11.4 C 2 6.7468 5.7468 3 10.4 3 L 21.6 3 C 26.253 3 30 6.7468 30 11.4 L 30 10.4 C 30 5.7468 26.253 2 21.6 2 L 10.4 2 z"/>
</svg>
