<svg xmlns="http://www.w3.org/2000/svg" width="32" height="32" version="1"><defs>
<linearGradient id="ucPurpleBlue" x1="0%" y1="0%" x2="100%" y2="100%">
  <stop offset="0%" style="stop-color:#B794F4;stop-opacity:1"/>
  <stop offset="100%" style="stop-color:#4299E1;stop-opacity:1"/>
</linearGradient>
</defs>
 <rect style="opacity:.2" width="29" height="29" x="-31" y="-31" rx="1.45" ry="1.45" transform="matrix(0,-1,-1,0,0,0)"/>
 <rect style="fill:#0081cc" width="29" height="29" x="-30" y="-31" rx="1.45" ry="1.45" transform="matrix(0,-1,-1,0,0,0)"/>
 <rect style="opacity:.2" width="10" height="20" x="5" y="5" rx="2.143" ry="2.143"/>
 <rect style="fill:#ffffff" width="10" height="20" x="5" y="4" rx="2.143" ry="2.143"/>
 <rect style="opacity:.2" width="10" height="10" x="18" y="5" rx="2.143" ry="1.875"/>
 <rect style="fill:#ffffff" width="10" height="10" x="18" y="4" rx="2.143" ry="1.875"/>
 <path style="opacity:.2;fill:#ffffff" d="m3.4492188 1c-0.8033 0-1.4492188 0.6459188-1.4492188 1.4492188v1c0-0.8033 0.6459188-1.4492188 1.4492188-1.4492188h26.101562c0.8033 0 1.449219 0.6459188 1.449219 1.4492188v-1c0-0.8033-0.645919-1.4492188-1.449219-1.4492188h-26.101562z"/>
</svg>
