<svg xmlns="http://www.w3.org/2000/svg" width="32" height="32" version="1.1"><defs>
<linearGradient id="ucPurpleBlue" x1="0%" y1="0%" x2="100%" y2="100%">
  <stop offset="0%" style="stop-color:#B794F4;stop-opacity:1"/>
  <stop offset="100%" style="stop-color:#4299E1;stop-opacity:1"/>
</linearGradient>
</defs>
 <rect style="opacity:0.2" width="28" height="28" x="2" y="3" rx="1.4" ry="1.4"/>
 <rect style="fill:#3f5979" width="28" height="28" x="2" y="2" rx="1.4" ry="1.4"/>
 <path style="fill:#ffffff;opacity:0.1" d="M 3.4004,2 C 2.6248,2 2,2.6248 2,3.4004 v 1 C 2,3.6248 2.6248,3 3.4004,3 h 25.2 c 0.775,0 1.4,0.6248 1.4,1.4004 v -1 C 30.0004,2.6248 29.3754,2 28.6004,2 Z"/>
 <path style="opacity:0.2" d="M 13,15 V 21 C 13,22.157 13.355,26 17,26 19.959,26 21,24.882 21,24.882 L 20,21.787 C 20,21.787 17,22.765 17,20.5 V 15 H 20 V 12 H 17 V 8 H 14 C 14,8 14.022,8.9028 13,10.281 11.978,11.66 11,12 11,12 V 15 Z"/>
 <path style="fill:#ffffff" d="M 13,14 V 20 C 13,21.157 13.355,25 17,25 19.959,25 21,23.882 21,23.882 L 20,20.787 C 20,20.787 17,21.765 17,19.5 V 14 H 20 V 11 H 17 V 7 H 14 C 14,7 14.022,7.9028 13,9.281 11.978,10.66 11,11 11,11 V 14 Z"/>
</svg>
