<svg xmlns="http://www.w3.org/2000/svg" width="32" height="32" version="1.1"><defs>
<linearGradient id="ucPurpleBlue" x1="0%" y1="0%" x2="100%" y2="100%">
  <stop offset="0%" style="stop-color:#B794F4;stop-opacity:1"/>
  <stop offset="100%" style="stop-color:#4299E1;stop-opacity:1"/>
</linearGradient>
</defs>
 <rect style="opacity:0.2" width="28" height="28" x="2" y="3" rx="2.1" ry="2.1"/>
 <rect style="fill:#ffc107" width="28" height="28" x="2" y="2" rx="2.1" ry="2.1"/>
 <path style="opacity:0.1" d="M 8.8500001,9 H 14.9 L 17.1,12.333333 19.85,9 H 27 l -7.15,8 4.4,8 h -6.6 L 15.449999,21.8 12.7,25 H 5 l 7.7,-8.533333 z"/>
 <path style="fill:#3e3e3e" d="M 8.8500001,8 H 14.9 L 17.1,11.333333 19.85,8 H 27 l -7.15,8 4.4,8 h -6.6 L 15.449999,20.8 12.7,24 H 5 l 7.7,-8.533333 z"/>
 <path style="fill:#ffffff;opacity:0.2" d="M 4.0996094 2 C 2.9362094 2 2 2.9362094 2 4.0996094 L 2 5.0996094 C 2 3.9362094 2.9362094 3 4.0996094 3 L 27.900391 3 C 29.063791 3 30 3.9362094 30 5.0996094 L 30 4.0996094 C 30 2.9362094 29.063791 2 27.900391 2 L 4.0996094 2 z"/>
</svg>
