<svg width="32" height="32" version="1.1" xmlns="http://www.w3.org/2000/svg"><defs>
<linearGradient id="ucPurpleBlue" x1="0%" y1="0%" x2="100%" y2="100%">
  <stop offset="0%" style="stop-color:#B794F4;stop-opacity:1"/>
  <stop offset="100%" style="stop-color:#4299E1;stop-opacity:1"/>
</linearGradient>
</defs>
 <circle cx="17" cy="18" r="13" style="opacity:.2"/>
 <circle cx="17" cy="17" r="13" style="fill:#2b6beb"/>
 <path d="M 17 4 A 13 13 0 0 0 4 17 A 13 13 0 0 0 4.0214844 17.580078 A 13 13 0 0 1 17 5 A 13 13 0 0 1 29.978516 17.419922 A 13 13 0 0 0 30 17 A 13 13 0 0 0 17 4 z " style="fill:#ffffff;opacity:.2"/>
 <path d="m2 7 12-4 7 7-3.25 1.75 5.25 5.25-3 2 10 12-19-10 3-2-8-5 3-2z" style="opacity:.2"/>
 <path d="m2 6 12-4 7 7-3.25 1.75 5.25 5.25-3 2 10 12-19-10 3-2-8-5 3-2z" style="fill:#ffffff"/>
</svg>
