<svg width="32" height="32" version="1.1" xmlns="http://www.w3.org/2000/svg"><defs>
<linearGradient id="ucPurpleBlue" x1="0%" y1="0%" x2="100%" y2="100%">
  <stop offset="0%" style="stop-color:#B794F4;stop-opacity:1"/>
  <stop offset="100%" style="stop-color:#4299E1;stop-opacity:1"/>
</linearGradient>
</defs>
 <circle cx="16" cy="17" r="14" style="opacity:.2"/>
 <circle cx="16" cy="16" r="14" style="fill:#a71416"/>
 <path d="m15.8 13.5h6.3s1.4 1.4 1.4 3.85-1.4 3.15-1.4 3.15h-4.6v-3.5" style="fill:none;opacity:.2;stroke-linejoin:round;stroke-width:3;stroke:#000000"/>
 <path d="m15.8 12.5h6.3s1.4 1.4 1.4 3.85-1.4 3.15-1.4 3.15h-4.6v-3.5" style="fill:none;stroke-linejoin:round;stroke-width:3;stroke:#9e9e9e"/>
 <path d="m7 13.5h8.499788l-7 7h8.500212" style="fill:none;opacity:.2;stroke-linejoin:round;stroke-width:3;stroke:#000000"/>
 <path d="m7 12.5h8.499788l-7 7h8.500212" style="fill:none;stroke-linejoin:round;stroke-width:3;stroke:#fefefe"/>
 <path d="M 16,2 A 14,14 0 0 0 2,16 14,14 0 0 0 2.0214844,16.585938 14,14 0 0 1 16,3 14,14 0 0 1 29.978516,16.414062 14,14 0 0 0 30,16 14,14 0 0 0 16,2 Z" style="fill:#ffffff;opacity:.1"/>
</svg>
