<svg xmlns="http://www.w3.org/2000/svg" width="22" height="22" version="1.1"><defs>
<linearGradient id="ucPurpleBlue" x1="0%" y1="0%" x2="100%" y2="100%">
  <stop offset="0%" style="stop-color:#B794F4;stop-opacity:1"/>
  <stop offset="100%" style="stop-color:#4299E1;stop-opacity:1"/>
</linearGradient>
</defs>
 <g transform="translate(-1,-1)">
  <circle style="fill:#e53935" cx="12" cy="12" r="10"/>
  <path style="fill:#ffffff" d="M 12,5 A 7,7 0 0 0 5,12 7,7 0 0 0 12,19 7,7 0 0 0 19,12 7,7 0 0 0 12,5 Z M 12,6 A 6,6 0 0 1 18,12 6,6 0 0 1 12,18 6,6 0 0 1 6,12 6,6 0 0 1 12,6 Z"/>
  <path style="fill:none;stroke:#ffffff" d="M 5.5,13.5 13.5,12.5 18,9.5"/>
  <path style="fill:none;stroke:#ffffff" d="M 16.5,16.5 13.5,12.5"/>
  <circle style="fill:#ffffff" cx="16.5" cy="16.5" r="1.5"/>
  <circle style="fill:#ffffff" cx="18" cy="9.5" r="1.5"/>
  <circle style="fill:#ffffff" cx="13.5" cy="12.5" r="1.5"/>
  <circle style="fill:#ffffff" cx="5.5" cy="13.5" r="1.5"/>
 </g>
</svg>
