<svg xmlns="http://www.w3.org/2000/svg" width="22" height="22" version="1"><defs>
<linearGradient id="ucPurpleBlue" x1="0%" y1="0%" x2="100%" y2="100%">
  <stop offset="0%" style="stop-color:#B794F4;stop-opacity:1"/>
  <stop offset="100%" style="stop-color:#4299E1;stop-opacity:1"/>
</linearGradient>
</defs>
 <g transform="translate(-1,-1)">
  <path style="fill:#4caf50" d="M 10,2 C 8.892,2 8,2.892 8,4 V 6 H 4 C 2.892,6 2,6.892 2,8 V 12 H 4 C 5.108,12 6,12.892 6,14 6,15.108 5.108,16 4,16 H 2 V 20 C 2,21.108 2.892,22 4,22 H 8 V 20 C 8,18.892 8.892,18 10,18 11.108,18 12,18.892 12,20 V 22 H 16 C 17.108,22 18,21.108 18,20 V 16 H 20 C 21.108,16 22,15.108 22,14 22,12.892 21.108,12 20,12 H 18 V 8 C 18,6.892 17.108,6 16,6 H 12 V 4 C 12,2.892 11.108,2 10,2 Z"/>
 </g>
</svg>
