<svg xmlns="http://www.w3.org/2000/svg" width="16" height="16" version="1.1"><defs>
<linearGradient id="ucPurpleBlue" x1="0%" y1="0%" x2="100%" y2="100%">
  <stop offset="0%" style="stop-color:#B794F4;stop-opacity:1"/>
  <stop offset="100%" style="stop-color:#4299E1;stop-opacity:1"/>
</linearGradient>
</defs>
 <path style="fill:#444444" d="M 3 0 C 1.338 0 0 1.338 0 3 L 0 13 C 0 14.662 1.338 16 3 16 L 13 16 C 14.662 16 16 14.662 16 13 L 16 3 C 16 1.338 14.662 0 13 0 L 3 0 z M 3 2 L 13 2 C 13.588594 2 14 2.4114055 14 3 L 14 12 L 2 12 L 2 3 C 2 2.4114055 2.4114055 2 3 2 z M 3 13 L 5 13 L 5 15 L 3 15 L 3 13 z M 7 13 L 9 13 L 9 15 L 7 15 L 7 13 z M 11 13 L 13 13 L 13 15 L 11 15 L 11 13 z"/>
</svg>
