<svg xmlns="http://www.w3.org/2000/svg" width="16" height="16" version="1.1"><defs>
<linearGradient id="ucPurpleBlue" x1="0%" y1="0%" x2="100%" y2="100%">
  <stop offset="0%" style="stop-color:#B794F4;stop-opacity:1"/>
  <stop offset="100%" style="stop-color:#4299E1;stop-opacity:1"/>
</linearGradient>
</defs>
 <path fill="url(#ucPurpleBlue)" d="m8 0a8 8 0 0 0 -8 8 8 8 0 0 0 8 8 8 8 0 0 0 8 -8 8 8 0 0 0 -8 -8z"/>
 <path fill="url(#ucPurpleBlue)" d="m7 2.0859a6 6 0 0 0 -4.9102 4.9141h4.9102v-4.9141zm2 0.0039v4.9102h4.914a6 6 0 0 0 -4.914 -4.9102zm-6.9141 6.9102a6 6 0 0 0 4.9141 4.91v-4.91h-4.9141zm6.9141 0v4.914a6 6 0 0 0 4.91 -4.914h-4.91z"/>
</svg>
