<svg xmlns="http://www.w3.org/2000/svg" width="16" height="16" version="1"><defs>
<linearGradient id="ucPurpleBlue" x1="0%" y1="0%" x2="100%" y2="100%">
  <stop offset="0%" style="stop-color:#B794F4;stop-opacity:1"/>
  <stop offset="100%" style="stop-color:#4299E1;stop-opacity:1"/>
</linearGradient>
</defs>
 <rect fill="url(#ucPurpleBlue)" width="16" height="16" x="0" y="0" rx="8" ry="8"/>
 <path fill="url(#ucPurpleBlue)" d="m4 5v1h1v5h0.9998v-6h-0.7498z"/>
 <path fill="url(#ucPurpleBlue)" d="m11 5a3 3 0 0 0 -3 3 3 3 0 0 0 3 3h4.416c0.13-0.323 0.236-0.657 0.324-1h-4.74a2 2 0 0 1 -2 -2 2 2 0 0 1 2 -2 2 2 0 0 1 1.729 1h1.095a3 3 0 0 0 -2.824 -2z"/>
</svg>
