<svg width="16" height="16" version="1.1" xmlns="http://www.w3.org/2000/svg"><defs>
<linearGradient id="ucPurpleBlue" x1="0%" y1="0%" x2="100%" y2="100%">
  <stop offset="0%" style="stop-color:#B794F4;stop-opacity:1"/>
  <stop offset="100%" style="stop-color:#4299E1;stop-opacity:1"/>
</linearGradient>
</defs>
 <circle cx="8" cy="8" r="8" style="fill:#4fc8f3"/>
 <path d="m8 0a8 8 0 0 0-1 0.072265625v1.9277344c0 0.554 0.446 1 1 1s1-0.446 1-1v-1.9296875a8 8 0 0 0-1-0.0703125zm-3 0.58789062a8 8 0 0 0-0.953125 0.46874998c-0.021984 0.1470517-0.0464641 0.2936226-0.046875 0.4433594 0 1.9329966 1.790861 3.5 4 3.5s4-1.5670034 4-3.5c-3.21e-4 -0.151814-0.024383-0.3001673-0.046875-0.4492188a8 8 0 0 0-0.953125-0.46093745v1.4101562c0 1-1 2-3 2s-3-1-3-2v-1.4121094z" style="fill:#ffffff"/>
 <rect x="5" y="6" width="1" height="4" rx=".5" ry=".5" style="fill:#ffffff"/>
 <rect x="10" y="6" width="1" height="4" rx=".5" ry=".5" style="fill:#ffffff"/>
 <path d="m5.4957627 12.504187 5.0042373-0.004237c0-1-1-1-1-1" style="fill:none;stroke-linecap:round;stroke-linejoin:round;stroke-width:1px;stroke:#ffffff"/>
 <rect x="2" y="10" width="3" height="1" rx=".5" ry=".5" style="fill:#f8bfd5"/>
 <rect x="11" y="10" width="3" height="1" rx=".5" ry=".5" style="fill:#f8bfd5"/>
</svg>
