<svg width="16" height="16" version="1.1" xmlns="http://www.w3.org/2000/svg"><defs>
<linearGradient id="ucPurpleBlue" x1="0%" y1="0%" x2="100%" y2="100%">
  <stop offset="0%" style="stop-color:#B794F4;stop-opacity:1"/>
  <stop offset="100%" style="stop-color:#4299E1;stop-opacity:1"/>
</linearGradient>
</defs>
 <path d="m1 16h3l4-8 4 8h3l-6-12h-2z" style="fill:#57b3c8"/>
 <path d="m3 0c-1.662 0-3 1.338-3 3v7c0 1.662 1.338 3 3 3h10c1.662 0 3-1.338 3-3v-7c0-1.662-1.338-3-3-3h-3v3h1c1.108 0 2 0.892 2 2v3c0 1.108-0.892 2-2 2h-6c-1.108 0-2-0.892-2-2v-3c0-1.108 0.892-2 2-2h1v-3z" style="fill:#69cbde"/>
</svg>
