<svg width="16" height="16" version="1.1" xmlns="http://www.w3.org/2000/svg"><defs>
<linearGradient id="ucPurpleBlue" x1="0%" y1="0%" x2="100%" y2="100%">
  <stop offset="0%" style="stop-color:#B794F4;stop-opacity:1"/>
  <stop offset="100%" style="stop-color:#4299E1;stop-opacity:1"/>
</linearGradient>
</defs>
 <rect x="-9.9999997e-5" y="-.0287" width="16" height="16" rx=".80000001" ry=".80000001" style="fill:#a34100"/>
 <path d="m3 4v6.970703h1.5v-1.970703h3v-1h-3v-3h3v-1z" style="fill:#ff7d25"/>
 <path d="M 10.542969,4 V 6 H 11 c 0.457627,0 2,0.3730469 2,2.3730469 C 13,10.373046 12,11 11,11 9,11 9,10.576172 9,10.576172 V 4 Z m -0.04297,3 v 3 c 0,0 1.5,0.219544 1.5,-1.390625 C 12,6.9992055 10.5,7 10.499999,7 Z" style="fill:#ff7d25"/>
</svg>
