<svg width="16" height="16" version="1.1" xmlns="http://www.w3.org/2000/svg"><defs>
<linearGradient id="ucPurpleBlue" x1="0%" y1="0%" x2="100%" y2="100%">
  <stop offset="0%" style="stop-color:#B794F4;stop-opacity:1"/>
  <stop offset="100%" style="stop-color:#4299E1;stop-opacity:1"/>
</linearGradient>
</defs>
 <rect x="-9.9999997e-5" y="-.0287" width="16" height="16" rx=".80000001" ry=".80000001" style="fill:#2e298a"/>
 <path d="m3 3v10h10v-1h-1v-1h-1v-1h-1v-1h-1v-1h-1v-1h-1v-1h-1v-1h-1v-1h-1v-1h-1zm2 1h1v-1h-1v1zm1 0v1h1v-1h-1zm1 1v1h1v-1h-1zm1 1v1h1v-1h-1zm1 0h1v-1h-1v1zm0 1v1h1v-1h-1zm1 1v1h1v-1h-1zm1 0h1v-1h-1v1zm1 0v1h1v-1h-1zm0 1h-1v1h1v-1zm0 1v1h1v-1h-1zm-1-5v1h1v-1h-1z" style="fill:#a2a5f5"/>
</svg>
