<svg width="16" height="16" version="1.1" xmlns="http://www.w3.org/2000/svg"><defs>
<linearGradient id="ucPurpleBlue" x1="0%" y1="0%" x2="100%" y2="100%">
  <stop offset="0%" style="stop-color:#B794F4;stop-opacity:1"/>
  <stop offset="100%" style="stop-color:#4299E1;stop-opacity:1"/>
</linearGradient>
</defs>
 <rect x="-9.9999997e-5" y="-.0287" width="16" height="16" rx=".80000001" ry=".80000001" style="fill:#a45024"/>
 <path d="m3 4v7h3s2 0 2-2c0-1-0.5-1.3985699-1-1.546875 0.5-0.1016949 1-0.453125 1-1.453125 0-2-2-2-2-2h-3zm1 1h2s1 0 1 1-1 1-1 1h-2v-2zm0 3h2s1 0 1 1-1 1-1 1h-2v-2z" style="fill:#fec32b"/>
 <path d="m9 5v6h2v-4c1-1 2-1 2-1v-1s-1 0-2 1v-1z" style="fill:#fec32b"/>
</svg>
