<svg width="16" height="16" version="1.1" xmlns="http://www.w3.org/2000/svg"><defs>
<linearGradient id="ucPurpleBlue" x1="0%" y1="0%" x2="100%" y2="100%">
  <stop offset="0%" style="stop-color:#B794F4;stop-opacity:1"/>
  <stop offset="100%" style="stop-color:#4299E1;stop-opacity:1"/>
</linearGradient>
</defs>
 <rect width="16" height="16" rx=".80000001" ry=".80000001" style="fill:#5f3271"/>
 <path d="m9 4v7h1v-3h1s1 0 1 1v2h1v-2s0-2-2-2c-0.421306 0-0.737497 0.03224-1 0.076172v-3.076172z" style="fill:#da97fb"/>
 <path d="m6.5 4a3.5 3.5 0 0 0-3.5 3.5 3.5 3.5 0 0 0 3.5 3.5 3.5 3.5 0 0 0 1.5-0.341797v-1.1601561a2.5 2.5 0 0 1-1.5 0.5019531 2.5 2.5 0 0 1-2.5-2.5 2.5 2.5 0 0 1 2.5-2.5 2.5 2.5 0 0 1 1.5 0.5039062v-1.1621093a3.5 3.5 0 0 0-1.5-0.3417969z" style="fill:#da97fb"/>
</svg>
