<svg xmlns="http://www.w3.org/2000/svg" height="16" width="16" version="1.1"><defs>
<linearGradient id="ucPurpleBlue" x1="0%" y1="0%" x2="100%" y2="100%">
  <stop offset="0%" style="stop-color:#B794F4;stop-opacity:1"/>
  <stop offset="100%" style="stop-color:#4299E1;stop-opacity:1"/>
</linearGradient>
</defs>
 <rect style="fill:#900d65" rx=".80000001" ry=".80000001" height="16" width="16" y="-.0287" x="-.000099999997"/>
 <path style="fill:#f3bfe1" d="m3.00012 11 1.49988-0.028587l1-2.9877483 1 2.9877483h1.5l-1.5-3.4857064 1.5-3.4857066h-1.5l-1 2.9877485-1-2.9877485h-1.5l1.5 3.4857066z"/>
 <path style="fill:#f3bfe1" d="m11.457031 4v2h-0.457031c-0.457627 0-2 0.3730469-2 2.3730469 0 1.9999991 1 2.6269531 2 2.6269531 2 0 2-0.423828 2-0.423828v-0.576172-4-2h-1.542969zm0.042969 3v3s-1.5 0.219544-1.5-1.390625c0-1.6101695 1.5-1.609375 1.5-1.609375z"/>
</svg>
