<svg xmlns="http://www.w3.org/2000/svg" width="16" height="16" version="1"><defs>
<linearGradient id="ucPurpleBlue" x1="0%" y1="0%" x2="100%" y2="100%">
  <stop offset="0%" style="stop-color:#B794F4;stop-opacity:1"/>
  <stop offset="100%" style="stop-color:#4299E1;stop-opacity:1"/>
</linearGradient>
</defs>
 <path style="fill:#89c025" d="M 16,15.25 V 1.75 C 16,1.3345 15.666,1 15.25,1 H 1.75 C 1.3345,1 1,1.3345 1,1.75 V 15.25 C 1,15.666 1.3345,16 1.75,16 H 15.25 C 15.666,16 16,15.666 16,15.25 Z"/>
 <path style="opacity:0.4" d="M 6,3 V 5 H 8 V 3 Z"/>
 <path style="opacity:0.4" d="M 3,3 V 5 H 5 V 3 Z"/>
 <path style="opacity:0.4" d="M 9,3 V 5 H 11 V 3 Z"/>
 <path style="opacity:0.4" d="M 12,3 V 5 H 14 V 3 Z"/>
 <path style="opacity:0.4" d="M 6,6 V 8 H 8 V 6 Z"/>
 <path style="opacity:0.4" d="M 3,6 V 8 H 5 V 6 Z"/>
 <path style="opacity:0.4" d="M 9,6 V 8 H 11 V 6 Z"/>
 <path style="opacity:0.4" d="M 12,6 V 8 H 14 V 6 Z"/>
 <path style="opacity:0.4" d="M 6,9 V 11 H 8 V 9 Z"/>
 <path style="opacity:0.4" d="M 3,9 V 11 H 5 V 9 Z"/>
 <path style="opacity:0.4" d="M 9,9 V 11 H 11 V 9 Z"/>
 <path style="opacity:0.4" d="M 12,9 V 11 H 14 V 9 Z"/>
 <path style="opacity:0.4" d="M 6,12 V 14 H 8 V 12 Z"/>
 <path style="opacity:0.4" d="M 3,12 V 14 H 5 V 12 Z"/>
 <path style="opacity:0.4" d="M 9,12 V 14 H 11 V 12 Z"/>
 <path style="opacity:0.4" d="M 12,12 V 14 H 14 V 12 Z"/>
</svg>
