<svg xmlns="http://www.w3.org/2000/svg" height="16" width="16" version="1.1"><defs>
<linearGradient id="ucPurpleBlue" x1="0%" y1="0%" x2="100%" y2="100%">
  <stop offset="0%" style="stop-color:#B794F4;stop-opacity:1"/>
  <stop offset="100%" style="stop-color:#4299E1;stop-opacity:1"/>
</linearGradient>
</defs>
 <rect style="fill:#5bc621" rx="1" ry="1" height="13" width="16" y="1" x="0"/>
 <path style="fill:#ffffff" d="m3 1v3h-3v1h3v2h-3v1h3v2h-3v1h3v3h1v-3h3v3h1v-3h4v3h1v-3h3v-1h-3v-2h3v-1h-3v-2h3v-1h-3v-3h-1v3h-4v-3h-1v3h-3v-3zm1 4h8v5h-8z"/>
</svg>
