<svg xmlns="http://www.w3.org/2000/svg" width="16" height="16" version="1.1"><defs>
<linearGradient id="ucPurpleBlue" x1="0%" y1="0%" x2="100%" y2="100%">
  <stop offset="0%" style="stop-color:#B794F4;stop-opacity:1"/>
  <stop offset="100%" style="stop-color:#4299E1;stop-opacity:1"/>
</linearGradient>
</defs>
 <g transform="translate(0 -1036.4)">
  <g transform="translate(0 1036.4)">
   <rect fill="url(#ucPurpleBlue)" width="16" height="16" x="0" y="0" rx="8" ry="8"/>
   <path fill="url(#ucPurpleBlue)" d="m11 2c-2.0074 0-2 2-2 2v3.3418a3.5 3.5 0 0 0 -1.5 -0.3418 3.5 3.5 0 0 0 -3.5 3.5 3.5 3.5 0 0 0 3.5 3.5 3.5 3.5 0 0 0 3.457 -2.986c0.005 0 0.043-0.014 0.043-0.014v-7h2s-0.006-1.9803-2-2z"/>
  </g>
 </g>
</svg>
