<svg width="16" height="16" version="1.1" xmlns="http://www.w3.org/2000/svg"><defs>
<linearGradient id="ucPurpleBlue" x1="0%" y1="0%" x2="100%" y2="100%">
  <stop offset="0%" style="stop-color:#B794F4;stop-opacity:1"/>
  <stop offset="100%" style="stop-color:#4299E1;stop-opacity:1"/>
</linearGradient>
</defs>
 <rect width="16" height="16" rx="1" ry="1" style="fill:#e4e4e4"/>
 <path d="m1 10v6h2v-6zm12 0v6h2v-6z" style="fill:#3ca2e4"/>
 <path d="m2 9a1 1 0 0 0-1 1 1 1 0 0 0 1 1 1 1 0 0 0 1-1 1 1 0 0 0-1-1zm12 0a1 1 0 0 0-1 1 1 1 0 0 0 1 1 1 1 0 0 0 1-1 1 1 0 0 0-1-1zm-14 3v1h16v-1z" style="fill:#4f4f4f"/>
</svg>
