<svg xmlns="http://www.w3.org/2000/svg" width="16" height="16" version="1"><defs>
<linearGradient id="ucPurpleBlue" x1="0%" y1="0%" x2="100%" y2="100%">
  <stop offset="0%" style="stop-color:#B794F4;stop-opacity:1"/>
  <stop offset="100%" style="stop-color:#4299E1;stop-opacity:1"/>
</linearGradient>
</defs>
 <rect style="fill:#5d5d5d" width="16" height="16" x="0" y="0" rx="4.8" ry="4.8"/>
 <path style="fill:#ffc71a" d="M 5.253658,8.0000001 4.132683,9.123047 3,8.0000001 4.131707,6.8671879 Z M 7.995122,5.2558589 9.9268292,7.1894533 11.058537,6.0566401 7.995122,3 4.931707,6.0664067 6.0634145,7.1992189 Z M 11.858537,6.8671879 10.736586,8.0000001 11.868293,9.132813 13,8.0000001 Z M 7.995122,10.744142 6.0634145,8.8007814 4.931707,9.933594 7.995122,13 11.058536,9.933594 9.9268292,8.8007814 Z m 0,-1.621095 L 9.1268293,7.9902346 7.995122,6.8671879 6.8634145,8.0000001 Z"/>
</svg>
