<svg xmlns="http://www.w3.org/2000/svg" width="16" height="16" version="1"><defs>
<linearGradient id="ucPurpleBlue" x1="0%" y1="0%" x2="100%" y2="100%">
  <stop offset="0%" style="stop-color:#B794F4;stop-opacity:1"/>
  <stop offset="100%" style="stop-color:#4299E1;stop-opacity:1"/>
</linearGradient>
</defs>
 <rect fill="url(#ucPurpleBlue)" width="16" height="16" x="0" y="0" rx=".857" ry=".857"/>
 <g transform="matrix(.5 0 0 .5 -.5 -.5)">
  <path fill="url(#ucPurpleBlue)" d="m10 8a2 2 0 0 0 -2 2 2 2 0 0 0 2 2 2 2 0 0 0 2 -2 2 2 0 0 0 -2 -2zm0 1a1 1 0 0 1 1 1 1 1 0 0 1 -1 1 1 1 0 0 1 -1 -1 1 1 0 0 1 1 -1z"/>
  <path fill="url(#ucPurpleBlue)" opacity=".4" d="m13 7v6h-6v1h6v4h-6v1h6v6h1v-6h4v6h1v-6h6v-1h-6v-4h6v-1h-6v-6h-1v6h-4v-6h-1zm1 7h4v4h-4v-4z"/>
  <path fill="url(#ucPurpleBlue)" d="m22 20a2 2 0 0 0 -2 2 2 2 0 0 0 2 2 2 2 0 0 0 2 -2 2 2 0 0 0 -2 -2zm0 1a1 1 0 0 1 1 1 1 1 0 0 1 -1 1 1 1 0 0 1 -1 -1 1 1 0 0 1 1 -1z"/>
  <path fill="url(#ucPurpleBlue)" d="m17.061 14.232-1.061 1.061-1.061-1.061-0.707 0.707 1.061 1.061-1.061 1.061 0.707 0.707 1.061-1.061 1.061 1.061 0.707-0.707-1.061-1.061 1.061-1.061-0.707-0.707z"/>
 </g>
</svg>
