<svg xmlns="http://www.w3.org/2000/svg" width="16" height="16" version="1"><defs>
<linearGradient id="ucPurpleBlue" x1="0%" y1="0%" x2="100%" y2="100%">
  <stop offset="0%" style="stop-color:#B794F4;stop-opacity:1"/>
  <stop offset="100%" style="stop-color:#4299E1;stop-opacity:1"/>
</linearGradient>
</defs>
 <path fill="url(#ucPurpleBlue)" d="m8.0001-2e-8c-2.7613 0-5.0001 2-5 5.2412-0.0001 1.7588 1.9999 4.7588 2.9999 6.7588h4c1-2 3-5 3-6.7587 0-3.2413-2.239-5.2412-5.0001-5.2412z"/>
 <path fill="url(#ucPurpleBlue)" d="m10 12-0.6668 3.2c-0.0821 0.432-0.2972 0.8-0.6663 0.8h-1.3334c-0.3693 0-0.5893-0.367-0.6667-0.8l-0.6668-3.2z"/>
 <path fill="url(#ucPurpleBlue)" fill-rule="evenodd" d="m8 2-2 4h2v4l2-4h-2z"/>
</svg>
