<svg width="16" height="16" version="1.1" xmlns="http://www.w3.org/2000/svg"><defs>
<linearGradient id="ucPurpleBlue" x1="0%" y1="0%" x2="100%" y2="100%">
  <stop offset="0%" style="stop-color:#B794F4;stop-opacity:1"/>
  <stop offset="100%" style="stop-color:#4299E1;stop-opacity:1"/>
</linearGradient>
</defs>
 <circle cx="8" cy="8" r="8" style="fill:#2577ff"/>
 <path d="m8 2a6 6 0 0 0-6 6 6 6 0 0 0 6 6 6 6 0 0 0 6-6 6 6 0 0 0-6-6zm0 2a4 4 0 0 1 3.869141 3h-2.140625a2 2 0 0 0-1.728516-1 2 2 0 0 0-2 2 2 2 0 0 0 2 2 2 2 0 0 0 1.730469-1h2.136719a4 4 0 0 1-3.867188 3 4 4 0 0 1-4-4 4 4 0 0 1 4-4z" style="fill:#ffffff"/>
</svg>
