<svg xmlns="http://www.w3.org/2000/svg" width="16" height="16" version="1"><defs>
<linearGradient id="ucPurpleBlue" x1="0%" y1="0%" x2="100%" y2="100%">
  <stop offset="0%" style="stop-color:#B794F4;stop-opacity:1"/>
  <stop offset="100%" style="stop-color:#4299E1;stop-opacity:1"/>
</linearGradient>
</defs>
 <rect style="fill:#752828" width="16" height="16" x="0" y="0" rx=".8" ry=".8"/>
 <path style="fill:none;stroke:#6c7f94;stroke-width:0.80000001" d="m 4.5,2 c 2.9267588,0 4.0732412,6 7,6"/>
 <path style="fill:#4c66cc;fill-rule:evenodd" d="M 3.016079,0.98168 3,1 2.0080395,1.9818025 3.016079,2.98168 h 1.9919605 v -2 z"/>
 <path style="fill:#4c66cc;fill-rule:evenodd" d="m 11,7 v 2 h 2.011362 L 14,8 13.011362,7 h -0.02272 z"/>
 <path style="fill:none;stroke:#6c7f94;stroke-width:0.80000001" d="m 4.5,8 c 2.9267588,0 4.0732412,6 7,6"/>
 <path style="fill:#4c66cc;fill-rule:evenodd" d="M 3.016079,6.98168 3,7 2.0080395,7.9818025 3.016079,8.98168 h 1.9919605 v -2 z"/>
 <path style="fill:#4c66cc;fill-rule:evenodd" d="m 11,13 v 2 h 2.011362 L 14,14 13.011362,13 h -0.02272 z"/>
</svg>
