<svg width="16" height="16" version="1.1" xmlns="http://www.w3.org/2000/svg"><defs>
<linearGradient id="ucPurpleBlue" x1="0%" y1="0%" x2="100%" y2="100%">
  <stop offset="0%" style="stop-color:#B794F4;stop-opacity:1"/>
  <stop offset="100%" style="stop-color:#4299E1;stop-opacity:1"/>
</linearGradient>
</defs>
 <path d="m2 11h11v3h-2v2h-7v-2h-2z" style="fill:#994c1f"/>
 <path d="m2 3h11v9h-2v2h-7v-2h-2z" style="fill:#b06332"/>
 <path d="m2 2v3h7v-3zm7 2v3h4v-3z" style="fill:#4f4f4f"/>
 <path d="m2 0v3h7v2h5v-2-3h-12z" style="fill:#ae1919"/>
 <rect x="2" y="7" width="11" height="2" style="fill:#93481e"/>
 <rect x="9" y="7" width="2" height="2" style="fill:#3f3f3f"/>
 <rect x="4" y="7" width="2" height="2" style="fill:#3f3f3f"/>
 <rect x="6" y="9" width="3" height="1" style="fill:#c77947"/>
 <rect x="5" y="12" width="5" height="1" style="fill:#703717"/>
 <rect x="9" width="5" height="5" style="fill:#862014"/>
</svg>
