<svg xmlns="http://www.w3.org/2000/svg" width="16" height="16" version="1.1"><defs>
<linearGradient id="ucPurpleBlue" x1="0%" y1="0%" x2="100%" y2="100%">
  <stop offset="0%" style="stop-color:#B794F4;stop-opacity:1"/>
  <stop offset="100%" style="stop-color:#4299E1;stop-opacity:1"/>
</linearGradient>
</defs>
 <g transform="matrix(0.4,0,0,0.4,-1.6,-1.6)">
  <path style="fill:#e4e4e4" d="M 24,4 A 20,20 0 0 0 4,24 20,20 0 0 0 24,44 20,20 0 0 0 44,24 20,20 0 0 0 24,4 Z"/>
  <path style="fill:none;stroke:#454545;stroke-width:5" d="M 34,30 24,36 14,30 V 18 l 10,-6 10,6"/>
  <path style="fill:none;stroke:#8644dc;stroke-width:2.5" d="M 28.5,26 24,29 20.25,26.5 V 21 l 3.75,-2 4.5,2.5"/>
 </g>
</svg>
