<svg xmlns="http://www.w3.org/2000/svg" width="16" height="16" version="1.1"><defs>
<linearGradient id="ucPurpleBlue" x1="0%" y1="0%" x2="100%" y2="100%">
  <stop offset="0%" style="stop-color:#B794F4;stop-opacity:1"/>
  <stop offset="100%" style="stop-color:#4299E1;stop-opacity:1"/>
</linearGradient>
</defs>
 <circle style="fill:#cfff0d" cx="8" cy="8" r="8"/>
 <path style="fill:#162d50" d="m6 3-1 2h-4.4101562a8 8 0 0 0-0.58984375 3 8 8 0 0 0 0.25976562 2h6.7402344l1 2 1-2h6.734375a8 8 0 0 0 0.265625-2 8 8 0 0 0-0.587891-3h-4.412109l-1-2-1 2h-2l-1-2z"/>
 <path style="fill:#ffaaee" d="m6 7v2h1v-2zm3 0v2h1v-2z"/>
</svg>
