<svg xmlns="http://www.w3.org/2000/svg" width="16" height="16" version="1"><defs>
<linearGradient id="ucPurpleBlue" x1="0%" y1="0%" x2="100%" y2="100%">
  <stop offset="0%" style="stop-color:#B794F4;stop-opacity:1"/>
  <stop offset="100%" style="stop-color:#4299E1;stop-opacity:1"/>
</linearGradient>
</defs>
 <rect style="fill:#cfcfcf" width="16" height="12" x="0" y="2" rx=".8" ry=".8"/>
 <rect style="fill:#898989" width="2" height="2" x="13" y="4" rx=".5" ry=".5"/>
 <rect style="fill:#898989" width="12" height="2" x="2" y="10" rx=".5" ry=".5"/>
 <rect style="fill:#898989" width="2" height="2" x="1" y="4" rx=".5" ry=".5"/>
 <rect style="fill:#898989" width="2" height="2" x="4" y="4" rx=".5" ry=".5"/>
 <rect style="fill:#898989" width="2" height="2" x="7" y="4" rx=".5" ry=".5"/>
 <rect style="fill:#898989" width="2" height="2" x="10" y="4" rx=".5" ry=".5"/>
 <rect style="fill:#898989" width="2" height="2" x="3" y="7" rx=".5" ry=".5"/>
 <rect style="fill:#898989" width="2" height="2" x="6" y="7" rx=".5" ry=".5"/>
 <rect style="fill:#898989" width="2" height="2" x="9" y="7" rx=".5" ry=".5"/>
 <rect style="fill:#898989" width="2" height="2" x="12" y="7" rx=".5" ry=".5"/>
</svg>
