<svg width="16" height="16" version="1.1" xmlns="http://www.w3.org/2000/svg"><defs>
<linearGradient id="ucPurpleBlue" x1="0%" y1="0%" x2="100%" y2="100%">
  <stop offset="0%" style="stop-color:#B794F4;stop-opacity:1"/>
  <stop offset="100%" style="stop-color:#4299E1;stop-opacity:1"/>
</linearGradient>
</defs>
 <rect width="16" height="16" rx=".80000001" ry=".80000001" style="fill:#752828"/>
 <path d="m8 9a6 2.5 0 0 0-6 2.5 6 2.5 0 0 0 6 2.5 6 2.5 0 0 0 6-2.5 6 2.5 0 0 0-6-2.5zm0 1a5 1.5 0 0 1 5 1.5 5 1.5 0 0 1-5 1.5 5 1.5 0 0 1-5-1.5 5 1.5 0 0 1 5-1.5z" style="fill:#6c7f94"/>
 <rect x="9" y="2" width="1" height="8" rx=".5" ry=".49152541" style="fill:#4c66cc"/>
 <ellipse cx="7.8135595" cy="9.4237289" rx="2.1525424" ry="1.4576272" style="fill:#4c66cc"/>
</svg>
