<svg xmlns="http://www.w3.org/2000/svg" width="16" height="16" version="1"><defs>
<linearGradient id="ucPurpleBlue" x1="0%" y1="0%" x2="100%" y2="100%">
  <stop offset="0%" style="stop-color:#B794F4;stop-opacity:1"/>
  <stop offset="100%" style="stop-color:#4299E1;stop-opacity:1"/>
</linearGradient>
</defs>
 <g transform="translate(0,1)">
  <path style="fill:#4f4f4f" d="M 5,3.0634391 V 9.051 C 4.8355,9.017 4.6679,9 4.5,9 3.1193,9 2,10.119 2,11.5 2,12.881 3.1193,14 4.5,14 5.8807,14 7,12.881 7,11.5 V 3.9998 L 12,2.8734194 V 8.0508 C 11.835,8.0171 11.668,8.0001 11.5,8 10.119,8 9,9.1193 9,10.5 9,11.881 10.119,13 11.5,13 12.881,13 14,11.881 14,10.5 V 0.93371962 c 0,0 -0.04401,-1.05051874 -1.139111,-0.80713903 L 6.0201081,1.7732866 C 4.9316559,1.9162246 5,3 5,3.0634391 Z"/>
 </g>
</svg>
