<svg xmlns="http://www.w3.org/2000/svg" width="16" height="16" version="1"><defs>
<linearGradient id="ucPurpleBlue" x1="0%" y1="0%" x2="100%" y2="100%">
  <stop offset="0%" style="stop-color:#B794F4;stop-opacity:1"/>
  <stop offset="100%" style="stop-color:#4299E1;stop-opacity:1"/>
</linearGradient>
</defs>
 <path style="fill:#e4e4e4" d="m 3.2,0 h 9.6 C 13.462696,0 14,0.54068392 14,1.2075472 V 14.792453 C 14,15.459316 13.462696,16 12.8,16 H 3.2 C 2.5373048,16 2.0000001,15.459316 2.0000001,14.792453 V 1.2075472 C 2.0000001,0.54068392 2.5373048,0 3.2,0 Z m 0,0"/>
 <rect style="fill:#4bae4f" width="7" height="2" x="3" y="13" rx=".5"/>
 <rect style="fill:#df574d" width="2" height="8" x="11" y="7" rx=".5"/>
 <rect style="fill:#f5f5f5" width="3" height="2" x="3" y="10" rx=".5"/>
 <rect style="fill:#f5f5f5" width="3" height="2" x="3" y="7" rx=".5"/>
 <rect style="fill:#f5f5f5" width="3" height="2" x="7" y="7" rx=".5"/>
 <rect style="fill:#f5f5f5" width="3" height="2" x="7" y="10" rx=".5"/>
 <rect style="fill:#f5f5f5" width="10" height="5" x="3" y="1" rx=".5"/>
</svg>
