<svg xmlns="http://www.w3.org/2000/svg" width="16" height="16" version="1.1"><defs>
<linearGradient id="ucPurpleBlue" x1="0%" y1="0%" x2="100%" y2="100%">
  <stop offset="0%" style="stop-color:#B794F4;stop-opacity:1"/>
  <stop offset="100%" style="stop-color:#4299E1;stop-opacity:1"/>
</linearGradient>
</defs>
 <rect style="fill:#80deea" width="16" height="16" x="0" y="0" rx="2" ry="2"/>
 <rect style="fill:#4dd0e1" width="14" height="14" x="1" y="1" rx="1.5" ry="1.5"/>
 <rect style="fill:#26c6da" width="12" height="12" x="2" y="2" rx="1.286" ry="1.286"/>
 <rect style="fill:#00acc1" width="2" height="2" x="5" y="3"/>
 <rect style="fill:#26c6da" width="2" height="2" x="9" y="3"/>
 <rect style="fill:#00acc1" width="2" height="2" x="7" y="5"/>
 <rect style="fill:#00bcd4" width="2" height="2" x="5" y="7"/>
 <rect style="fill:#84ffff" width="2" height="2" x="9" y="7"/>
 <rect style="fill:#00b8d4" width="2" height="2" x="7" y="9"/>
 <rect style="fill:#00bcd4" width="2" height="2" x="5" y="11"/>
 <rect style="fill:#00838f" width="2" height="2" x="9" y="11"/>
 <rect style="fill:#00bcd4" width="2" height="2" x="3" y="3"/>
 <rect style="fill:#00acc1" width="2" height="2" x="3" y="5"/>
 <rect style="fill:#0097a7" width="2" height="2" x="7" y="3"/>
 <rect style="fill:#00838f" width="2" height="2" x="11" y="3"/>
 <rect style="fill:#00acc1" width="2" height="2" x="11" y="5"/>
 <rect style="fill:#00e5ff" width="2" height="2" x="9" y="5"/>
 <rect style="fill:#0097a7" width="2" height="2" x="5" y="5"/>
 <rect style="fill:#00838f" width="2" height="2" x="3" y="7"/>
 <rect style="fill:#00838f" width="2" height="2" x="7" y="7"/>
 <rect style="fill:#00b8d4" width="2" height="2" x="11" y="7"/>
 <rect style="fill:#00acc1" width="2" height="2" x="11" y="11"/>
 <rect style="fill:#00e5ff" width="2" height="2" x="7" y="11"/>
 <rect style="fill:#00acc1" width="2" height="2" x="3" y="11"/>
 <rect style="fill:#00bcd4" width="2" height="2" x="3" y="9"/>
 <rect style="fill:#00838f" width="2" height="2" x="5" y="9"/>
 <rect style="fill:#0097a7" width="2" height="2" x="9" y="9"/>
 <rect style="fill:#84ffff" width="2" height="2" x="11" y="9"/>
</svg>
