<svg xmlns="http://www.w3.org/2000/svg" width="16" height="16" version="1.1"><defs>
<linearGradient id="ucPurpleBlue" x1="0%" y1="0%" x2="100%" y2="100%">
  <stop offset="0%" style="stop-color:#B794F4;stop-opacity:1"/>
  <stop offset="100%" style="stop-color:#4299E1;stop-opacity:1"/>
</linearGradient>
</defs>
 <g transform="translate(0,-1036.3622)">
  <path style="fill:#86603b" d="m 16,1047.6122 0,-10.5 c 0,-0.4155 -0.3568,-0.75 -0.8,-0.75 l -14.4,0 c -0.4432,0 -0.8,0.3345 -0.8,0.75 l 0,10.5 c 0,0.4155 0.3568,0.75 0.8,0.75 l 14.4,0 c 0.4432,0 0.8,-0.3345 0.8,-0.75 z"/>
  <path style="fill:#c28a52" d="m 16,1049.6122 0,-10.5 c 0,-0.4155 -0.3568,-0.75 -0.8,-0.75 l -14.4,0 c -0.4432,0 -0.8,0.3345 -0.8,0.75 l 0,10.5 c 0,0.4155 0.3568,0.75 0.8,0.75 l 14.4,0 c 0.4432,0 0.8,-0.3345 0.8,-0.75 z"/>
  <path style="fill:#fabd7f" d="m 16,1051.6122 0,-10.5 c 0,-0.4155 -0.3568,-0.75 -0.8,-0.75 l -14.4,0 c -0.4432,0 -0.8,0.3345 -0.8,0.75 l 0,10.5 c 0,0.4155 0.3568,0.75 0.8,0.75 l 14.4,0 c 0.4432,0 0.8,-0.3345 0.8,-0.75 z"/>
 </g>
</svg>
