<svg xmlns="http://www.w3.org/2000/svg" width="16" height="16" version="1"><defs>
<linearGradient id="ucPurpleBlue" x1="0%" y1="0%" x2="100%" y2="100%">
  <stop offset="0%" style="stop-color:#B794F4;stop-opacity:1"/>
  <stop offset="100%" style="stop-color:#4299E1;stop-opacity:1"/>
</linearGradient>
</defs>
 <g transform="matrix(.57142 0 0 .57140 -1.1443 -1.1421)">
  <rect fill="url(#ucPurpleBlue)" width="28" height="28" x="-30" y="-30" rx="14" ry="14" transform="matrix(0,-1,-1,0,0,0)"/>
  <path opacity=".1" d="m25.893 6.1095-19.781 19.78c5.4793 5.4793 14.302 5.4793 19.781 0 5.4793-5.4793 5.4793-14.302 0-19.781z"/>
  <path fill="url(#ucPurpleBlue)" d="m6.1121 25.89 8.6542-11.127 1.1711 1.1711 1.3015 1.3015z"/>
  <path fill="#fff" opacity=".2" d="m25.893 6.1095-19.781 19.78c-5.4793-5.4793-5.4793-14.302 0-19.781 5.4793-5.4793 14.302-5.4793 19.781 0z"/>
  <path fill="url(#ucPurpleBlue)" d="m25.893 6.1095-11.127 8.6542 2.4726 2.4726z"/>
 </g>
</svg>
