<svg xmlns="http://www.w3.org/2000/svg" width="16" height="16" version="1"><defs>
<linearGradient id="ucPurpleBlue" x1="0%" y1="0%" x2="100%" y2="100%">
  <stop offset="0%" style="stop-color:#B794F4;stop-opacity:1"/>
  <stop offset="100%" style="stop-color:#4299E1;stop-opacity:1"/>
</linearGradient>
</defs>
 <rect style="fill:#539cc8" width="16" height="14" x="-16" y="-15" rx=".857" ry=".75" transform="matrix(0,-1,-1,0,0,0)"/>
 <path style="fill:#4f4f4f" d="m 11.68,5.000225 4.32,0 L 16,11 11.68,11 C 10.7488,11 10,10.553767 10,10.000287 L 10,6.0004625 C 10,5.4462333 10.7488,5 11.68,5 Z"/>
 <path fill="#fff" d="m14 8.0002a1 1 0 0 1 -1 1 1 1 0 0 1 -1 -1 1 1 0 0 1 1 -1 1 1 0 0 1 1 1z"/>
</svg>
