<svg width="16" height="16" version="1.1" xmlns="http://www.w3.org/2000/svg"><defs>
<linearGradient id="ucPurpleBlue" x1="0%" y1="0%" x2="100%" y2="100%">
  <stop offset="0%" style="stop-color:#B794F4;stop-opacity:1"/>
  <stop offset="100%" style="stop-color:#4299E1;stop-opacity:1"/>
</linearGradient>
</defs>
 <circle cx="8" cy="8" r="8" style="fill:#f93157"/>
 <path d="m8.4921875 2.9921875c-0.276145 0.0043087-0.4965084 0.2316677-0.4921875 0.5078125v5.5c-2 0-3 1-3 2s1 2 2 2c1.985379 0 1.9998939-1.971758 2-3.957031v-0.0078c4.121e-4 -0.011728 4.121e-4 -0.023454 0-0.035169v-3s1.539919 1.0007792 1.5 2c-0.03995 1-0.5 2-0.5 2s1-0.9459074 1-2c0-1-0.64077-1.9611546-1-2.5-0.477936-0.615064-0.7720137-1.2618578-1-1.984375 0.0044168-0.2822664-0.2255461-0.5278543-0.5078125-0.5234375z" style="fill:#ffffff"/>
</svg>
