<svg xmlns="http://www.w3.org/2000/svg" width="16" height="16" version="1"><defs>
<linearGradient id="ucPurpleBlue" x1="0%" y1="0%" x2="100%" y2="100%">
  <stop offset="0%" style="stop-color:#B794F4;stop-opacity:1"/>
  <stop offset="100%" style="stop-color:#4299E1;stop-opacity:1"/>
</linearGradient>
</defs>
 <rect style="fill:#e4e4e4" width="13.719" height="13.719" x="4.45" y="-6.86" rx="4.116" ry="4.116" transform="rotate(45)"/>
 <path style="fill:#3068c1" d="M 3.7142856,4.9999999 A 1.7142856,2.9999999 0 0 0 2,7.9999997 1.7142856,2.9999999 0 0 0 3.7142856,11 H 12.285715 A 1.7142856,2.9999999 0 0 0 14,7.9999997 1.7142856,2.9999999 0 0 0 12.285715,4.9999999 Z"/>
 <path style="opacity:0.2;fill:#ffffff" d="M 3.7148438 5 A 1.7142856 2.9999999 0 0 0 2 8 L 4 8 L 4 5 L 3.7148438 5 z M 6 5 L 6 8 L 8 8 L 8 5 L 6 5 z M 10 5 L 10 8 L 12 8 L 12 5 L 10 5 z"/>
 <path style="opacity:0.2" d="M 4 5 L 4 8 L 6 8 L 6 5 L 4 5 z M 8 5 L 8 8 L 10 8 L 10 5 L 8 5 z M 12 5 L 12 8 L 14 8 A 1.7142856 2.9999999 0 0 0 12.285156 5 L 12 5 z"/>
 <circle style="fill:#ffa802" cx="3.5" cy="8.5" r="2.5"/>
 <circle style="fill:#ffd264" cx="3.5" cy="8.5" r="1.5"/>
 <circle style="fill:#ffe6bc" cx="3.5" cy="8.5" r=".5"/>
</svg>
