<svg xmlns="http://www.w3.org/2000/svg" width="16" height="16" version="1"><defs>
<linearGradient id="ucPurpleBlue" x1="0%" y1="0%" x2="100%" y2="100%">
  <stop offset="0%" style="stop-color:#B794F4;stop-opacity:1"/>
  <stop offset="100%" style="stop-color:#4299E1;stop-opacity:1"/>
</linearGradient>
</defs>
 <rect style="fill:#c2352a" width="3" height="12" x="13" y="2" rx=".5" ry=".429"/>
 <rect style="fill:#c2352a" width="3" height="12" x="7" y="2" rx=".5" ry=".429"/>
 <rect style="fill:#c2352a" width="3" height="12" x="0" y="2" rx=".5" ry=".429"/>
 <rect style="fill:#d8564d" width="3" height="6" x="2" y="-6" rx=".5" ry=".429" transform="matrix(0,1,-1,0,0,0)"/>
 <rect style="fill:#d8564d" width="3" height="6" x="11" y="-6" rx=".5" ry=".429" transform="matrix(0,1,-1,0,0,0)"/>
 <path style="fill:#d8564d" d="M 7.5858032,2 A 0.58598657,0.51584312 0 0 0 7.0784568,2.7736876 l 1.9576707,2.9839347 1.9569065,2.9839346 a 0.58598657,0.51584312 0 0 0 0.479882,0.2578956 0.58598657,0.51584312 0 0 0 0.534812,-0.2578956 L 13.964636,5.7576223 15.921543,2.7736876 A 0.58598657,0.51584312 0 0 0 15.414198,2 L 11.500382,2 7.5858032,2 Z"/>
</svg>
