<svg xmlns="http://www.w3.org/2000/svg" width="16" height="16" version="1.1"><defs>
<linearGradient id="ucPurpleBlue" x1="0%" y1="0%" x2="100%" y2="100%">
  <stop offset="0%" style="stop-color:#B794F4;stop-opacity:1"/>
  <stop offset="100%" style="stop-color:#4299E1;stop-opacity:1"/>
</linearGradient>
</defs>
 <rect style="fill:#4f4f4f" width="16" height="14" x="0" y="1" rx=".8" ry=".8"/>
 <path style="fill:#ffc105" d="M 2,2 V 3 H 4 V 2 Z M 4,3 V 4 H 5 V 3 Z M 2,3 H 1 V 7 H 2 Z M 2,7 V 8 H 4 V 7 Z M 4,7 H 5 V 6 H 4 Z M 6,2 V 8 H 7 V 6 H 9 V 5 H 7 V 3 H 9 V 2 Z M 9,3 V 5 H 10 V 3 Z M 9,6 V 8 H 10 V 6 Z M 11,2 V 3 H 12 V 8 H 13 V 3 H 14 V 2 H 13 12 Z M 1,9 V 14 H 5 V 9 Z"/>
</svg>
