<svg xmlns="http://www.w3.org/2000/svg" height="16" width="16" version="1.1"><defs>
<linearGradient id="ucPurpleBlue" x1="0%" y1="0%" x2="100%" y2="100%">
  <stop offset="0%" style="stop-color:#B794F4;stop-opacity:1"/>
  <stop offset="100%" style="stop-color:#4299E1;stop-opacity:1"/>
</linearGradient>
</defs>
 <circle cx="8" cy="8" r="8" style="fill:#e4e4e4"/>
 <circle cx="8" cy="8" r="5" style="fill:#ff3636"/>
 <path style="fill:#ffdb4c" d="m8 8l-2.5703125 4.283203a5 5 0 0 0 2.5703125 0.716797 5 5 0 0 0 2.570312 -0.716797l-2.570312-4.283203z"/>
 <path style="fill:#8bdb4c" d="m8 8l2.570312 4.283203a5 5 0 0 0 2.429688 -4.283203h-5z"/>
 <path style="fill:#476bd7" d="m10.570312 3.7167969l-2.570312 4.2832031h5a5 5 0 0 0 -2.429688 -4.2832031z"/>
 <path style="fill:#f1502f" d="m3 8a5 5 0 0 0 2.4296875 4.283203l2.5703125-4.283203h-5z"/>
 <path style="fill:#924ab4" d="m8 3a5 5 0 0 0 -2.5703125 0.7167969l2.5703125 4.2832031 2.570312-4.2832031a5 5 0 0 0 -2.570312 -0.7167969z"/>
 <circle r="3" style="fill:#4f4f4f" cx="8" cy="8"/>
 <circle r="1" style="fill:#ffffff" cx="7" cy="7"/>
</svg>
