<svg xmlns="http://www.w3.org/2000/svg" width="16" height="16" version="1"><defs>
<linearGradient id="ucPurpleBlue" x1="0%" y1="0%" x2="100%" y2="100%">
  <stop offset="0%" style="stop-color:#B794F4;stop-opacity:1"/>
  <stop offset="100%" style="stop-color:#4299E1;stop-opacity:1"/>
</linearGradient>
</defs>
 <path fill="url(#ucPurpleBlue)" d="M 0.8008,1 C 0.3576,1 0,1.0705 0,1.5137 V 11 H 15 V 1.5137 C 15,1.0705 14.642,1 14.199,1"/>
 <path fill="url(#ucPurpleBlue)" d="M 0.8,15 C 0.3568,15 0,14.643 0,14.2 V 11 H 15 V 14.2 C 15,14.643 14.643,15 14.2,15 Z"/>
 <rect style="fill:#ffffff" width="2" height="2" x="2" y="10" rx=".35" ry=".35"/>
 <rect style="fill:#ffffff" width="2" height="2" x="5" y="10" rx=".35" ry=".35"/>
 <rect style="fill:#ffffff" width="2" height="2" x="8" y="10" rx=".35" ry=".35"/>
 <rect style="fill:#ffffff" width="2" height="2" x="11" y="10" rx=".35" ry=".35"/>
</svg>
