<svg xmlns="http://www.w3.org/2000/svg" width="16" height="16" version="1.1"><defs>
<linearGradient id="ucPurpleBlue" x1="0%" y1="0%" x2="100%" y2="100%">
  <stop offset="0%" style="stop-color:#B794F4;stop-opacity:1"/>
  <stop offset="100%" style="stop-color:#4299E1;stop-opacity:1"/>
</linearGradient>
</defs>
 <path fill="url(#ucPurpleBlue)" d="m4e-8 2.512v11.666c0 0.43092 0.3568 0.77778 0.8 0.77778h14.4c0.4432 0 0.8-0.34686 0.8-0.77778v-11.666z"/>
 <path fill="url(#ucPurpleBlue)" d="m0.8 1c-0.4432 0-0.8 0.34686-0.8 0.77778l4e-8 1.2222h16v-1.2222c0-0.4309-0.357-0.7778-0.8-0.7778z"/>
 <path fill="url(#ucPurpleBlue)" d="m4 13c-0.554 0-1 0.446-1 1v1h10v-1c0-0.554-0.446-1-1-1h-8z"/>
</svg>
