<svg xmlns="http://www.w3.org/2000/svg" width="16" height="16" version="1"><defs>
<linearGradient id="ucPurpleBlue" x1="0%" y1="0%" x2="100%" y2="100%">
  <stop offset="0%" style="stop-color:#B794F4;stop-opacity:1"/>
  <stop offset="100%" style="stop-color:#4299E1;stop-opacity:1"/>
</linearGradient>
</defs>
 <path fill="url(#ucPurpleBlue)" d="m15 8a7 7 0 0 1 -7 7 7 7 0 0 1 -7 -7 7 7 0 0 1 7 -7 7 7 0 0 1 7 7z"/>
 <path fill="url(#ucPurpleBlue)" d="m9.6417 0.3428-1.9292 5.4143 7.5965-1.2603c-1.125-2.1303-3.198-3.6958-5.6673-4.154z"/>
 <path fill="url(#ucPurpleBlue)" d="m15.547 5.5731-5.7202 1.06 4.9052 5.8559c1.3087-2.0259 1.6474-4.5785 0.81513-6.9162z"/>
 <path fill="url(#ucPurpleBlue)" d="m13.905 13.23-3.791-4.3539-2.6915 7.1159c2.4339 0.105 4.8455-0.882 6.4825-2.762z"/>
 <path fill="url(#ucPurpleBlue)" d="m6.3581 15.657 1.9292-5.414-7.5962 1.261c1.1251 2.13 3.1979 3.695 5.6673 4.154z"/>
 <path fill="url(#ucPurpleBlue)" d="m0.4531 10.427 5.7204-1.0601-4.9052-5.8558c-1.3088 2.0257-1.6474 4.5783-0.8152 6.9159z"/>
 <path fill="url(#ucPurpleBlue)" d="m2.0946 2.7698 3.7915 4.3541 2.691-7.1162c-2.4338-0.1044-4.8453 0.88272-6.4824 2.7621z"/>
</svg>
