<svg xmlns="http://www.w3.org/2000/svg" width="16" height="16" version="1.1"><defs>
<linearGradient id="ucPurpleBlue" x1="0%" y1="0%" x2="100%" y2="100%">
  <stop offset="0%" style="stop-color:#B794F4;stop-opacity:1"/>
  <stop offset="100%" style="stop-color:#4299E1;stop-opacity:1"/>
</linearGradient>
</defs>
 <path style="fill:#1c75bc" d="m7.5 0a7.5 7.5 0 0 0 -7.5 7.5 7.5 7.5 0 0 0 7.5 7.5 7.5 7.5 0 0 0 7.5 -7.5 7.5 7.5 0 0 0 -7.5 -7.5z"/>
 <path style="fill:#ffffff" d="m4.7226135 5.000201-0.4306532 1h6.6770397l-1.238218 2.999799h-6.3001285l-0.4306535 1h6.200868c0.6906507-0.01252 1.400611-0.428434 1.671909-1.086975l1.084408-2.737226c0.255997-1.048208-0.689337-1.188172-1.420412-1.175598z"/>
 <path style="fill:#ffffff" d="m3.5217391 7-0.5217391 1h3.4782608l0.5217392-1z"/>
</svg>
