<svg xmlns="http://www.w3.org/2000/svg" width="16" height="16" version="1"><defs>
<linearGradient id="ucPurpleBlue" x1="0%" y1="0%" x2="100%" y2="100%">
  <stop offset="0%" style="stop-color:#B794F4;stop-opacity:1"/>
  <stop offset="100%" style="stop-color:#4299E1;stop-opacity:1"/>
</linearGradient>
</defs>
 <path fill="url(#ucPurpleBlue)" d="m15 15.2v-14.4c0-0.4432-0.39-0.8-0.875-0.8h-12.25c-0.4847 4e-8 -0.875 0.3568-0.875 0.8v14.4c0 0.4432 0.39025 0.8 0.875 0.8h12.25c0.485 0 0.875-0.357 0.875-0.8z"/>
 <path fill="none" stroke="#4f4f4f" d="m3 3.5h5.5143s3.9866 0.12845 3.9857 4.5c-0.000858 4.3716-3.9857 4.5-3.9857 4.5h-5.5143"/>
 <path fill="url(#ucPurpleBlue)" fill-rule="evenodd" d="m4 3.2v10.8h-1l1.5 2 1.5-2h-1v-10.8z"/>
</svg>
