<svg xmlns="http://www.w3.org/2000/svg" width="16" height="16" version="1"><defs>
<linearGradient id="ucPurpleBlue" x1="0%" y1="0%" x2="100%" y2="100%">
  <stop offset="0%" style="stop-color:#B794F4;stop-opacity:1"/>
  <stop offset="100%" style="stop-color:#4299E1;stop-opacity:1"/>
</linearGradient>
</defs>
 <g>
  <path fill="url(#ucPurpleBlue)" d="m3 0c-1 0-1 1.1429-1 1.1429v13.714s0 1.1429 1 1.1429h10s1 0 1-1.143v-13.714c0-0.0001 0-1.143-1-1.143z"/>
  <path opacity=".3" d="m8 3c-2.2091 0-4 1.7909-4 4v4h4c2.209 0 4-1.7909 4-4s-1.791-4-4-4zm0 2c1.1046 0 2 0.8954 2 2s-0.8954 2-2 2-2-0.8954-2-2 0.8954-2 2-2z"/>
 </g>
</svg>
