<svg xmlns="http://www.w3.org/2000/svg" width="16" height="16" version="1.1"><defs>
<linearGradient id="ucPurpleBlue" x1="0%" y1="0%" x2="100%" y2="100%">
  <stop offset="0%" style="stop-color:#B794F4;stop-opacity:1"/>
  <stop offset="100%" style="stop-color:#4299E1;stop-opacity:1"/>
</linearGradient>
</defs>
 <path style="fill:#1793d1" d="M 0,16 C 0,16 4.5,13 8,13 11.5,13 16,16 16,16 L 8,1.9999e-4 Z"/>
 <path style="fill:#ffffff" d="M 9.5879 3.1777 C 9.5879 3.1777 8 4 7 4 C 6 4 7 4 7 6 L 7 10 L 8 9 L 9.8008 3.6016 L 9.5879 3.1777 z M 7.5 11 A 1.5 1.5 0 0 0 6 12.5 A 1.5 1.5 0 0 0 6.1992 13.24 C 6.8104 13.102 7.4188 13 8 13 C 8.2902 13 8.5879 13.027 8.8887 13.064 A 1.5 1.5 0 0 0 9 12.5 A 1.5 1.5 0 0 0 7.5 11 z"/>
</svg>
