<svg xmlns="http://www.w3.org/2000/svg" height="16" width="16" version="1.1"><defs>
<linearGradient id="ucPurpleBlue" x1="0%" y1="0%" x2="100%" y2="100%">
  <stop offset="0%" style="stop-color:#B794F4;stop-opacity:1"/>
  <stop offset="100%" style="stop-color:#4299E1;stop-opacity:1"/>
</linearGradient>
</defs>
 <path style="fill:#606060" d="m0 15.9998s4.5-3 8-3 8 3 8 3l-8-15.9998z"/>
 <path style="fill:#ffffff" d="m8 5s-2 2-2 4c0 1.082714 0.5756283 2.422799 1.1132812 3.457031-0.0659094-0.387209-0.1132812-0.846851-0.1132812-1.457031 0-1 1-2 1-2s1 1 1 2c0 0.964048-0.1036189 1.606468-0.2441406 2.044922 0.045319 0.004945 0.0912184 0.013788 0.1367187 0.019531 0.5342004-0.685878 1.1074219-1.71471 1.1074219-3.064453 0-2.5084746-2-4-2-4v-1z"/>
</svg>
