<svg width="16" height="16" version="1.1" xmlns="http://www.w3.org/2000/svg"><defs>
<linearGradient id="ucPurpleBlue" x1="0%" y1="0%" x2="100%" y2="100%">
  <stop offset="0%" style="stop-color:#B794F4;stop-opacity:1"/>
  <stop offset="100%" style="stop-color:#4299E1;stop-opacity:1"/>
</linearGradient>
</defs>
 <rect width="16" height="16" rx="2" ry="2" style="fill:#24b8eb"/>
 <path d="m2 1c-0.554 0-1 0.446-1 1v6c0 0.554 0.446 1 1 1h11v4h-4v-3h-2v4c0 0.554 0.446 1 1 1h6c0.554 0 1-0.446 1-1v-6c0-0.554-0.446-1-1-1h-11v-4h4v3h2v-4c0-0.554-0.446-1-1-1z" style="fill:#3f3f3f"/>
</svg>
