<svg xmlns="http://www.w3.org/2000/svg" width="16" height="16" version="1"><defs>
<linearGradient id="ucPurpleBlue" x1="0%" y1="0%" x2="100%" y2="100%">
  <stop offset="0%" style="stop-color:#B794F4;stop-opacity:1"/>
  <stop offset="100%" style="stop-color:#4299E1;stop-opacity:1"/>
</linearGradient>
</defs>
 <rect fill="url(#ucPurpleBlue)" width="16" height="16" x="0" y="0" rx=".8" ry=".8"/>
 <path fill="url(#ucPurpleBlue)" d="m16 8v-7.2c0-0.4432-0.3568-0.8-0.8-0.8h-14.4c-0.4432 0-0.8 0.3568-0.8 0.8l4e-8 7.2z"/>
 <path fill="#fff" d="m8 1 1 1.9091 2 0.2984-1.5 1.6107 0.3541 2.1818-1.8541-1.0909-1.8541 1.0909 0.3541-2.1818-1.5-1.6107 2-0.2984z"/>
 <path fill="url(#ucPurpleBlue)" d="m7 9h2l-1 3 1 3h-2l1-3z"/>
 <path fill="url(#ucPurpleBlue)" d="m11 11v2l-3-1-3 1v-2l3 1z"/>
</svg>
