<svg width="16" height="16" version="1.1" xmlns="http://www.w3.org/2000/svg"><defs>
<linearGradient id="ucPurpleBlue" x1="0%" y1="0%" x2="100%" y2="100%">
  <stop offset="0%" style="stop-color:#B794F4;stop-opacity:1"/>
  <stop offset="100%" style="stop-color:#4299E1;stop-opacity:1"/>
</linearGradient>
</defs>
 <circle cx="8" cy="8" r="8" style="fill:#54749d"/>
 <path d="m13 2s-12 1-12 6 12 6 12 6-11-2-11-6 11-6 11-6zm-1 1s-9 2-9 5 9 5 9 5-8-3-8-5 8-5 8-5zm-2 2s-5 1-5 3 5 3 5 3-4-2-4-3 4-3 4-3z" style="fill:#ffffff"/>
</svg>
