<svg xmlns="http://www.w3.org/2000/svg" width="16" height="16" version="1"><defs>
<linearGradient id="ucPurpleBlue" x1="0%" y1="0%" x2="100%" y2="100%">
  <stop offset="0%" style="stop-color:#B794F4;stop-opacity:1"/>
  <stop offset="100%" style="stop-color:#4299E1;stop-opacity:1"/>
</linearGradient>
</defs>
 <rect fill="url(#ucPurpleBlue)" width="16" height="16" x="0" y="0" rx="8" ry="8"/>
 <g fill="#fff" style="enable-background:new" transform="matrix(.5 0 0 .5 -308.5 -259.5)">
  <path d="m636 528c-1.6568 0-3 1.3432-3 3 0 0.23127 0.0442 0.44001 0.0937 0.65625l-3.2188 2c-0.51-0.42-1.16-0.66-1.87-0.66-1.6568 0-3 1.3432-3 3s1.3432 3 3 3c0.70904 0 1.3615-0.24498 1.875-0.65625l3.2188 2c-0.06 0.22-0.1 0.43-0.1 0.66 0 1.6568 1.3432 3 3 3s3-1.3432 3-3-1.3432-3-3-3c-0.70904 0-1.3615 0.24498-1.875 0.65625l-3.2188-2c0.0495-0.21624 0.0937-0.42498 0.0937-0.65625s-0.0442-0.44001-0.0937-0.65625l3.2188-2c0.52 0.41 1.17 0.65 1.88 0.65 1.6568 0 3-1.3432 3-3s-1.3432-3-3-3z"/>
 </g>
</svg>
