<svg xmlns="http://www.w3.org/2000/svg" width="16" height="16" version="1"><defs>
<linearGradient id="ucPurpleBlue" x1="0%" y1="0%" x2="100%" y2="100%">
  <stop offset="0%" style="stop-color:#B794F4;stop-opacity:1"/>
  <stop offset="100%" style="stop-color:#4299E1;stop-opacity:1"/>
</linearGradient>
</defs>
 <rect style="fill:#124aa0" width="16" height="16" x="0" y="0" rx="8" ry="8"/>
 <path style="fill:#ffffff" d="M 4.6777344 4 C 3.7576247 4 2.8621131 4.7432073 3.0175781 5.6367188 L 4.0136719 11.363281 C 4.1691377 12.256794 4.755672 13 5.6757812 13 L 10.324219 13 C 11.244328 13 11.830863 12.256794 11.986328 11.363281 L 12.982422 5.6367188 C 13.137888 4.7432073 12.242375 4 11.322266 4 L 4.6777344 4 z M 8 6 A 2 2 0 0 1 10 8 A 2 2 0 0 1 9 9.7285156 L 9 11.5 C 9 11.777 8.777 12 8.5 12 L 7.5 12 C 7.223 12 7 11.777 7 11.5 L 7 9.7304688 A 2 2 0 0 1 6 8 A 2 2 0 0 1 8 6 z"/>
</svg>
