<svg width="16" height="16" version="1.1" xmlns="http://www.w3.org/2000/svg"><defs>
<linearGradient id="ucPurpleBlue" x1="0%" y1="0%" x2="100%" y2="100%">
  <stop offset="0%" style="stop-color:#B794F4;stop-opacity:1"/>
  <stop offset="100%" style="stop-color:#4299E1;stop-opacity:1"/>
</linearGradient>
</defs>
 <rect width="16" height="16" rx="1" ry="1" style="fill:#e4e4e4"/>
 <path d="m3 4-2 8h4v-2h2v-3h-2v-1c2 0 2-2 2-2h-4z" style="fill:#4f4f4f"/>
 <path d="m9 4v2 4h2l4-1h-4l4-1h-4l4-1h-4l4-1h-5l5-1h-5l5-1h-5-1zm2 6v2h1l3-1h-3l3-1h-4z" style="fill:#ff3c3c"/>
</svg>
