<svg xmlns="http://www.w3.org/2000/svg" width="16" height="16" version="1"><defs>
<linearGradient id="ucPurpleBlue" x1="0%" y1="0%" x2="100%" y2="100%">
  <stop offset="0%" style="stop-color:#B794F4;stop-opacity:1"/>
  <stop offset="100%" style="stop-color:#4299E1;stop-opacity:1"/>
</linearGradient>
</defs>
 <path style="fill:#514694" d="m 8,0.0101562 a 8,8 0 0 0 -8,8 h 2.4 a 5.6,5.6 0 0 1 5.6,-5.6 z m 5.6,8 A 5.6,5.6 0 0 1 8.4,13.595313 v 2.394531 A 8,8 0 0 0 16,8.0101562 Z"/>
 <path style="fill:#2d7ad6" d="m 8,2.0000001 c -3.3137085,0 -6,2.6862915 -6,6 C 2,11.313709 4.6862915,14 8,14 c 3.313708,0 6,-2.686291 6,-5.9999999 H 11.75 8 v -3.75 z"/>
 <path style="fill:#07c486" d="m 8,4.0000001 a 4,4 0 0 0 -4,4 A 4,4 0 0 0 8,12 a 4,4 0 0 0 4,-3.9999999 4,4 0 0 0 -4,-4 z"/>
 <path style="fill:#ffffff" d="m 8,6.0000001 a 2,2 0 0 1 2,2 A 2,2 0 0 1 8,10 2,2 0 0 1 6,8.0000001 a 2,2 0 0 1 2,-2 z"/>
</svg>
