<svg xmlns="http://www.w3.org/2000/svg" width="16" height="16" version="1"><defs>
<linearGradient id="ucPurpleBlue" x1="0%" y1="0%" x2="100%" y2="100%">
  <stop offset="0%" style="stop-color:#B794F4;stop-opacity:1"/>
  <stop offset="100%" style="stop-color:#4299E1;stop-opacity:1"/>
</linearGradient>
</defs>
 <rect fill="url(#ucPurpleBlue)" width="16" height="14" x="-16" y="1" rx=".8" ry=".875" transform="scale(-1,1)"/>
 <rect fill="#fff" width="14" height="8" x="1" y="2"/>
 <g fill="url(#ucPurpleBlue)" transform="translate(1)">
  <rect width="1" height="3" x="6" y="-6" transform="rotate(90)"/>
  <rect width="1" height="3" x="4" y="-6" transform="rotate(90)"/>
  <rect width="1" height="5" x="3" y="4"/>
 </g>
 <circle fill="url(#ucPurpleBlue)" cx="14" cy="13" r="1"/>
 <rect opacity=".4" width="8" height=".5" x="1" y="10.5"/>
 <g fill="url(#ucPurpleBlue)" transform="matrix(0,1,-1,0,17,3)">
  <rect width="1" height="3" x="8" y="-6" transform="rotate(90)"/>
  <rect width="1" height="3" x="6" y="-6" transform="rotate(90)"/>
  <rect width="1" height="3" x="4" y="-6" transform="rotate(90)"/>
  <rect width="1" height="5" x="3" y="4"/>
 </g>
 <rect opacity=".4" width="8" height=".5" x="1" y="11.5"/>
 <rect opacity=".4" width="8" height=".5" x="1" y="12.5"/>
 <rect opacity=".4" width="8" height=".5" x="1" y="13.5"/>
</svg>
