<svg width="16" height="16" version="1" xmlns="http://www.w3.org/2000/svg"><defs>
<linearGradient id="ucPurpleBlue" x1="0%" y1="0%" x2="100%" y2="100%">
  <stop offset="0%" style="stop-color:#B794F4;stop-opacity:1"/>
  <stop offset="100%" style="stop-color:#4299E1;stop-opacity:1"/>
</linearGradient>
</defs>
 <circle cx="8" cy="8" r="8" style="fill:#7767c0"/>
 <path d="m5 9s1.5025379 3 2 3l3-6-1-1z" style="fill:#c2c2c2"/>
 <path d="m7 12v-2.3624432l2-0.6375568s-1.5 3-2 3z" style="fill:#a9a9a9"/>
 <path d="M 10.782878,11.651823 C 10.941398,11.356747 11.852265,6.311277 11.982477,5.0070118 12.123346,3.7145966 11.388839,3.9549322 10.712975,4.1732618 9.0548176,4.7107646 3.8122513,6.8894722 2.3772588,7.6085302 2.0239771,7.7491654 1.8712737,7.987781 2.1283279,8.1943086 2.3496513,8.3693654 4.3468637,8.8779844 5,9 5,9 7.8637555,6.940449 9.1731443,6.1429642 9.3270897,6.0461632 9.4955806,6.2258112 9.4094227,6.3127794 8.4521635,7.4470953 7,9.6375568 7,9.6375568 c 0.6708965,0.7918712 2.634142,2.2349682 2.956797,2.3191572 0.411433,0.107353 0.652397,0.01842 0.826084,-0.304891 z" style="fill:#e4e4e4"/>
</svg>
