<svg xmlns="http://www.w3.org/2000/svg" width="16" height="16" version="1.1"><defs>
<linearGradient id="ucPurpleBlue" x1="0%" y1="0%" x2="100%" y2="100%">
  <stop offset="0%" style="stop-color:#B794F4;stop-opacity:1"/>
  <stop offset="100%" style="stop-color:#4299E1;stop-opacity:1"/>
</linearGradient>
</defs>
 <rect style="fill:#e4e4e4" width="16" height="16" x="0" y="0" rx="1.2" ry="1.2"/>
 <rect style="opacity:0.1" width="4" height="4" x="4" y="4"/>
 <rect style="opacity:0.1" width="4" height="4" x="12" y="4"/>
 <path style="opacity:0.1" d="M 1.2,0 C 0.5352,0 0,0.5352 0,1.2 V 4 H 4 V 0 Z"/>
 <rect style="opacity:0.1" width="4" height="4" x="8" y="0"/>
 <rect style="opacity:0.1" width="4" height="4" x="0" y="-12" transform="scale(1,-1)"/>
 <rect style="opacity:0.1" width="4" height="4" x="8" y="-12" transform="scale(1,-1)"/>
 <rect style="opacity:0.1" width="4" height="4" x="4" y="-16" transform="scale(1,-1)"/>
 <path style="opacity:0.1" d="m 12,16 v -4 h 4 v 2.8 c 0,0.6648 -0.5352,1.2 -1.2,1.2 z"/>
 <circle style="fill:#d12c6d" cx="14" cy="2" r="1"/>
 <circle style="fill:#24a647" cx="14" cy="6" r="1"/>
 <circle style="fill:#24a647" cx="14" cy="10" r="1"/>
 <circle style="fill:#d12c6d" cx="14" cy="14" r="1"/>
 <circle style="fill:#d12c6d" cx="10" cy="6" r="1"/>
 <circle style="fill:#24a647" cx="10" cy="10" r="1"/>
 <circle style="fill:#d12c6d" cx="10" cy="14" r="1"/>
 <circle style="fill:#d12c6d" cx="6" cy="10" r="1"/>
 <circle style="fill:#24a647" cx="6" cy="14" r="1"/>
 <circle style="fill:#24a647" cx="2" cy="10" r="1"/>
 <circle style="fill:#d12c6d" cx="2" cy="14" r="1"/>
</svg>
