<svg xmlns="http://www.w3.org/2000/svg" width="16" height="16" version="1"><defs>
<linearGradient id="ucPurpleBlue" x1="0%" y1="0%" x2="100%" y2="100%">
  <stop offset="0%" style="stop-color:#B794F4;stop-opacity:1"/>
  <stop offset="100%" style="stop-color:#4299E1;stop-opacity:1"/>
</linearGradient>
</defs>
 <ellipse style="fill:#6e6e6e" cx="3.137" cy="10.786" rx="7.116" ry="5.254" transform="matrix(0.85147053,-0.52440245,0.44770835,0.89417964,0,0)"/>
 <rect style="fill:#3e3e3e" width="5" height="5" x="-5" y="-10" rx="2.5" ry="2.5" transform="matrix(0,-1,-1,0,0,0)"/>
 <rect style="fill:#6666ff" width="3" height="3" x="-4" y="-9" rx="1.5" ry="1.5" transform="matrix(0,-1,-1,0,0,0)"/>
 <rect style="fill:#3e3e3e" width="5" height="5" x="-9" y="-5" rx="2.5" ry="2.5" transform="matrix(0,-1,-1,0,0,0)"/>
 <rect style="fill:#6666ff" width="3" height="3" x="-8" y="-4" rx="1.5" ry="1.5" transform="matrix(0,-1,-1,0,0,0)"/>
 <rect style="fill:#3e3e3e" width="5" height="5" x="-16" y="-6" rx="2.5" ry="2.5" transform="matrix(0,-1,-1,0,0,0)"/>
 <rect style="fill:#6666ff" width="3" height="3" x="-15" y="-5" rx="1.5" ry="1.5" transform="matrix(0,-1,-1,0,0,0)"/>
 <rect style="fill:#3e3e3e" width="5" height="5" x="-15" y="-13" rx="2.5" ry="2.5" transform="matrix(0,-1,-1,0,0,0)"/>
 <rect style="fill:#6666ff" width="3" height="3" x="-14" y="-12" rx="1.5" ry="1.5" transform="matrix(0,-1,-1,0,0,0)"/>
 <rect style="fill:#3e3e3e" width="5" height="5" x="-9" y="-16" rx="2.5" ry="2.5" transform="matrix(0,-1,-1,0,0,0)"/>
 <rect style="fill:#6666ff" width="3" height="3" x="-8" y="-15" rx="1.5" ry="1.5" transform="matrix(0,-1,-1,0,0,0)"/>
</svg>
