<svg xmlns="http://www.w3.org/2000/svg" width="16" height="16" version="1"><defs>
<linearGradient id="ucPurpleBlue" x1="0%" y1="0%" x2="100%" y2="100%">
  <stop offset="0%" style="stop-color:#B794F4;stop-opacity:1"/>
  <stop offset="100%" style="stop-color:#4299E1;stop-opacity:1"/>
</linearGradient>
</defs>
 <path style="fill:#e4e4e4" d="M 6,2 A 3.0003,3.0003 0 0 0 3,5 V 6 A 3.0003,3.0003 0 0 0 0,9 v 1 a 3.0003,3.0003 0 0 0 3,3 h 10 a 3.0003,3.0003 0 0 0 3,-3 V 7 A 3.0003,3.0003 0 0 0 13,4 H 12.824219 A 3.0003,3.0003 0 0 0 10,2 Z"/>
 <path style="fill:#ee8827" d="m 6,5 v 3 h 6 V 9 H 3 v 1 H 13 V 7 H 7 V 6 h 3 V 5 Z"/>
</svg>
