<svg xmlns="http://www.w3.org/2000/svg" width="16" height="16" version="1"><defs>
<linearGradient id="ucPurpleBlue" x1="0%" y1="0%" x2="100%" y2="100%">
  <stop offset="0%" style="stop-color:#B794F4;stop-opacity:1"/>
  <stop offset="100%" style="stop-color:#4299E1;stop-opacity:1"/>
</linearGradient>
</defs>
 <rect fill="url(#ucPurpleBlue)" width="16" height="16" x="0" y="0" rx=".857" ry=".857"/>
 <g style="enable-background:new" transform="translate(-16,-268)">
  <rect fill="none" stroke="#c4c4c4" stroke-linecap="round" width="13" height="13" x="17.5" y="269.5"/>
  <rect fill="none" stroke="#c4c4c4" stroke-linecap="round" width="7" height="7" x="20.5" y="272.5"/>
  <path fill="none" stroke="#c4c4c4" d="m16.5 268.5 4 4"/>
  <path fill="none" stroke="#c4c4c4" d="m27.5 272.5 4-4"/>
  <path fill="none" stroke="#c4c4c4" d="m27.5 279.5 4 4"/>
  <path fill="none" stroke="#c4c4c4" d="m20.5 279.5-4 4"/>
  <circle fill="url(#ucPurpleBlue)" cx="17.5" cy="269.5" r="1.5"/>
  <circle fill="url(#ucPurpleBlue)" cx="30.5" cy="269.5" r="1.5"/>
  <circle fill="url(#ucPurpleBlue)" cx="20.5" cy="272.5" r="1.5"/>
  <circle fill="url(#ucPurpleBlue)" cx="27.5" cy="272.5" r="1.5"/>
  <circle fill="url(#ucPurpleBlue)" cx="27.5" cy="279.5" r="1.5"/>
  <circle fill="url(#ucPurpleBlue)" cx="20.5" cy="279.5" r="1.5"/>
  <circle fill="url(#ucPurpleBlue)" cx="17.5" cy="282.5" r="1.5"/>
  <circle fill="url(#ucPurpleBlue)" cx="30.5" cy="282.5" r="1.5"/>
 </g>
</svg>
