<svg xmlns="http://www.w3.org/2000/svg" width="16" height="16" version="1.1"><defs>
<linearGradient id="ucPurpleBlue" x1="0%" y1="0%" x2="100%" y2="100%">
  <stop offset="0%" style="stop-color:#B794F4;stop-opacity:1"/>
  <stop offset="100%" style="stop-color:#4299E1;stop-opacity:1"/>
</linearGradient>
</defs>
 <path style="fill:#fec006" d="M 2.8008,1 C 2.3576,1 2,1.3576 2,1.8008 V 15.199 C 2,15.642 2.3576,16 2.8008,16 H 13.199 C 13.642,16 14,15.642 14,15.199 V 6 L 10,5 9,1 Z"/>
 <path style="fill:#fed861" d="M 14,6 9,1 V 5.1992 C 9,5.6424 9.358,6 9.801,6 Z"/>
 <path style="fill:#ffffff" d="M 5,7 C 4.446,7 4,7.446 4,8 V 13 C 4,13.554 4.446,14 5,14 H 10 C 10.554,14 11,13.554 11,13 V 8 C 11,7.446 10.554,7 10,7 Z M 10,9 V 12 H 5 V 9 Z"/>
</svg>
