<svg xmlns="http://www.w3.org/2000/svg" width="16" height="16" version="1"><defs>
<linearGradient id="ucPurpleBlue" x1="0%" y1="0%" x2="100%" y2="100%">
  <stop offset="0%" style="stop-color:#B794F4;stop-opacity:1"/>
  <stop offset="100%" style="stop-color:#4299E1;stop-opacity:1"/>
</linearGradient>
</defs>
 <rect style="fill:#5ba8da" width="4" height="4" x="-16" y="-4" rx=".4" ry=".4" transform="matrix(0,-1,-1,0,0,0)"/>
 <rect style="fill:#2d89c3" width="4" height="4" x="-16" y="-8" rx=".4" ry=".4" transform="matrix(0,-1,-1,0,0,0)"/>
 <rect style="fill:#5ba8da" width="4" height="4" x="-16" y="-12" rx=".4" ry=".4" transform="matrix(0,-1,-1,0,0,0)"/>
 <rect style="fill:#fc965f" width="4" height="4" x="-12" y="-4" rx=".4" ry=".4" transform="matrix(0,-1,-1,0,0,0)"/>
 <rect style="fill:#5ba8da" width="4" height="4" x="-12" y="-8" rx=".4" ry=".4" transform="matrix(0,-1,-1,0,0,0)"/>
 <rect style="fill:#d83535" width="4" height="4" x="-12" y="-12" rx=".4" ry=".4" transform="matrix(0,-1,-1,0,0,0)"/>
 <rect style="fill:#dd5252" width="4" height="4" x="-12" y="-16" rx=".4" ry=".4" transform="matrix(0,-1,-1,0,0,0)"/>
 <rect style="fill:#fc7c35" width="4" height="4" x="-8" y="-4" rx=".4" ry=".4" transform="matrix(0,-1,-1,0,0,0)"/>
 <rect style="fill:#d83535" width="4" height="4" x="-8" y="-8" rx=".4" ry=".4" transform="matrix(0,-1,-1,0,0,0)"/>
 <rect style="fill:#dd5252" width="4" height="4" x="-8" y="-12" rx=".4" ry=".4" transform="matrix(0,-1,-1,0,0,0)"/>
 <rect style="fill:#fc965f" width="4" height="4" x="-4" y="-4" rx=".4" ry=".4" transform="matrix(0,-1,-1,0,0,0)"/>
 <rect style="fill:#fc7c35" width="4" height="4" x="-4" y="-8" rx=".4" ry=".4" transform="matrix(0,-1,-1,0,0,0)"/>
</svg>
