<svg xmlns="http://www.w3.org/2000/svg" height="16" width="16" version="1.1"><defs>
<linearGradient id="ucPurpleBlue" x1="0%" y1="0%" x2="100%" y2="100%">
  <stop offset="0%" style="stop-color:#B794F4;stop-opacity:1"/>
  <stop offset="100%" style="stop-color:#4299E1;stop-opacity:1"/>
</linearGradient>
</defs>
 <path style="fill:#1a861c" d="m3 0a1.0001 1.0001 0 0 0 -1 1v6 2 6a1.0001 1.0001 0 0 0 1 1h2a1.0001 1.0001 0 0 0 1 -1v-5h4v5a1.0001 1.0001 0 0 0 1 1h2a1.0001 1.0001 0 0 0 1 -1v-6-2-6a1.0001 1.0001 0 0 0 -1 -1h-2a1.0001 1.0001 0 0 0 -1 1v5h-4v-5a1.0001 1.0001 0 0 0 -1 -1h-2z"/>
</svg>
