<svg xmlns="http://www.w3.org/2000/svg" width="16" height="16" version="1"><defs>
<linearGradient id="ucPurpleBlue" x1="0%" y1="0%" x2="100%" y2="100%">
  <stop offset="0%" style="stop-color:#B794F4;stop-opacity:1"/>
  <stop offset="100%" style="stop-color:#4299E1;stop-opacity:1"/>
</linearGradient>
</defs>
 <rect style="fill:#4f4f4f" width="3" height="3" x="1" y="1" rx=".15" ry=".15"/>
 <rect style="fill:#e4e4e4" width="3" height="3" x="5" y="1" rx=".15" ry=".15"/>
 <rect style="fill:#ff5757" width="3" height="3" x="9" y="1" rx=".15" ry=".15"/>
 <rect style="fill:#e4e4e4" width="3" height="3" x="13" y="1" rx=".15" ry=".15"/>
 <rect style="fill:#e4e4e4" width="3" height="3" x="1" y="5" rx=".15" ry=".15"/>
 <rect style="fill:#e4e4e4" width="3" height="3" x="5" y="5" rx=".15" ry=".15"/>
 <rect style="fill:#ff5757" width="3" height="3" x="9" y="5" rx=".15" ry=".15"/>
 <rect style="fill:#e4e4e4" width="3" height="3" x="13" y="5" rx=".15" ry=".15"/>
 <rect style="fill:#e4e4e4" width="3" height="3" x="1" y="9" rx=".15" ry=".15"/>
 <rect style="fill:#4f4f4f" width="3" height="3" x="5" y="9" rx=".15" ry=".15"/>
 <rect style="fill:#e4e4e4" width="3" height="3" x="9" y="9" rx=".15" ry=".15"/>
 <rect style="fill:#4ac73e" width="3" height="3" x="13" y="9" rx=".15" ry=".15"/>
 <rect style="fill:#e4e4e4" width="3" height="3" x="1" y="13" rx=".15" ry=".15"/>
 <rect style="fill:#e4e4e4" width="3" height="3" x="5" y="13" rx=".15" ry=".15"/>
 <rect style="fill:#e4e4e4" width="3" height="3" x="9" y="13" rx=".15" ry=".15"/>
 <rect style="fill:#e4e4e4" width="3" height="3" x="13" y="13" rx=".15" ry=".15"/>
</svg>
