<svg width="16" height="16" version="1.1" xmlns="http://www.w3.org/2000/svg"><defs>
<linearGradient id="ucPurpleBlue" x1="0%" y1="0%" x2="100%" y2="100%">
  <stop offset="0%" style="stop-color:#B794F4;stop-opacity:1"/>
  <stop offset="100%" style="stop-color:#4299E1;stop-opacity:1"/>
</linearGradient>
</defs>
 <path d="m1 0h14c0.554 0 1 0.446 1 1v14c0 0.554-0.446 1-1 1h-11l-1-0.5-2.5-2.5-0.5-1v-11c0-0.554 0.446-1 1-1z" style="fill:#2b855b"/>
 <rect x="3" y="3" width="10" height="10" rx="1" ry="1" style="fill:#c1c1c1"/>
 <rect x="7" y="7" width="2" height="5" style="fill:#4e4e4e"/>
 <rect x="7" y="4" width="2" height="2" style="fill:#4e4e4e"/>
 <path d="m4 16h-3c-0.554 0-1-0.446-1-1v-3z" style="fill:#ffb923"/>
</svg>
