<svg width="16" height="16" version="1.1" xmlns="http://www.w3.org/2000/svg"><defs>
<linearGradient id="ucPurpleBlue" x1="0%" y1="0%" x2="100%" y2="100%">
  <stop offset="0%" style="stop-color:#B794F4;stop-opacity:1"/>
  <stop offset="100%" style="stop-color:#4299E1;stop-opacity:1"/>
</linearGradient>
</defs>
 <path d="m1.5 4h13c-0.6481 3.9374-0.6851 7.9338 0 12h-13c0.68681-4.0729 0.64625-8.0686 0-12z" fill="url(#ucPurpleBlue)"/>
 <path d="m8 1v3h6.5l-1.5-3z" fill="url(#ucPurpleBlue)"/>
 <path d="m3 1h5v3h-6.5z" fill="url(#ucPurpleBlue)"/>
 <path d="m14.5 4-6.5-1v-3l5 1z" fill="url(#ucPurpleBlue)"/>
 <path d="m5.5 10.75c0.01453 1.1075 1.1293 1.9993 2.5 2 1.3707-6e-4 2.4855-0.8925 2.5-2-0.7492 0.5491-1.6154 0.6636-2.5 0.6667-0.88465-0.0031-1.7508-0.1176-2.5-0.6667z" fill="url(#ucPurpleBlue)"/>
 <circle cx="3.75" cy="10.75" r=".75" fill="url(#ucPurpleBlue)"/>
 <circle cx="12.25" cy="10.75" r=".75" fill="url(#ucPurpleBlue)"/>
 <circle cx="5" cy="8.5" r="1.5" fill="url(#ucPurpleBlue)"/>
 <circle cx="4.5" cy="8" r=".5" fill="url(#ucPurpleBlue)"/>
 <circle cx="11" cy="8.5" r="1.5" fill="url(#ucPurpleBlue)"/>
 <circle cx="10.5" cy="8" r=".5" fill="url(#ucPurpleBlue)"/>
</svg>
