<svg width="16" height="16" version="1.1" xmlns="http://www.w3.org/2000/svg"><defs>
<linearGradient id="ucPurpleBlue" x1="0%" y1="0%" x2="100%" y2="100%">
  <stop offset="0%" style="stop-color:#B794F4;stop-opacity:1"/>
  <stop offset="100%" style="stop-color:#4299E1;stop-opacity:1"/>
</linearGradient>
</defs>
 <rect x="0" y="0" width="16" height="16" rx="2" ry="2" style="fill:#e4e4e4"/>
 <rect x="1" y="1" width="14" height="12" style="fill:#fecd38"/>
 <rect x="1" y="7" width="14" height="6" style="fill:#e97e10"/>
 <rect x="1" y="5" width="2" height="2" style="fill:#e97e10"/>
 <rect x="5" y="5" width="2" height="2" style="fill:#e97e10"/>
 <rect x="9" y="5" width="2" height="2" style="fill:#e97e10"/>
 <rect x="13" y="5" width="2" height="2" style="fill:#e97e10"/>
 <rect x="11" y="3" width="2" height="2" style="fill:#e97e10"/>
 <rect x="3" y="3" width="2" height="2" style="fill:#e97e10"/>
 <rect x="1" y="7" width="2" height="2" style="fill:#fecd38"/>
 <rect x="5" y="7" width="2" height="2" style="fill:#fecd38"/>
 <rect x="9" y="7" width="2" height="2" style="fill:#fecd38"/>
 <rect x="13" y="7" width="2" height="2" style="fill:#fecd38"/>
 <rect x="11" y="9" width="2" height="2" style="fill:#fecd38"/>
 <rect x="3" y="9" width="2" height="2" style="fill:#fecd38"/>
</svg>
