<svg xmlns="http://www.w3.org/2000/svg" width="16" height="16" version="1.1"><defs>
<linearGradient id="ucPurpleBlue" x1="0%" y1="0%" x2="100%" y2="100%">
  <stop offset="0%" style="stop-color:#B794F4;stop-opacity:1"/>
  <stop offset="100%" style="stop-color:#4299E1;stop-opacity:1"/>
</linearGradient>
</defs>
 <g transform="translate(0 -1036.4)">
  <rect fill="url(#ucPurpleBlue)" width="16" height="16" x="-1052.4" y="-16" rx=".8" ry=".8" transform="matrix(0,-1,-1,0,0,0)"/>
  <path fill="url(#ucPurpleBlue)" transform="translate(0 1036.4)" d="m4.9473 3.5742a2.6961 4.6884 20.06 0 0 -3.5918 3.9004 2.6961 4.6884 20.06 0 0 1.2265 5.0564 2.6961 4.6884 20.06 0 0 2.8614 -1.531h5.1136a4.6884 2.6961 69.94 0 0 2.861 1.531 4.6884 2.6961 69.94 0 0 1.227 -5.0564 4.6884 2.6961 69.94 0 0 -4.063 -3.8633 4.6884 2.6961 69.94 0 0 -1.3515 1.3887h-2.461a2.6961 4.6884 20.06 0 0 -1.3515 -1.3887 2.6961 4.6884 20.06 0 0 -0.4707 -0.0371zm2.0527 2.4258h2v2h1l-2 2-2-2h1v-2z"/>
 </g>
</svg>
