<svg width="16" height="16" version="1.1" xmlns="http://www.w3.org/2000/svg"><defs>
<linearGradient id="ucPurpleBlue" x1="0%" y1="0%" x2="100%" y2="100%">
  <stop offset="0%" style="stop-color:#B794F4;stop-opacity:1"/>
  <stop offset="100%" style="stop-color:#4299E1;stop-opacity:1"/>
</linearGradient>
</defs>
 <rect x="2" y="9" width="4" height="7" ry="1" style="fill:#d96808"/>
 <rect x="6" y="7" width="4" height="9" ry="1" style="fill:#f69a0d"/>
 <rect x="10" y="4" width="4" height="11.999999" ry="1" style="fill:#f8c538"/>
 <path d="m2.991312 7.578491e-5c-0.1752308 0.0038664851-0.3275428 0.12133965-0.3757816 0.28984451l-1.5999998 5.6000125c-0.060724 0.2122723 0.062006 0.4336054 0.2742188 0.4945329l5.5999998 1.6000038c0.2122716 0.0607238 0.4336044-0.0620058 0.4945316-0.2742195l1.6-5.6000133c0.060724-0.212272-0.062006-0.4336051-0.2742188-0.4945322l-5.6-1.6000037c-0.038576-0.01113709-0.078607-0.016406665-0.11875-0.015624995z" style="fill:#d7e50b"/>
</svg>
