<svg xmlns="http://www.w3.org/2000/svg" width="16" height="16" version="1"><defs>
<linearGradient id="ucPurpleBlue" x1="0%" y1="0%" x2="100%" y2="100%">
  <stop offset="0%" style="stop-color:#B794F4;stop-opacity:1"/>
  <stop offset="100%" style="stop-color:#4299E1;stop-opacity:1"/>
</linearGradient>
</defs>
 <rect style="fill:#419d45" width="16" height="16" x="0" y="0" rx="1" ry="1"/>
 <g style="fill:#f8c44e">
  <rect width="2" height="4" x="1" y="12"/>
  <rect width="2" height="4" x="4" y="12"/>
  <rect width="2" height="4" x="7" y="12"/>
  <rect width="2" height="4" x="10" y="12"/>
  <rect width="2" height="4" x="13" y="12"/>
 </g>
 <rect style="fill:#4e4e4e" width="6" height="6" x="5" y="3" rx="1.2" ry="1.2"/>
 <g style="fill:#b7b7b7">
  <rect width="1" height="2" x="6" y="1"/>
  <rect width="1" height="2" x="9" y="1"/>
  <rect width="1" height="2" x="6" y="9"/>
  <rect width="1" height="2" x="9" y="9"/>
  <g transform="rotate(90)">
   <rect width="1" height="2" x="4" y="-13"/>
   <rect width="1" height="2" x="7" y="-13"/>
   <rect width="1" height="2" x="4" y="-5"/>
   <rect width="1" height="2" x="7" y="-5"/>
  </g>
 </g>
</svg>
