<svg width="16" height="16" version="1.1" xmlns="http://www.w3.org/2000/svg"><defs>
<linearGradient id="ucPurpleBlue" x1="0%" y1="0%" x2="100%" y2="100%">
  <stop offset="0%" style="stop-color:#B794F4;stop-opacity:1"/>
  <stop offset="100%" style="stop-color:#4299E1;stop-opacity:1"/>
</linearGradient>
</defs>
 <circle cx="8" cy="8" r="8" style="fill:#4f4f4f"/>
 <rect x="2" y="8" width="5" height="4" ry="1" style="fill:#ffffff"/>
 <rect x="9" y="8" width="5" height="4" ry="1" style="fill:#ffffff"/>
 <rect x="12" y="9" width="3" height="2" ry=".88983053" style="fill:#ffffff"/>
 <rect x="1" y="9" width="4" height="2" ry="1" style="fill:#ffffff"/>
 <path d="m6 11s1-1 2-1 2 1 2 1v-1s-1-1-2-1-2 1-2 1z" style="fill:#ffffff"/>
 <path d="m1 7h14v-1h-14z" style="fill:#ffffff"/>
 <path d="m4 5 1-3 2 2 4-2 1 3z" style="fill:#ffffff"/>
</svg>
