<svg xmlns="http://www.w3.org/2000/svg" width="16" height="16" version="1"><defs>
<linearGradient id="ucPurpleBlue" x1="0%" y1="0%" x2="100%" y2="100%">
  <stop offset="0%" style="stop-color:#B794F4;stop-opacity:1"/>
  <stop offset="100%" style="stop-color:#4299E1;stop-opacity:1"/>
</linearGradient>
</defs>
 <rect fill="url(#ucPurpleBlue)" width="16" height="16" x="0" y="0" rx=".857" ry=".857"/>
 <path fill="url(#ucPurpleBlue)" d="m8 2c-2.21 0-4 1.79-4 4h2c0-1.1 0.9-2 2-2s2 0.9 2 2c0 0.55-0.2198 1.0502-0.5898 1.4102l-1.2403 1.2597c-0.72 0.73-1.1699 1.7301-1.1699 2.8301v0.5h2c0-1.5 0.4499-2.1001 1.17-2.8301l0.9-0.9199c0.57-0.57 0.93-1.37 0.93-2.25 0-2.21-1.79-4-4-4zm-1 11v2h2v-2h-2z"/>
</svg>
