<svg xmlns="http://www.w3.org/2000/svg" width="16" height="16" version="1.1"><defs>
<linearGradient id="ucPurpleBlue" x1="0%" y1="0%" x2="100%" y2="100%">
  <stop offset="0%" style="stop-color:#B794F4;stop-opacity:1"/>
  <stop offset="100%" style="stop-color:#4299E1;stop-opacity:1"/>
</linearGradient>
</defs>
 <path style="fill:#5ca742" d="M 8,0 A 8,8 0 0 0 0,8 8,8 0 0 0 8,16 8,8 0 0 0 16,8 8,8 0 0 0 8,0 Z"/>
 <path style="fill:#ffffff" d="M 8 1 A 4 4 0 0 0 4 5 A 4 4 0 0 0 8 9 A 4 4 0 0 0 12 5 A 4 4 0 0 0 8 1 z M 8 2 A 1.9999999 2.0000001 0 0 1 10 4 A 1.9999999 2.0000001 0 0 1 8 6 A 1.9999999 2.0000001 0 0 1 6 4 A 1.9999999 2.0000001 0 0 1 8 2 z"/>
 <path style="fill:#ffffff" d="M 6,7.8007812 V 13.400391 L 8,15 10,13.400391 V 13 L 10.5,12.5 10,12 V 11 L 11,10.5 10,10 V 7.8007812 Z M 7,9 h 1 v 4 H 7 Z"/>
</svg>
