<svg xmlns="http://www.w3.org/2000/svg" width="16" height="16" version="1"><defs>
<linearGradient id="ucPurpleBlue" x1="0%" y1="0%" x2="100%" y2="100%">
  <stop offset="0%" style="stop-color:#B794F4;stop-opacity:1"/>
  <stop offset="100%" style="stop-color:#4299E1;stop-opacity:1"/>
</linearGradient>
</defs>
 <rect style="fill:#4f75de" width="16" height="16" x="0" y="0" rx="8" ry="8"/>
 <path style="fill:#ffffff" d="m9.5162551 4.4842069a2.5 3.4999999 45 0 0 -4.2426407 0.7071068 2.5 3.4999999 45 0 0 -0.7071069 4.2426408 2.5 3.4999999 45 0 0 4.2426408 -0.7071069 2.5 3.4999999 45 0 0 0.7071068 -4.2426407zm-1.0606602 1.0606602a1.5000001 1.9999999 45 0 1 -0.3535533 2.4748737 1.5000001 1.9999999 45 0 1 -2.4748739 0.3535535 1.5000001 1.9999999 45 0 1 0.3535535 -2.4748738 1.5000001 1.9999999 45 0 1 2.4748737 -0.3535534z"/>
 <rect style="fill:#ffffff" width="6" height="1" x="11.4" y="-.56" rx=".75" ry=".5" transform="rotate(45)"/>
 <rect style="fill:#ffffff" width="2" height=".5" x="14.2" y="-1.56" rx=".25" ry=".25" transform="rotate(45)"/>
 <rect style="fill:#ffffff" width="1.5" height=".5" x="-1.16" y="-15.41" rx=".188" ry=".25" transform="rotate(135)"/>
</svg>
