<svg xmlns="http://www.w3.org/2000/svg" width="16" height="16" version="1"><defs>
<linearGradient id="ucPurpleBlue" x1="0%" y1="0%" x2="100%" y2="100%">
  <stop offset="0%" style="stop-color:#B794F4;stop-opacity:1"/>
  <stop offset="100%" style="stop-color:#4299E1;stop-opacity:1"/>
</linearGradient>
</defs>
 <rect fill="url(#ucPurpleBlue)" width="16" height="16" x="0" y="0" rx=".857" ry=".857"/>
 <path fill="url(#ucPurpleBlue)" d="m5 3v7.0508c-0.1645-0.034-0.3321-0.051-0.5-0.051-1.3807 0-2.5 1.119-2.5 2.5s1.1193 2.5 2.5 2.5 2.5-1.119 2.5-2.5v-7.5l5-1v3.0508c-0.165-0.0337-0.332-0.0507-0.5-0.0508-1.381 0-2.5 1.1193-2.5 2.5 0 1.381 1.119 2.5 2.5 2.5s2.5-1.119 2.5-2.5v-8.5z"/>
</svg>
