<svg xmlns="http://www.w3.org/2000/svg" width="16" height="16" version="1"><defs>
<linearGradient id="ucPurpleBlue" x1="0%" y1="0%" x2="100%" y2="100%">
  <stop offset="0%" style="stop-color:#B794F4;stop-opacity:1"/>
  <stop offset="100%" style="stop-color:#4299E1;stop-opacity:1"/>
</linearGradient>
</defs>
 <rect fill="url(#ucPurpleBlue)" width="16" height="16" x="0" y="0" rx=".857" ry=".857"/>
 <path fill="url(#ucPurpleBlue)" d="m6.5 3a3.5 3.5 0 0 0 -3.5 3.5 3.5 3.5 0 0 0 3 3.461v3.039h7v-7h-3.04a3.5 3.5 0 0 0 -3.46 -3zm0 0.5a3 3 0 0 1 2.957 2.5h-3.457v3.455a3 3 0 0 1 -2.5 -2.955 3 3 0 0 1 3 -3zm0 3h3a3 3 0 0 1 -3 3v-3zm3.5 0h2.5v6h-6v-2.5a3.5 3.5 0 0 0 3.5 -3.5z"/>
</svg>
