<svg xmlns="http://www.w3.org/2000/svg" width="16" height="16" version="1"><defs>
<linearGradient id="ucPurpleBlue" x1="0%" y1="0%" x2="100%" y2="100%">
  <stop offset="0%" style="stop-color:#B794F4;stop-opacity:1"/>
  <stop offset="100%" style="stop-color:#4299E1;stop-opacity:1"/>
</linearGradient>
</defs>
 <rect fill="url(#ucPurpleBlue)" width="16" height="16" x="0" y="0" rx="8" ry="8"/>
 <path fill="#fff" d="m2 4v8h2v-2.5l2 2.5h2l-3-4 3-4h-2l-2 2.5v-2.5z"/>
 <path fill="#fff" d="m9 9v1h5v-1z"/>
 <path fill="#fff" d="m9 11v1h1v-1z"/>
 <path fill="#fff" d="m10.857 11v1h3v-1z"/>
 <path fill="#fff" d="m9 7v1h4v-1z"/>
 <path fill="#fff" d="m14 5h-1v3h1z"/>
 <path fill="#fff" d="m10 5h-1v3h1z"/>
 <path fill="#fff" d="m12 5h-1v3h1z"/>
</svg>
