<svg xmlns="http://www.w3.org/2000/svg" width="16" height="16" version="1"><defs>
<linearGradient id="ucPurpleBlue" x1="0%" y1="0%" x2="100%" y2="100%">
  <stop offset="0%" style="stop-color:#B794F4;stop-opacity:1"/>
  <stop offset="100%" style="stop-color:#4299E1;stop-opacity:1"/>
</linearGradient>
</defs>
 <path fill="url(#ucPurpleBlue)" d="m8 4e-8c-4.432 0-8 3.568-8 8 2.1143e-7 4.432 3.568 8 8 8s8-3.568 8-8-3.568-8-8-8z"/>
 <path fill="url(#ucPurpleBlue)" d="m8 2c-3.324 0-6 2.676-6 6s2.676 6 6 6 6-2.676 6-6-2.676-6-6-6z"/>
 <path fill="url(#ucPurpleBlue)" d="m8 4c-2.216 0-4 1.784-4 4s1.784 4 4 4 4-1.784 4-4-1.784-4-4-4z"/>
 <path fill="url(#ucPurpleBlue)" d="m8 6c-1.108 0-2 0.892-2 2s0.892 2 2 2 2-0.892 2-2-0.892-2-2-2z"/>
</svg>
