<svg xmlns="http://www.w3.org/2000/svg" width="16" height="16" version="1.1"><defs>
<linearGradient id="ucPurpleBlue" x1="0%" y1="0%" x2="100%" y2="100%">
  <stop offset="0%" style="stop-color:#B794F4;stop-opacity:1"/>
  <stop offset="100%" style="stop-color:#4299E1;stop-opacity:1"/>
</linearGradient>
</defs>
 <path fill="url(#ucPurpleBlue)" d="m14 15.143v-14.286c0-0.47471-0.365-0.857-0.818-0.857h-10.364c-0.4531 4e-8 -0.818 0.38229-0.818 0.85714v14.286c0 0.475 0.3649 0.857 0.8182 0.857h10.364c0.453 0 0.818-0.382 0.818-0.857z"/>
 <path fill="url(#ucPurpleBlue)" d="m13.25 16c0.416 0 0.75-0.375 0.75-0.842v-7.158h-12v7.1577c0 0.467 0.3345 0.842 0.75 0.842z"/>
 <path fill="url(#ucPurpleBlue)" d="m4 2h8v1h-8z"/>
 <path fill="url(#ucPurpleBlue)" d="m4 4h8v1h-8z"/>
 <path fill="url(#ucPurpleBlue)" d="m4 6h8v1h-8z"/>
 <path fill="#fff" d="m4 9h8v1h-8z"/>
 <path fill="#fff" d="m4 11h8v1h-8z"/>
 <path fill="#fff" d="m4 13h8v1h-8z"/>
</svg>
