<svg xmlns="http://www.w3.org/2000/svg" width="16" height="16" version="1"><defs>
<linearGradient id="ucPurpleBlue" x1="0%" y1="0%" x2="100%" y2="100%">
  <stop offset="0%" style="stop-color:#B794F4;stop-opacity:1"/>
  <stop offset="100%" style="stop-color:#4299E1;stop-opacity:1"/>
</linearGradient>
</defs>
 <circle fill="url(#ucPurpleBlue)" cx="8.501" cy="8" r="5"/>
 <circle fill="url(#ucPurpleBlue)" cx="8.501" cy="8" r="5"/>
 <path fill="url(#ucPurpleBlue)" d="m3.8141 4.001a7.3295 2.5702 29.547 0 0 -1.6826 0.623 7.3295 2.5702 29.547 0 0 5.072 5.845 7.3295 2.5702 29.547 0 0 7.668 1.407 7.3295 2.5702 29.547 0 0 -1.4315 -3.1415c-0.016 0.107-0.03 0.215-0.053 0.32a5.864 2.203 29.496 0 1 0.3955 1.7745 5.864 2.203 29.496 0 1 -6.209 -0.995 5.864 2.203 29.496 0 1 -3.9856 -4.801 5.864 2.203 29.496 0 1 1.3799 -0.5594c0.0957-0.0959 0.1937-0.1895 0.29685-0.27735a7.3295 2.5702 29.547 0 0 -1.4502 -0.1952z"/>
</svg>
