<svg xmlns="http://www.w3.org/2000/svg" width="16" height="16" version="1"><defs>
<linearGradient id="ucPurpleBlue" x1="0%" y1="0%" x2="100%" y2="100%">
  <stop offset="0%" style="stop-color:#B794F4;stop-opacity:1"/>
  <stop offset="100%" style="stop-color:#4299E1;stop-opacity:1"/>
</linearGradient>
</defs>
 <rect fill="url(#ucPurpleBlue)" width="16" height="12" x="-16" y="-14" rx=".8" ry=".8" transform="matrix(0,-1,-1,0,0,0)"/>
 <path fill="url(#ucPurpleBlue)" d="m6.1608 5c-1.1896 0-2.1608 0.8377-2.1608 1.8749 0 0.5399 0.2604 1.0324 0.6786 1.375l3.2679 2.7501 3.3755-2.7501c0.418-0.342 0.678-0.8348 0.678-1.3747 0-1.0373-0.971-1.875-2.1608-1.875-0.78318 0-1.4624 0.36074-1.8392 0.90597-0.3767-0.5452-1.0559-0.906-1.8391-0.906z"/>
</svg>
