<svg xmlns="http://www.w3.org/2000/svg" width="16" height="16" version="1"><defs>
<linearGradient id="ucPurpleBlue" x1="0%" y1="0%" x2="100%" y2="100%">
  <stop offset="0%" style="stop-color:#B794F4;stop-opacity:1"/>
  <stop offset="100%" style="stop-color:#4299E1;stop-opacity:1"/>
</linearGradient>
</defs>
 <rect fill="url(#ucPurpleBlue)" width="16" height="16" x="0" y="0" rx="8" ry="8"/>
 <ellipse fill="url(#ucPurpleBlue)" cx="5" cy="5" rx="1" ry="1"/>
 <path fill="url(#ucPurpleBlue)" d="m5 10a3.4689 4.0002 0 0 0 3.0013 2 3.4689 4.0002 0 0 0 2.9987 -2h-0.4214a3.4689 4.0002 0 0 1 -2.5777 1.333 3.4689 4.0002 0 0 1 -2.5786 -1.333h-0.4227z"/>
 <path fill="url(#ucPurpleBlue)" d="m8 6a3 2 0 0 0 -3 2 3 2 0 0 0 3 2 3 2 0 0 0 3 -2 3 2 0 0 0 -3 -2z"/>
 <ellipse fill="url(#ucPurpleBlue)" cx="11" cy="5" rx="1" ry="1"/>
</svg>
