<svg width="16" height="16" version="1.1" xmlns="http://www.w3.org/2000/svg"><defs>
<linearGradient id="ucPurpleBlue" x1="0%" y1="0%" x2="100%" y2="100%">
  <stop offset="0%" style="stop-color:#B794F4;stop-opacity:1"/>
  <stop offset="100%" style="stop-color:#4299E1;stop-opacity:1"/>
</linearGradient>
</defs>
 <rect x="2.4000001" y="13.2" width="11.2" height="2" style="fill:#4d401e"/>
 <rect x="7" y="1" width="1.9999996" height="4" style="fill:#4d401e"/>
 <path d="m8 4a6 6 0 0 0-6 6v2 2h12v-3-1a6 6 0 0 0-6-6zm-6 11c0 0.554 0.446 1 1 1h5 5c0.554 0 1-0.446 1-1h-12z" style="fill:#baa74b"/>
 <circle cx="11.5" cy="11.5" r="1.5" style="fill:#e7c275"/>
 <path d="m7 4v10h2v-4.5-2-2-1.5h-2zm2 1.5a0.5 0.5 0 0 0 0.5 0.5 0.5 0.5 0 0 0 0.5-0.5 0.5 0.5 0 0 0-0.5-0.5 0.5 0.5 0 0 0-0.5 0.5zm0 2a0.5 0.5 0 0 0 0.5 0.5 0.5 0.5 0 0 0 0.5-0.5 0.5 0.5 0 0 0-0.5-0.5 0.5 0.5 0 0 0-0.5 0.5zm0 2a0.5 0.5 0 0 0 0.5 0.5 0.5 0.5 0 0 0 0.5-0.5 0.5 0.5 0 0 0-0.5-0.5 0.5 0.5 0 0 0-0.5 0.5z" style="opacity:.2"/>
 <rect x="6" width="4" height="3" rx="1" ry="1" style="fill:#baa74b"/>
 <path d="m31 3a6 6 0 0 0-6 6v4h12v-4a6 6 0 0 0-6-6zm-6 10.8v0.8c0 0.4432 0.3568 0.8 0.8 0.8h10.4c0.4432 0 0.8-0.3568 0.8-0.8v-0.8z" style="fill:#baa74b"/>
 <circle cx="4.5" cy="11.5" r="1.5" style="fill:#e7c275"/>
 <path d="m4.5 11a0.5 0.5 0 0 0-0.5 0.5 0.5 0.5 0 0 0 0.5 0.5 0.5 0.5 0 0 0 0.5-0.5 0.5 0.5 0 0 0-0.5-0.5zm7 0a0.5 0.5 0 0 0-0.5 0.5 0.5 0.5 0 0 0 0.5 0.5 0.5 0.5 0 0 0 0.5-0.5 0.5 0.5 0 0 0-0.5-0.5z" style="opacity:.8"/>
</svg>
