<svg xmlns="http://www.w3.org/2000/svg" width="16" height="16" version="1.1"><defs>
<linearGradient id="ucPurpleBlue" x1="0%" y1="0%" x2="100%" y2="100%">
  <stop offset="0%" style="stop-color:#B794F4;stop-opacity:1"/>
  <stop offset="100%" style="stop-color:#4299E1;stop-opacity:1"/>
</linearGradient>
</defs>
 <path style="fill:#d66829" d="M 8,0 A 8,8 0 0 0 0,8 8,8 0 0 0 8,16 8,8 0 0 0 16,8 8,8 0 0 0 8,0 Z"/>
 <path style="fill:none;stroke:#f8bf94;stroke-width:2;stroke-linecap:round;stroke-linejoin:round" d="M 6.00004,10.985758 V 6.9857575 C 6.00004,6.9857575 5.9,6 7.5,6 9.1,6 9,6.9857575 9,6.9857575 v 4.0000005 m -5.9999,0 V 6.9857575 C 3.0001,6.9857575 2.9,6 4.5,6 6.1,6 5.99996,6.9857575 5.99996,6.9857575 v 4.0000005"/>
 <rect style="fill:#ffffff" width="1" height="3" x="11" y="3" rx=".5" ry=".3"/>
 <rect style="fill:#ffffff" width="1" height="3" x="4" y="-13" rx=".5" ry=".3" transform="rotate(90)"/>
</svg>
