<svg width="16" height="16" version="1.1" xmlns="http://www.w3.org/2000/svg"><defs>
<linearGradient id="ucPurpleBlue" x1="0%" y1="0%" x2="100%" y2="100%">
  <stop offset="0%" style="stop-color:#B794F4;stop-opacity:1"/>
  <stop offset="100%" style="stop-color:#4299E1;stop-opacity:1"/>
</linearGradient>
</defs>
 <path d="m2 10h12" style="fill:none;stroke-linecap:round;stroke-linejoin:round;stroke-width:4;stroke:#c4c4c4"/>
 <path d="m4 14 4-4 4 4" style="fill:none;stroke-linecap:round;stroke-linejoin:round;stroke-width:4;stroke:#c4c4c4"/>
 <rect x="4" width="8" height="8" rx="2" ry="2" style="fill:#e4e4e4"/>
 <path d="m4 2v1h2.5c0.277 0 0.5-0.223 0.5-0.5s-0.223-0.5-0.5-0.5h-2.5zm5.5 0c-0.277 0-0.5 0.223-0.5 0.5s0.223 0.5 0.5 0.5h2.5v-1h-2.5zm-5.5 2v1h2.5c0.277 0 0.5-0.223 0.5-0.5s-0.223-0.5-0.5-0.5h-2.5zm5.5 0c-0.277 0-0.5 0.223-0.5 0.5s0.223 0.5 0.5 0.5h2.5v-1h-2.5zm-5.5 2c0 0.3669301 0.1042911 0.7049987 0.2753906 1h2.2246094c0.277 0 0.5-0.223 0.5-0.5s-0.223-0.5-0.5-0.5h-2.5zm5.5 0c-0.277 0-0.5 0.223-0.5 0.5s0.223 0.5 0.5 0.5h2.224609c0.1711-0.2950013 0.275391-0.6330699 0.275391-1h-2.5z" style="fill:#4f4f4f"/>
</svg>
