<svg xmlns="http://www.w3.org/2000/svg" width="16" height="16" version="1"><defs>
<linearGradient id="ucPurpleBlue" x1="0%" y1="0%" x2="100%" y2="100%">
  <stop offset="0%" style="stop-color:#B794F4;stop-opacity:1"/>
  <stop offset="100%" style="stop-color:#4299E1;stop-opacity:1"/>
</linearGradient>
</defs>
 <rect fill="url(#ucPurpleBlue)" width="16" height="12" x="-16" y="-14" rx="1.143" ry="1.091" transform="matrix(0,-1,-1,0,0,0)"/>
 <rect style="fill:#333333" width="8" height="5" x="4" y="2" rx="0" ry="0"/>
 <path fill="url(#ucPurpleBlue)" d="m4.6 10c-0.2216 0-0.65377 0.18491-0.6 0.4l-2e-7 0.6h-0.6c-0.2216 0-0.4 0.3784-0.4 0.6v0.8c-1e-7 0.2216 0.18977 0.67008 0.4 0.6h0.6v0.6c0 0.22171 0.3784 0.4 0.6 0.4h0.8c0.2216 0 0.6537-0.185 0.6-0.4v-0.6h0.6c0.22171-0.000001 0.4-0.37829 0.4-0.6v-0.8c0-0.22171-0.18966-0.67011-0.4-0.6h-0.6v-0.6c0-0.222-0.3784-0.4-0.6-0.4z"/>
 <circle fill="url(#ucPurpleBlue)" cx="9" cy="10" r="1"/>
 <circle fill="url(#ucPurpleBlue)" cx="9" cy="13" r="1"/>
 <circle fill="url(#ucPurpleBlue)" cx="12" cy="10" r="1"/>
 <circle fill="url(#ucPurpleBlue)" cx="12" cy="13" r="1"/>
</svg>
