<svg xmlns="http://www.w3.org/2000/svg" width="16" height="16" version="1.1"><defs>
<linearGradient id="ucPurpleBlue" x1="0%" y1="0%" x2="100%" y2="100%">
  <stop offset="0%" style="stop-color:#B794F4;stop-opacity:1"/>
  <stop offset="100%" style="stop-color:#4299E1;stop-opacity:1"/>
</linearGradient>
</defs>
 <path style="fill:#78ba26" d="M 8,0 A 8,8 0 0 0 0,8 8,8 0 0 0 8,16 8,8 0 0 0 16,8 8,8 0 0 0 8,0 Z"/>
 <rect style="opacity:0.7;fill:#ffffff" width="4" height="6" x="6" y="3" rx=".333" ry=".375"/>
 <path style="fill:#ffffff" d="M 4.4988461,8 A 0.49885657,0.42384505 0 0 0 4.0668998,8.6358639 L 7.568055,13.788191 a 0.49885657,0.42384505 0 0 0 0.8638913,0 L 11.9331,8.6358639 A 0.49885657,0.42384505 0 0 0 11.501155,8 Z"/>
</svg>
