<svg xmlns="http://www.w3.org/2000/svg" width="16" height="16" version="1"><defs>
<linearGradient id="ucPurpleBlue" x1="0%" y1="0%" x2="100%" y2="100%">
  <stop offset="0%" style="stop-color:#B794F4;stop-opacity:1"/>
  <stop offset="100%" style="stop-color:#4299E1;stop-opacity:1"/>
</linearGradient>
</defs>
 <circle style="fill:#e4e4e4" cx="8" cy="8" r="8"/>
 <g transform="translate(-10,-7)">
  <path fill="url(#ucPurpleBlue)" d="m17 12c-2.7621 0-5 2.2373-5 5s2.2373 5 5 5 5-2.2373 5-5-2.2373-5-5-5zm-0.89425 2.6424c1.8783 0 3.4144 1.516 3.4144 3.3943s-1.5362 3.4144-3.4144 3.4144c-1.8783 0-3.3943-1.5362-3.3943-3.4144 0-1.8783 1.516-3.3943 3.3943-3.3943z"/>
  <path fill="url(#ucPurpleBlue)" d="m23 11.5a2.5 2.5 0 0 1 -5 0 2.5 2.5 0 1 1 5 0z"/>
  <path fill="url(#ucPurpleBlue)" d="m16 19.501a1.5 1.5 0 0 1 -3 0 1.5 1.5 0 1 1 3 0z"/>
 </g>
</svg>
