<svg xmlns="http://www.w3.org/2000/svg" width="16" height="16" version="1.1"><defs>
<linearGradient id="ucPurpleBlue" x1="0%" y1="0%" x2="100%" y2="100%">
  <stop offset="0%" style="stop-color:#B794F4;stop-opacity:1"/>
  <stop offset="100%" style="stop-color:#4299E1;stop-opacity:1"/>
</linearGradient>
</defs>
 <circle style="fill:#e4accb" cx="8" cy="8" r="8"/>
 <circle style="fill:#e4e4e4" cx="8" cy="8" r="6"/>
 <path style="fill:#ee5364" d="m0 11h3v-3l1 1 1-1v3h3l-1-6-2-1-1 1-1-1-2 1z"/>
 <path style="fill:#96b92f" d="m8.5 5a3.5 3 0 0 0-3.5 3 3.5 3 0 0 0 3.5 3 3.5 3 0 0 0 3.5-3 3.5 3 0 0 0-3.5-3zm0 2a1.5 1 0 0 1 1.5 1 1.5 1 0 0 1-1.5 1 1.5 1 0 0 1-1.5-1 1.5 1 0 0 1 1.5-1z"/>
 <path style="fill:#96b92f" d="m9 2v3l1-3zm-2 1 1 2v-2zm4 0-1 2 2-1z"/>
 <path style="fill:#34a0e8" d="m10 12 1-8 5-1v3h-3v1h2v2h-2v1h2l1 2z"/>
</svg>
