<svg xmlns="http://www.w3.org/2000/svg" width="16" height="16" version="1.1"><defs>
<linearGradient id="ucPurpleBlue" x1="0%" y1="0%" x2="100%" y2="100%">
  <stop offset="0%" style="stop-color:#B794F4;stop-opacity:1"/>
  <stop offset="100%" style="stop-color:#4299E1;stop-opacity:1"/>
</linearGradient>
</defs>
 <path style="fill:#ff7c40" d="M 8,0 A 8,8 0 0 0 0,8 8,8 0 0 0 8,16 8,8 0 0 0 16,8 8,8 0 0 0 8,0 Z"/>
 <ellipse style="fill:#ffffff" cx="8" cy="5.5" rx="4" ry="1.5"/>
 <path style="fill:#ffffff" d="M 4.234375,7 A 4,1.5 0 0 0 4,7.5 4,1.5 0 0 0 8,9 4,1.5 0 0 0 12,7.5 4,1.5 0 0 0 11.765625,7 4,1.5 0 0 1 8,8 4,1.5 0 0 1 4.234375,7 Z"/>
 <path style="fill:#ffffff" d="M 4.234375,9 A 4,1.5 0 0 0 4,9.5 4,1.5 0 0 0 8,11 4,1.5 0 0 0 12,9.5 4,1.5 0 0 0 11.765625,9 4,1.5 0 0 1 8,10 4,1.5 0 0 1 4.234375,9 Z"/>
 <path style="fill:#ffffff" d="M 4.234375,11 A 4,1.5 0 0 0 4,11.5 4,1.5 0 0 0 8,13 4,1.5 0 0 0 12,11.5 4,1.5 0 0 0 11.765625,11 4,1.5 0 0 1 8,12 4,1.5 0 0 1 4.234375,11 Z"/>
</svg>
