<svg xmlns="http://www.w3.org/2000/svg" width="16" height="16" version="1"><defs>
<linearGradient id="ucPurpleBlue" x1="0%" y1="0%" x2="100%" y2="100%">
  <stop offset="0%" style="stop-color:#B794F4;stop-opacity:1"/>
  <stop offset="100%" style="stop-color:#4299E1;stop-opacity:1"/>
</linearGradient>
</defs>
 <circle fill="url(#ucPurpleBlue)" cx="8" cy="8" r="8"/>
 <path fill="#fff" d="m6.3333 4-0.55555 0.53333h-1.9271c-0.8506 0-0.8507 0.8-0.8507 0.8v5.8667c0 0.803 0.8507 0.8 0.8507 0.8h8.316c0.833 0 0.833-0.8 0.833-0.8v-5.8667c0-0.8-0.833-0.8-0.833-0.8h-1.9444l-0.5563-0.5333h-3.3334zm1.6667 1.8667c1.3807 0 2.5 1.0745 2.5 2.4s-1.1193 2.4-2.5 2.4-2.5-1.0745-2.5-2.4 1.1193-2.4 2.5-2.4zm0 0.79999c-0.92048 0-1.6667 0.71636-1.6667 1.6 0 0.88366 0.74619 1.6 1.6667 1.6 0.92046 0 1.6667-0.71634 1.6667-1.6 0-0.88365-0.7462-1.6-1.6667-1.6z"/>
</svg>
