<svg xmlns="http://www.w3.org/2000/svg" width="16" height="16" version="1"><defs>
<linearGradient id="ucPurpleBlue" x1="0%" y1="0%" x2="100%" y2="100%">
  <stop offset="0%" style="stop-color:#B794F4;stop-opacity:1"/>
  <stop offset="100%" style="stop-color:#4299E1;stop-opacity:1"/>
</linearGradient>
</defs>
 <rect fill="url(#ucPurpleBlue)" width="16" height="16" x="0" y="0" rx="8" ry="8"/>
 <path fill="url(#ucPurpleBlue)" d="m6 4v4.2695c-0.3039-0.1761-0.6488-0.269-1-0.2695-1.1046 0-2 0.89543-2 2s0.89543 2 2 2 2-0.89543 2-2v-4h4v2.2695c-0.304-0.1761-0.649-0.269-1-0.2695-1.1046 0-2 0.89543-2 2s0.89543 2 2 2 2-0.89543 2-2v-6h-0.5z"/>
</svg>
