<svg width="16" height="16" version="1.1" xmlns="http://www.w3.org/2000/svg"><defs>
<linearGradient id="ucPurpleBlue" x1="0%" y1="0%" x2="100%" y2="100%">
  <stop offset="0%" style="stop-color:#B794F4;stop-opacity:1"/>
  <stop offset="100%" style="stop-color:#4299E1;stop-opacity:1"/>
</linearGradient>
</defs>
 <rect x="2" width="12" height="16" rx="1" ry="1" style="fill:#87847d"/>
 <rect x="2" width="12" height="13" rx="1" ry="1" style="fill:#f49c35"/>
 <circle cx="12.5" cy="14.5" r=".5" style="fill:#cccc00"/>
 <circle cx="10.5" cy="14.5" r=".5" style="fill:#cccc00"/>
 <rect x="3" y="14" width="5" height="1" style="fill:#3b3a36"/>
 <circle cx="8" cy="6" r="5" style="fill:#252a35"/>
 <path d="m7.22338 2.9996697-0.06613 0.7902a2.3572 2.3572 0 0 0-0.6889 0.39844l-0.7182-0.33818-0.75 1.2991 0.65205 0.4528503a2.3572 2.3572 0 0 0-0.036 0.3976 2.3572 2.3572 0 0 0 0.0343 0.39928l-0.6505 0.4515 0.75 1.2991 0.7165-0.33733a2.3572 2.3572 0 0 0 0.69055 0.39592l0.06613 0.79185h1.5l0.06612-0.7902a2.3572 2.3572 0 0 0 0.6889-0.39844l0.7182 0.33817 0.75-1.2991-0.65205-0.45285a2.3572 2.3572 0 0 0 0.036-0.3976 2.3572 2.3572 0 0 0-0.0343-0.39928l0.6504-0.4511803-0.75-1.2991-0.7165 0.33734a2.3572 2.3572 0 0 0-0.6905-0.395l-0.06612-0.79185h-1.5zm0.75 2.1428a0.85715 0.85715 0 0 1 0.857 0.8570003 0.85715 0.85715 0 0 1-0.857 0.857 0.85715 0.85715 0 0 1-0.857-0.857 0.85715 0.85715 0 0 1 0.857-0.8570003z" style="fill:#ffffff"/>
</svg>
