<svg width="16" height="16" version="1.1" xmlns="http://www.w3.org/2000/svg"><defs>
<linearGradient id="ucPurpleBlue" x1="0%" y1="0%" x2="100%" y2="100%">
  <stop offset="0%" style="stop-color:#B794F4;stop-opacity:1"/>
  <stop offset="100%" style="stop-color:#4299E1;stop-opacity:1"/>
</linearGradient>
</defs>
 <rect width="16" height="16" rx="1" ry="1" style="fill:#4f4f4f"/>
 <rect x="1" y="1" width="2" height="2" style="fill:#ffffff"/>
 <rect x="1" y="4" width="2" height="2" style="fill:#ffffff"/>
 <rect x="1" y="7" width="2" height="2" style="fill:#ffffff"/>
 <rect x="1" y="10" width="2" height="2" style="fill:#ffffff"/>
 <rect x="1" y="13" width="2" height="2" style="fill:#ffffff"/>
 <rect x="13" y="1" width="2" height="2" style="fill:#ffffff"/>
 <rect x="13" y="4" width="2" height="2" style="fill:#ffffff"/>
 <rect x="13" y="7" width="2" height="2" style="fill:#ffffff"/>
 <rect x="13" y="10" width="2" height="2" style="fill:#ffffff"/>
 <rect x="13" y="13" width="2" height="2" style="fill:#ffffff"/>
 <rect x="4" y="1" width="8" height="4" rx="1" ry=".84373415" style="fill:#28a1e1"/>
 <rect x="4" y="11" width="8" height="4" rx="1" ry=".84373415" style="fill:#28a1e1"/>
 <rect x="4" y="6" width="8" height="4" rx="1" ry=".84373415" style="fill:#28a1e1"/>
</svg>
