<svg width="16" height="16" version="1.1" xmlns="http://www.w3.org/2000/svg"><defs>
<linearGradient id="ucPurpleBlue" x1="0%" y1="0%" x2="100%" y2="100%">
  <stop offset="0%" style="stop-color:#B794F4;stop-opacity:1"/>
  <stop offset="100%" style="stop-color:#4299E1;stop-opacity:1"/>
</linearGradient>
</defs>
 <circle cx="8" cy="8" r="8" style="fill:#c149c0"/>
 <path d="m7 4-0.0882 1.0536a3.1429 3.1429 0 0 0-0.9185 0.5313l-0.95759-0.4509-1 1.7321 0.86941 0.6038a3.1429 3.1429 0 0 0-0.048 0.53013 3.1429 3.1429 0 0 0 0.0457 0.53237l-0.86719 0.60156 1 1.7321 0.95536-0.44978a3.1429 3.1429 0 0 0 0.92075 0.5279l0.0882 1.0558h2l0.0882-1.0536a3.1429 3.1429 0 0 0 0.91854-0.53126l0.95758 0.4509 1-1.7321-0.86942-0.6038a3.1429 3.1429 0 0 0 0.048-0.53013 3.1429 3.1429 0 0 0-0.0457-0.53237l0.86719-0.60156-1-1.7321-0.95536 0.44978a3.1429 3.1429 0 0 0-0.9208-0.5278l-0.0882-1.0558h-2zm1 2.8572a1.1429 1.1429 0 0 1 1.1429 1.1428 1.1429 1.1429 0 0 1-1.1429 1.1428 1.1429 1.1429 0 0 1-1.1429-1.1428 1.1429 1.1429 0 0 1 1.1428-1.1428z" style="fill:#ffffff"/>
</svg>
