<svg xmlns="http://www.w3.org/2000/svg" width="16" height="16" version="1.1"><defs>
<linearGradient id="ucPurpleBlue" x1="0%" y1="0%" x2="100%" y2="100%">
  <stop offset="0%" style="stop-color:#B794F4;stop-opacity:1"/>
  <stop offset="100%" style="stop-color:#4299E1;stop-opacity:1"/>
</linearGradient>
</defs>
 <path style="fill:#1565c0" d="M 3.21875,0 C 2.5435625,0 2,0.5352 2,1.2 V 2.8 4 7.2 H 15 V 4 2.8 1.2 C 15,0.5352 14.456437,0 13.78125,0 Z"/>
 <path style="fill:#1e88e5" d="M 3.21875,5 C 2.5435625,5 2,5.5352 2,6.2 V 7.6 8.8 12 H 15 V 8.8 7.6 6.2 C 15,5.5352 14.456437,5 13.78125,5 Z"/>
 <rect style="fill:#42a5f5" width="13" height="6" x="2" y="10" rx="1.2" ry="1.2"/>
 <rect style="fill:#ffffff" width="3" height="1" x="7" y="7" rx=".5" ry=".5"/>
 <rect style="fill:#ffffff" width="3" height="1" x="7" y="2" rx=".5" ry=".5"/>
 <rect style="fill:#ffffff" width="3" height="1" x="7" y="12" rx=".5" ry=".5"/>
</svg>
