<svg width="16" height="16" version="1.1" xmlns="http://www.w3.org/2000/svg"><defs>
<linearGradient id="ucPurpleBlue" x1="0%" y1="0%" x2="100%" y2="100%">
  <stop offset="0%" style="stop-color:#B794F4;stop-opacity:1"/>
  <stop offset="100%" style="stop-color:#4299E1;stop-opacity:1"/>
</linearGradient>
</defs>
 <rect y="1" width="16" height="14" rx=".80000001" ry=".80000001" style="fill:#022254"/>
 <path d="m3 4c-1 0-1 1-1 1v5s0 1 1 1h2c1 0 1-1 1-1v-1h-1v1h-2v-5h2v1h1v-1s0-1-1-1h-2zm6 0 1 7h1l-1-7h-1zm-1.5 2a0.5 0.5 0 0 0-0.5 0.5 0.5 0.5 0 0 0 0.5 0.5 0.5 0.5 0 0 0 0.5-0.5 0.5 0.5 0 0 0-0.5-0.5zm0 3a0.5 0.5 0 0 0-0.5 0.5 0.5 0.5 0 0 0 0.5 0.5 0.5 0.5 0 0 0 0.5-0.5 0.5 0.5 0 0 0-0.5-0.5zm4.5 1v1h3v-1h-3z" style="fill:#ffffff"/>
</svg>
