<svg xmlns="http://www.w3.org/2000/svg" width="16" height="16" version="1"><defs>
<linearGradient id="ucPurpleBlue" x1="0%" y1="0%" x2="100%" y2="100%">
  <stop offset="0%" style="stop-color:#B794F4;stop-opacity:1"/>
  <stop offset="100%" style="stop-color:#4299E1;stop-opacity:1"/>
</linearGradient>
</defs>
 <rect style="fill:#4ca341" width="14" height="14" x="-15" y="-15" rx="7" ry="7" transform="matrix(0,-1,-1,0,0,0)"/>
 <path style="fill:#e4e4e4" d="M 8 0 A 8 8 0 0 0 4.0039062 1.0820312 A 8 8 0 0 1 8 8 A 8 8 0 0 1 3.9960938 14.917969 A 8 8 0 0 0 8 16 A 8 8 0 0 0 16 8 A 8 8 0 0 0 8 0 z"/>
</svg>
