<svg xmlns="http://www.w3.org/2000/svg" width="16" height="16" version="1"><defs>
<linearGradient id="ucPurpleBlue" x1="0%" y1="0%" x2="100%" y2="100%">
  <stop offset="0%" style="stop-color:#B794F4;stop-opacity:1"/>
  <stop offset="100%" style="stop-color:#4299E1;stop-opacity:1"/>
</linearGradient>
</defs>
 <path fill="url(#ucPurpleBlue)" d="m8 0c-4.432 0-8 3.568-8 8s3.568 8 8 8 8-3.568 8-8c0-4.4319-3.568-8-8-8z"/>
 <path fill="url(#ucPurpleBlue)" d="m8 2a6 6 0 0 0 -6 6 6 6 0 0 0 6 6 6 6 0 0 0 6 -6 6 6 0 0 0 -6 -6zm1 2a4 4 0 0 1 4 4 4 4 0 0 1 -4 4 4 4 0 0 1 -4 -4 4 4 0 0 1 4 -4z"/>
 <rect fill="url(#ucPurpleBlue)" width="4" height="4" x="1" y="6" rx=".8" ry=".8"/>
 <rect fill="url(#ucPurpleBlue)" width="3" height="3" x="11" y="9" rx=".6" ry=".6"/>
 <rect fill="url(#ucPurpleBlue)" width="2" height="2" x="11" y="3" rx=".4" ry=".4"/>
</svg>
