<svg xmlns="http://www.w3.org/2000/svg" width="16" height="16" version="1"><defs>
<linearGradient id="ucPurpleBlue" x1="0%" y1="0%" x2="100%" y2="100%">
  <stop offset="0%" style="stop-color:#B794F4;stop-opacity:1"/>
  <stop offset="100%" style="stop-color:#4299E1;stop-opacity:1"/>
</linearGradient>
</defs>
 <path fill="url(#ucPurpleBlue)" d="m7.1176 2.7843e-7c-2.8233 0-5.0965 2.5657-5.1155 5.76h-0.0021v9.24c0 0.8864 0.8492 0.99028 1.5 0.99972 0.6008 0.0087 1.5-0.11333 1.5-0.99972 0 0.8864 0.8991 0.99972 1.5 0.99972s1.48-0.25699 1.5-0.99972c0 0.8864 0.8991 0.99972 1.5 0.99972s1.4799-0.25699 1.5-0.99972c0 0.8864 0.8991 0.99972 1.5 0.99972s1.5-0.11333 1.5-0.99972v-9.24h-0.0021c-0.019-3.1943-2.293-5.76-5.1155-5.76z"/>
 <rect fill="url(#ucPurpleBlue)" width="3" height="3" x="4" y="5" ry="1.5"/>
 <rect fill="url(#ucPurpleBlue)" width="1" height="1" x="6" y="6" ry=".5"/>
 <rect fill="url(#ucPurpleBlue)" width="3" height="3" x="10" y="5" ry="1.5"/>
 <rect fill="url(#ucPurpleBlue)" width="1" height="1" x="12" y="6" ry=".5"/>
</svg>
