<svg xmlns="http://www.w3.org/2000/svg" width="16" height="16" version="1"><defs>
<linearGradient id="ucPurpleBlue" x1="0%" y1="0%" x2="100%" y2="100%">
  <stop offset="0%" style="stop-color:#B794F4;stop-opacity:1"/>
  <stop offset="100%" style="stop-color:#4299E1;stop-opacity:1"/>
</linearGradient>
</defs>
 <path style="fill:#e4e4e4" d="M 1,4.56 V 14.2 C 1,14.643 1.3568,15 1.8,15 H 15.2 C 15.643,15 15.954,14.641 16,14.2 V 4.56 Z"/>
 <path style="fill:#f54b3e" d="M 16,5 V 1.8 C 16,1.3568 15.643,1 15.2,1 H 1.8 C 1.3568,1 1,1.3568 1,1.8 V 5 Z"/>
 <rect style="opacity:0.2" width="2" height="2" x="9" y="6"/>
 <rect style="opacity:0.2" width="2" height="2" x="12" y="6"/>
 <rect style="opacity:0.2" width="2" height="2" x="6" y="6"/>
 <rect style="opacity:0.2" width="2" height="2" x="3" y="6"/>
 <circle style="fill:#f54b3e" cx="10" cy="10" r="1"/>
 <circle style="fill:#ffffff" cx="3.5" cy="2.5" r=".5"/>
 <circle style="fill:#ffffff" cx="13.5" cy="2.5" r=".5"/>
 <rect style="opacity:0.2" width="2" height="2" x="12" y="9"/>
 <rect style="opacity:0.2" width="2" height="2" x="6" y="9"/>
 <rect style="opacity:0.2" width="2" height="2" x="3" y="9"/>
 <rect style="opacity:0.2" width="2" height="2" x="9" y="12"/>
 <rect style="opacity:0.2" width="2" height="2" x="12" y="12"/>
 <rect style="opacity:0.2" width="2" height="2" x="6" y="12"/>
 <rect style="opacity:0.2" width="2" height="2" x="3" y="12"/>
</svg>
