<svg width="16" height="16" version="1.1" xmlns="http://www.w3.org/2000/svg"><defs>
<linearGradient id="ucPurpleBlue" x1="0%" y1="0%" x2="100%" y2="100%">
  <stop offset="0%" style="stop-color:#B794F4;stop-opacity:1"/>
  <stop offset="100%" style="stop-color:#4299E1;stop-opacity:1"/>
</linearGradient>
</defs>
 <path d="m4 9 1-2-1-1h2l1 1 1-2v-3h1v4l1 1s2 0 3-1h3v1l-2 1s-2 0-4 1v1l4 4v2h-2l-3-5-1 1v3h-1v1l-1-1v-2l1-1v-1l-1-1h-1l-3 3h-2v-2z" style="fill:#f14223"/>
 <path d="m4 4v-1.5189229l-2-1.4810771h-1v1l1 1v1z" style="fill:#f14223"/>
</svg>
