<svg xmlns="http://www.w3.org/2000/svg" width="16" height="16" version="1"><defs>
<linearGradient id="ucPurpleBlue" x1="0%" y1="0%" x2="100%" y2="100%">
  <stop offset="0%" style="stop-color:#B794F4;stop-opacity:1"/>
  <stop offset="100%" style="stop-color:#4299E1;stop-opacity:1"/>
</linearGradient>
</defs>
 <rect style="fill:#636363" width="15" height="15" x="1" y="1" rx=".75" ry=".75"/>
 <rect style="fill:#ed8f00" width="1" height="1" x="9" y="8"/>
 <path style="fill:#e4e4e4" d="M 8.5,5 A 3.5,3.5 0 0 0 5,8.5 3.5,3.5 0 0 0 8.5,12 3.5,3.5 0 0 0 12,8.5 3.5,3.5 0 0 0 8.5,5 Z M 8.5,6 A 2.5,2.5 0 0 1 11,8.5 2.5,2.5 0 0 1 8.5,11 2.5,2.5 0 0 1 6,8.5 2.5,2.5 0 0 1 8.5,6 Z"/>
 <rect style="fill:#e4e4e4" width="1" height="7.5" x="5" y="1"/>
</svg>
