<svg xmlns="http://www.w3.org/2000/svg" width="16" height="16" version="1.1"><defs>
<linearGradient id="ucPurpleBlue" x1="0%" y1="0%" x2="100%" y2="100%">
  <stop offset="0%" style="stop-color:#B794F4;stop-opacity:1"/>
  <stop offset="100%" style="stop-color:#4299E1;stop-opacity:1"/>
</linearGradient>
</defs>
 <path style="fill:#e97e10" d="M 8 0 A 8 8 0 0 0 0 8 A 8 8 0 0 0 4.3085938 15.076172 L 5.6054688 11.183594 A 4 4 0 0 1 4 8 A 4 4 0 0 1 8 4 A 4 4 0 0 1 12 8 A 4 4 0 0 1 10.394531 11.183594 L 11.691406 15.076172 A 8 8 0 0 0 16 8 A 8 8 0 0 0 8 0 z"/>
 <path style="fill:#7767c0" d="M 8 6 A 2 2 0 0 0 6 8 A 2 2 0 0 0 7.3574219 9.890625 L 6 16 L 10 16 L 8.6425781 9.890625 A 2 2 0 0 0 10 8 A 2 2 0 0 0 8 6 z"/>
</svg>
