<svg xmlns="http://www.w3.org/2000/svg" width="16" height="16" version="1"><defs>
<linearGradient id="ucPurpleBlue" x1="0%" y1="0%" x2="100%" y2="100%">
  <stop offset="0%" style="stop-color:#B794F4;stop-opacity:1"/>
  <stop offset="100%" style="stop-color:#4299E1;stop-opacity:1"/>
</linearGradient>
</defs>
 <path style="fill:#fecd38" d="M 1,0 H 15 C 15.554,0 16,0.446 16,1 V 10 L 11,11 10,16 H 1 C 0.446,16 0,15.554 0,15 V 1 C 0,0.446 0.446,0 1,0 Z"/>
 <path style="fill:#ffe69b" d="M 11,10 H 16 L 10,16 V 11 C 10,10.446 10.446,10 11,10 Z"/>
 <path style="opacity:0.15" d="M 5,4 V 5 H 2 V 2 h 12 v 2 z"/>
 <path style="opacity:0.15" d="M 10,8 V 9 H 2 V 6 h 12 v 2 z"/>
</svg>
