<svg xmlns="http://www.w3.org/2000/svg" width="16" height="16" version="1.1"><defs>
<linearGradient id="ucPurpleBlue" x1="0%" y1="0%" x2="100%" y2="100%">
  <stop offset="0%" style="stop-color:#B794F4;stop-opacity:1"/>
  <stop offset="100%" style="stop-color:#4299E1;stop-opacity:1"/>
</linearGradient>
</defs>
 <rect style="fill:#4bae4f" width="16" height="16" ry="3"/>
 <path style="fill:#ffffff" d="M 10,5 A 2,2 0 0 1 8,7 2,2 0 0 1 6,5 2,2 0 0 1 8,3 2,2 0 0 1 10,5 Z M 8,8 C 4,8 4,10.46 4,10.46 V 11.46 C 4,11.46 4.74,13 8,13 11.26,13 12,11.46 12,11.46 V 10.46 C 12,10.46 12,8 8,8 Z"/>
</svg>
