<svg xmlns="http://www.w3.org/2000/svg" width="16" height="16" version="1.1"><defs>
<linearGradient id="ucPurpleBlue" x1="0%" y1="0%" x2="100%" y2="100%">
  <stop offset="0%" style="stop-color:#B794F4;stop-opacity:1"/>
  <stop offset="100%" style="stop-color:#4299E1;stop-opacity:1"/>
</linearGradient>
</defs>
 <circle fill="url(#ucPurpleBlue)" cx="8" cy="8" r="8"/>
 <path fill="url(#ucPurpleBlue)" fill-rule="evenodd" d="m10 5.5l-4 2v8.234a8 8 0 0 0 2 0.266 8 8 0 0 0 6 -2.719v-5.781l-4-2z"/>
 <path fill="url(#ucPurpleBlue)" fill-rule="evenodd" d="m10 6.5l-3 1.5v7.93a8 8 0 0 0 1 0.07 8 8 0 0 0 5 -1.756v-6.244l-3-1.5z"/>
 <path fill="url(#ucPurpleBlue)" d="m11 8a1 1 0 0 1 -0.5 0.86602 1 1 0 0 1 -1 0 1 1 0 0 1 -0.5 -0.866"/>
</svg>
