<svg xmlns="http://www.w3.org/2000/svg" width="16" height="16" version="1.1"><defs>
<linearGradient id="ucPurpleBlue" x1="0%" y1="0%" x2="100%" y2="100%">
  <stop offset="0%" style="stop-color:#B794F4;stop-opacity:1"/>
  <stop offset="100%" style="stop-color:#4299E1;stop-opacity:1"/>
</linearGradient>
</defs>
 <rect style="fill:#5d5d5d" width="16" height="16" x="0" y="0" rx="1.6" ry="1.6"/>
 <path style="fill:#ffffff" d="M 7,1 V 2 H 6 V 3 H 5 V 4 H 6 V 6 H 7 V 9 H 6 v 1 h 1 v 3 1 h 1 v 1 H 9 V 13 H 8 V 9 H 9 V 8 h 1 V 7 h 1 V 6 h 1 V 3 H 11 V 2 H 10 V 1 Z m 1,1 h 1 v 1 h 1 v 1 h 1 V 5 H 10 V 6 H 9 V 7 H 8 V 4 H 7 V 3 h 1 z"/>
</svg>
