<svg xmlns="http://www.w3.org/2000/svg" width="16" height="16" version="1"><defs>
<linearGradient id="ucPurpleBlue" x1="0%" y1="0%" x2="100%" y2="100%">
  <stop offset="0%" style="stop-color:#B794F4;stop-opacity:1"/>
  <stop offset="100%" style="stop-color:#4299E1;stop-opacity:1"/>
</linearGradient>
</defs>
 <g transform="matrix(.57143 0 0 .54545 -1.1429 -.72727)">
  <path fill="url(#ucPurpleBlue)" d="m16 5c-7.756 0-14 6.875-14 11s6.244 11 14 11 14-6.875 14-11-6.244-11-14-11z"/>
 </g>
 <path fill="url(#ucPurpleBlue)" d="m8.2595 4.9983c-1.5144 0-2.7656 1.2373-2.7656 2.75 0 0.57495 0.1946 1.1039 0.5 1.5469l-1.8438 1.8437a0.50275 0.50275 0 0 0 0.70315 0.71875l1.8438-1.8438c0.44364 0.30546 0.9865 0.48438 1.5625 0.48438 1.5144 0 2.75-1.2373 2.75-2.75s-1.2355-2.75-2.75-2.75zm0 1c0.9737 0 1.75 0.7774 1.75 1.75 0 0.97255-0.7763 1.75-1.75 1.75s-1.75-0.77745-1.75-1.75c0-0.9726 0.7763-1.75 1.75-1.75z"/>
</svg>
