<svg xmlns="http://www.w3.org/2000/svg" width="16" height="16" version="1"><defs>
<linearGradient id="ucPurpleBlue" x1="0%" y1="0%" x2="100%" y2="100%">
  <stop offset="0%" style="stop-color:#B794F4;stop-opacity:1"/>
  <stop offset="100%" style="stop-color:#4299E1;stop-opacity:1"/>
</linearGradient>
</defs>
 <rect style="fill:#b87425" width="15" height="15" x="-16" y="1" rx="7.5" ry="7.5" transform="rotate(-90)"/>
 <path style="fill:#ffffff" d="M 8,4.9999 A 3,3 0 0 1 11,7.9999 3,3 0 0 1 8,11 3,3 0 0 1 5,7.9999 3,3 0 0 1 8,4.9999 Z M 8,5.9999 A 2,2 0 0 0 6,7.9999 2,2 0 0 0 8,9.9999 2,2 0 0 0 10,7.9999 2,2 0 0 0 8,5.9999 Z"/>
 <path style="fill:none;stroke:#ffffff;stroke-width:1px;stroke-linecap:round" d="M 12,12 10,9.9999"/>
</svg>
