<svg xmlns="http://www.w3.org/2000/svg" width="16" height="16" version="1.1"><defs>
<linearGradient id="ucPurpleBlue" x1="0%" y1="0%" x2="100%" y2="100%">
  <stop offset="0%" style="stop-color:#B794F4;stop-opacity:1"/>
  <stop offset="100%" style="stop-color:#4299E1;stop-opacity:1"/>
</linearGradient>
</defs>
 <rect style="fill:#38c5d7" width="4" height="4" x="6" y="12" rx=".6" ry=".6"/>
 <rect style="fill:#ffe55a" width="4" height="4" x="0" y="6" rx=".6" ry=".6"/>
 <rect style="fill:#88f7f0" width="4" height="4" x="6" y="6" rx=".6" ry=".6"/>
 <rect style="fill:#ffad00" width="4" height="4" x="12" y="6" rx=".6" ry=".6"/>
 <rect style="fill:#38c5d7" width="4" height="4" x="0" y="0" rx=".6" ry=".6"/>
 <rect style="fill:#ffe55a" width="4" height="4" x="6" y="0" rx=".6" ry=".6"/>
 <rect style="fill:#38c5d7" width="4" height="4" x="12" y="0" rx=".6" ry=".6"/>
 <rect style="fill:#88f7f0" width="4" height="4" x="0" y="12" rx=".6" ry=".6"/>
 <rect style="fill:#ffe55a" width="4" height="4" x="12" y="12" rx=".6" ry=".6"/>
</svg>
