<svg width="16" height="16" version="1.1" xmlns="http://www.w3.org/2000/svg"><defs>
<linearGradient id="ucPurpleBlue" x1="0%" y1="0%" x2="100%" y2="100%">
  <stop offset="0%" style="stop-color:#B794F4;stop-opacity:1"/>
  <stop offset="100%" style="stop-color:#4299E1;stop-opacity:1"/>
</linearGradient>
</defs>
 <path d="m2 15c0 1 1 1 1 1h7s1 0 1-1-1-1-1-1-3 0-3-2c0-3 4-3 4-3s2 0 2-3c0-4-2-5-2-5s-2-1-8-1c-0.4714045 0-1 0-1 1s0.6101695 1 1 1c1 0 1 1 1 1v10c0 1-1 1-1 1s-1 0-1 1z" style="fill:#ec4040"/>
 <path d="m6 8s5 0 5-3-5-3-5-3 1 2 1 3-1 3-1 3z" style="fill:#4f4f4f"/>
</svg>
