<svg width="16" height="16" version="1.1" xmlns="http://www.w3.org/2000/svg"><defs>
<linearGradient id="ucPurpleBlue" x1="0%" y1="0%" x2="100%" y2="100%">
  <stop offset="0%" style="stop-color:#B794F4;stop-opacity:1"/>
  <stop offset="100%" style="stop-color:#4299E1;stop-opacity:1"/>
</linearGradient>
</defs>
 <circle cx="8" cy="12" r="4" style="fill:#fecd38"/>
 <path d="m4 12h8s4-1 4-3c0-4-6-5-6-5h-4s-6 1-6 5c0 2 4 3 4 3z" style="fill:#3ad74a"/>
 <path d="m8 0c1 0 4 4 4 11 0 3-4 3-4 3s-4 0-4-3c0-7 3-11 4-11z" style="fill:#c2352a"/>
 <ellipse cx="8" cy="9.5" rx="2" ry="2.5" style="fill:#4789d2"/>
</svg>
