<svg xmlns="http://www.w3.org/2000/svg" width="16" height="16" version="1"><defs>
<linearGradient id="ucPurpleBlue" x1="0%" y1="0%" x2="100%" y2="100%">
  <stop offset="0%" style="stop-color:#B794F4;stop-opacity:1"/>
  <stop offset="100%" style="stop-color:#4299E1;stop-opacity:1"/>
</linearGradient>
</defs>
 <path style="fill:#fc66cc" d="M 7.9997188,0 C 5.7837188,0 3.784,0.89228124 2.338,2.3382812 L 7.9997188,8 2.338,13.661719 C 3.784,15.107719 5.7837188,16 7.9997188,16 c 4.4320002,0 8.0000002,-3.568 8.0000002,-8 0,-4.432 -3.568,-8 -8.0000002,-8 z"/>
 <path style="fill:#ffffff" d="m 11.999719,8 a 4,4 0 0 1 -4.0000002,4 4,4 0 0 1 -4,-4 4,4 0 0 1 4,-4 4,4 0 0 1 4.0000002,4 z"/>
 <path style="fill:#ffffff" d="m 8.0348752,7.9609376 -0.035156,0.035156 v 5.5859374 l 0.035156,0.03516 2.8289058,-2.828125 z"/>
</svg>
