<svg xmlns="http://www.w3.org/2000/svg" width="16" height="16" version="1"><defs>
<linearGradient id="ucPurpleBlue" x1="0%" y1="0%" x2="100%" y2="100%">
  <stop offset="0%" style="stop-color:#B794F4;stop-opacity:1"/>
  <stop offset="100%" style="stop-color:#4299E1;stop-opacity:1"/>
</linearGradient>
</defs>
 <g transform="translate(3,-5)">
  <path style="fill:#d3d3d3" d="m 1,7.9 0,6.35 C 1,14.666 1.3345,15 1.75,15 l 9.5,0 C 11.666,15 12,14.666 12,14.25 L 12,7.9 Z"/>
  <path fill="url(#ucPurpleBlue)" d="m1.75 6c-0.4155 0-0.75 0.3345-0.75 0.75v1.25h11v-1.25c0-0.4155-0.334-0.75-0.75-0.75z"/>
 </g>
 <g>
  <path style="fill:#e4e4e4" d="m 1,7.9 0,6.35 C 1,14.666 1.3345,15 1.75,15 l 9.5,0 C 11.666,15 12,14.666 12,14.25 L 12,7.9 Z"/>
  <path fill="url(#ucPurpleBlue)" d="m1.75 6c-0.4155 0-0.75 0.3345-0.75 0.75v1.25h11v-1.25c0-0.4155-0.334-0.75-0.75-0.75z"/>
 </g>
</svg>
