<svg xmlns="http://www.w3.org/2000/svg" width="16" height="16" version="1.1"><defs>
<linearGradient id="ucPurpleBlue" x1="0%" y1="0%" x2="100%" y2="100%">
  <stop offset="0%" style="stop-color:#B794F4;stop-opacity:1"/>
  <stop offset="100%" style="stop-color:#4299E1;stop-opacity:1"/>
</linearGradient>
</defs>
 <rect style="fill:#8e8e8e" width="10" height="8" x="-11" y="-14" rx=".6" ry=".6" transform="matrix(0,-1,-1,0,0,0)"/>
 <rect style="fill:#4f4f4f" width="10" height="12" x="-10" y="-16" rx=".6" ry=".6" transform="matrix(0,-1,-1,0,0,0)"/>
 <rect style="fill:#266ad7" width="6" height="8" x="-8" y="-14" rx="0" ry="0" transform="matrix(0,-1,-1,0,0,0)"/>
 <rect style="fill:#8e8e8e" width="10" height="8" x="-16" y="-10" rx=".6" ry=".6" transform="matrix(0,-1,-1,0,0,0)"/>
 <rect style="fill:#4f4f4f" width="10" height="12" x="-15" y="-12" rx=".6" ry=".6" transform="matrix(0,-1,-1,0,0,0)"/>
 <rect style="fill:#ffbe47" width="6" height="8" x="-13" y="-10" rx="0" ry="0" transform="matrix(0,-1,-1,0,0,0)"/>
</svg>
