<svg xmlns="http://www.w3.org/2000/svg" width="16" height="16" version="1"><defs>
<linearGradient id="ucPurpleBlue" x1="0%" y1="0%" x2="100%" y2="100%">
  <stop offset="0%" style="stop-color:#B794F4;stop-opacity:1"/>
  <stop offset="100%" style="stop-color:#4299E1;stop-opacity:1"/>
</linearGradient>
</defs>
 <rect style="fill:#c2352a" width="16" height="16" x="0" y="0" rx=".8" ry=".8"/>
 <path style="fill:#fef7c0" d="m1 1v5h5v-5h-5zm9 0v5h5v-5h-5zm-8 1h3v3h-3v-3zm5 0v2h1v1h1v-1-1h-1v-1h-1zm1 3h-1v1 1h1v-1-1zm-1 2h-1v1h-1v1h2v-2zm0 2v1h1v-1h-1zm1 0h3v-2h-1v1h-2v1zm3 0v1h1v1h1v-2h-2zm0 1h-1v1h1v-1zm-1 1h-2v1h2v-1zm0 1v1h1v-1h-1zm1 1v1h1v-1h-1zm1 0h2v-1h-2v1zm2 0v2h1v-1-1h-1zm-2 1v1h1v-1h-1zm-1 0h-3-1v1h4v-1zm-3-2h-1v1h1v-1zm-3-4v-1h-2v1h2zm-2 0h-1v-1h-1v2h2v-1zm8-6h3v3h-3v-3zm-8 1v1h1v-1h-1zm9 0v1h1v-1h-1zm0 4v1h2v1h1v-1-1h-1-2zm-11 3v5h4.0722656 0.9277344v-5h-5zm13 0v1h1v-1h-1zm-12 1h3v3h-3v-3zm1 1v1h1v-1h-1z"/>
</svg>
