<svg width="16" height="16" version="1.1" xmlns="http://www.w3.org/2000/svg"><defs>
<linearGradient id="ucPurpleBlue" x1="0%" y1="0%" x2="100%" y2="100%">
  <stop offset="0%" style="stop-color:#B794F4;stop-opacity:1"/>
  <stop offset="100%" style="stop-color:#4299E1;stop-opacity:1"/>
</linearGradient>
</defs>
 <circle cx="8" cy="8" r="8" style="fill:#d2d638"/>
 <path d="m6 2c-1.108 0-2 0.892-2 2v8c0 1.108 0.892 2 2 2h4c1.108 0 2-0.892 2-2v-2h-2v1c0 0.554-0.446 1-1 1h-2c-0.554 0-1-0.446-1-1v-6c0-0.554 0.446-1 1-1h2c0.554 0 1 0.446 1 1v1h2v-2c0-1.108-0.892-2-2-2h-4z" style="fill:#ffffff"/>
</svg>
