<svg xmlns="http://www.w3.org/2000/svg" width="16" height="16" version="1"><defs>
<linearGradient id="ucPurpleBlue" x1="0%" y1="0%" x2="100%" y2="100%">
  <stop offset="0%" style="stop-color:#B794F4;stop-opacity:1"/>
  <stop offset="100%" style="stop-color:#4299E1;stop-opacity:1"/>
</linearGradient>
</defs>
 <path style="fill:#5dbf21" d="M 0.88888,1 C 0.39644,1 0,1.50756 0,2 v 10 c 0,0.4924 0.39644,1 0.88888,1 h 7.5112 l 2,2 2,-2 H 15.1112 C 15.6036,13 16,12.4924 16,12 V 2 C 16,1.50756 15.6036,1 15.1112,1 Z"/>
 <circle style="fill:#3f3f3f" cx="5" cy="5" r="1"/>
 <circle style="fill:#3f3f3f" cx="11" cy="5" r="1"/>
 <path style="fill:none;stroke:#3f3f3f;stroke-linecap:round;stroke-linejoin:round" d="M 3.5,8 C 3.5,8 5.2,9.5 8,9.5 10.8,9.5 12.5,8 12.5,8"/>
</svg>
