<svg width="16" height="16" version="1.1" xmlns="http://www.w3.org/2000/svg"><defs>
<linearGradient id="ucPurpleBlue" x1="0%" y1="0%" x2="100%" y2="100%">
  <stop offset="0%" style="stop-color:#B794F4;stop-opacity:1"/>
  <stop offset="100%" style="stop-color:#4299E1;stop-opacity:1"/>
</linearGradient>
</defs>
 <rect width="16" height="16" rx="3" ry="3" style="fill:#e4e4e4"/>
 <path d="m2 6v1h1v4h1v-4h1v4h1v-4h1v-1z" style="fill:#f9548f"/>
 <path d="m11 1s3 4 3 7-3 6-3 6 4-2 4-6-4-7-4-7zm-2 2s3 3 3 5c0 1.9436506-3 5-3 5s4-2 4-5-4-5-4-5zm-1 2s1 1 1 3-1 3-1 3 2-1 2-3-2-3-2-3z" style="fill:#333333"/>
</svg>
