<svg xmlns="http://www.w3.org/2000/svg" width="16" height="16" version="1"><defs>
<linearGradient id="ucPurpleBlue" x1="0%" y1="0%" x2="100%" y2="100%">
  <stop offset="0%" style="stop-color:#B794F4;stop-opacity:1"/>
  <stop offset="100%" style="stop-color:#4299E1;stop-opacity:1"/>
</linearGradient>
</defs>
 <rect fill="url(#ucPurpleBlue)" width="16" height="16" x="0" y="0" rx="8" ry="8"/>
 <path fill="url(#ucPurpleBlue)" d="m8 2c-3.324 0-6 2.676-6 6s2.676 6 6 6 6-2.676 6-6h-1.801a4.2 4.2 0 0 1 -4.199 4.199 4.2 4.2 0 0 1 -4.1992 -4.199 4.2 4.2 0 0 1 4.1992 -4.1992v-1.8008z"/>
 <path fill="url(#ucPurpleBlue)" d="m8 2v1.8008a4.2 4.2 0 0 1 4.199 4.1992h1.801c0-3.324-2.676-6-6-6z"/>
</svg>
