<svg xmlns="http://www.w3.org/2000/svg" width="16" height="16" version="1.1"><defs>
<linearGradient id="ucPurpleBlue" x1="0%" y1="0%" x2="100%" y2="100%">
  <stop offset="0%" style="stop-color:#B794F4;stop-opacity:1"/>
  <stop offset="100%" style="stop-color:#4299E1;stop-opacity:1"/>
</linearGradient>
</defs>
 <path style="fill:#696969" d="M 8.0000003,7.9999995 A 7.9999999,3.9999999 0 0 0 2.2029953e-8,12 7.9999999,3.9999999 0 0 0 8.0000003,16 7.9999999,3.9999999 0 0 0 16,12 7.9999999,3.9999999 0 0 0 8.0000003,7.9999995 Z"/>
 <path style="fill:#919191" d="M 8.0000003,4 A 7.9999999,3.9999999 0 0 0 2.2029953e-8,7.9999995 7.9999999,3.9999999 0 0 0 8.0000003,12 7.9999999,3.9999999 0 0 0 16,7.9999995 7.9999999,3.9999999 0 0 0 8.0000003,4 Z"/>
 <path style="fill:#e4e4e4" d="M 8.0000003,2.2084013e-8 A 7.9999999,3.9999999 0 0 0 2.2029953e-8,4 7.9999999,3.9999999 0 0 0 8.0000003,7.9999995 7.9999999,3.9999999 0 0 0 16,4 7.9999999,3.9999999 0 0 0 8.0000003,2.2084013e-8 Z"/>
</svg>
