<svg xmlns="http://www.w3.org/2000/svg" width="16" height="16" version="1.1"><defs>
<linearGradient id="ucPurpleBlue" x1="0%" y1="0%" x2="100%" y2="100%">
  <stop offset="0%" style="stop-color:#B794F4;stop-opacity:1"/>
  <stop offset="100%" style="stop-color:#4299E1;stop-opacity:1"/>
</linearGradient>
</defs>
 <g transform="translate(-4,2)">
  <rect style="fill:#456048" width="4" height="12" x="5" y="1" rx="1" ry="1"/>
  <rect style="fill:#3d944e" width="7" height="12" x="8" y="1"/>
  <path style="fill:#c8cc8c" d="M 7,10 C 6.446,10 6,10.433 6,10.971 V 11.029 C 6,11.567 6.446,12 7,12 H 15 V 10 Z"/>
 </g>
 <rect style="fill:#6c5353" width="4" height="12" x="5" y="1" rx="1" ry="1"/>
 <rect style="fill:#957575" width="7" height="12" x="8" y="1"/>
 <path style="fill:#c8cc8c" d="M 7 10 C 6.446 10 6 10.433 6 10.971 L 6 11.029 C 6 11.567 6.446 12 7 12 L 15 12 L 15 10 L 7 10 z"/>
</svg>
