<svg width="16" height="16" version="1" xmlns="http://www.w3.org/2000/svg"><defs>
<linearGradient id="ucPurpleBlue" x1="0%" y1="0%" x2="100%" y2="100%">
  <stop offset="0%" style="stop-color:#B794F4;stop-opacity:1"/>
  <stop offset="100%" style="stop-color:#4299E1;stop-opacity:1"/>
</linearGradient>
</defs>
 <path d="m8 4e-8c-4.4091 0-8 3.591-8 8 4e-8 4.409 3.591 8 8 8s8-3.591 8-8-3.591-8-8-8z" style="fill:#7fa9ff"/>
 <path d="m8 2a6 6 0 0 0-6 6 6 6 0 0 0 6 6 6 6 0 0 0 6-6 6 6 0 0 0-6-6zm-2.4067 1.7666h2.2991l2.6396 6.7134 1.1609-0.37793 0.38672 1.3-2.5034 0.72288-1.6838-4.2686-2.469 3.8906h-1.5484l3.4483-5.5686-0.38672-1.1001h-1.3433v-1.3118z" style="fill:#353535"/>
</svg>
