<svg xmlns="http://www.w3.org/2000/svg" width="16" height="16" version="1.1"><defs>
<linearGradient id="ucPurpleBlue" x1="0%" y1="0%" x2="100%" y2="100%">
  <stop offset="0%" style="stop-color:#B794F4;stop-opacity:1"/>
  <stop offset="100%" style="stop-color:#4299E1;stop-opacity:1"/>
</linearGradient>
</defs>
 <circle style="fill:#46b4ff" cx="9.6" cy="6" r="4"/>
 <circle style="fill:#46b4ff" cx="3.6" cy="10.4" r="3.6"/>
 <circle style="fill:#46b4ff" cx="4" cy="6" r="3"/>
 <circle style="fill:#46b4ff" cx="11.5" cy="9.5" r="4.5"/>
 <rect style="fill:#46b4ff" width="8.4" height="8" x="3.4" y="6"/>
 <path style="fill:#ffffff" d="m8 6a3 3 0 0 0 -2.9589844 2.5h1.0253906a2 2 0 0 1 1.9335938 -1.5 2 2 0 0 1 1.9355469 1.5h1.0175781a3 3 0 0 0 -2.953125 -2.5zm-2.953125 3.5a3 3 0 0 0 2.953125 2.5 3 3 0 0 0 2.958984 -2.5h-1.0253902a2 2 0 0 1 -1.9335938 1.5 2 2 0 0 1 -1.9355469 -1.5h-1.0175781z"/>
 <path style="fill:#ffffff" d="m11 9h-2l2-2z"/>
 <path style="fill:#ffffff" d="m5 9h2l-2 2z"/>
</svg>
