<svg xmlns="http://www.w3.org/2000/svg" width="16" height="16" version="1"><defs>
<linearGradient id="ucPurpleBlue" x1="0%" y1="0%" x2="100%" y2="100%">
  <stop offset="0%" style="stop-color:#B794F4;stop-opacity:1"/>
  <stop offset="100%" style="stop-color:#4299E1;stop-opacity:1"/>
</linearGradient>
</defs>
 <rect style="fill:#c46c6c" width="16" height="14" x="-16" y="-14" rx="1.5" ry="1.5" transform="matrix(0,-1,-1,0,0,0)"/>
 <path style="fill:#9b3e3e" d="m12.4 4.0002h3.6v8h-3.6c-0.776 0-1.4-0.595-1.4-1.333v-5.3333c0-0.739 0.624-1.334 1.4-1.334z"/>
 <path fill="#fff" d="m14 8.0002a1 1 0 0 1 -1 1 1 1 0 0 1 -1 -1 1 1 0 0 1 1 -1 1 1 0 0 1 1 1z"/>
</svg>
