<svg xmlns="http://www.w3.org/2000/svg" width="16" height="16" version="1"><defs>
<linearGradient id="ucPurpleBlue" x1="0%" y1="0%" x2="100%" y2="100%">
  <stop offset="0%" style="stop-color:#B794F4;stop-opacity:1"/>
  <stop offset="100%" style="stop-color:#4299E1;stop-opacity:1"/>
</linearGradient>
</defs>
 <rect style="fill:#4e7ad9" width="16" height="16" x="0" y="0" rx="4.8" ry="4.8"/>
 <path style="fill:#ffffff" d="M 8 2 A 6 6 0 0 0 2 8 A 6 6 0 0 0 8 14 A 6 6 0 0 0 14 8 A 6 6 0 0 0 8 2 z M 6 5.5 L 6 7 L 10 7 L 10 5.5 L 13 8 L 10 10.5 L 10 9 L 6 9 L 6 10.5 L 3 8 L 6 5.5 z"/>
</svg>
