<svg xmlns="http://www.w3.org/2000/svg" width="16" height="16" version="1"><defs>
<linearGradient id="ucPurpleBlue" x1="0%" y1="0%" x2="100%" y2="100%">
  <stop offset="0%" style="stop-color:#B794F4;stop-opacity:1"/>
  <stop offset="100%" style="stop-color:#4299E1;stop-opacity:1"/>
</linearGradient>
</defs>
 <rect fill="url(#ucPurpleBlue)" width="14" height="16" x="-15" y="-16" rx=".875" ry=".857" transform="matrix(0,-1,-1,0,0,0)"/>
 <path fill="#fff" opacity=".1" transform="matrix(0,-1,-1,0,0,0)" d="m-14.125-16h6.125v16h-6.125c-0.485 0-0.875-0.38229-0.875-0.85714v-14.286c0-0.475 0.39-0.857 0.875-0.857z"/>
 <path fill="#fff" opacity=".1" d="m16 14.125v-12.25c0-0.4848-0.382-0.875-0.857-0.875h-7.143v14h7.143c0.475 0 0.857-0.39 0.857-0.875z"/>
 <path fill="#fff" d="m1 2h6v1h-6z"/>
 <path fill="#fff" d="m1 4h5v1h-5z"/>
 <path fill="#fff" d="m1 6h4v1h-4z"/>
 <path fill="#fff" d="m9 14h3v-1h-3z"/>
 <path fill="#fff" d="m9 12h6v-1h-6z"/>
 <path fill="#fff" d="m9 10h4v-1h-4z"/>
</svg>
