<svg xmlns="http://www.w3.org/2000/svg" width="16" height="16" version="1"><defs>
<linearGradient id="ucPurpleBlue" x1="0%" y1="0%" x2="100%" y2="100%">
  <stop offset="0%" style="stop-color:#B794F4;stop-opacity:1"/>
  <stop offset="100%" style="stop-color:#4299E1;stop-opacity:1"/>
</linearGradient>
</defs>
 <rect style="fill:#7d7d7d" width="16" height="16" x="0" y="0" rx=".8" ry=".8"/>
 <rect style="fill:#ffffff" width="2" height="7" x="1" y="8" rx=".4" ry=".467"/>
 <rect style="fill:#17d4e4" width="3" height="5" x="4" y="2"/>
 <rect style="fill:#17d4e4" width="3" height="5" x="1" y="-8" transform="rotate(90)"/>
 <rect style="fill:#17d4e4" width="3" height="4" x="9" y="3"/>
 <rect style="fill:#17d4e4" width="3" height="1" x="9" y="1"/>
 <rect style="fill:#ffffff" width="2" height="7" x="4" y="8" rx=".4" ry=".467"/>
 <rect style="fill:#ffffff" width="2" height="7" x="7" y="8" rx=".4" ry=".467"/>
 <rect style="fill:#ffffff" width="2" height="7" x="10" y="8" rx=".4" ry=".467"/>
 <rect style="fill:#ffffff" width="2" height="7" x="13" y="8" rx=".4" ry=".467"/>
 <rect style="fill:#4f4f4f" width="2" height="4" x="3" y="8" rx=".4" ry=".533"/>
 <rect style="fill:#4f4f4f" width="2" height="4" x="6" y="8" rx=".4" ry=".533"/>
 <rect style="fill:#4f4f4f" width="2" height="4" x="12" y="8" rx=".4" ry=".533"/>
</svg>
