<svg width="16" height="16" version="1.1" xmlns="http://www.w3.org/2000/svg"><defs>
<linearGradient id="ucPurpleBlue" x1="0%" y1="0%" x2="100%" y2="100%">
  <stop offset="0%" style="stop-color:#B794F4;stop-opacity:1"/>
  <stop offset="100%" style="stop-color:#4299E1;stop-opacity:1"/>
</linearGradient>
</defs>
 <circle cx="8" cy="8" r="8" style="fill:#e4e4e4"/>
 <path d="m6.5 4a2.5 2.5 0 0 0-2.5 2.5 2.5 2.5 0 0 0 0.5566406 1.5722656 4.0847459 4 0 0 0-0.1152344 0.9277344 4.0847459 4 0 0 0 4.0839844 4 4.0847459 4 0 0 0 4.0839844-4 4.0847459 4 0 0 0-4.0839844-4 4.0847459 4 0 0 0-0.0273437 0 2.5 2.5 0 0 0-1.9980469-1zm-4.5 2a1 1 0 0 0-1 1 1 1 0 0 0 1 1 1 1 0 0 0 1-1 1 1 0 0 0-1-1z" style="fill:#e82929"/>
 <path d="m8 1a2 2 0 0 0-2 2 2 2 0 0 0 1 1.7304688v8.2695312a2 2 0 0 0 2 2 2 2 0 0 0 2-2 2 2 0 0 0-1.1660156-1.816406 1.5 1.5 0 0 0 0.1660156-0.683594 1.5 1.5 0 0 0-1.5-1.5 1.5 1.5 0 0 0-0.5 0.0878906v-4.0878906a2 2 0 0 0 2-2 2 2 0 0 0-2-2zm-4 1a1 1 0 0 0-1 1 1 1 0 0 0 1 1 1 1 0 0 0 1-1 1 1 0 0 0-1-1zm8 0a1 1 0 0 0-1 1 1 1 0 0 0 1 1 1 1 0 0 0 1-1 1 1 0 0 0-1-1z" style="fill:#4c4c4c"/>
</svg>
