<svg xmlns="http://www.w3.org/2000/svg" width="16" height="16" version="1.1"><defs>
<linearGradient id="ucPurpleBlue" x1="0%" y1="0%" x2="100%" y2="100%">
  <stop offset="0%" style="stop-color:#B794F4;stop-opacity:1"/>
  <stop offset="100%" style="stop-color:#4299E1;stop-opacity:1"/>
</linearGradient>
</defs>
 <path style="fill:#784421" d="M 11,12 H 0 c 0,0 2.4,4 9.6,4 C 14.4,16 16,13.6 16,12.4 16,11.361876 16,11 15.2,11 H 11.8 C 11,11 11,11.04074 11,12 Z"/>
 <path style="fill:#e4e4e4" d="m 9,3 v 9 C 9,12 6,9.9435 6,7.4999996 6,5.0565 9,3 9,3 Z"/>
 <path style="fill:#c83737" d="M 9,3 V 0 l 4,1.5 z"/>
 <path style="fill:#e4e4e4" d="m 4,6 v 6 C 4,12 2,10.629 2,9 2,7.371 4,6 4,6 Z"/>
 <rect style="opacity:0.4" width="1" height="1" x="12" y="12"/>
 <rect style="opacity:0.4" width="1" height="1" x="14" y="12"/>
</svg>
