<svg xmlns="http://www.w3.org/2000/svg" width="16" height="16" version="1"><defs>
<linearGradient id="ucPurpleBlue" x1="0%" y1="0%" x2="100%" y2="100%">
  <stop offset="0%" style="stop-color:#B794F4;stop-opacity:1"/>
  <stop offset="100%" style="stop-color:#4299E1;stop-opacity:1"/>
</linearGradient>
</defs>
 <rect style="fill:#568156" width="16" height="16" x="0" y="0" rx=".8" ry=".8"/>
 <path style="fill:#3f3f3f;fill-rule:evenodd" d="M 2,6 2,8 4,8 4,6 2,6 Z"/>
 <path style="fill:#3f3f3f;fill-rule:evenodd" d="m 12,6 0,2 2,0 0,-2 -2,0 z"/>
 <path style="fill:#3f3f3f;fill-rule:evenodd" d="m 6,9 0,1 4,0 0,-1 z m 4,1 0,1 1,0 0,1 -6,0 0,-1 1,0 0,-1 -1,0 -1,0 0,2 -1,0 0,2 1,0 0,-1 7,0 0,1.4 1,0 0,-4.4 -1,0 z"/>
 <path style="fill:#c03c3c;fill-rule:evenodd" d="m 6,10 0,1 -1,0 0,1 1,0 4,0 1,0 0,-1 -1,0 0,-1 z"/>
</svg>
