<svg xmlns="http://www.w3.org/2000/svg" width="16" height="16" version="1"><defs>
<linearGradient id="ucPurpleBlue" x1="0%" y1="0%" x2="100%" y2="100%">
  <stop offset="0%" style="stop-color:#B794F4;stop-opacity:1"/>
  <stop offset="100%" style="stop-color:#4299E1;stop-opacity:1"/>
</linearGradient>
</defs>
 <rect fill="url(#ucPurpleBlue)" width="16" height="16" x="0" y="0" rx=".857" ry=".857"/>
 <g transform="matrix(.49675 0 0 .49675 -.49677 .58764)">
  <g transform="matrix(.96593 -.25882 .25882 .96593 -3.2612 2.3695)">
   <path fill="#fff" d="m2 9h6v12h-6z"/>
   <path fill="#fff" d="m2 22h6v3h-6z"/>
   <path fill="url(#ucPurpleBlue)" d="m3 10h4v10h-4z"/>
   <path fill="url(#ucPurpleBlue)" d="m3 23h4v1h-4z"/>
  </g>
  <g transform="matrix(.96593 .25882 -.25882 .96593 16.539 -5.2187)">
   <path fill="#fff" d="m2 9h6v12h-6z"/>
   <path fill="#fff" d="m2 22h6v3h-6z"/>
   <path fill="url(#ucPurpleBlue)" d="m3 10h4v10h-4z"/>
   <path fill="url(#ucPurpleBlue)" d="m3 23h4v1h-4z"/>
  </g>
  <g transform="matrix(.86603 .5 -.5 .86603 28.768 1.3494)">
   <path fill="#fff" d="m2 9h6v12h-6z"/>
   <path fill="#fff" d="m2 22h6v3h-6z"/>
   <path fill="url(#ucPurpleBlue)" d="m3 10h4v10h-4z"/>
   <path fill="url(#ucPurpleBlue)" d="m3 23h4v1h-4z"/>
  </g>
 </g>
</svg>
