<svg xmlns="http://www.w3.org/2000/svg" width="16" height="16" version="1"><defs>
<linearGradient id="ucPurpleBlue" x1="0%" y1="0%" x2="100%" y2="100%">
  <stop offset="0%" style="stop-color:#B794F4;stop-opacity:1"/>
  <stop offset="100%" style="stop-color:#4299E1;stop-opacity:1"/>
</linearGradient>
</defs>
 <rect fill="url(#ucPurpleBlue)" width="12" height="10" x="-15" y="-13" rx=".75" ry=".833" transform="matrix(0,-1,-1,0,0,0)"/>
 <rect fill="url(#ucPurpleBlue)" width="12" height="16" x="-13" y="-16" rx=".75" ry=".8" transform="matrix(0,-1,-1,0,0,0)"/>
 <rect style="fill:#333333" width="10" height="14" x="-12" y="-15" rx="0" ry="0" transform="matrix(0,-1,-1,0,0,0)"/>
 <path fill="url(#ucPurpleBlue)" d="m10 4c-0.5523 0-1 0.4477-1 1s0.4477 1 1 1c0.552 0 1-0.4477 1-1s-0.448-1-1-1z"/>
 <path fill="url(#ucPurpleBlue)" d="m4.5 7c-1.75 0-3.5 2-3.5 4.531v0.46875h14s-1.1667-4-2.9167-4-1.75 2-2.9167 2c-1.1666 0-2.9166-3-4.6666-3z"/>
</svg>
