<svg xmlns="http://www.w3.org/2000/svg" width="16" height="16" version="1"><defs>
<linearGradient id="ucPurpleBlue" x1="0%" y1="0%" x2="100%" y2="100%">
  <stop offset="0%" style="stop-color:#B794F4;stop-opacity:1"/>
  <stop offset="100%" style="stop-color:#4299E1;stop-opacity:1"/>
</linearGradient>
</defs>
 <path style="fill:#3f3f3f" d="M 0,2.95 V 14.222222 C 0,14.653422 0.3565,15 0.8,15 H 15.2004 C 15.6436,15 16,14.6535 16,14.222222 V 2.95 Z"/>
 <path style="fill:#4f4f4f" d="M 8,2.9444444 V 15 h 7.200781 C 15.643981,15 16,14.6535 16,14.222222 V 2.9444444 Z"/>
 <path style="fill:#c8c8c8" d="M 0.8,0.99999994 C 0.35648,0.99999994 0,1.3466944 0,1.7775833 V 3 H 16 V 1.7775833 C 16,1.3466944 15.6436,0.99999994 15.2,0.99999994 Z"/>
 <path style="fill:#1b6cff" d="M 9.2167969,5 6.9648438,9.927734 4.9746094,6 H 3.2949219 L 6.3300781,11.996094 7.6816406,11.96875 10.867188,5 Z M 11,7 v 1 h 1 V 7 Z m 0,2 v 3 h 1 V 9 Z"/>
</svg>
