<svg xmlns="http://www.w3.org/2000/svg" width="16" height="16" version="1.1"><defs>
<linearGradient id="ucPurpleBlue" x1="0%" y1="0%" x2="100%" y2="100%">
  <stop offset="0%" style="stop-color:#B794F4;stop-opacity:1"/>
  <stop offset="100%" style="stop-color:#4299E1;stop-opacity:1"/>
</linearGradient>
</defs>
 <circle style="fill:#248afd" cx="8" cy="8" r="8"/>
 <path style="fill:#ffffff" d="M 4,3 C 4,3 3,6 6.5,9.5 10,13 14,12 14,12 14,12 9,15 5,11 1,7 4,3 4,3 Z M 6.5,2 C 6.5,2 6,4 9,7 12,10 14,9.5 14,9.5 14,9.5 11.334,11.334 8,8 4.6655,4.6655 6.5,2 6.5,2 Z"/>
</svg>
