<svg xmlns="http://www.w3.org/2000/svg" width="16" height="16" version="1"><defs>
<linearGradient id="ucPurpleBlue" x1="0%" y1="0%" x2="100%" y2="100%">
  <stop offset="0%" style="stop-color:#B794F4;stop-opacity:1"/>
  <stop offset="100%" style="stop-color:#4299E1;stop-opacity:1"/>
</linearGradient>
</defs>
 <path fill="url(#ucPurpleBlue)" d="m8 0a3 3 0 0 0 -2.6504 1.5996 3 3 0 0 0 -3.0058 0.7442 3 3 0 0 0 -0.7442 3.0058 3 3 0 0 0 -1.5996 2.6504 3 3 0 0 0 1.5996 2.65 3 3 0 0 0 0.7442 3.006 3 3 0 0 0 3.0058 0.744 3 3 0 0 0 2.6504 1.6 3 3 0 0 0 2.65 -1.6 3 3 0 0 0 3.006 -0.744 3 3 0 0 0 0.744 -3.006 3 3 0 0 0 1.6 -2.65 3 3 0 0 0 -1.6 -2.6504 3 3 0 0 0 -0.744 -3.0058 3 3 0 0 0 -3.006 -0.7442 3 3 0 0 0 -2.65 -1.5996z"/>
 <rect fill="url(#ucPurpleBlue)" width="2.342" height="4.684" x="-10.36" y="-.22" rx="1.171" ry="1.171" transform="matrix(-.70711 -.70711 -.70711 .70711 0 0)"/>
 <circle fill="url(#ucPurpleBlue)" cx="8" cy="8" r="3"/>
 <rect fill="url(#ucPurpleBlue)" width="2.342" height="4.684" x=".95" y="11.09" rx="1.171" ry="1.171" transform="rotate(-45)"/>
 <circle fill="url(#ucPurpleBlue)" cx="6.5" cy="7.5"/>
 <circle fill="url(#ucPurpleBlue)" cx="9.5" cy="7.5"/>
</svg>
