<svg xmlns="http://www.w3.org/2000/svg" width="16" height="16" version="1"><defs>
<linearGradient id="ucPurpleBlue" x1="0%" y1="0%" x2="100%" y2="100%">
  <stop offset="0%" style="stop-color:#B794F4;stop-opacity:1"/>
  <stop offset="100%" style="stop-color:#4299E1;stop-opacity:1"/>
</linearGradient>
</defs>
 <g transform="translate(-14,-14)">
  <circle style="fill:#5565cc" cx="22" cy="22" r="8"/>
  <path style="fill:#ffffff" d="m 20,18 a 3.9999999,3.9999999 0 0 0 -4,4 3.9999999,3.9999999 0 0 0 4,4 3.9999999,3.9999999 0 0 0 4,-4 3.9999999,3.9999999 0 0 0 -4,-4 z m 0,2 a 1.9999999,1.9999999 0 0 1 2,2 1.9999999,1.9999999 0 0 1 -2,2 1.9999999,1.9999999 0 0 1 -2,-2 1.9999999,1.9999999 0 0 1 2,-2 z"/>
  <rect style="fill:#ffffff" width="6" height="2" x="23" y="21"/>
  <rect style="fill:#ffffff" width="2" height="1" x="23" y="-28" transform="rotate(90)"/>
 </g>
</svg>
