<svg xmlns="http://www.w3.org/2000/svg" width="16" height="16" version="1.1"><defs>
<linearGradient id="ucPurpleBlue" x1="0%" y1="0%" x2="100%" y2="100%">
  <stop offset="0%" style="stop-color:#B794F4;stop-opacity:1"/>
  <stop offset="100%" style="stop-color:#4299E1;stop-opacity:1"/>
</linearGradient>
</defs>
 <rect fill="url(#ucPurpleBlue)" width="16" height="16" x="0" y="0" rx=".8" ry=".8"/>
 <path fill="#fff" d="m2.1853 2c-0.10264 0-0.1853 0.082661-0.1853 0.1853v11.629c0 0.10275 0.082649 0.18525 0.18529 0.18525h11.629c0.10275 0 0.18525-0.0825 0.18525-0.18525l0.001-11.629c0-0.1023-0.082-0.185-0.185-0.185z"/>
 <path fill="url(#ucPurpleBlue)" d="m4 2v13l4-2 4 2v-13z"/>
 <path fill="#fff" d="m8 5 0.9271 1.9751 2.0729 0.3167-1.5 1.5374 0.3541 2.1708-1.8541-1.0249-1.8541 1.0249 0.3541-2.1708-1.5-1.5374 2.073-0.3167z"/>
</svg>
