<svg xmlns="http://www.w3.org/2000/svg" width="16" height="16" version="1.1"><defs>
<linearGradient id="ucPurpleBlue" x1="0%" y1="0%" x2="100%" y2="100%">
  <stop offset="0%" style="stop-color:#B794F4;stop-opacity:1"/>
  <stop offset="100%" style="stop-color:#4299E1;stop-opacity:1"/>
</linearGradient>
</defs>
 <path style="fill:#4456ac" d="M 2e-7,9 H 16 V 3.2000451 c 0,-1.2 -1.2,-1.2 -1.2,-1.2 L 8,1.999955 C 7.6,2.0000451 7.1537692,0.9999942 6.4227604,1.000006 L 1.2,1.00009 c 0,0 -1.2,0 -1.2,1.2 z"/>
 <rect style="fill:#ffffff" width="14" height="5" x="1" y="4" rx=".368" ry=".556"/>
 <path style="fill:#5369cc" d="M 6.4,6 C 6,6.00009 5.6,7.00009 4.8295876,7 H 2e-7 V 7.4 L 0,13.8 C -3.75e-8,15 1.2,15 1.2,15 l 13.6,-9e-5 C 14.8,15 16,15 16,13.8 V 6 Z"/>
</svg>
