<svg xmlns="http://www.w3.org/2000/svg" width="16" height="16" version="1.1"><defs>
<linearGradient id="ucPurpleBlue" x1="0%" y1="0%" x2="100%" y2="100%">
  <stop offset="0%" style="stop-color:#B794F4;stop-opacity:1"/>
  <stop offset="100%" style="stop-color:#4299E1;stop-opacity:1"/>
</linearGradient>
</defs>
 <rect style="fill:#419d45" width="15" height="15" x="0" y="0" rx=".8" ry=".8"/>
 <rect style="fill:#37474f" width="5" height="5" x="5" y="5" rx="1.6" ry="1.6"/>
 <g style="fill:#ffdc65">
  <rect width="1" height="1" x="3" y="3"/>
  <rect width="1" height="1" x="5" y="3"/>
  <rect width="1" height="1" x="7" y="3"/>
  <rect width="1" height="1" x="9" y="3"/>
  <rect width="1" height="1" x="11" y="3"/>
  <rect width="1" height="1" x="11" y="5"/>
  <rect width="1" height="1" x="11" y="7"/>
  <rect width="1" height="1" x="11" y="9"/>
  <rect width="1" height="1" x="11" y="11"/>
  <rect width="1" height="1" x="9" y="11"/>
  <rect width="1" height="1" x="7" y="11"/>
  <rect width="1" height="1" x="5" y="11"/>
  <rect width="1" height="1" x="3" y="11"/>
  <rect width="1" height="1" x="3" y="9"/>
  <rect width="1" height="1" x="3" y="7"/>
  <rect width="1" height="1" x="3" y="5"/>
  <rect width="1" height="1" x="5" y="1"/>
  <rect width="1" height="1" x="7" y="1"/>
  <rect width="1" height="1" x="9" y="1"/>
  <rect width="1" height="1" x="11" y="1"/>
  <rect width="1" height="1" x="13" y="1"/>
  <rect width="1" height="1" x="13" y="3"/>
  <rect width="1" height="1" x="13" y="5"/>
  <rect width="1" height="1" x="13" y="7"/>
  <rect width="1" height="1" x="13" y="9"/>
  <rect width="1" height="1" x="13" y="11"/>
  <rect width="1" height="1" x="13" y="13"/>
  <rect width="1" height="1" x="11" y="13"/>
  <rect width="1" height="1" x="9" y="13"/>
  <rect width="1" height="1" x="7" y="13"/>
  <rect width="1" height="1" x="5" y="13"/>
  <rect width="1" height="1" x="1" y="13"/>
  <rect width="1" height="1" x="1" y="11"/>
  <rect width="1" height="1" x="1" y="9"/>
  <rect width="1" height="1" x="1" y="7"/>
  <rect width="1" height="1" x="1" y="5"/>
  <rect width="1" height="1" x="1" y="3"/>
 </g>
</svg>
