<svg xmlns="http://www.w3.org/2000/svg" width="16" height="16" version="1.1"><defs>
<linearGradient id="ucPurpleBlue" x1="0%" y1="0%" x2="100%" y2="100%">
  <stop offset="0%" style="stop-color:#B794F4;stop-opacity:1"/>
  <stop offset="100%" style="stop-color:#4299E1;stop-opacity:1"/>
</linearGradient>
</defs>
 <rect style="fill:#c0bfbc" width="16" height="4.5" x="0" y="1" rx=".8" ry=".8"/>
 <path style="fill:#607d8b" d="M 0 4 L 0 14.199 C 0 14.642 0.35758 15 0.80078 15 L 15.199 15 C 15.642 15 16 14.642 16 14.199 L 16 4 L 0 4 z"/>
 <circle style="fill:#2e3436" cx="11.5" cy="2.5" r=".5"/>
 <circle style="fill:#2e3436" cx="13.5" cy="2.5" r=".5"/>
 <circle style="fill:#2e3436" cx="9.5" cy="2.5" r=".5"/>
 <rect fill="url(#ucPurpleBlue)" width="1" height="1" x="1" y="5" rx=".125" ry=".125"/>
 <rect fill="url(#ucPurpleBlue)" width="1" height="1" x="1" y="7" rx=".125" ry=".125"/>
 <rect fill="url(#ucPurpleBlue)" width="1" height="1" x="1" y="9" rx=".125" ry=".125"/>
 <rect fill="url(#ucPurpleBlue)" width="1" height="1" x="1" y="11" rx=".125" ry=".125"/>
 <path fill="url(#ucPurpleBlue)" d="M 10,5 V 9 H 12 L 8,13 4,9 H 6 V 5 H 7 9 Z"/>
</svg>
