<svg xmlns="http://www.w3.org/2000/svg" width="16" height="16" version="1.1"><defs>
<linearGradient id="ucPurpleBlue" x1="0%" y1="0%" x2="100%" y2="100%">
  <stop offset="0%" style="stop-color:#B794F4;stop-opacity:1"/>
  <stop offset="100%" style="stop-color:#4299E1;stop-opacity:1"/>
</linearGradient>
</defs>
 <circle style="fill:#9aca3c" cx="8" cy="8" r="8"/>
 <path style="fill:#ffffff" d="m6.000001 4a3.9999999 3.9999999 0 0 0 -4 4 3.9999999 3.9999999 0 0 0 4 4 3.9999999 3.9999999 0 0 0 4 -4 3.9999999 3.9999999 0 0 0 -4 -4zm0 2a1.9999999 1.9999999 0 0 1 2 2 1.9999999 1.9999999 0 0 1 -2 2 1.9999999 1.9999999 0 0 1 -2 -2 1.9999999 1.9999999 0 0 1 2 -2z"/>
 <rect style="fill:#ffffff" width="6" height="2" x="8" y="7"/>
 <rect style="fill:#ffffff" width="2" height="1" x="9" y="-13" transform="rotate(90)"/>
</svg>
