<svg width="16" height="16" version="1.1" xmlns="http://www.w3.org/2000/svg"><defs>
<linearGradient id="ucPurpleBlue" x1="0%" y1="0%" x2="100%" y2="100%">
  <stop offset="0%" style="stop-color:#B794F4;stop-opacity:1"/>
  <stop offset="100%" style="stop-color:#4299E1;stop-opacity:1"/>
</linearGradient>
</defs>
 <path d="m0 5 1-2 3 3 3 1v2l-3 2-3-2z" style="fill:#3b8668"/>
 <path d="m16 5-1-2-3 3-3 1v2l3 2 3-2z" style="fill:#3b8668"/>
 <path d="m7 12-2 2 1 1 2 1 2-1 1-1-2-2z" style="fill:#3b8668"/>
 <path d="m8 1-2 2 1 2-1 3v2l2 4 2-4v-2l-1-3 1-2z" style="fill:#64aca8"/>
 <rect x="8" y="3" width="4" height="1" style="fill:#8ab9c1"/>
 <path d="M 10.5,6.5000004 5.5,10.5" style="fill:none;stroke-linecap:round;stroke-linejoin:round;stroke:#69501b"/>
 <path d="m5.5 6.5 5 4" style="fill:none;stroke-linecap:round;stroke-linejoin:round;stroke:#9b7528"/>
</svg>
