<svg xmlns="http://www.w3.org/2000/svg" width="16" height="16" version="1.1"><defs>
<linearGradient id="ucPurpleBlue" x1="0%" y1="0%" x2="100%" y2="100%">
  <stop offset="0%" style="stop-color:#B794F4;stop-opacity:1"/>
  <stop offset="100%" style="stop-color:#4299E1;stop-opacity:1"/>
</linearGradient>
</defs>
 <rect style="fill:#ff7316" width="15" height="15" x="1" y="1" rx="1.875" ry="1.875"/>
 <rect style="fill:#3e3e3e" width="1" height="11" x="8" y="3"/>
 <rect style="fill:#3e3e3e" width="1" height="11" x="3" y="-14" transform="rotate(90)"/>
 <path style="fill:#3e3e3e" d="M 8.5 5 A 3.5 3.5 0 0 0 5 8.5 A 3.5 3.5 0 0 0 8.5 12 A 3.5 3.5 0 0 0 12 8.5 A 3.5 3.5 0 0 0 8.5 5 z M 8.5 6 A 2.5000002 2.5000002 0 0 1 11 8.5 A 2.5000002 2.5000002 0 0 1 8.5 11 A 2.5000002 2.5000002 0 0 1 6 8.5 A 2.5000002 2.5000002 0 0 1 8.5 6 z"/>
</svg>
