<svg xmlns="http://www.w3.org/2000/svg" width="48" height="48" version="1.1"><defs>
<linearGradient id="ucPurpleBlue" x1="0%" y1="0%" x2="100%" y2="100%">
  <stop offset="0%" style="stop-color:#B794F4;stop-opacity:1"/>
  <stop offset="100%" style="stop-color:#4299E1;stop-opacity:1"/>
</linearGradient>
</defs>
 <circle style="fill:#455a64" cx="24" cy="24" r="20"/>
 <g transform="matrix(0,-1,1,0,0,48)">
  <path style="fill:#ffffff" d="m 18,16 a 8,8 0 0 0 -8,8 8,8 0 0 0 8,8 8,8 0 0 0 8,-8 8,8 0 0 0 -8,-8 z m 0,4 a 4,4 0 0 1 4,4 4,4 0 0 1 -4,4 4,4 0 0 1 -4,-4 4,4 0 0 1 4,-4 z"/>
  <rect style="fill:#ffffff" width="16" height="4" x="22" y="22"/>
  <rect style="fill:#ffffff" width="4" height="4" x="31" y="26"/>
 </g>
</svg>
