<svg width="24" height="24" version="1.1" xmlns="http://www.w3.org/2000/svg"><defs>
<linearGradient id="ucPurpleBlue" x1="0%" y1="0%" x2="100%" y2="100%">
  <stop offset="0%" style="stop-color:#B794F4;stop-opacity:1"/>
  <stop offset="100%" style="stop-color:#4299E1;stop-opacity:1"/>
</linearGradient>
</defs>
 <g transform="translate(1,1)">
  <rect x="1" y="1.5" width="20" height="20" rx="2" ry="2" style="opacity:.2"/>
  <rect x="1" y="1" width="20" height="20" rx="2" ry="2" style="fill:#4f4f4f"/>
  <path d="m11 4.5-6 3v2l6 3 4-2v3l-4 2-3.4863281-2-2.5136719 1.486328 6 3.513672 6-3.513672v-6.9218749zm0 2 3 2-3 2-3-2z" style="opacity:.2"/>
  <path d="m11 4-6 3v2l6 3 4-2v3l-4 2-3.4863281-2-2.5136719 1.486328 6 3.513672 6-3.513672v-6.9218749zm0 2 3 2-3 2-3-2z" style="fill:#ffffff"/>
  <path d="m3 1c-1.108 0-2 0.892-2 2v0.5c0-1.108 0.892-2 2-2h16c1.108 0 2 0.892 2 2v-0.5c0-1.108-0.892-2-2-2z" style="fill:#ffffff;opacity:.1"/>
 </g>
</svg>
