<svg xmlns="http://www.w3.org/2000/svg" width="24" height="24" version="1"><defs>
<linearGradient id="ucPurpleBlue" x1="0%" y1="0%" x2="100%" y2="100%">
  <stop offset="0%" style="stop-color:#B794F4;stop-opacity:1"/>
  <stop offset="100%" style="stop-color:#4299E1;stop-opacity:1"/>
</linearGradient>
</defs>
 <rect fill="url(#ucPurpleBlue)" width="20" height="20" x="2" y="2" rx="1" ry="1"/>
 <path opacity=".1" d="m22 21v-18c0-0.554-0.446-1-1-1h-9v20h9c0.554 0 1-0.446 1-1z"/>
 <path fill="#fff" opacity=".2" d="m3 2c-0.554 0-1 0.446-1 1v0.5c0-0.554 0.446-1 1-1h18c0.554 0 1 0.446 1 1v-0.5c0-0.554-0.446-1-1-1h-18z"/>
 <path opacity=".2" d="m3 22.5c-0.554 0-1-0.446-1-1v-0.5c0 0.554 0.446 1 1 1h18c0.554 0 1-0.446 1-1v0.5c0 0.554-0.446 1-1 1h-18z"/>
 <path fill="url(#ucPurpleBlue)" d="m9.6 1c-0.6 0-0.6 0.5143-0.6 0.5143v8.4857l1.5-1 1.5 1v-8.4857c0-0.5143-0.6-0.5143-0.6-0.5143z"/>
</svg>
