<svg xmlns="http://www.w3.org/2000/svg" height="24" width="24" version="1.1"><defs>
<linearGradient id="ucPurpleBlue" x1="0%" y1="0%" x2="100%" y2="100%">
  <stop offset="0%" style="stop-color:#B794F4;stop-opacity:1"/>
  <stop offset="100%" style="stop-color:#4299E1;stop-opacity:1"/>
</linearGradient>
</defs>
 <rect style="fill:#ce6f23" rx="1" ry="1" height="20" width="20" y="2" x="2"/>
 <path style="opacity:.1;fill:#ffffff" d="m3 2c-0.554 0-1 0.446-1 1v0.5c0-0.554 0.446-1 1-1h18c0.554 0 1 0.446 1 1v-0.5c0-0.554-0.446-1-1-1z"/>
 <path style="opacity:.2" d="m2 21v0.5c0 0.554 0.446 1 1 1h18c0.554 0 1-0.446 1-1v-0.5c0 0.554-0.446 1-1 1h-18c-0.554 0-1-0.446-1-1z"/>
 <path style="opacity:.2" d="m9 7.5-2 10h2l0.2851562-2h1.4296878l0.285156 2h2l-2-10zm7 0a1 1 0 0 0 -1 1 1 1 0 0 0 1 1 1 1 0 0 0 1 -1 1 1 0 0 0 -1 -1zm-6 3 0.427734 3h-0.8554684zm5 0v7h2v-7z"/>
 <path style="fill:#fed642" d="m9 7-2 10h2l0.2851562-2h1.4296878l0.285156 2h2l-2-10zm7 0a1 1 0 0 0 -1 1 1 1 0 0 0 1 1 1 1 0 0 0 1 -1 1 1 0 0 0 -1 -1zm-6 3 0.427734 3h-0.8554684zm5 0v7h2v-7z"/>
</svg>
