<svg xmlns="http://www.w3.org/2000/svg" width="24" height="24" version="1"><defs>
<linearGradient id="ucPurpleBlue" x1="0%" y1="0%" x2="100%" y2="100%">
  <stop offset="0%" style="stop-color:#B794F4;stop-opacity:1"/>
  <stop offset="100%" style="stop-color:#4299E1;stop-opacity:1"/>
</linearGradient>
</defs>
 <g transform="translate(-0.5,0)">
  <rect style="fill:#848484" width="3" height="8" x="6.5" y="3" rx="1" ry="1"/>
  <path style="opacity:0.2;fill:#ffffff" d="m 7.5,3 c -0.554,0 -1,0.446 -1,1 l 0,0.5 c 0,-0.554 0.446,-1 1,-1 l 1,0 c 0.554,0 1,0.446 1,1 L 9.5,4 C 9.5,3.446 9.054,3 8.5,3 l -1,0 z"/>
 </g>
 <g transform="translate(0.5,0)">
  <rect style="fill:#848484" width="3" height="8" x="13.5" y="3" rx="1" ry="1"/>
  <path style="opacity:0.2;fill:#ffffff" d="m 14.5,3 c -0.554,0 -1,0.446 -1,1 l 0,0.5 c 0,-0.554 0.446,-1 1,-1 l 1,0 c 0.554,0 1,0.446 1,1 l 0,-0.5 c 0,-0.554 -0.446,-1 -1,-1 l -1,0 z"/>
 </g>
 <rect style="fill:#ba2d2d" width="15" height="12" x="4" y="10" rx="1" ry="1"/>
 <path style="opacity:0.2" d="m 4,21 0,0.5 c 0,0.554 0.446,1 1,1 l 13,0 c 0.554,0 1,-0.446 1,-1 L 19,21 c 0,0.554 -0.446,1 -1,1 L 5,22 C 4.446,22 4,21.554 4,21 Z"/>
</svg>
