<svg xmlns="http://www.w3.org/2000/svg" width="24" height="24" version="1"><defs>
<linearGradient id="ucPurpleBlue" x1="0%" y1="0%" x2="100%" y2="100%">
  <stop offset="0%" style="stop-color:#B794F4;stop-opacity:1"/>
  <stop offset="100%" style="stop-color:#4299E1;stop-opacity:1"/>
</linearGradient>
</defs>
 <rect fill="url(#ucPurpleBlue)" width="20" height="20" x="2" y="2" rx="1" ry="1"/>
 <path fill="#fff" opacity=".1" d="m3 2c-0.554 0-1 0.446-1 1v0.5c0-0.554 0.446-1 1-1h18c0.554 0 1 0.446 1 1v-0.5c0-0.554-0.446-1-1-1h-18z"/>
 <path opacity=".2" d="m3 22.5c-0.554 0-1-0.446-1-1v-0.5c0 0.554 0.446 1 1 1h18c0.554 0 1-0.446 1-1v0.5c0 0.554-0.446 1-1 1h-18z"/>
 <rect opacity=".2" width="4" height="4" x="4" y="16.5" rx=".927" ry=".87"/>
 <rect opacity=".2" width="4" height="4" x="4" y="10.5" rx=".927" ry=".87"/>
 <rect opacity=".2" width="4" height="4" x="10" y="16.5" rx=".927" ry=".87"/>
 <rect opacity=".2" width="4" height="4" x="10" y="10.5" rx=".927" ry=".87"/>
 <g fill="url(#ucPurpleBlue)">
  <rect width="4" height="4" x="4" y="16" rx=".927" ry=".87"/>
  <rect width="4" height="4" x="4" y="10" rx=".927" ry=".87"/>
  <rect width="4" height="4" x="10" y="16" rx=".927" ry=".87"/>
  <rect width="4" height="4" x="10" y="10" rx=".927" ry=".87"/>
 </g>
</svg>
