<svg xmlns="http://www.w3.org/2000/svg" width="24" height="24" version="1.1"><defs>
<linearGradient id="ucPurpleBlue" x1="0%" y1="0%" x2="100%" y2="100%">
  <stop offset="0%" style="stop-color:#B794F4;stop-opacity:1"/>
  <stop offset="100%" style="stop-color:#4299E1;stop-opacity:1"/>
</linearGradient>
</defs>
 <circle style="opacity:0.2" cx="12" cy="12.5" r="10"/>
 <circle style="fill:#454564" cx="12" cy="12" r="10"/>
 <path style="opacity:0.2" d="m 6,10.5 a 2,2 0 0 0 -2,2 2,2 0 0 0 2,2 2,2 0 0 0 2,-2 2,2 0 0 0 -2,-2 z m 6,0 a 2,2 0 0 0 -2,2 2,2 0 0 0 2,2 2,2 0 0 0 2,-2 2,2 0 0 0 -2,-2 z m 6,0 a 2,2 0 0 0 -2,2 2,2 0 0 0 2,2 2,2 0 0 0 2,-2 2,2 0 0 0 -2,-2 z"/>
 <path style="opacity:0.1;fill:#ffffff" d="M 12,2 A 10,10 0 0 0 2,12 10,10 0 0 0 2.01075,12.291 10,10 0 0 1 12,2.5 10,10 0 0 1 21.9895,12.209 10,10 0 0 0 22,12 10,10 0 0 0 12,2 Z"/>
 <circle style="fill:#2196f3" cx="12" cy="12" r="2"/>
 <circle style="fill:#2196f3" cx="18" cy="12" r="2"/>
 <circle style="fill:#2196f3" cx="6" cy="12" r="2"/>
 <path style="opacity:0.2;fill:#ffffff" d="M 6,10 A 2,2 0 0 0 4,12 2,2 0 0 0 4.0175781,12.25293 2,2 0 0 1 6,10.5 2,2 0 0 1 7.982422,12.247071 2,2 0 0 0 8,12 2,2 0 0 0 6,10 Z m 6,0 a 2,2 0 0 0 -2,2 2,2 0 0 0 0.01758,0.25293 A 2,2 0 0 1 12,10.5 2,2 0 0 1 13.982422,12.247071 2,2 0 0 0 14,12 2,2 0 0 0 12,10 Z m 6,0 a 2,2 0 0 0 -2,2 2,2 0 0 0 0.01758,0.25293 A 2,2 0 0 1 18,10.5 2,2 0 0 1 19.982422,12.247071 2,2 0 0 0 20,12 2,2 0 0 0 18,10 Z"/>
</svg>
