<svg xmlns="http://www.w3.org/2000/svg" width="24" height="24" version="1"><defs>
<linearGradient id="ucPurpleBlue" x1="0%" y1="0%" x2="100%" y2="100%">
  <stop offset="0%" style="stop-color:#B794F4;stop-opacity:1"/>
  <stop offset="100%" style="stop-color:#4299E1;stop-opacity:1"/>
</linearGradient>
</defs>
 <g transform="translate(1,1)">
  <path fill="url(#ucPurpleBlue)" d="m10.5 2-4.75 9.5-4.75 9.5h3v-3h1v3h1v-4h1v4h1v-5h1v5h1v-4h1v4h1v-3h1v3h1v-2h1v2h1v-1h1v1h3l-4.75-9.5-4.75-9.5z"/>
  <path fill="#fff" opacity=".2" d="m10.5 2-4.75 9.5-4.75 9.5h0.25l4.5-9 4.75-9.5 4.75 9.5 4.5 9h0.25l-4.75-9.5-4.75-9.5z"/>
  <path opacity=".2" d="m8 16v0.5h1v-0.5h-1zm-2 1v0.5h1v-0.5h-1zm4 0v0.5h1v-0.5h-1zm-6 1v0.5h1v-0.5h-1zm8 0v0.5h1v-0.5h-1zm2 1v0.5h1v-0.5h-1zm2 1v0.5h1v-0.5h-1zm-14.75 1-0.25 0.5h3v-0.5h-2.75zm3.75 0v0.5h1v-0.5h-1zm2 0v0.5h1v-0.5h-1zm2 0v0.5h1v-0.5h-1zm2 0v0.5h1v-0.5h-1zm2 0v0.5h1v-0.5h-1zm2 0v0.5h1v-0.5h-1zm2 0v0.5h3l-0.25-0.5h-2.75z"/>
 </g>
</svg>
