<svg width="24" height="24" version="1.1" xmlns="http://www.w3.org/2000/svg"><defs>
<linearGradient id="ucPurpleBlue" x1="0%" y1="0%" x2="100%" y2="100%">
  <stop offset="0%" style="stop-color:#B794F4;stop-opacity:1"/>
  <stop offset="100%" style="stop-color:#4299E1;stop-opacity:1"/>
</linearGradient>
</defs>
 <path d="m18 22.5h-12c-2 0-4-2-4-4v-12c0-2 2-4 4-4h12c2 0 4 2 4 4v12c0 2-2 4-4 4z" style="fill:#070707;opacity:.2"/>
 <path d="m18 22h-12c-2 0-4-2-4-4v-12c0-2 2-4 4-4h12c2 0 4 2 4 4v12c0 2-2 4-4 4z" style="fill:#33b34f"/>
 <path d="m6 2c-1.999998 0-4 2.000002-4 4v0.5c0-1.999998 2.000002-4 4-4h12c1.999998 0 4 2.000002 4 4v-0.5c0-1.999998-2.000002-4-4-4h-12z" style="fill:#ffffff;opacity:.2"/>
 <path d="m12 11.5v9h5v-7z" style="opacity:.2"/>
 <path d="m12 5.5v5l5 2v-7z" style="opacity:.2"/>
 <path d="m6.0000001 20.5v-5l4.9999999-2v7z" style="opacity:.2"/>
 <path d="m6.0001606 14.5-1.606e-4 -9h5v7z" style="opacity:.2"/>
 <path d="m12 11v9h5v-7z" style="fill:#f3f3f3"/>
 <path d="m12 5v5l5 2v-7z" style="fill:#f3f3f3"/>
 <path d="m6.0000001 20v-5l4.9999999-2v7z" style="fill:#f3f3f3"/>
 <path d="M 6.0001606,14 6,5 h 5 v 7 z" style="fill:#f3f3f3"/>
</svg>
