<svg xmlns="http://www.w3.org/2000/svg" width="24" height="24" version="1"><defs>
<linearGradient id="ucPurpleBlue" x1="0%" y1="0%" x2="100%" y2="100%">
  <stop offset="0%" style="stop-color:#B794F4;stop-opacity:1"/>
  <stop offset="100%" style="stop-color:#4299E1;stop-opacity:1"/>
</linearGradient>
</defs>
 <g transform="translate(1,1)">
  <rect fill="url(#ucPurpleBlue)" width="20" height="20" x="-21" y="-21" rx="1" ry="1" transform="matrix(0,-1,-1,0,0,0)"/>
  <path opacity=".2" d="m2 21.5c-0.554 0-1-0.446-1-1v-0.5c0 0.554 0.446 1 1 1h18c0.554 0 1-0.446 1-1v0.5c0 0.554-0.446 1-1 1h-18z"/>
  <path fill="url(#ucPurpleBlue)" d="m12.06 9.232-1.06 1.061-1.0605-1.061-0.7075 0.7075 1.061 1.0605-1.061 1.06 0.7075 0.708 1.0605-1.061 1.06 1.061 0.708-0.708-1.061-1.06 1.061-1.0605-0.708-0.7075z"/>
  <path fill="url(#ucPurpleBlue)" d="m6 4a2 2 0 0 0 -2 2 2 2 0 0 0 2 2 2 2 0 0 0 2 -2 2 2 0 0 0 -2 -2zm0 1a1 1 0 0 1 1 1 1 1 0 0 1 -1 1 1 1 0 0 1 -1 -1 1 1 0 0 1 1 -1z"/>
  <path fill="url(#ucPurpleBlue)" d="m16 14a2 2 0 0 0 -2 2 2 2 0 0 0 2 2 2 2 0 0 0 2 -2 2 2 0 0 0 -2 -2zm0 1a1 1 0 0 1 1 1 1 1 0 0 1 -1 1 1 1 0 0 1 -1 -1 1 1 0 0 1 1 -1z"/>
  <path fill="url(#ucPurpleBlue)" opacity=".4" d="m8.5 4v4.5h-4.5v0.5h4.5v4h-4.5v0.5h4.5v4.5h0.5v-4.5h4v4.5h0.5v-4.5h4.5v-0.5h-4.5v-4h4.5v-0.5h-4.5v-4.5h-0.5v4.5h-4v-4.5h-0.5zm0.5 5h4v4h-4v-4z"/>
  <path fill="#fff" opacity=".2" d="m2 1c-0.554 0-1 0.446-1 1v0.5c0-0.554 0.446-1 1-1h18c0.554 0 1 0.446 1 1v-0.5c0-0.554-0.446-1-1-1h-18z"/>
 </g>
</svg>
