<svg xmlns="http://www.w3.org/2000/svg" height="24" width="24" version="1.1"><defs>
<linearGradient id="ucPurpleBlue" x1="0%" y1="0%" x2="100%" y2="100%">
  <stop offset="0%" style="stop-color:#B794F4;stop-opacity:1"/>
  <stop offset="100%" style="stop-color:#4299E1;stop-opacity:1"/>
</linearGradient>
</defs>
 <g transform="translate(1,1)">
  <circle style="opacity:.2" cx="11" r="10" cy="11.5"/>
  <circle style="fill:#fecd38" cx="11" r="10" cy="11"/>
  <path style="opacity:.2;fill:#ffffff" d="m11 1a10 10 0 0 0 -10 10 10 10 0 0 0 0.0098 0.293 10 10 0 0 1 9.9902 -9.793 10 10 0 0 1 9.99 9.707 10 10 0 0 0 0.01 -0.207 10 10 0 0 0 -10 -10z"/>
  <path d="m15 4.5h-5l-3 6h3l-2 4h3l-2 5 6-6h-3l3-4h-3z" style="opacity:.2"/>
  <path d="m15 4h-5l-3 6h3l-2 4h3l-2 5 6-6h-3l3-4h-3z" style="fill:#ffffff"/>
 </g>
</svg>
