<svg xmlns="http://www.w3.org/2000/svg" width="24" height="24" version="1"><defs>
<linearGradient id="ucPurpleBlue" x1="0%" y1="0%" x2="100%" y2="100%">
  <stop offset="0%" style="stop-color:#B794F4;stop-opacity:1"/>
  <stop offset="100%" style="stop-color:#4299E1;stop-opacity:1"/>
</linearGradient>
</defs>
 <g transform="translate(1,1)">
  <rect fill="url(#ucPurpleBlue)" width="20" height="20" x="-21" y="-21" rx="1" ry="1" transform="matrix(0,-1,-1,0,0,0)"/>
  <path fill="#fff" opacity=".1" d="m2 1c-0.554 0-1 0.446-1 1v0.5c0-0.554 0.446-1 1-1h18c0.554 0 1 0.446 1 1v-0.5c0-0.554-0.446-1-1-1h-18z"/>
  <path opacity=".2" d="m2 21.5c-0.554 0-1-0.446-1-1v-0.5c0 0.554 0.446 1 1 1h18c0.554 0 1-0.446 1-1v0.5c0 0.554-0.446 1-1 1h-18z"/>
  <g opacity=".2" transform="matrix(.5 0 0 .5 -4 -4)">
   <path d="m16 15 8 4.5 8 4.5-8 4.5-8 4.5v-18z"/>
   <path d="m34 24 6 3.5 6 3.5-6 3.5-6 3.5v-14z"/>
   <path d="m20 32 7 4 7 4-7 4-7 4v-16z"/>
  </g>
  <g fill="url(#ucPurpleBlue)" transform="matrix(.5 0 0 .5 -4 -4.5)">
   <path d="m16 15 8 4.5 8 4.5-8 4.5-8 4.5v-18z"/>
   <path d="m34 24 6 3.5 6 3.5-6 3.5-6 3.5v-14z"/>
   <path d="m20 32 7 4 7 4-7 4-7 4v-16z"/>
  </g>
 </g>
</svg>
