<svg xmlns="http://www.w3.org/2000/svg" width="24" height="24" version="1"><defs>
<linearGradient id="ucPurpleBlue" x1="0%" y1="0%" x2="100%" y2="100%">
  <stop offset="0%" style="stop-color:#B794F4;stop-opacity:1"/>
  <stop offset="100%" style="stop-color:#4299E1;stop-opacity:1"/>
</linearGradient>
</defs>
 <rect style="opacity:0.2" width="13" height="13" x="9" y="8.5" rx="1" ry="1"/>
 <rect style="fill:#1190e6" width="13" height="13" x="9" y="8" rx="1" ry="1"/>
 <path style="opacity:0.2;fill:#ffffff" d="m 10.000002,8.0000018 c -0.5540005,0 -1.0000005,0.446 -1.0000005,1 V 9.500002 c 0,-0.5540002 0.446,-1.0000002 1.0000005,-1.0000002 h 11 c 0.554,0 1,0.446 1,1.0000002 V 9.0000018 c 0,-0.554 -0.446,-1 -1,-1 z"/>
 <rect style="opacity:0.2" width="13" height="13" x="6" y="5.5" rx="1" ry="1"/>
 <rect style="fill:#6eca60" width="13" height="13" x="6" y="5" rx="1" ry="1"/>
 <path style="opacity:0.2;fill:#ffffff" d="M 7,5 C 6.446,5 6,5.446 6,6 v 0.5 c 0,-0.554 0.446,-1 1,-1 h 11 c 0.554,0 1,0.446 1,1 V 6 C 19,5.446 18.554,5 18,5 Z"/>
 <rect style="opacity:0.2" width="13" height="13" x="3" y="2.5" rx="1" ry="1"/>
 <rect style="fill:#ffd748" width="13" height="13" x="3" y="2" rx="1" ry="1"/>
 <path style="opacity:0.2;fill:#ffffff" d="M 4,2 C 3.446,2 3,2.446 3,3 v 0.5 c 0,-0.554 0.446,-1 1,-1 h 11 c 0.554,0 1,0.446 1,1 V 3 C 16,2.446 15.554,2 15,2 Z"/>
</svg>
