<svg xmlns="http://www.w3.org/2000/svg" width="24" height="24" version="1"><defs>
<linearGradient id="ucPurpleBlue" x1="0%" y1="0%" x2="100%" y2="100%">
  <stop offset="0%" style="stop-color:#B794F4;stop-opacity:1"/>
  <stop offset="100%" style="stop-color:#4299E1;stop-opacity:1"/>
</linearGradient>
</defs>
 <g transform="translate(1,1)">
  <path fill="url(#ucPurpleBlue)" d="m11 1h-9c-0.554 0-1 0.446-1 1v9h10z"/>
  <path fill="url(#ucPurpleBlue)" d="m11 1h9c0.554 0 1 0.446 1 1v9h-10z"/>
  <path fill="url(#ucPurpleBlue)" d="m11 21h-9c-0.554 0-1-0.446-1-1v-9h10z"/>
  <path fill="url(#ucPurpleBlue)" d="m11 21h9c0.554 0 1-0.446 1-1v-9h-10z"/>
  <path fill="#fff" opacity=".2" d="m2 1c-0.554 0-1 0.446-1 1v0.5c0-0.554 0.446-1 1-1h18c0.554 0 1 0.446 1 1v-0.5c0-0.554-0.446-1-1-1h-18z"/>
  <path opacity=".2" d="m2 21.5c-0.554 0-1-0.446-1-1v-0.5c0 0.554 0.446 1 1 1h18c0.554 0 1-0.446 1-1v0.5c0 0.554-0.446 1-1 1h-18z"/>
 </g>
</svg>
