<svg xmlns="http://www.w3.org/2000/svg" width="24" height="24" version="1.1"><defs>
<linearGradient id="ucPurpleBlue" x1="0%" y1="0%" x2="100%" y2="100%">
  <stop offset="0%" style="stop-color:#B794F4;stop-opacity:1"/>
  <stop offset="100%" style="stop-color:#4299E1;stop-opacity:1"/>
</linearGradient>
</defs>
 <circle style="opacity:0.2" cx="12" cy="12.5" r="10"/>
 <circle style="fill:#388e3c" cx="12" cy="12" r="10"/>
 <path style="opacity:0.1;fill:none;stroke:#000000;stroke-width:2;stroke-linecap:round;stroke-linejoin:round" d="m 5,5.5 h 4 l -4,4 v 5 l 9,-9 h 5 l -14,14 h 5 l 9,-9 v 5 l -4,4 h 4"/>
 <path style="opacity:0.1;fill:#ffffff" d="M 12,2 A 10,10 0 0 0 2,12 10,10 0 0 0 2.01075,12.291 10,10 0 0 1 12,2.5 10,10 0 0 1 21.9895,12.209 10,10 0 0 0 22,12 10,10 0 0 0 12,2 Z"/>
 <path style="fill:none;stroke:#353535;stroke-width:2;stroke-linecap:round;stroke-linejoin:round" d="M 5,5 H 9 L 5,9 v 5 l 9,-9 h 5 L 5,19 h 5 l 9,-9 v 5 l -4,4 h 4"/>
</svg>
