<svg xmlns="http://www.w3.org/2000/svg" width="24" height="24" version="1.1"><defs>
<linearGradient id="ucPurpleBlue" x1="0%" y1="0%" x2="100%" y2="100%">
  <stop offset="0%" style="stop-color:#B794F4;stop-opacity:1"/>
  <stop offset="100%" style="stop-color:#4299E1;stop-opacity:1"/>
</linearGradient>
</defs>
 <rect style="opacity:0.2" width="20" height="20" x="2" y="2.5" rx="1.5" ry="1.5"/>
 <rect style="fill:#e4e4e4" width="20" height="20" x="2" y="2" rx="1.5" ry="1.5"/>
 <path style="opacity:0.2;fill:#ffffff" d="M 3.5 2 C 2.669 2 2 2.669 2 3.5 L 2 4 C 2 3.169 2.669 2.5 3.5 2.5 L 20.5 2.5 C 21.331 2.5 22 3.169 22 4 L 22 3.5 C 22 2.669 21.331 2 20.5 2 L 3.5 2 z"/>
 <g style="opacity:0.1" transform="translate(0,0.5)">
  <rect width="10" height="1" x="9" y="6" rx=".5" ry=".5"/>
  <rect width="10" height="1" x="9" y="12" rx=".5" ry=".5"/>
  <rect width="10" height="1" x="9" y="18" rx=".5" ry=".5"/>
  <rect width="3" height="3" x="4" y="5" rx=".5" ry=".5"/>
  <rect width="3" height="3" x="4" y="11" rx=".5" ry=".5"/>
  <rect width="3" height="3" x="4" y="17" rx=".5" ry=".5"/>
 </g>
 <rect style="fill:#8e8e8e" width="10" height="1" x="9" y="6" rx=".5" ry=".5"/>
 <rect style="fill:#8e8e8e" width="10" height="1" x="9" y="12" rx=".5" ry=".5"/>
 <rect style="fill:#8e8e8e" width="10" height="1" x="9" y="18" rx=".5" ry=".5"/>
 <rect style="fill:#686868" width="3" height="3" x="4" y="5" rx=".5" ry=".5"/>
 <rect style="fill:#686868" width="3" height="3" x="4" y="11" rx=".5" ry=".5"/>
 <rect style="fill:#686868" width="3" height="3" x="4" y="17" rx=".5" ry=".5"/>
 <circle fill="url(#ucPurpleBlue)" cx="17.5" cy="17.5" r="5.5"/>
 <path fill="url(#ucPurpleBlue)" d="M 15,18.582 V 20 H 16.418 L 20,16.418 18.582,15 Z"/>
</svg>
