<svg xmlns="http://www.w3.org/2000/svg" width="24" height="24" version="1"><defs>
<linearGradient id="ucPurpleBlue" x1="0%" y1="0%" x2="100%" y2="100%">
  <stop offset="0%" style="stop-color:#B794F4;stop-opacity:1"/>
  <stop offset="100%" style="stop-color:#4299E1;stop-opacity:1"/>
</linearGradient>
</defs>
 <g transform="translate(1,1)">
  <path fill="url(#ucPurpleBlue)" d="m21 19v-16c0-0.554-0.446-1-1-1h-18c-0.554 0-1 0.446-1 1v16c0 0.554 0.446 1 1 1h18c0.554 0 1-0.446 1-1z"/>
  <path fill="#fff" opacity=".2" d="m2 2c-0.554 0-1 0.446-1 1v0.5c0-0.554 0.446-1 1-1h18c0.554 0 1 0.446 1 1v-0.5c0-0.554-0.446-1-1-1h-18z"/>
  <path opacity=".2" d="m1 19v0.5c0 0.554 0.446 1 1 1h18c0.554 0 1-0.446 1-1v-0.5c0 0.554-0.446 1-1 1h-18c-0.554 0-1-0.446-1-1z"/>
  <g opacity=".2" transform="translate(-1 -.5)">
   <path d="m4 8v2h7c0.554 0 1 0.37134 1 0.83301v3.334c0 0.46167-0.446 0.83301-1 0.83301h-5v-4.0547h-2v6.055h8.5c0.831 0 1.5-0.669 1.5-1.5v-6c0-0.831-0.669-1.5-1.5-1.5h-6.5195z"/>
   <path d="m17 8v2h2v-2h-2zm0 2.945v6.055h2v-6.0547h-2z"/>
  </g>
  <g fill="#fff" transform="translate(-1,-1)">
   <path d="m4 8v2h7c0.554 0 1 0.37134 1 0.83301v3.334c0 0.46167-0.446 0.83301-1 0.83301h-5v-4.0547h-2v6.055h8.5c0.831 0 1.5-0.669 1.5-1.5v-6c0-0.831-0.669-1.5-1.5-1.5h-6.5195z"/>
   <path d="m17 8v2h2v-2h-2zm0 2.945v6.055h2v-6.0547h-2z"/>
  </g>
 </g>
</svg>
