<svg width="24" height="24" version="1.1" xmlns="http://www.w3.org/2000/svg"><defs>
<linearGradient id="ucPurpleBlue" x1="0%" y1="0%" x2="100%" y2="100%">
  <stop offset="0%" style="stop-color:#B794F4;stop-opacity:1"/>
  <stop offset="100%" style="stop-color:#4299E1;stop-opacity:1"/>
</linearGradient>
</defs>
 <g transform="translate(1,1)">
  <circle cx="11" cy="11.5" r="10" style="opacity:.2"/>
  <circle cx="11" cy="11" r="10" style="fill:#4f4f4f"/>
  <path d="M 11,1 A 10,10 0 0 0 1,11 10,10 0 0 0 1.0098,11.293 10,10 0 0 1 11,1.5 10,10 0 0 1 20.99,11.207 10,10 0 0 0 21,11 10,10 0 0 0 11,1 Z" style="fill:#ffffff;opacity:.1"/>
  <path d="m5 7.5v8h12v-8zm1 1h10v6h-10z" style="opacity:.2"/>
  <path d="m5 7v8h12v-8zm1 1h10v6h-10z" style="fill:#ffffff"/>
 </g>
</svg>
