<svg xmlns="http://www.w3.org/2000/svg" width="24" height="24" version="1"><defs>
<linearGradient id="ucPurpleBlue" x1="0%" y1="0%" x2="100%" y2="100%">
  <stop offset="0%" style="stop-color:#B794F4;stop-opacity:1"/>
  <stop offset="100%" style="stop-color:#4299E1;stop-opacity:1"/>
</linearGradient>
</defs>
 <g transform="translate(1,1)">
  <rect fill="url(#ucPurpleBlue)" width="20" height="19.998" x="-21" y="-21" rx="10" ry="9.999" transform="matrix(0,-1,-1,0,0,0)"/>
  <path fill="#fff" opacity=".2" d="m11 1c-5.5395 0-9.999 4.46-9.999 10 0 0.08386-0.002 0.16664 0 0.25 0.1321-5.423 4.5435-9.75 9.999-9.75s9.867 4.3268 9.999 9.75c0.002-0.08335 0-0.16614 0-0.25 0-5.54-4.459-10-9.999-10z"/>
  <path opacity=".2" d="m1.0058 11.25c-0.002 0.084-0.0058 0.166-0.0058 0.25 0 5.54 4.46 10 10 10s10-4.46 10-10c0-0.084-0.004-0.1665-0.006-0.25-0.132 5.423-4.538 9.75-9.994 9.75s-9.862-4.327-9.994-9.75z"/>
  <path opacity=".2" d="m10 5.5c-0.277 0-1.0173 0.2235-1 0.5v7.5h-2l4 5 4-5h-2v-7.5c0-0.277-0.723-0.5-1-0.5z"/>
  <path fill="#fff" d="m10 5c-0.277 0-1.0173 0.2235-1 0.5v7.5h-2l4 5 4-5h-2v-7.5c0-0.277-0.723-0.5-1-0.5z"/>
 </g>
</svg>
