<svg xmlns="http://www.w3.org/2000/svg" width="24" height="24" version="1.1"><defs>
<linearGradient id="ucPurpleBlue" x1="0%" y1="0%" x2="100%" y2="100%">
  <stop offset="0%" style="stop-color:#B794F4;stop-opacity:1"/>
  <stop offset="100%" style="stop-color:#4299E1;stop-opacity:1"/>
</linearGradient>
</defs>
 <circle style="opacity:0.2" cx="12" cy="12.5" r="10"/>
 <circle style="fill:#4c3aa7" cx="12" cy="12" r="10"/>
 <ellipse style="opacity:0.2" cx="6.5" cy="14.5" rx="3.5" ry="4"/>
 <ellipse style="fill:#dfdfdf" cx="6.5" cy="14" rx="3.5" ry="4"/>
 <ellipse style="fill:#5ca32e" cx="6.5" cy="14" rx="1.5" ry="2"/>
 <ellipse style="opacity:0.2" cx="12" cy="14" rx="4" ry="4.5"/>
 <ellipse style="fill:#dfdfdf" cx="12" cy="13.5" rx="4" ry="4.5"/>
 <ellipse style="fill:#5ca32e" cx="12.5" cy="13" rx="1.5" ry="2"/>
 <path style="fill:#3f3f3f" d="m 13.000003,13 a 0.5,1 0 0 1 -0.5,1 0.5,1 0 0 1 -0.5,-1 0.5,1 0 0 1 0.5,-1 0.5,1 0 0 1 0.5,1 z"/>
 <path style="fill:#3f3f3f" d="m 7,14.000002 a 0.5,1 0 0 1 -0.5,1 0.5,1 0 0 1 -0.5,-1 0.5,1 0 0 1 0.5,-1 0.5,1 0 0 1 0.5,1 z"/>
 <path style="opacity:0.2;fill:#ffffff" d="M 12,2 A 10,10 0 0 0 2,12 10,10 0 0 0 2.0098,12.293 10,10 0 0 1 12,2.5 10,10 0 0 1 21.99,12.207 10,10 0 0 0 22,12 10,10 0 0 0 12,2 Z"/>
</svg>
