<svg width="24" height="24" version="1.1" xmlns="http://www.w3.org/2000/svg"><defs>
<linearGradient id="ucPurpleBlue" x1="0%" y1="0%" x2="100%" y2="100%">
  <stop offset="0%" style="stop-color:#B794F4;stop-opacity:1"/>
  <stop offset="100%" style="stop-color:#4299E1;stop-opacity:1"/>
</linearGradient>
</defs>
 <g transform="translate(1,1)">
  <circle cx="11" cy="11" r="10" style="fill:#3b6ec5"/>
  <path d="m18 4.5v3h1v5h-2v2h-2v-3h1v-1h-4v2h2v3h-2v1h2v1h-3v-1h-3v-2h2v-2h-3v-2h2v-2h-2v-1h-1v3h-3v-1h2v-3h-2v-0.9804688a10 10 0 0 0-2 5.9804688 10 10 0 0 0 10 10 10 10 0 0 0 9.949219-9h-0.949219v-4h0.527344a10 10 0 0 0-2.388672-4z" style="opacity:.2"/>
  <path d="m18 4v3h1v5h-2v2h-2v-3h1v-1h-4v2h2v3h-2v1h2v1h-3v-1h-3v-2h2v-2h-3v-2h2v-2h-2v-1h-1v3h-3v-1h2v-3h-2v-0.9804688a10 10 0 0 0-2 5.9804688 10 10 0 0 0 10 10 10 10 0 0 0 9.949219-9h-0.949219v-4h0.527344a10 10 0 0 0-2.388672-4z" style="fill:#53c457"/>
  <path d="M 11,1 A 10,10 0 0 0 1,11 10,10 0 0 0 1.0098,11.293 10,10 0 0 1 11,1.5 10,10 0 0 1 20.99,11.207 10,10 0 0 0 21,11 10,10 0 0 0 11,1 Z" style="fill:#ffffff;opacity:.2"/>
  <circle cx="12.5" cy="6.5" r="1.5" style="fill:#ffffff"/>
 </g>
</svg>
