<svg width="24" height="24" version="1.1" xmlns="http://www.w3.org/2000/svg"><defs>
<linearGradient id="ucPurpleBlue" x1="0%" y1="0%" x2="100%" y2="100%">
  <stop offset="0%" style="stop-color:#B794F4;stop-opacity:1"/>
  <stop offset="100%" style="stop-color:#4299E1;stop-opacity:1"/>
</linearGradient>
</defs>
 <g transform="translate(1,1)">
  <circle cx="11" cy="11.5" r="10" style="opacity:.2"/>
  <circle cx="11" cy="11" r="10" style="fill:#54749d"/>
  <path d="M 11,1 A 10,10 0 0 0 1,11 10,10 0 0 0 1.0098,11.293 10,10 0 0 1 11,1.5 10,10 0 0 1 20.99,11.207 10,10 0 0 0 21,11 10,10 0 0 0 11,1 Z" style="fill:#ffffff;opacity:.2"/>
  <path d="m17 4.5s-15 0.75-15 7 15 7 15 7-14-2-14-7 14-7 14-7zm-1 1s-12 2.25-12 6 12 6 12 6-11-3.5-11-6 11-6 11-6zm-2 2s-8 1.5-8 4 8 4 8 4-7-2-7-4 7-4 7-4z" style="opacity:.2"/>
  <path d="m17 4s-15 0.75-15 7 15 7 15 7-14-2-14-7 14-7 14-7zm-1 1s-12 2.25-12 6 12 6 12 6-11-3.5-11-6 11-6 11-6zm-2 2s-8 1.5-8 4 8 4 8 4-7-2-7-4 7-4 7-4z" style="fill:#ffffff"/>
 </g>
</svg>
