<svg xmlns="http://www.w3.org/2000/svg" width="24" height="24" version="1.1"><defs>
<linearGradient id="ucPurpleBlue" x1="0%" y1="0%" x2="100%" y2="100%">
  <stop offset="0%" style="stop-color:#B794F4;stop-opacity:1"/>
  <stop offset="100%" style="stop-color:#4299E1;stop-opacity:1"/>
</linearGradient>
</defs>
 <rect style="opacity:0.2" width="20" height="20" x="2" y="2.5" ry="1"/>
 <rect style="fill:#4f4f4f" width="20" height="20" x="2" y="2" ry="1"/>
 <path style="opacity:0.1;fill:#ffffff" d="M 3,2 C 2.446,2 2,2.446 2,3 v 0.5 c 0,-0.554 0.446,-1 1,-1 h 18 c 0.554,0 1,0.446 1,1 V 3 C 22,2.446 21.554,2 21,2 Z"/>
 <path style="opacity:0.2" d="m 5,5.5 v 14 h 3 v -5 h 3 v -3 H 8 v -3 h 3 v -3 z m 7,0 v 3 h 2 v 11 h 3 v -11 h 2 v -3 z"/>
 <path style="fill:#ffffff" d="m 5,5 v 14 h 3 v -5 h 3 V 11 H 8 V 8 h 3 V 5 Z m 7,0 v 3 h 2 v 11 h 3 V 8 h 2 V 5 Z"/>
</svg>
