<svg xmlns="http://www.w3.org/2000/svg" width="24" height="24" version="1"><defs>
<linearGradient id="ucPurpleBlue" x1="0%" y1="0%" x2="100%" y2="100%">
  <stop offset="0%" style="stop-color:#B794F4;stop-opacity:1"/>
  <stop offset="100%" style="stop-color:#4299E1;stop-opacity:1"/>
</linearGradient>
</defs>
 <g transform="translate(1,1)">
  <rect fill="url(#ucPurpleBlue)" width="20" height="20" x="-21" y="-21" rx="1" ry="1" transform="matrix(0,-1,-1,0,0,0)"/>
  <path fill="#fff" opacity=".1" d="m2 1c-0.554 0-1 0.446-1 1v0.5c0-0.554 0.446-1 1-1h18c0.554 0 1 0.446 1 1v-0.5c0-0.554-0.446-1-1-1h-18z"/>
  <path opacity=".2" d="m2 21.5c-0.554 0-1-0.446-1-1v-0.5c0 0.554 0.446 1 1 1h18c0.554 0 1-0.446 1-1v0.5c0 0.554-0.446 1-1 1h-18z"/>
  <g style="enable-background:new" transform="translate(-13,-265)">
   <rect fill="none" stroke="#c4c4c4" stroke-linecap="round" width="13" height="13" x="17.5" y="269.5"/>
   <rect fill="none" stroke="#c4c4c4" stroke-linecap="round" width="7" height="7" x="20.5" y="272.5"/>
   <path fill="none" stroke="#c4c4c4" d="m16.5 268.5 4 4"/>
   <path fill="none" stroke="#c4c4c4" d="m27.5 272.5 4-4"/>
   <path fill="none" stroke="#c4c4c4" d="m27.5 279.5 4 4"/>
   <path fill="none" stroke="#c4c4c4" d="m20.5 279.5-4 4"/>
   <circle fill="url(#ucPurpleBlue)" cx="17.5" cy="269.5" r="1.5"/>
   <circle fill="url(#ucPurpleBlue)" cx="30.5" cy="269.5" r="1.5"/>
   <circle fill="url(#ucPurpleBlue)" cx="20.5" cy="272.5" r="1.5"/>
   <circle fill="url(#ucPurpleBlue)" cx="27.5" cy="272.5" r="1.5"/>
   <circle fill="url(#ucPurpleBlue)" cx="27.5" cy="279.5" r="1.5"/>
   <circle fill="url(#ucPurpleBlue)" cx="20.5" cy="279.5" r="1.5"/>
   <circle fill="url(#ucPurpleBlue)" cx="17.5" cy="282.5" r="1.5"/>
   <circle fill="url(#ucPurpleBlue)" cx="30.5" cy="282.5" r="1.5"/>
  </g>
 </g>
</svg>
