<svg xmlns="http://www.w3.org/2000/svg" width="24" height="24" version="1.1"><defs>
<linearGradient id="ucPurpleBlue" x1="0%" y1="0%" x2="100%" y2="100%">
  <stop offset="0%" style="stop-color:#B794F4;stop-opacity:1"/>
  <stop offset="100%" style="stop-color:#4299E1;stop-opacity:1"/>
</linearGradient>
</defs>
 <circle style="opacity:.2" cx="12" cy="12.5" r="10"/>
 <circle style="fill:#4454ba" cx="12" cy="12" r="10"/>
 <path style="fill:#ffffff;opacity:.1" d="M 12,2 A 10,10 0 0 0 2,12 10,10 0 0 0 2.01075,12.291 10,10 0 0 1 12,2.5 10,10 0 0 1 21.9895,12.209 10,10 0 0 0 22,12 10,10 0 0 0 12,2 Z"/>
 <path style="fill:none;opacity:.2;stroke-linejoin:round;stroke-width:2;stroke:#000000" d="m11.5 9.5h-4.5s-1 1.5-1 3.25 1 2.75 1 2.75h4v-3"/>
 <path style="fill:none;stroke-linejoin:round;stroke-width:2;stroke:#9e9e9e" d="m11.5 9h-4.5s-1 1.5-1 3.25 1 2.75 1 2.75h4v-3"/>
 <path style="fill:none;opacity:.2;stroke-linejoin:round;stroke-width:2;stroke:#000000" d="m11 9.5h6l-5 6h6"/>
 <path style="fill:none;stroke-linejoin:round;stroke-width:2;stroke:#fefefe" d="m11 9h6l-5 6h6"/>
</svg>
