<svg xmlns="http://www.w3.org/2000/svg" width="24" height="24" version="1"><defs>
<linearGradient id="ucPurpleBlue" x1="0%" y1="0%" x2="100%" y2="100%">
  <stop offset="0%" style="stop-color:#B794F4;stop-opacity:1"/>
  <stop offset="100%" style="stop-color:#4299E1;stop-opacity:1"/>
</linearGradient>
</defs>
 <g transform="translate(1 1)">
  <path fill="url(#ucPurpleBlue)" d="m11 1c-5.5395 0-9.9991 4.46-9.9991 10s4.4596 10 9.9991 10 9.9991-4.46 9.9991-10-4.459-10-9.999-10z"/>
  <path fill="#fff" opacity=".2" d="m11 1c-5.5395 0-9.9991 4.46-9.9991 10 0 0.084-0.002 0.1665 0 0.25 0.1322-5.423 4.5436-9.75 9.9991-9.75s9.8671 4.327 9.9991 9.75c0.002-0.0835 0-0.166 0-0.25 0-5.54-4.459-10-9.999-10z"/>
  <path opacity=".2" d="m1.0067 11.25c-0.00205 0.0835-0.00585 0.166-0.00585 0.25 0 5.54 4.4596 10 9.9991 10s9.9991-4.46 9.9991-10c0-0.08394-0.0038-0.16657-0.0059-0.25-0.132 5.423-4.537 9.75-9.993 9.75-5.4554 0-9.861-4.327-9.993-9.75z"/>
  <circle opacity=".2" cx="11" cy="11.5" r="8"/>
  <circle fill="#fff" cx="11" cy="11" r="8"/>
  <path fill="url(#ucPurpleBlue)" d="m6.0004 11h1v5h8v-5h1l-5-5z"/>
  <rect fill="url(#ucPurpleBlue)" width="1" height="5" x="13" y="7"/>
 </g>
</svg>
