<svg width="24" height="24" version="1.1" xmlns="http://www.w3.org/2000/svg"><defs>
<linearGradient id="ucPurpleBlue" x1="0%" y1="0%" x2="100%" y2="100%">
  <stop offset="0%" style="stop-color:#B794F4;stop-opacity:1"/>
  <stop offset="100%" style="stop-color:#4299E1;stop-opacity:1"/>
</linearGradient>
</defs>
 <path d="m3.5 22h17v0.5h-17z" opacity=".2"/>
 <path d="m3.5 6h17c-0.673 5.3628-0.6603 10.696 0 16h-17c0.68438-5.4182 0.64876-10.747 0-16z" fill="url(#ucPurpleBlue)"/>
 <path d="m12 3v3h8.5l-2.5-3z" fill="url(#ucPurpleBlue)"/>
 <path d="m6 3h6v3h-8.5z" fill="url(#ucPurpleBlue)"/>
 <path d="m6 3-0.41602 0.5h6.416v-0.5z" fill="#fff" opacity=".2"/>
 <path d="m12 4.5v0.5l5.666 1h2.834z" opacity=".2"/>
 <path d="m12 2c0.25134 0 6 1 6 1l2.5 3-8.5-1.5v-2.5" fill="url(#ucPurpleBlue)"/>
 <path d="m12 2v0.5l6.4844 1.0801-0.4844-0.58008z" fill="#fff" opacity=".2"/>
 <path d="m9 15.5c0.01743 1.1075 1.3552 1.9993 3 2 1.6448-6e-4 2.9826-0.8925 3-2-0.899 0.5491-1.9384 0.6636-3 0.6667-1.0616-0.0031-2.101-0.1176-3-0.6667z" opacity=".2"/>
 <path d="m9 15c0.01743 1.1075 1.3552 1.9993 3 2 1.6448-6e-4 2.9826-0.8925 3-2-0.899 0.5491-1.9384 0.6636-3 0.6667-1.0616-0.0031-2.101-0.1176-3-0.6667z" fill="url(#ucPurpleBlue)"/>
 <circle cx="6" cy="15.5" r="1" opacity=".2"/>
 <circle cx="6" cy="15" r="1" fill="url(#ucPurpleBlue)"/>
 <circle cx="18" cy="15.5" r="1" opacity=".2"/>
 <circle cx="18" cy="15" r="1" fill="url(#ucPurpleBlue)"/>
 <circle cx="8" cy="12.5" r="2" opacity=".2"/>
 <circle cx="8" cy="12" r="2" fill="url(#ucPurpleBlue)"/>
 <circle cx="7.625" cy="11.625" r=".625" fill="url(#ucPurpleBlue)"/>
 <circle cx="16" cy="12.5" r="2" opacity=".2"/>
 <circle cx="16" cy="12" r="2" fill="url(#ucPurpleBlue)"/>
 <circle cx="15.625" cy="11.625" r=".625" fill="url(#ucPurpleBlue)"/>
</svg>
