<svg width="24" height="24" version="1.1" xmlns="http://www.w3.org/2000/svg"><defs>
<linearGradient id="ucPurpleBlue" x1="0%" y1="0%" x2="100%" y2="100%">
  <stop offset="0%" style="stop-color:#B794F4;stop-opacity:1"/>
  <stop offset="100%" style="stop-color:#4299E1;stop-opacity:1"/>
</linearGradient>
</defs>
 <rect x="2" y="2.5" width="20" height="20" rx="1.5" ry="1.5" style="opacity:.2"/>
 <rect x="2" y="2" width="20" height="20" rx="1.9999999" ry="1.9999999" style="fill:#e4e4e4"/>
 <rect x="3" y="3" width="18" height="16" style="fill:#fecd38"/>
 <rect x="3" y="11" width="18" height="8" style="fill:#e97e10"/>
 <rect x="3" y="3" width="18" height=".5" style="opacity:.1"/>
 <rect x="5" y="9" width="2" height="2" style="fill:#e97e10"/>
 <rect x="9" y="9" width="2" height="2" style="fill:#e97e10"/>
 <rect x="13" y="9" width="2" height="2" style="fill:#e97e10"/>
 <rect x="17" y="9" width="2" height="2" style="fill:#e97e10"/>
 <rect x="17" y="11" width="2" height="2" style="fill:#fecd38"/>
 <rect x="13" y="11" width="2" height="2" style="fill:#fecd38"/>
 <rect x="9" y="11" width="2" height="2" style="fill:#fecd38"/>
 <rect x="5" y="11" width="2" height="2" style="fill:#fecd38"/>
 <rect x="3" y="13" width="2" height="2" style="fill:#fecd38"/>
 <rect x="11" y="13" width="2" height="2" style="fill:#fecd38"/>
 <rect x="7" y="15" width="2" height="2" style="fill:#fecd38"/>
 <rect x="15" y="15" width="2" height="2" style="fill:#fecd38"/>
 <rect x="11" y="7" width="2" height="2" style="fill:#e97e10"/>
 <rect x="19" y="7" width="2" height="2" style="fill:#e97e10"/>
 <rect x="15" y="5" width="2" height="2" style="fill:#e97e10"/>
 <rect x="7" y="5" width="2" height="2" style="fill:#e97e10"/>
 <rect x="3" y="7" width="2" height="2" style="fill:#e97e10"/>
 <rect x="19" y="13" width="2" height="2" style="fill:#fecd38"/>
</svg>
