<svg xmlns="http://www.w3.org/2000/svg" height="24" width="24" version="1.1"><defs>
<linearGradient id="ucPurpleBlue" x1="0%" y1="0%" x2="100%" y2="100%">
  <stop offset="0%" style="stop-color:#B794F4;stop-opacity:1"/>
  <stop offset="100%" style="stop-color:#4299E1;stop-opacity:1"/>
</linearGradient>
</defs>
 <g transform="translate(1,1)">
  <path d="m1 17.5v-12h2v-2h2v-2h12v2h2v2h2v12h-2v2h-2v2h-12v-2h-2v-2z" style="opacity:.2"/>
  <path d="m1 17v-12h2v-2h2v-2h12v2h2v2h2v12h-2v2h-2v2h-12v-2h-2v-2z" style="fill:#e41a00"/>
  <path style="opacity:.2" d="m5 5.5v12h3l0.5-2s0.5 1 1.5 1c1.20185 0 2-1 2-3v-8zm11 0v8c0 2.083612-0.524765 3.291129-1.349609 4h2.349609v-12z"/>
  <path style="fill:#ffffff" d="m5 5v12h3l0.5-2s0.5 1 1.5 1c1.20185 0 2-1 2-3v-8zm11 0v8c0 2.083612-0.524765 3.291129-1.349609 4h2.349609v-12z"/>
  <path style="opacity:.2;fill:#ffffff" d="m5 1v0.5h12v-0.5zm-2 2v0.5h2v-0.5zm14 0v0.5h2v-0.5zm-16 2v0.5h2v-0.5zm18 0v0.5h2v-0.5z"/>
 </g>
</svg>
