<svg xmlns="http://www.w3.org/2000/svg" width="24" height="24" version="1"><defs>
<linearGradient id="ucPurpleBlue" x1="0%" y1="0%" x2="100%" y2="100%">
  <stop offset="0%" style="stop-color:#B794F4;stop-opacity:1"/>
  <stop offset="100%" style="stop-color:#4299E1;stop-opacity:1"/>
</linearGradient>
</defs>
 <g transform="translate(1,1)">
  <rect fill="url(#ucPurpleBlue)" width="20" height="20" x="-21" y="-21" rx="1" ry="1" transform="matrix(0,-1,-1,0,0,0)"/>
  <path fill="#fff" opacity=".2" d="m2 1c-0.554 0-1 0.446-1 1v0.5c0-0.554 0.446-1 1-1h18c0.554 0 1 0.446 1 1v-0.5c0-0.554-0.446-1-1-1h-18z"/>
  <path opacity=".2" d="m2 21.5c-0.554 0-1-0.446-1-1v-0.5c0 0.554 0.446 1 1 1h18c0.554 0 1-0.446 1-1v0.5c0 0.554-0.446 1-1 1h-18z"/>
  <rect fill="url(#ucPurpleBlue)" width="6.556" height="6.556" x="-12.47" y="-3.28" rx=".328" ry=".328" transform="matrix(-.70711 -.70711 -.70711 .70711 0 0)"/>
  <rect fill="url(#ucPurpleBlue)" width="6.556" height="6.556" x="-18.83" y="-9.64" rx=".328" ry=".328" transform="matrix(-.70711 -.70711 -.70711 .70711 0 0)"/>
  <rect fill="url(#ucPurpleBlue)" width="6.556" height="6.556" x="-18.83" y="3.09" rx=".328" ry=".328" transform="matrix(-.70711 -.70711 -.70711 .70711 0 0)"/>
  <rect fill="url(#ucPurpleBlue)" width="6.556" height="6.556" x="-25.2" y="-3.28" rx=".328" ry=".328" transform="matrix(-.70711 -.70711 -.70711 .70711 0 0)"/>
 </g>
</svg>
