<svg xmlns="http://www.w3.org/2000/svg" width="24" height="24" version="1"><defs>
<linearGradient id="ucPurpleBlue" x1="0%" y1="0%" x2="100%" y2="100%">
  <stop offset="0%" style="stop-color:#B794F4;stop-opacity:1"/>
  <stop offset="100%" style="stop-color:#4299E1;stop-opacity:1"/>
</linearGradient>
</defs>
 <g transform="translate(1,1)">
  <circle fill="url(#ucPurpleBlue)" cx="11" cy="11" r="10"/>
  <path fill="#fff" opacity=".2" d="m11 1c-5.5395 0-9.999 4.46-9.999 10 0 0.08386-0.002 0.16664 0 0.25 0.1321-5.423 4.5435-9.75 9.999-9.75s9.867 4.3268 9.999 9.75c0.002-0.08335 0-0.16614 0-0.25 0-5.54-4.459-10-9.999-10z"/>
  <path opacity=".2" d="m20.99 11.209a10 10 0 0 1 -9.99 9.791 10 10 0 0 1 -9.989 -9.709 10 10 0 0 0 -0.011 0.209 10 10 0 0 0 10 10 10 10 0 0 0 10 -10 10 10 0 0 0 -0.0105 -0.291z"/>
  <path opacity=".2" d="m11 5.5a6 6 0 0 0 -5.6504 4h-1.8496l-0.5 1h2.0859a6 6 0 0 0 -0.0859 1h-0.5l-0.5 1h1.0898a6 6 0 0 0 5.9102 5 6 6 0 0 0 4.4629 -2h-1.4727a5 5 0 0 1 -2.99 1 5 5 0 0 1 -4.8945 -4h5.3945l0.5-1h-6a5 5 0 0 1 0.10156 -1h5.3984l0.5-1h-5.5801a5 5 0 0 1 4.5801 -3 5 5 0 0 1 2.9902 1h1.4746a6 6 0 0 0 -4.465 -2z"/>
  <path fill="url(#ucPurpleBlue)" d="m11 5a6 6 0 0 0 -5.6504 4h-1.8496l-0.5 1h2.0859a6 6 0 0 0 -0.0859 1h-0.5l-0.5 1h1.0898a6 6 0 0 0 5.9102 5 6 6 0 0 0 4.463 -2h-1.4727a5 5 0 0 1 -2.99 1 5 5 0 0 1 -4.8945 -4h5.3945l0.5-1h-6a5 5 0 0 1 0.1016 -1h5.3984l0.5-1h-5.5801a5 5 0 0 1 4.5801 -3 5 5 0 0 1 2.99 1h1.4746a6 6 0 0 0 -4.465 -2z"/>
 </g>
</svg>
