<svg xmlns="http://www.w3.org/2000/svg" width="24" height="24" version="1"><defs>
<linearGradient id="ucPurpleBlue" x1="0%" y1="0%" x2="100%" y2="100%">
  <stop offset="0%" style="stop-color:#B794F4;stop-opacity:1"/>
  <stop offset="100%" style="stop-color:#4299E1;stop-opacity:1"/>
</linearGradient>
</defs>
 <rect style="opacity:0.2" width="20" height="20" x="2" y="2.5" rx="6" ry="6"/>
 <rect style="fill:#e4e4e4" width="20" height="20" x="2" y="2" rx="6" ry="6"/>
 <rect style="opacity:0.1" width="14" height="14" x="-19.5" y="-19" rx="7" ry="7" transform="matrix(0,-1,-1,0,0,0)"/>
 <rect style="fill:#e74c3c" width="14" height="14" x="-19" y="-19" rx="7" ry="7" transform="matrix(0,-1,-1,0,0,0)"/>
 <path style="fill:#ffffff;opacity:0.2" d="M 8 2 C 4.676 2 2 4.676 2 8 L 2 8.5 C 2 5.176 4.676 2.5 8 2.5 L 16 2.5 C 19.324 2.5 22 5.176 22 8.5 L 22 8 C 22 4.676 19.324 2 16 2 L 8 2 z"/>
</svg>
