<svg width="24" height="24" version="1.1" xmlns="http://www.w3.org/2000/svg"><defs>
<linearGradient id="ucPurpleBlue" x1="0%" y1="0%" x2="100%" y2="100%">
  <stop offset="0%" style="stop-color:#B794F4;stop-opacity:1"/>
  <stop offset="100%" style="stop-color:#4299E1;stop-opacity:1"/>
</linearGradient>
</defs>
 <rect x="2" y="2.5" width="20" height="20" rx="1" ry="1" style="opacity:.2"/>
 <rect x="2" y="2" width="20" height="20" rx="1" ry="1" style="fill:#4f4f4f"/>
 <path d="m3 2c-0.554 0-1 0.446-1 1v0.5c0-0.554 0.446-1 1-1h18c0.554 0 1 0.446 1 1v-0.5c0-0.554-0.446-1-1-1z" style="fill:#fff;opacity:.1"/>
 <path d="m6 5.5c-0.554 0-1 0.446-1 1v5.5l8-6.5zm10 0-6.334 5.1816 9.0313 8.5313c0.18552-0.18134 0.30273-0.43177 0.30273-0.71289v-12c0-0.554-0.446-1-1-1h-2zm-8 6.5-3 2.5v4c0 0.554 0.446 1 1 1h10z" style="opacity:.2"/>
 <path d="m6 5c-0.554 0-1 0.446-1 1v5.5l8-6.5zm10 0-6.334 5.1816 9.0313 8.5313c0.18552-0.18134 0.30273-0.43177 0.30273-0.71289v-12c0-0.554-0.446-1-1-1h-2zm-8 6.5-3 2.5v4c0 0.554 0.446 1 1 1h10z" style="fill:#fff"/>
</svg>
