<svg xmlns="http://www.w3.org/2000/svg" width="24" height="24" version="1"><defs>
<linearGradient id="ucPurpleBlue" x1="0%" y1="0%" x2="100%" y2="100%">
  <stop offset="0%" style="stop-color:#B794F4;stop-opacity:1"/>
  <stop offset="100%" style="stop-color:#4299E1;stop-opacity:1"/>
</linearGradient>
</defs>
 <g transform="translate(1,1)">
  <path fill="url(#ucPurpleBlue)" d="m19 20v-18c0-0.554-0.446-1-1-1h-14c-0.554 0-1 0.446-1 1v18c0 0.554 0.446 1 1 1h14c0.554 0 1-0.446 1-1z"/>
  <path fill="#fff" opacity=".1" d="m4 1c-0.554 0-1 0.446-1 1v0.5c0-0.554 0.446-1 1-1h14c0.554 0 1 0.446 1 1v-0.5c0-0.554-0.446-1-1-1z"/>
  <path fill="url(#ucPurpleBlue)" d="m18 21c0.554 0 1-0.446 1-1v-8h-16v8c0 0.554 0.446 1 1 1z"/>
  <path opacity=".2" d="m3 20v0.5c0 0.554 0.446 1 1 1h14c0.554 0 1-0.446 1-1v-0.5c0 0.554-0.446 1-1 1h-14c-0.554 0-1-0.446-1-1z"/>
  <g transform="translate(55.847 -1)">
   <g fill="url(#ucPurpleBlue)" transform="matrix(1.0909 0 0 1 -57.393 0)">
    <path d="m6 5h11v1h-11z"/>
    <path d="m6 8h11v1h-11z"/>
    <path d="m6 11h11v1h-11z"/>
   </g>
   <g fill="#fff" transform="matrix(1.0909 0 0 1 -57.393 8)">
    <path d="m6 5h11v1h-11z"/>
    <path d="m6 8h11v1h-11z"/>
    <path d="m6 11h11v1h-11z"/>
   </g>
  </g>
 </g>
</svg>
