<svg xmlns="http://www.w3.org/2000/svg" width="24" height="24" version="1"><defs>
<linearGradient id="ucPurpleBlue" x1="0%" y1="0%" x2="100%" y2="100%">
  <stop offset="0%" style="stop-color:#B794F4;stop-opacity:1"/>
  <stop offset="100%" style="stop-color:#4299E1;stop-opacity:1"/>
</linearGradient>
</defs>
 <g transform="translate(1,1)">
  <path fill="url(#ucPurpleBlue)" d="m1.5 1h5c0.277 0 0.5 0.223 0.5 0.5v5c0 0.277-0.223 0.5-0.5 0.5h-5c-0.277 0-0.5-0.223-0.5-0.5v-5c0-0.277 0.223-0.5 0.5-0.5z"/>
  <rect fill="url(#ucPurpleBlue)" width="6" height="6" x="8" y="1" rx=".5" ry=".5"/>
  <path fill="url(#ucPurpleBlue)" d="m15.5 1h5c0.277 0 0.5 0.223 0.5 0.5v5c0 0.277-0.223 0.5-0.5 0.5h-5c-0.277 0-0.5-0.223-0.5-0.5v-5c0-0.277 0.223-0.5 0.5-0.5z"/>
  <path fill="url(#ucPurpleBlue)" d="m1.5 8h5c0.277 0 0.5 0.223 0.5 0.5v5c0 0.277-0.223 0.5-0.5 0.5h-5c-0.277 0-0.5-0.223-0.5-0.5v-5c0-0.277 0.223-0.5 0.5-0.5z"/>
  <rect fill="url(#ucPurpleBlue)" width="6" height="6" x="8" y="8" rx=".5" ry=".5"/>
  <path fill="url(#ucPurpleBlue)" d="m15.5 8h5c0.277 0 0.5 0.223 0.5 0.5v5c0 0.277-0.223 0.5-0.5 0.5h-5c-0.277 0-0.5-0.223-0.5-0.5v-5c0-0.277 0.223-0.5 0.5-0.5z"/>
  <path fill="url(#ucPurpleBlue)" d="m1.5 15h5c0.277 0 0.5 0.223 0.5 0.5v5c0 0.277-0.223 0.5-0.5 0.5h-5c-0.277 0-0.5-0.223-0.5-0.5v-5c0-0.277 0.223-0.5 0.5-0.5z"/>
  <rect fill="url(#ucPurpleBlue)" width="6" height="6" x="8" y="15" rx=".5" ry=".5"/>
  <path fill="url(#ucPurpleBlue)" d="m15.5 15h5c0.277 0 0.5 0.223 0.5 0.5v5c0 0.277-0.223 0.5-0.5 0.5h-5c-0.277 0-0.5-0.223-0.5-0.5v-5c0-0.277 0.223-0.5 0.5-0.5z"/>
  <path opacity=".2" d="m1 6.5v0.5c0 0.277 0.223 0.5 0.5 0.5h5c0.277 0 0.5-0.223 0.5-0.5v-0.5c0 0.277-0.223 0.5-0.5 0.5h-5c-0.277 0-0.5-0.223-0.5-0.5zm7 0v0.5c0 0.277 0.223 0.5 0.5 0.5h5c0.277 0 0.5-0.223 0.5-0.5v-0.5c0 0.277-0.223 0.5-0.5 0.5h-5c-0.277 0-0.5-0.223-0.5-0.5zm7 0v0.5c0 0.277 0.223 0.5 0.5 0.5h5c0.277 0 0.5-0.223 0.5-0.5v-0.5c0 0.277-0.223 0.5-0.5 0.5h-5c-0.277 0-0.5-0.223-0.5-0.5zm-14 7v0.5c0 0.277 0.223 0.5 0.5 0.5h5c0.277 0 0.5-0.223 0.5-0.5v-0.5c0 0.277-0.223 0.5-0.5 0.5h-5c-0.277 0-0.5-0.223-0.5-0.5zm7 0v0.5c0 0.277 0.223 0.5 0.5 0.5h5c0.277 0 0.5-0.223 0.5-0.5v-0.5c0 0.277-0.223 0.5-0.5 0.5h-5c-0.277 0-0.5-0.223-0.5-0.5zm7 0v0.5c0 0.277 0.223 0.5 0.5 0.5h5c0.277 0 0.5-0.223 0.5-0.5v-0.5c0 0.277-0.223 0.5-0.5 0.5h-5c-0.277 0-0.5-0.223-0.5-0.5zm-14 7v0.5c0 0.277 0.223 0.5 0.5 0.5h5c0.277 0 0.5-0.223 0.5-0.5v-0.5c0 0.277-0.223 0.5-0.5 0.5h-5c-0.277 0-0.5-0.223-0.5-0.5zm7 0v0.5c0 0.277 0.223 0.5 0.5 0.5h5c0.277 0 0.5-0.223 0.5-0.5v-0.5c0 0.277-0.223 0.5-0.5 0.5h-5c-0.277 0-0.5-0.223-0.5-0.5zm7 0v0.5c0 0.277 0.223 0.5 0.5 0.5h5c0.277 0 0.5-0.223 0.5-0.5v-0.5c0 0.277-0.223 0.5-0.5 0.5h-5c-0.277 0-0.5-0.223-0.5-0.5z"/>
  <path fill="#fff" opacity=".2" d="m1.5 1c-0.277 0-0.5 0.223-0.5 0.5v0.5c0-0.277 0.223-0.5 0.5-0.5h5c0.277 0 0.5 0.223 0.5 0.5v-0.5c0-0.277-0.223-0.5-0.5-0.5h-5zm7 0c-0.277 0-0.5 0.223-0.5 0.5v0.5c0-0.277 0.223-0.5 0.5-0.5h5c0.277 0 0.5 0.223 0.5 0.5v-0.5c0-0.277-0.223-0.5-0.5-0.5h-5zm7 0c-0.277 0-0.5 0.223-0.5 0.5v0.5c0-0.277 0.223-0.5 0.5-0.5h5c0.277 0 0.5 0.223 0.5 0.5v-0.5c0-0.277-0.223-0.5-0.5-0.5h-5zm-14 7c-0.277 0-0.5 0.223-0.5 0.5v0.5c0-0.277 0.223-0.5 0.5-0.5h5c0.277 0 0.5 0.223 0.5 0.5v-0.5c0-0.277-0.223-0.5-0.5-0.5h-5zm7 0c-0.277 0-0.5 0.223-0.5 0.5v0.5c0-0.277 0.223-0.5 0.5-0.5h5c0.277 0 0.5 0.223 0.5 0.5v-0.5c0-0.277-0.223-0.5-0.5-0.5h-5zm7 0c-0.277 0-0.5 0.223-0.5 0.5v0.5c0-0.277 0.223-0.5 0.5-0.5h5c0.277 0 0.5 0.223 0.5 0.5v-0.5c0-0.277-0.223-0.5-0.5-0.5h-5zm-14 7c-0.277 0-0.5 0.223-0.5 0.5v0.5c0-0.277 0.223-0.5 0.5-0.5h5c0.277 0 0.5 0.223 0.5 0.5v-0.5c0-0.277-0.223-0.5-0.5-0.5h-5zm7 0c-0.277 0-0.5 0.223-0.5 0.5v0.5c0-0.277 0.223-0.5 0.5-0.5h5c0.277 0 0.5 0.223 0.5 0.5v-0.5c0-0.277-0.223-0.5-0.5-0.5h-5zm7 0c-0.277 0-0.5 0.223-0.5 0.5v0.5c0-0.277 0.223-0.5 0.5-0.5h5c0.277 0 0.5 0.223 0.5 0.5v-0.5c0-0.277-0.223-0.5-0.5-0.5h-5z"/>
 </g>
</svg>
