<svg xmlns="http://www.w3.org/2000/svg" width="24" height="24" version="1"><defs>
<linearGradient id="ucPurpleBlue" x1="0%" y1="0%" x2="100%" y2="100%">
  <stop offset="0%" style="stop-color:#B794F4;stop-opacity:1"/>
  <stop offset="100%" style="stop-color:#4299E1;stop-opacity:1"/>
</linearGradient>
</defs>
 <g transform="translate(1,1)">
  <g transform="translate(-1 -.5)">
   <path fill="url(#ucPurpleBlue)" d="m5 3.5c-0.554 0-1 0.446-1 1v1c0 0.554 0.446 1 1 1h5c0.554 0 1-0.446 1-1v-1c0-0.554-0.446-1-1-1h-5zm9 0c-0.554 0-1 0.446-1 1v1c0 0.554 0.446 1 1 1h5c0.554 0 1-0.446 1-1v-1c0-0.554-0.446-1-1-1h-5z"/>
   <path fill="#fff" opacity=".2" d="m5 3.5c-0.554 0-1 0.446-1 1v0.5c0-0.554 0.446-1 1-1h5c0.554 0 1 0.446 1 1v-0.5c0-0.554-0.446-1-1-1h-5zm9 0c-0.554 0-1 0.446-1 1v0.5c0-0.554 0.446-1 1-1h5c0.554 0 1 0.446 1 1v-0.5c0-0.554-0.446-1-1-1h-5z"/>
  </g>
  <path fill="url(#ucPurpleBlue)" d="m21 19v-13c0-0.554-0.446-1-1-1h-18c-0.554 0-1 0.446-1 1v13c0 0.554 0.446 1 1 1h18c0.554 0 1-0.446 1-1z"/>
  <path opacity=".2" d="m2 20.5c-0.554 0-1-0.446-1-1v-0.5c0 0.554 0.446 1 1 1h18c0.554 0 1-0.446 1-1v0.5c0 0.554-0.446 1-1 1h-18z"/>
  <path fill="#fff" opacity=".2" d="m2 5c-0.554 0-1 0.446-1 1v0.5c0-0.554 0.446-1 1-1h18c0.554 0 1 0.446 1 1v-0.5c0-0.554-0.446-1-1-1h-18z"/>
 </g>
</svg>
