<svg width="24" height="24" version="1.1" xmlns="http://www.w3.org/2000/svg"><defs>
<linearGradient id="ucPurpleBlue" x1="0%" y1="0%" x2="100%" y2="100%">
  <stop offset="0%" style="stop-color:#B794F4;stop-opacity:1"/>
  <stop offset="100%" style="stop-color:#4299E1;stop-opacity:1"/>
</linearGradient>
</defs>
 <g transform="translate(1,1)">
  <circle cx="11" cy="11.5" r="10" style="opacity:.2"/>
  <circle cx="11" cy="11" r="10" style="fill:#8044ba"/>
  <path d="M 11,1 A 10,10 0 0 0 1,11 10,10 0 0 0 1.01075,11.291 10,10 0 0 1 11,1.5 10,10 0 0 1 20.9895,11.209 10,10 0 0 0 21,11 10,10 0 0 0 11,1 Z" style="fill:#ffffff;opacity:.1"/>
  <path d="m11 14.5h-3c-1 0-2-1-2-2v-5" style="fill:none;opacity:.2;stroke-linejoin:round;stroke-width:2;stroke:#000000"/>
  <path d="m11 14h-3c-1 0-2-1-2-2v-5" style="fill:none;stroke-linejoin:round;stroke-width:2;stroke:#9e9e9e"/>
  <path d="m10 8.5h6l-5 6h6" style="fill:none;opacity:.2;stroke-linejoin:round;stroke-width:2;stroke:#000000"/>
  <path d="m10 8h6l-5 6h6" style="fill:none;stroke-linejoin:round;stroke-width:2;stroke:#fefefe"/>
 </g>
</svg>
