<svg xmlns="http://www.w3.org/2000/svg" width="24" height="24" version="1"><defs>
<linearGradient id="ucPurpleBlue" x1="0%" y1="0%" x2="100%" y2="100%">
  <stop offset="0%" style="stop-color:#B794F4;stop-opacity:1"/>
  <stop offset="100%" style="stop-color:#4299E1;stop-opacity:1"/>
</linearGradient>
</defs>
 <g transform="translate(1,1)">
  <path fill="url(#ucPurpleBlue)" d="m21 19v-15c0-0.554-0.446-1-1-1h-18c-0.554 0-1 0.446-1 1v15c0 0.554 0.446 1 1 1h18c0.554 0 1-0.446 1-1z"/>
  <rect opacity=".2" width="14" height="11" x="4" y="6.5" rx=".945" ry="1.001"/>
  <path opacity=".2" d="m1 19v0.5c0 0.554 0.446 1 1 1h18c0.554 0 1-0.446 1-1v-0.5c0 0.554-0.446 1-1 1h-18c-0.554 0-1-0.446-1-1z"/>
  <path fill="#fff" opacity=".2" d="m2 3c-0.554 0-1 0.446-1 1v0.5c0-0.554 0.446-1 1-1h18c0.554 0 1 0.446 1 1v-0.5c0-0.554-0.446-1-1-1h-18z"/>
  <rect fill="url(#ucPurpleBlue)" width="14" height="11" x="4" y="6" rx=".945" ry="1.001"/>
  <rect opacity=".2" width="6" height="2" x="8" y="10.5" rx=".992" ry=".912"/>
  <rect fill="url(#ucPurpleBlue)" width="6" height="2" x="8" y="10" rx=".992" ry=".912"/>
 </g>
</svg>
