<svg xmlns="http://www.w3.org/2000/svg" width="24" height="24" version="1.1"><defs>
<linearGradient id="ucPurpleBlue" x1="0%" y1="0%" x2="100%" y2="100%">
  <stop offset="0%" style="stop-color:#B794F4;stop-opacity:1"/>
  <stop offset="100%" style="stop-color:#4299E1;stop-opacity:1"/>
</linearGradient>
</defs>
 <rect style="opacity:0.2" width="20" height="20" x="2" y="2.5" rx="1" ry="1"/>
 <rect style="fill:#2ec27e" width="20" height="20" x="2" y="2" rx="1" ry="1"/>
 <path style="opacity:0.2" d="m 6,6.5 v 3 6 l 2,2 v -7 l 3,2 v -3 z m 12,0 -5,3 v 3 l 3,-2 v 7 l 2,-2 v -6 z"/>
 <path style="fill:#ffffff" d="m 6,6 v 3 6 l 2,2 v -7 l 3,2 V 9 Z m 12,0 -5,3 v 3 l 3,-2 v 7 l 2,-2 V 9 Z"/>
 <path style="opacity:0.1;fill:#ffffff" d="M 3,2 C 2.446,2 2,2.446 2,3 v 0.5 c 0,-0.554 0.446,-1 1,-1 h 18 c 0.554,0 1,0.446 1,1 V 3 C 22,2.446 21.554,2 21,2 Z"/>
</svg>
