<svg xmlns="http://www.w3.org/2000/svg" width="24" height="24" version="1.1"><defs>
<linearGradient id="ucPurpleBlue" x1="0%" y1="0%" x2="100%" y2="100%">
  <stop offset="0%" style="stop-color:#B794F4;stop-opacity:1"/>
  <stop offset="100%" style="stop-color:#4299E1;stop-opacity:1"/>
</linearGradient>
</defs>
 <g transform="scale(0.5)">
  <rect style="opacity:0.2" width="40" height="40" x="4" y="5" rx="2" ry="2"/>
  <rect style="fill:#12a9e7" width="40" height="40" x="4" y="4" rx="2" ry="2"/>
  <path style="opacity:0.2;fill:#ffffff" d="M 6,4 C 4.892,4 4,4.892 4,6 V 7 C 4,5.892 4.892,5 6,5 h 36 c 1.108,0 2,0.892 2,2 V 6 C 44,4.892 43.108,4 42,4 Z"/>
  <path style="opacity:0.2" d="M 14,13 8,37 h 5 l 4,-16 4,16 h 6 l 4,-16 4,16 h 5 L 34,13 H 29 L 24,30 19,13 Z"/>
  <path style="fill:#ffffff" d="M 14,12 8,36 h 5 l 4,-16 4,16 h 6 l 4,-16 4,16 h 5 L 34,12 H 29 L 24,29 19,12 Z"/>
 </g>
</svg>
