<svg xmlns="http://www.w3.org/2000/svg" width="24" height="24" version="1"><defs>
<linearGradient id="ucPurpleBlue" x1="0%" y1="0%" x2="100%" y2="100%">
  <stop offset="0%" style="stop-color:#B794F4;stop-opacity:1"/>
  <stop offset="100%" style="stop-color:#4299E1;stop-opacity:1"/>
</linearGradient>
</defs>
 <circle style="opacity:0.2" cx="12" cy="12.5" r="10"/>
 <circle style="fill:#ff5722" cx="12" cy="12" r="10"/>
 <path style="opacity:0.2" d="m 9,9.5 c -1.1046,0 -2,0.89545 -2,2 0,1.10455 0.89545,2 2,2 1.10455,0 2,-0.89545 2,-2 H 9 Z m 4,0 v 1 h 4 v -1 z m 0,2 v 1 h 4 v -1 z m -6,3 v 1 h 8 v -1 z"/>
 <path style="fill:#ffffff" d="m 9,9 c -1.1046,0 -2,0.89545 -2,2 0,1.10455 0.89545,2 2,2 1.10455,0 2,-0.89545 2,-2 H 9 Z m 4,0 v 1 h 4 V 9 Z m 0,2 v 1 h 4 v -1 z m -6,3 v 1 h 8 v -1 z"/>
 <path style="opacity:0.2;fill:#ffffff" d="M 12,2 A 10,10 0 0 0 2,12 10,10 0 0 0 2.0107422,12.291016 10,10 0 0 1 12,2.5 10,10 0 0 1 21.989258,12.208985 10,10 0 0 0 22,12 10,10 0 0 0 12,2 Z"/>
</svg>
