<svg xmlns="http://www.w3.org/2000/svg" width="24" height="24" version="1"><defs>
<linearGradient id="ucPurpleBlue" x1="0%" y1="0%" x2="100%" y2="100%">
  <stop offset="0%" style="stop-color:#B794F4;stop-opacity:1"/>
  <stop offset="100%" style="stop-color:#4299E1;stop-opacity:1"/>
</linearGradient>
</defs>
 <circle style="opacity:0.2" cx="12" cy="12.5" r="10"/>
 <circle style="fill:#3e50b4" cx="12" cy="12" r="10"/>
 <path style="opacity:0.1;fill:#ffffff" d="M 12,2 A 10,10 0 0 0 2,12 10,10 0 0 0 2.0107422,12.291016 10,10 0 0 1 12,2.5 10,10 0 0 1 21.989258,12.208985 10,10 0 0 0 22,12 10,10 0 0 0 12,2 Z"/>
 <path style="opacity:0.2" d="m 8,16.5 v -1 h 5 v 1 z m 0,-2 v -1 h 8 v 1 z m 0,-2 v -1 h 8 v 1 z m 0,-2 V 9.4999998 h 8 V 10.5 Z"/>
 <path style="fill:#ffffff" d="m 8,16 v -1 h 5 v 1 z m 0,-2 v -1 h 8 v 1 z m 0,-2 v -1 h 8 v 1 z M 8,9.9999998 v -1 h 8 v 1 z"/>
</svg>
