<svg xmlns="http://www.w3.org/2000/svg" width="24" height="24" version="1.1"><defs>
<linearGradient id="ucPurpleBlue" x1="0%" y1="0%" x2="100%" y2="100%">
  <stop offset="0%" style="stop-color:#B794F4;stop-opacity:1"/>
  <stop offset="100%" style="stop-color:#4299E1;stop-opacity:1"/>
</linearGradient>
</defs>
 <rect style="opacity:0.2" width="20" height="20" x="2" y="2.5" ry="3.5"/>
 <rect style="fill:#2c8ffd" width="20" height="18" x="2" y="4" ry="3.5"/>
 <path style="opacity:0.2" d="m5.5 2.5c-1.94 0-3.5 1.56-3.5 3.5v2.5l10 5 10-5v-2.5c0-1.94-1.56-3.5-3.5-3.5z"/>
 <path style="fill:#c4e9f9" d="m5.5 2c-1.94 0-3.5 1.56-3.5 3.5v2.5l10 5 10-5v-2.5c0-1.94-1.56-3.5-3.5-3.5z"/>
 <path style="fill:#ffffff;opacity:0.2" d="m5.5 2c-1.94 0-3.5 1.56-3.5 3.5v0.5c0-1.94 1.56-3.5 3.5-3.5h13c1.94 0 3.5 1.56 3.5 3.5v-0.5c0-1.94-1.56-3.5-3.5-3.5z"/>
</svg>
