<svg xmlns="http://www.w3.org/2000/svg" width="24" height="24" version="1.1"><defs>
<linearGradient id="ucPurpleBlue" x1="0%" y1="0%" x2="100%" y2="100%">
  <stop offset="0%" style="stop-color:#B794F4;stop-opacity:1"/>
  <stop offset="100%" style="stop-color:#4299E1;stop-opacity:1"/>
</linearGradient>
</defs>
 <rect style="opacity:0.2" width="20" height="20" x="2" y="2.5" rx="1.5" ry="1.5"/>
 <rect style="fill:#2ec27e" width="20" height="20" x="2" y="2" rx="1.5" ry="1.5"/>
 <rect style="fill:#26a269" width="1" height="20" x="8" y="2"/>
 <rect style="fill:#26a269" width="1" height="20" x="15" y="2"/>
 <rect style="fill:#26a269" width="1" height="20" x="8" y="-22" transform="rotate(90)"/>
 <rect style="fill:#26a269" width="1" height="20" x="15" y="-22" transform="rotate(90)"/>
 <circle style="opacity:0.2" cx="12" cy="12.5" r="2"/>
 <circle style="fill:#ffffff" cx="12" cy="12" r="2"/>
 <circle style="opacity:0.2" cx="19" cy="19.5" r="2"/>
 <circle style="fill:#ffffff" cx="19" cy="19" r="2"/>
 <circle style="opacity:0.1" cx="19" cy="12.5" r="2"/>
 <circle style="fill:#3d3846" cx="19" cy="12" r="2"/>
 <circle style="opacity:0.1" cx="12" cy="19.5" r="2"/>
 <circle style="fill:#3d3846" cx="12" cy="19" r="2"/>
 <path style="opacity:0.2;fill:#ffffff" d="M 3.5,2 C 2.669,2 2,2.669 2,3.5 V 4 C 2,3.169 2.669,2.5 3.5,2.5 h 17 C 21.331,2.5 22,3.169 22,4 V 3.5 C 22,2.669 21.331,2 20.5,2 Z"/>
</svg>
