<svg xmlns="http://www.w3.org/2000/svg" width="24" height="24" version="1"><defs>
<linearGradient id="ucPurpleBlue" x1="0%" y1="0%" x2="100%" y2="100%">
  <stop offset="0%" style="stop-color:#B794F4;stop-opacity:1"/>
  <stop offset="100%" style="stop-color:#4299E1;stop-opacity:1"/>
</linearGradient>
</defs>
 <g transform="translate(1,1)">
  <rect fill="url(#ucPurpleBlue)" width="20" height="20" x="-21" y="-21" rx="1" ry="1" transform="matrix(0,-1,-1,0,0,0)"/>
  <path fill="#fff" opacity=".1" d="m2 1c-0.554 0-1 0.446-1 1v0.5c0-0.554 0.446-1 1-1h18c0.554 0 1 0.446 1 1v-0.5c0-0.554-0.446-1-1-1h-18z"/>
  <path opacity=".2" d="m2 21.5c-0.554 0-1-0.446-1-1v-0.5c0 0.554 0.446 1 1 1h18c0.554 0 1-0.446 1-1v0.5c0 0.554-0.446 1-1 1h-18z"/>
  <circle fill="#fff" stroke="#394e6f" stroke-linecap="round" stroke-linejoin="round" stroke-width=".5" cx="13" cy="10" r="2.25"/>
  <circle fill="#fff" stroke="#394e6f" stroke-linecap="round" stroke-linejoin="round" stroke-width=".5" cx="17.5" cy="14" r="1.25"/>
  <circle fill="#fff" stroke="#394e6f" stroke-linecap="round" stroke-linejoin="round" stroke-width=".5" cx="14.75" cy="12.75" r="2.5"/>
  <circle fill="#fff" stroke="#394e6f" stroke-linecap="round" stroke-linejoin="round" stroke-width=".5" cx="5.5" cy="13" r="2.25"/>
  <circle fill="#fff" stroke="#394e6f" stroke-linecap="round" stroke-linejoin="round" stroke-width=".5" cx="7.75" cy="8.25" r="1.5"/>
  <circle fill="#fff" stroke="#394e6f" stroke-linecap="round" stroke-linejoin="round" stroke-width=".5" cx="8" cy="11" r="2.75"/>
  <circle fill="#fff" stroke="#394e6f" stroke-linecap="round" stroke-linejoin="round" stroke-width=".5" cx="7.75" cy="14" r="1.25"/>
  <circle fill="#fff" stroke="#394e6f" stroke-linecap="round" stroke-linejoin="round" stroke-width=".5" cx="10.25" cy="8.75" r="2.5"/>
  <circle fill="#fff" stroke="#394e6f" stroke-linecap="round" stroke-linejoin="round" stroke-width=".5" cx="10.999" cy="12.001" r="3.249"/>
 </g>
</svg>
