<svg xmlns="http://www.w3.org/2000/svg" width="24" height="24" version="1.1" viewBox="0 0 48 48"><defs>
<linearGradient id="ucPurpleBlue" x1="0%" y1="0%" x2="100%" y2="100%">
  <stop offset="0%" style="stop-color:#B794F4;stop-opacity:1"/>
  <stop offset="100%" style="stop-color:#4299E1;stop-opacity:1"/>
</linearGradient>
</defs>
 <g transform="translate(2,2)">
  <path fill="url(#ucPurpleBlue)" d="m12 10a12 12 0 0 0 -12 12 12 12 0 0 0 12 12 12 12 0 0 0 11.297 -8h8.703v6h8v-6h4v-8h-20.699a12 12 0 0 0 -11.301 -8z"/>
  <circle opacity=".2" cx="12" cy="23" r="4"/>
  <circle fill="url(#ucPurpleBlue)" cx="12" cy="22" r="4"/>
  <path fill="#fff" opacity=".2" d="m12 10a12 12 0 0 0 -12 12 12 12 0 0 0 0.01954 0.422 12 12 0 0 1 11.98 -11.426 12 12 0 0 1 11.301 8h20.699v-0.996h-20.699a12 12 0 0 0 -11.301 -8z"/>
  <path opacity=".2" d="m0.019531 22.43a12 12 0 0 0 -0.019531 0.57 12 12 0 0 0 12 12 12 12 0 0 0 11.297 -8h8.703v-1h-8.703a12 12 0 0 1 -11.297 8 12 12 0 0 1 -11.98 -11.57zm39.98 3.57v1h4v-1h-4zm-8 6v1h8v-1h-8z"/>
 </g>
</svg>
