<svg xmlns="http://www.w3.org/2000/svg" width="24" height="24" version="1"><defs>
<linearGradient id="ucPurpleBlue" x1="0%" y1="0%" x2="100%" y2="100%">
  <stop offset="0%" style="stop-color:#B794F4;stop-opacity:1"/>
  <stop offset="100%" style="stop-color:#4299E1;stop-opacity:1"/>
</linearGradient>
</defs>
 <g transform="translate(.99996 1)">
  <rect fill="url(#ucPurpleBlue)" width="20" height="20" x="-21" y="-21" rx="1" ry="1" transform="matrix(0,-1,-1,0,0,0)"/>
  <path opacity=".2" d="m5.9116 5.907a16.79 16.806 0 0 0 -4.6507 14.828 16.79 16.806 0 0 0 14.828 -4.642 16.79 16.806 0 0 0 4.65 -14.828 16.79 16.806 0 0 0 -14.828 4.642z"/>
  <path fill="#fff" opacity=".2" d="m2.0001 1c-0.554 0-0.99999 0.446-0.99999 0.99999v0.5c0-0.554 0.446-0.99999 0.99999-0.99999h18c0.554 0 0.99999 0.446 0.99999 0.99999v-0.5c0-0.554-0.446-0.99999-0.99999-0.99999h-18z"/>
  <path opacity=".2" d="m2.0001 21.5c-0.554 0-1-0.446-1-1v-0.5c0 0.554 0.446 0.99999 0.99999 0.99999h18c0.554 0 0.99999-0.446 0.99999-0.99999v0.5c0 0.554-0.446 0.99999-0.99999 0.99999h-18z"/>
  <circle opacity=".2" cx="11" cy="11" r="5"/>
  <circle opacity=".2" cx="11" cy="11.5" r="3"/>
  <circle fill="url(#ucPurpleBlue)" cx="11" cy="11" r="3"/>
  <circle opacity=".2" cx="17" cy="5" r="3"/>
  <circle opacity=".2" cx="17" cy="5.5" r="2"/>
  <circle fill="url(#ucPurpleBlue)" cx="17" cy="5" r="2"/>
  <circle opacity=".2" cx="5" cy="17" r="3"/>
  <circle opacity=".2" cx="5" cy="17.5" r="2"/>
  <circle fill="url(#ucPurpleBlue)" cx="5" cy="17" r="2"/>
 </g>
</svg>
