<svg xmlns="http://www.w3.org/2000/svg" width="24" height="24" version="1"><defs>
<linearGradient id="ucPurpleBlue" x1="0%" y1="0%" x2="100%" y2="100%">
  <stop offset="0%" style="stop-color:#B794F4;stop-opacity:1"/>
  <stop offset="100%" style="stop-color:#4299E1;stop-opacity:1"/>
</linearGradient>
</defs>
 <g transform="translate(1,1)">
  <rect fill="url(#ucPurpleBlue)" width="20" height="14" x="-21" y="-18" rx="7" ry="7" transform="matrix(0,-1,-1,0,0,0)"/>
  <path fill="none" stroke="#fff" stroke-linecap="square" d="m7.7066 7.7929 7 6.5-3.2066 3.5v-13.5l3.2066 3.5-7 6.5"/>
  <path fill="#fff" opacity=".1" d="m11 1c-3.878 0-7 3.122-7 7v0.5c0-3.878 3.122-7 7-7s7 3.122 7 7v-0.5c0-3.878-3.122-7-7-7z"/>
  <path opacity=".2" d="m4 14v0.5c0 3.878 3.122 7 7 7s7-3.122 7-7v-0.5c0 3.878-3.122 7-7 7s-7-3.122-7-7z"/>
 </g>
</svg>
