<svg xmlns="http://www.w3.org/2000/svg" width="24" height="24" version="1"><defs>
<linearGradient id="ucPurpleBlue" x1="0%" y1="0%" x2="100%" y2="100%">
  <stop offset="0%" style="stop-color:#B794F4;stop-opacity:1"/>
  <stop offset="100%" style="stop-color:#4299E1;stop-opacity:1"/>
</linearGradient>
</defs>
 <g transform="translate(1,1)">
  <path fill="url(#ucPurpleBlue)" d="m3 4c-0.554 0-1 0.446-1 1v12c0 0.554 0.446 1 1 1h9l2 2 2-2h3c0.554 0 1-0.446 1-1v-12c0-0.554-0.446-1-1-1z"/>
  <circle opacity=".2" cx="7" cy="8.5" r="6"/>
  <path fill="#fff" opacity=".1" d="m3 4c-0.554 0-1 0.446-1 1v0.5c0-0.554 0.446-1 1-1h16c0.554 0 1 0.446 1 1v-0.5c0-0.554-0.446-1-1-1h-16z"/>
  <circle fill="url(#ucPurpleBlue)" cx="7" cy="8" r="6"/>
  <path fill="#fff" d="m6 12v-2h2v2h-2zm0-3v-5h2v5h-2z"/>
  <path opacity=".2" d="m2 17v0.5c0 0.554 0.446 1 1 1h9l2 2 2-2h3c0.554 0 1-0.446 1-1v-0.5c0 0.554-0.446 1-1 1h-3l-2 2-2-2h-9c-0.554 0-1-0.446-1-1z"/>
 </g>
</svg>
