<svg xmlns="http://www.w3.org/2000/svg" width="24" height="24" version="1.1"><defs>
<linearGradient id="ucPurpleBlue" x1="0%" y1="0%" x2="100%" y2="100%">
  <stop offset="0%" style="stop-color:#B794F4;stop-opacity:1"/>
  <stop offset="100%" style="stop-color:#4299E1;stop-opacity:1"/>
</linearGradient>
</defs>
 <g transform="translate(1,1)">
  <path fill="url(#ucPurpleBlue)" d="m21 11a10 10 0 0 1 -10 10 10 10 0 0 1 -10 -10 10 10 0 0 1 10 -10 10 10 0 0 1 10 10z"/>
  <path opacity=".2" d="m20.99 11.209a10 10 0 0 1 -9.99 9.791 10 10 0 0 1 -9.989 -9.709 10 10 0 0 0 -0.011 0.209 10 10 0 0 0 10 10 10 10 0 0 0 10 -10 10 10 0 0 0 -0.0105 -0.291z"/>
  <path fill="#fff" opacity=".2" d="m11 1a10 10 0 0 0 -10 10 10 10 0 0 0 0.01075 0.291 10 10 0 0 1 9.989 -9.791 10 10 0 0 1 9.989 9.709 10 10 0 0 0 0.011 -0.209 10 10 0 0 0 -10 -10z"/>
  <path opacity=".2" d="m8 5.5v12h7v-3h-4v-9h-3z"/>
  <path fill="url(#ucPurpleBlue)" d="m8 5v12h7v-3h-4v-9h-3z"/>
 </g>
</svg>
