<svg xmlns="http://www.w3.org/2000/svg" width="24" height="24" version="1.1"><defs>
<linearGradient id="ucPurpleBlue" x1="0%" y1="0%" x2="100%" y2="100%">
  <stop offset="0%" style="stop-color:#B794F4;stop-opacity:1"/>
  <stop offset="100%" style="stop-color:#4299E1;stop-opacity:1"/>
</linearGradient>
</defs>
 <circle style="opacity:0.2" cx="12" cy="12.5" r="10"/>
 <circle style="fill:#008b00" cx="12" cy="12" r="10"/>
 <circle style="opacity:0.2" cx="12.5" cy="12" r="7.5"/>
 <circle style="fill:#ffffff" cx="12.5" cy="11.5" r="7.5"/>
 <path style="fill:#67da25" d="M 10,6.9032258 V 16.096774 L 17.741935,11.5 Z"/>
 <path style="opacity:0.1;fill:#ffffff" d="M 12,2 A 10,10 0 0 0 2,12 10,10 0 0 0 2.0175781,12.25 10,10 0 0 1 12,2.5 10,10 0 0 1 21.991211,12.125 10,10 0 0 0 22,12 10,10 0 0 0 12,2 Z"/>
</svg>
