<svg xmlns="http://www.w3.org/2000/svg" width="24" height="24" version="1"><defs>
<linearGradient id="ucPurpleBlue" x1="0%" y1="0%" x2="100%" y2="100%">
  <stop offset="0%" style="stop-color:#B794F4;stop-opacity:1"/>
  <stop offset="100%" style="stop-color:#4299E1;stop-opacity:1"/>
</linearGradient>
</defs>
 <circle style="opacity:0.2" cx="12" cy="12.5" r="10"/>
 <circle style="fill:#36445d" cx="12" cy="12" r="10"/>
 <path style="opacity:0.2" d="m 7,15.5 h 5 v 5 z"/>
 <path style="fill:#70bbff" d="m 7,15 h 5 v 5 z"/>
 <path style="opacity:0.2;fill:#ffffff" d="m 7,15 0.5,0.5 H 12 V 15 Z"/>
 <path style="opacity:0.2" d="m 7,10.5 h 5 v 5 z"/>
 <path style="fill:#3675fb" d="m 7,10 h 5 v 5 z"/>
 <path style="opacity:0.2" d="m 7,10.5 h 5 v -5 z"/>
 <path style="fill:#70bbff" d="m 7,10 h 5 V 5 Z"/>
 <path style="opacity:0.2" d="m 17,10.5 h -5 v -5 z"/>
 <path style="fill:#3675fb" d="M 17,10 H 12 V 5 Z"/>
 <path style="opacity:0.1;fill:#ffffff" d="M 12,2 A 10,10 0 0 0 2,12 10,10 0 0 0 2.0107422,12.291016 10,10 0 0 1 12,2.5 10,10 0 0 1 21.989258,12.208985 10,10 0 0 0 22,12 10,10 0 0 0 12,2 Z"/>
 <path style="opacity:0.2;fill:#ffffff" d="M 12,5 7,10 H 7.5 L 12,5.5 Z"/>
 <path style="opacity:0.1;fill:#ffffff" d="M 12,5 V 5.5 L 16.5,10 H 17 Z"/>
</svg>
