<svg xmlns="http://www.w3.org/2000/svg" width="24" height="24" version="1.1"><defs>
<linearGradient id="ucPurpleBlue" x1="0%" y1="0%" x2="100%" y2="100%">
  <stop offset="0%" style="stop-color:#B794F4;stop-opacity:1"/>
  <stop offset="100%" style="stop-color:#4299E1;stop-opacity:1"/>
</linearGradient>
</defs>
 <rect style="opacity:0.2" width="20" height="20" x="2" y="2.5" ry="1.5"/>
 <rect style="fill:#00aefc" width="20" height="20" x="2" y="2" ry="1.5"/>
 <path style="opacity:0.2" d="m 6,8.5 v 2 h 2 v 6 h 2 v -6 h 2 v -2 z m 7,0 v 6 c 0,0.583333 0.312058,1.139805 0.775391,1.487305 C 14.238724,16.334804 14.833334,16.5 15.5,16.5 H 19 v -2 h -3.5 c -0.317168,0 -0.454056,-0.07529 -0.5,-0.106445 V 8.5 Z"/>
 <path style="opacity:0.2;fill:#ffffff" d="M 3.5,2 C 2.669,2 2,2.669 2,3.5 V 4 C 2,3.169 2.669,2.5 3.5,2.5 h 17 C 21.331,2.5 22,3.169 22,4 V 3.5 C 22,2.669 21.331,2 20.5,2 Z"/>
 <rect style="fill:#ffffff" width="6" height="2" x="6" y="8"/>
 <rect style="fill:#ffffff" width="6" height="2" x="10" y="-10" transform="rotate(90)"/>
 <path style="fill:none;stroke:#fbfbfb;stroke-width:2" d="m 14,8 v 6 c 0,0.5 0.5,1 1.5,1 H 19"/>
</svg>
