<svg xmlns="http://www.w3.org/2000/svg" width="24" height="24" version="1"><defs>
<linearGradient id="ucPurpleBlue" x1="0%" y1="0%" x2="100%" y2="100%">
  <stop offset="0%" style="stop-color:#B794F4;stop-opacity:1"/>
  <stop offset="100%" style="stop-color:#4299E1;stop-opacity:1"/>
</linearGradient>
</defs>
 <g transform="translate(1,1)">
  <g transform="matrix(.625 0 0 .74999 1 -.49995)">
   <g>
    <path fill="url(#ucPurpleBlue)" d="m16 6-7.2 9.333-8.8-9.333 1.6 20h28.8l1.6-20-8.8 9.333z"/>
   </g>
  </g>
  <rect fill="url(#ucPurpleBlue)" width="1.803" height="1.803" x="6.61" y="24.04" transform="matrix(.55470 -.83205 .55470 .83205 0 0)"/>
  <rect fill="url(#ucPurpleBlue)" width="1.803" height="1.803" x="-6.01" y="11.42" transform="matrix(.55470 -.83205 .55470 .83205 0 0)"/>
  <rect fill="url(#ucPurpleBlue)" width="2.828" height="2.828" x="-3.54" y="16.26" transform="matrix(.70711 -.70710 .70711 .70710 0 0)"/>
  <g fill="#fff" transform="matrix(.625 0 0 .74999 1 -.49995)">
   <g>
    <path opacity=".2" transform="matrix(.8 0 0 .66667 -3.2 0)" d="m4 9 0.0723 1.092 10.928 13.908 9-14 9 14 10.928-13.908 0.072-1.092-11 14-9-14-9 14-11-14z"/>
   </g>
  </g>
  <g transform="matrix(.625 0 0 .74999 1 .000048881)">
   <g>
    <path opacity=".2" transform="matrix(.8 0 0 .66667 -3.2 0)" d="m4 9 2 30h36l2-30-0.072 0.0918-1.928 28.908h-36l-1.9277-28.908-0.0723-0.0922z"/>
   </g>
  </g>
 </g>
</svg>
