<svg xmlns="http://www.w3.org/2000/svg" width="24" height="24" version="1.1"><defs>
<linearGradient id="ucPurpleBlue" x1="0%" y1="0%" x2="100%" y2="100%">
  <stop offset="0%" style="stop-color:#B794F4;stop-opacity:1"/>
  <stop offset="100%" style="stop-color:#4299E1;stop-opacity:1"/>
</linearGradient>
</defs>
 <rect style="opacity:0.2" width="20" height="20" x="2" y="2.5" ry="1.5"/>
 <rect style="fill:#e4e4e4" width="20" height="20" x="2" y="2" ry="1.5"/>
 <path style="opacity:0.2;fill:#ffffff" d="M 3.5,2 C 2.669,2 2,2.669 2,3.5 V 4 C 2,3.169 2.669,2.5 3.5,2.5 h 17 C 21.331,2.5 22,3.169 22,4 V 3.5 C 22,2.669 21.331,2 20.5,2 Z"/>
 <path style="opacity:0.1" d="M 3.500515,5.5 10.522142,12.507209 3.500515,19.5 H 19 V 5.5 Z M 17,17.5 H 8.03272 L 13.56928,12.507209 8.03272,7.5 H 17 Z"/>
 <path style="fill:#3966ff" d="M 3.500515,5 10.522142,12.007209 3.500515,19 H 19 V 5 Z M 17,17 H 8.03272 L 13.56928,12.007209 8.03272,7 H 17 Z"/>
</svg>
