<svg xmlns="http://www.w3.org/2000/svg" width="24" height="24" version="1"><defs>
<linearGradient id="ucPurpleBlue" x1="0%" y1="0%" x2="100%" y2="100%">
  <stop offset="0%" style="stop-color:#B794F4;stop-opacity:1"/>
  <stop offset="100%" style="stop-color:#4299E1;stop-opacity:1"/>
</linearGradient>
</defs>
 <g transform="translate(1.0001 1)">
  <path fill="url(#ucPurpleBlue)" d="m11 1c-5.54 0-10 4.46-10 10s4.46 10 10 10 10-4.46 10-10-4.46-10-10-10z"/>
  <path fill="#fff" opacity=".2" d="m11 1c5.535 0 9.991 4.46 9.991 10 0 0.08394-0.004 0.16657-0.0058 0.25-0.132-5.423-4.534-9.75-9.985-9.75s-9.853 4.327-9.985 9.75c-0.002-0.08343-0.00584-0.16606-0.00584-0.25 0-5.54 4.456-10 9.991-10z"/>
  <path opacity=".2" d="m1.0059 11.25c-0.00205 0.0835-0.00585 0.166-0.00585 0.25 0 5.54 4.46 10 10 10s10-4.46 10-10c0-0.084-0.004-0.1665-0.006-0.25-0.132 5.423-4.538 9.75-9.994 9.75s-9.862-4.327-9.994-9.75z"/>
  <path fill="none" stroke="#313131" d="m6.4999 7v6s0 2.5 3 2.5 3-2.5 3-2.5v-4.5s0-1-1-1-1 1-1 1v4.5s0 2.5 3 2.5 3-2.5 3-2.5v-6"/>
 </g>
</svg>
