<svg xmlns="http://www.w3.org/2000/svg" width="24" height="24" version="1.1"><defs>
<linearGradient id="ucPurpleBlue" x1="0%" y1="0%" x2="100%" y2="100%">
  <stop offset="0%" style="stop-color:#B794F4;stop-opacity:1"/>
  <stop offset="100%" style="stop-color:#4299E1;stop-opacity:1"/>
</linearGradient>
</defs>
 <rect style="opacity:.2" width="20" height="20" x="2" y="2.5" rx="2" ry="2"/>
 <rect style="fill:#ab47bc" width="20" height="20" x="2" y="2" rx="2" ry="2"/>
 <path style="stroke:#ffffff;stroke-linecap:round;fill:none" d="m5.5 7.5c4.5 0 2.5 4.5 6.5 4.5s2-4.5 6.5-4.5"/>
 <path style="stroke:#ffffff;stroke-linecap:round;fill:none" d="m5.5 16.5c4.5 0 2.5-4.5 6.5-4.5s2 4.5 6.5 4.5"/>
 <path style="opacity:.2;fill:#ffffff" d="m4 2c-1.108 0-2 0.892-2 2v0.5c0-1.108 0.892-2 2-2h16c1.108 0 2 0.892 2 2v-0.5c0-1.108-0.892-2-2-2h-16z"/>
</svg>
