<svg xmlns="http://www.w3.org/2000/svg" width="24" height="24" version="1.1"><defs>
<linearGradient id="ucPurpleBlue" x1="0%" y1="0%" x2="100%" y2="100%">
  <stop offset="0%" style="stop-color:#B794F4;stop-opacity:1"/>
  <stop offset="100%" style="stop-color:#4299E1;stop-opacity:1"/>
</linearGradient>
</defs>
 <path style="fill:#ffc933" d="m4 2h16c0.554 0 1 0.446 1 1v18c0 0.554-0.446 1-1 1h-16c-0.554 0-1-0.446-1-1v-18c0-0.554 0.446-1 1-1z"/>
 <path style="fill:#5883e8" d="m15 2v11l1-1h1l1 1v-11z"/>
 <path style="opacity:.2" d="m4 2c-0.554 0-1 0.446-1 1v18c0 0.9625 1 1 1 1h2v-20z"/>
 <path style="opacity:.2;fill:#ffffff" d="m4 2c-0.554 0-1 0.446-1 1v0.5c0-0.554 0.446-1 1-1h16c0.554 0 1 0.446 1 1v-0.5c0-0.554-0.446-1-1-1z"/>
 <path style="opacity:.2" d="m3 21v0.5c0 0.554 0.446 1 1 1h16c0.554 0 1-0.446 1-1v-0.5c0 0.554-0.446 1-1 1h-16c-0.554 0-1-0.446-1-1z"/>
</svg>
