<svg xmlns="http://www.w3.org/2000/svg" width="24" height="24" version="1.1"><defs>
<linearGradient id="ucPurpleBlue" x1="0%" y1="0%" x2="100%" y2="100%">
  <stop offset="0%" style="stop-color:#B794F4;stop-opacity:1"/>
  <stop offset="100%" style="stop-color:#4299E1;stop-opacity:1"/>
</linearGradient>
</defs>
 <circle style="opacity:0.2" cx="12" cy="12.5" r="10"/>
 <circle style="fill:#ffcc00" cx="12" cy="12" r="10"/>
 <circle style="opacity:0.1" cx="12" cy="16.5" r="6"/>
 <path style="opacity:0.2;fill:#ffffff" d="M 12,2 A 10,10 0 0 0 2,12 10,10 0 0 0 2.01075,12.291 10,10 0 0 1 12,2.5 10,10 0 0 1 21.9895,12.209 10,10 0 0 0 22,12 10,10 0 0 0 12,2 Z"/>
 <circle style="fill:#ff2626" cx="12" cy="16" r="6"/>
 <circle style="opacity:0.1" cx="12" cy="19.5" r="3"/>
 <circle style="fill:#ffcc00" cx="12" cy="19" r="3"/>
 <path style="fill:#ffffff;opacity:0.2" d="M 12 16 A 3 3 0 0 0 9 19 A 3 3 0 0 0 9.0175781 19.25 A 3 3 0 0 1 12 16.5 A 3 3 0 0 1 14.986328 19.199219 A 3 3 0 0 0 15 19 A 3 3 0 0 0 12 16 z"/>
</svg>
