<svg xmlns="http://www.w3.org/2000/svg" width="24" height="24" version="1"><defs>
<linearGradient id="ucPurpleBlue" x1="0%" y1="0%" x2="100%" y2="100%">
  <stop offset="0%" style="stop-color:#B794F4;stop-opacity:1"/>
  <stop offset="100%" style="stop-color:#4299E1;stop-opacity:1"/>
</linearGradient>
</defs>
 <circle style="opacity:0.2" cx="12" cy="12.5" r="10"/>
 <circle style="fill:#fa2235" cx="12" cy="12" r="10"/>
 <path style="opacity:0.2" transform="matrix(0.49074776,0,0,0.5,-0.05777576,0.16692477)" d="m 35.777597,24.666151 -8.660253,5 -8.660254,4.999999 0,-9.999999 0,-9.999999 8.660254,4.999999 z"/>
 <path style="fill:#ffffff" transform="matrix(0.49074776,0,0,0.5,-0.05777576,-0.33307552)" d="m 35.777597,24.666151 -8.660253,5 -8.660254,4.999999 0,-9.999999 0,-9.999999 8.660254,4.999999 z"/>
 <path style="opacity:0.2;fill:#ffffff" d="M 12,2 A 10,10 0 0 0 2,12 10,10 0 0 0 2.0107422,12.291016 10,10 0 0 1 12,2.5 10,10 0 0 1 21.989258,12.208985 10,10 0 0 0 22,12 10,10 0 0 0 12,2 Z"/>
</svg>
