<svg xmlns="http://www.w3.org/2000/svg" width="22" height="22" version="1.1"><defs>
<linearGradient id="ucPurpleBlue" x1="0%" y1="0%" x2="100%" y2="100%">
  <stop offset="0%" style="stop-color:#B794F4;stop-opacity:1"/>
  <stop offset="100%" style="stop-color:#4299E1;stop-opacity:1"/>
</linearGradient>
</defs>
 <g>
  <path style="opacity:0.2" d="m 4,1.5 c -0.554,0 -1,0.446 -1,1 v 18 c 0,0.554 0.446,1 1,1 h 14 c 0.554,0 1,-0.446 1,-1 V 7.5 L 13.5,7 13,1.5 Z"/>
  <path style="fill:#0a99d6" d="M 4,1 C 3.446,1 3,1.446 3,2 v 18 c 0,0.554 0.446,1 1,1 h 14 c 0.554,0 1,-0.446 1,-1 V 7 L 13.5,6.5 13,1 Z"/>
  <path style="opacity:0.2;fill:#ffffff" d="M 4,1 C 3.446,1 3,1.446 3,2 v 0.5 c 0,-0.554 0.446,-1 1,-1 h 9 L 18.5,7 H 19 L 13,1 Z"/>
  <path style="opacity:0.2" d="m 13,1.5 v 5 c 0,0.5523 0.447715,1 1,1 h 5 z"/>
  <path style="fill:#6ac1e6" d="m 13,1 v 5 c 0,0.5523 0.447715,1 1,1 h 5 z"/>
  <path style="opacity:0.2" d="m 11,9.5 a 5,5 0 0 0 -5,5 h 3 v -2 l 3,3 -3,3 v -2 H 6.4238281 A 5,5 0 0 0 11,19.5 a 5,5 0 0 0 5,-5 5,5 0 0 0 -5,-5 z"/>
  <path style="fill:#ffffff" d="m 11,9 a 5,5 0 0 0 -5,5 h 3 v -2 l 3,3 -3,3 V 16 H 6.4238281 A 5,5 0 0 0 11,19 5,5 0 0 0 16,14 5,5 0 0 0 11,9 Z"/>
 </g>
</svg>
