<svg xmlns="http://www.w3.org/2000/svg" width="22" height="22" version="1"><defs>
<linearGradient id="ucPurpleBlue" x1="0%" y1="0%" x2="100%" y2="100%">
  <stop offset="0%" style="stop-color:#B794F4;stop-opacity:1"/>
  <stop offset="100%" style="stop-color:#4299E1;stop-opacity:1"/>
</linearGradient>
</defs>
 <path style="opacity:0.2" d="m 4,1.5 c -0.554,0 -1,0.446 -1,1 v 18 c 0,0.554 0.446,1 1,1 h 14 c 0.554,0 1,-0.446 1,-1 V 7.5 L 13.5,7 13,1.5 Z"/>
 <path fill="url(#ucPurpleBlue)" d="M 4,1 C 3.446,1 3,1.446 3,2 v 18 c 0,0.554 0.446,1 1,1 h 14 c 0.554,0 1,-0.446 1,-1 V 7 L 13.5,6.5 13,1 Z"/>
 <path fill="url(#ucPurpleBlue)" opacity=".2" d="M 4,1 C 3.446,1 3,1.446 3,2 v 0.5 c 0,-0.554 0.446,-1 1,-1 h 9 L 18.5,7 H 19 L 13,1 Z"/>
 <path style="opacity:0.2" d="m 13,1.5 v 5 c 0,0.5523 0.447715,1 1,1 h 5 z"/>
 <path fill="url(#ucPurpleBlue)" d="m 13,1 v 5 c 0,0.5523 0.447715,1 1,1 h 5 z"/>
 <path style="fill:#727272" d="m 10,10 v 4 h 3 v -4 z m 1,1 h 1 v 2 h -1 z"/>
 <path style="fill:#727272" d="M 7,5 V 6 H 8 V 9 H 9 V 5 Z"/>
 <path style="fill:#727272" d="m 10,15 v 4 h 3 v -4 z m 1,1 h 1 v 2 h -1 z"/>
 <path style="fill:#727272" d="m 7,10 v 1 h 1 v 3 h 1 v -4 z"/>
 <path style="fill:#727272" d="m 7,15 v 1 h 1 v 3 h 1 v -4 z"/>
 <path style="fill:#727272" d="m 14,15 v 1 h 1 v 3 h 1 v -4 z"/>
</svg>
