<svg xmlns="http://www.w3.org/2000/svg" width="16" height="16" version="1.1"><defs>
<linearGradient id="ucPurpleBlue" x1="0%" y1="0%" x2="100%" y2="100%">
  <stop offset="0%" style="stop-color:#B794F4;stop-opacity:1"/>
  <stop offset="100%" style="stop-color:#4299E1;stop-opacity:1"/>
</linearGradient>
</defs>
 <path style="fill:#444444" class="ColorScheme-Text" d="M 2,2 C 1.446,2 1,2.446 1,3 V 12 C 1,12.554 1.446,13 2,13 H 0 V 14 C 0,14.554 0.892,15 2,15 H 14 C 15.108,15 16,14.554 16,14 V 13 H 14 C 14.554,13 15,12.554 15,12 V 3 C 15,2.446 14.554,2 14,2 Z M 3,4 H 13 V 12 H 3 Z M 6,13 H 10 V 14 H 6 Z"/>
</svg>
