<svg xmlns="http://www.w3.org/2000/svg" width="16" height="16" version="1.1"><defs>
<linearGradient id="ucPurpleBlue" x1="0%" y1="0%" x2="100%" y2="100%">
  <stop offset="0%" style="stop-color:#B794F4;stop-opacity:1"/>
  <stop offset="100%" style="stop-color:#4299E1;stop-opacity:1"/>
</linearGradient>
</defs>
 <path style="fill:#444444" d="M 7.5,1 C 3.91,1 1,3.91 1,7.5 1,11.09 3.91,14 7.5,14 11.09,14 14,11.09 14,7.5 14,3.91 11.09,1 7.5,1 Z M 7.5,2 C 10.54,2 13,4.46 13,7.5 13,10.54 10.54,13 7.5,13 4.46,13 2,10.54 2,7.5 2,4.46 4.46,2 7.5,2 Z M 7,4 V 7 H 4.75 V 8 H 8 V 4 Z"/>
</svg>
